%TF.GenerationSoftware,KiCad,Pcbnew,8.0.3*%
%TF.CreationDate,2024-07-29T20:38:44-07:00*%
%TF.ProjectId,First,46697273-742e-46b6-9963-61645f706362,rev?*%
%TF.SameCoordinates,Original*%
%TF.FileFunction,Copper,L2,Bot*%
%TF.FilePolarity,Positive*%
%FSLAX46Y46*%
G04 Gerber Fmt 4.6, Leading zero omitted, Abs format (unit mm)*
G04 Created by KiCad (PCBNEW 8.0.3) date 2024-07-29 20:38:44*
%MOMM*%
%LPD*%
G01*
G04 APERTURE LIST*
%TA.AperFunction,ComponentPad*%
%ADD10R,1.700000X1.700000*%
%TD*%
%TA.AperFunction,ComponentPad*%
%ADD11O,1.700000X1.700000*%
%TD*%
%TA.AperFunction,ComponentPad*%
%ADD12R,2.000000X2.000000*%
%TD*%
%TA.AperFunction,ComponentPad*%
%ADD13O,2.000000X1.600000*%
%TD*%
%TA.AperFunction,ComponentPad*%
%ADD14C,1.600000*%
%TD*%
%TA.AperFunction,ComponentPad*%
%ADD15O,1.600000X1.600000*%
%TD*%
%TA.AperFunction,ComponentPad*%
%ADD16R,2.500000X2.500000*%
%TD*%
%TA.AperFunction,ComponentPad*%
%ADD17C,2.500000*%
%TD*%
%TA.AperFunction,ComponentPad*%
%ADD18C,2.000000*%
%TD*%
%TA.AperFunction,ComponentPad*%
%ADD19R,1.800000X1.800000*%
%TD*%
%TA.AperFunction,ComponentPad*%
%ADD20C,1.800000*%
%TD*%
%TA.AperFunction,ViaPad*%
%ADD21C,0.600000*%
%TD*%
%TA.AperFunction,Conductor*%
%ADD22C,0.200000*%
%TD*%
G04 APERTURE END LIST*
D10*
%TO.P,J8,1,Pin_1*%
%TO.N,Net-(J2-Pin_8)*%
X181500000Y-111000000D03*
D11*
%TO.P,J8,2,Pin_2*%
X181500000Y-113540000D03*
%TO.P,J8,3,Pin_3*%
X181500000Y-116080000D03*
%TO.P,J8,4,Pin_4*%
X181500000Y-118620000D03*
%TO.P,J8,5,Pin_5*%
X181500000Y-121160000D03*
%TD*%
D12*
%TO.P,U4,1,~{RST}*%
%TO.N,Net-(U2-~{RST})*%
X153000000Y-76220000D03*
D13*
%TO.P,U4,2,A0*%
%TO.N,Net-(J1-Pin_2)*%
X153000000Y-78760000D03*
%TO.P,U4,3,D0*%
%TO.N,Net-(J1-Pin_3)*%
X153000000Y-81300000D03*
%TO.P,U4,4,SCK/D5*%
%TO.N,Net-(J1-Pin_4)*%
X153000000Y-83840000D03*
%TO.P,U4,5,MISO/D6*%
%TO.N,Net-(J1-Pin_5)*%
X153000000Y-86380000D03*
%TO.P,U4,6,MOSI/D7*%
%TO.N,Net-(J1-Pin_6)*%
X153000000Y-88920000D03*
%TO.P,U4,7,CS/D8*%
%TO.N,Net-(J1-Pin_7)*%
X153000000Y-91460000D03*
%TO.P,U4,8,3V3*%
%TO.N,Net-(U2-3V3)*%
X153000000Y-94000000D03*
%TO.P,U4,9,5V*%
%TO.N,Net-(U2-5V)*%
X175860000Y-94000000D03*
%TO.P,U4,10,GND*%
%TO.N,GND*%
X175860000Y-91460000D03*
%TO.P,U4,11,D4*%
%TO.N,Net-(J2-Pin_6)*%
X175860000Y-88920000D03*
%TO.P,U4,12,D3*%
%TO.N,Net-(J2-Pin_5)*%
X175860000Y-86380000D03*
%TO.P,U4,13,SDA/D2*%
%TO.N,Net-(J2-Pin_4)*%
X175860000Y-83840000D03*
%TO.P,U4,14,SCL/D1*%
%TO.N,Net-(J2-Pin_3)*%
X175860000Y-81300000D03*
%TO.P,U4,15,RX*%
%TO.N,Net-(J2-Pin_2)*%
X175860000Y-78760000D03*
%TO.P,U4,16,TX*%
%TO.N,Net-(J2-Pin_1)*%
X175860000Y-76220000D03*
%TD*%
D12*
%TO.P,U1,1,~{RST}*%
%TO.N,Net-(J1-Pin_1)*%
X117140000Y-121500000D03*
D13*
%TO.P,U1,2,A0*%
%TO.N,Net-(J1-Pin_2)*%
X117140000Y-124040000D03*
%TO.P,U1,3,D0*%
%TO.N,Net-(J1-Pin_3)*%
X117140000Y-126580000D03*
%TO.P,U1,4,SCK/D5*%
%TO.N,Net-(J1-Pin_4)*%
X117140000Y-129120000D03*
%TO.P,U1,5,MISO/D6*%
%TO.N,Net-(J1-Pin_5)*%
X117140000Y-131660000D03*
%TO.P,U1,6,MOSI/D7*%
%TO.N,Net-(J1-Pin_6)*%
X117140000Y-134200000D03*
%TO.P,U1,7,CS/D8*%
%TO.N,Net-(J1-Pin_7)*%
X117140000Y-136740000D03*
%TO.P,U1,8,3V3*%
%TO.N,Net-(J1-Pin_8)*%
X117140000Y-139280000D03*
%TO.P,U1,9,5V*%
%TO.N,Net-(J2-Pin_8)*%
X140000000Y-139280000D03*
%TO.P,U1,10,GND*%
%TO.N,GND*%
X140000000Y-136740000D03*
%TO.P,U1,11,D4*%
%TO.N,Net-(J2-Pin_6)*%
X140000000Y-134200000D03*
%TO.P,U1,12,D3*%
%TO.N,Net-(J2-Pin_5)*%
X140000000Y-131660000D03*
%TO.P,U1,13,SDA/D2*%
%TO.N,Net-(J2-Pin_4)*%
X140000000Y-129120000D03*
%TO.P,U1,14,SCL/D1*%
%TO.N,Net-(J2-Pin_3)*%
X140000000Y-126580000D03*
%TO.P,U1,15,RX*%
%TO.N,Net-(J2-Pin_2)*%
X140000000Y-124040000D03*
%TO.P,U1,16,TX*%
%TO.N,Net-(J2-Pin_1)*%
X140000000Y-121500000D03*
%TD*%
D14*
%TO.P,R1,1*%
%TO.N,Net-(D1-A)*%
X181310000Y-60000000D03*
D15*
%TO.P,R1,2*%
%TO.N,Net-(J2-Pin_8)*%
X173690000Y-60000000D03*
%TD*%
D16*
%TO.P,J4,1,Pin_1*%
%TO.N,Net-(J1-Pin_1)*%
X193000000Y-110500000D03*
D17*
%TO.P,J4,2,Pin_2*%
%TO.N,Net-(J1-Pin_2)*%
X193000000Y-115500000D03*
%TO.P,J4,3,Pin_3*%
%TO.N,Net-(J1-Pin_3)*%
X193000000Y-120500000D03*
%TO.P,J4,4,Pin_4*%
%TO.N,Net-(J1-Pin_4)*%
X193000000Y-125500000D03*
%TO.P,J4,5,Pin_5*%
%TO.N,Net-(J1-Pin_5)*%
X193000000Y-130500000D03*
%TO.P,J4,6,Pin_6*%
%TO.N,Net-(J1-Pin_6)*%
X193000000Y-135500000D03*
%TO.P,J4,7,Pin_7*%
%TO.N,Net-(J1-Pin_7)*%
X193000000Y-140500000D03*
%TO.P,J4,8,Pin_8*%
%TO.N,Net-(J1-Pin_8)*%
X193000000Y-145500000D03*
%TD*%
D16*
%TO.P,J3,1,Pin_1*%
%TO.N,Net-(J2-Pin_1)*%
X193000000Y-61000000D03*
D17*
%TO.P,J3,2,Pin_2*%
%TO.N,Net-(J2-Pin_2)*%
X193000000Y-66000000D03*
%TO.P,J3,3,Pin_3*%
%TO.N,Net-(J2-Pin_3)*%
X193000000Y-71000000D03*
%TO.P,J3,4,Pin_4*%
%TO.N,Net-(J2-Pin_4)*%
X193000000Y-76000000D03*
%TO.P,J3,5,Pin_5*%
%TO.N,Net-(J2-Pin_5)*%
X193000000Y-81000000D03*
%TO.P,J3,6,Pin_6*%
%TO.N,Net-(J2-Pin_6)*%
X193000000Y-86000000D03*
%TO.P,J3,7,Pin_7*%
%TO.N,GND*%
X193000000Y-91000000D03*
%TO.P,J3,8,Pin_8*%
%TO.N,Net-(J2-Pin_8)*%
X193000000Y-96000000D03*
%TD*%
D12*
%TO.P,U2,1,~{RST}*%
%TO.N,Net-(U2-~{RST})*%
X153140000Y-121500000D03*
D13*
%TO.P,U2,2,A0*%
%TO.N,Net-(J1-Pin_2)*%
X153140000Y-124040000D03*
%TO.P,U2,3,D0*%
%TO.N,Net-(J1-Pin_3)*%
X153140000Y-126580000D03*
%TO.P,U2,4,SCK/D5*%
%TO.N,Net-(J1-Pin_4)*%
X153140000Y-129120000D03*
%TO.P,U2,5,MISO/D6*%
%TO.N,Net-(J1-Pin_5)*%
X153140000Y-131660000D03*
%TO.P,U2,6,MOSI/D7*%
%TO.N,Net-(J1-Pin_6)*%
X153140000Y-134200000D03*
%TO.P,U2,7,CS/D8*%
%TO.N,Net-(J1-Pin_7)*%
X153140000Y-136740000D03*
%TO.P,U2,8,3V3*%
%TO.N,Net-(U2-3V3)*%
X153140000Y-139280000D03*
%TO.P,U2,9,5V*%
%TO.N,Net-(U2-5V)*%
X176000000Y-139280000D03*
%TO.P,U2,10,GND*%
%TO.N,GND*%
X176000000Y-136740000D03*
%TO.P,U2,11,D4*%
%TO.N,Net-(J2-Pin_6)*%
X176000000Y-134200000D03*
%TO.P,U2,12,D3*%
%TO.N,Net-(J2-Pin_5)*%
X176000000Y-131660000D03*
%TO.P,U2,13,SDA/D2*%
%TO.N,Net-(J2-Pin_4)*%
X176000000Y-129120000D03*
%TO.P,U2,14,SCL/D1*%
%TO.N,Net-(J2-Pin_3)*%
X176000000Y-126580000D03*
%TO.P,U2,15,RX*%
%TO.N,Net-(J2-Pin_2)*%
X176000000Y-124040000D03*
%TO.P,U2,16,TX*%
%TO.N,Net-(J2-Pin_1)*%
X176000000Y-121500000D03*
%TD*%
D10*
%TO.P,J2,1,Pin_1*%
%TO.N,Net-(J2-Pin_1)*%
X147000000Y-121515000D03*
D11*
%TO.P,J2,2,Pin_2*%
%TO.N,Net-(J2-Pin_2)*%
X147000000Y-124055000D03*
%TO.P,J2,3,Pin_3*%
%TO.N,Net-(J2-Pin_3)*%
X147000000Y-126595000D03*
%TO.P,J2,4,Pin_4*%
%TO.N,Net-(J2-Pin_4)*%
X147000000Y-129135000D03*
%TO.P,J2,5,Pin_5*%
%TO.N,Net-(J2-Pin_5)*%
X147000000Y-131675000D03*
%TO.P,J2,6,Pin_6*%
%TO.N,Net-(J2-Pin_6)*%
X147000000Y-134215000D03*
%TO.P,J2,7,Pin_7*%
%TO.N,GND*%
X147000000Y-136755000D03*
%TO.P,J2,8,Pin_8*%
%TO.N,Net-(J2-Pin_8)*%
X147000000Y-139295000D03*
%TD*%
D12*
%TO.P,U3,1,~{RST}*%
%TO.N,Net-(U2-~{RST})*%
X117000000Y-76220000D03*
D13*
%TO.P,U3,2,A0*%
%TO.N,Net-(J1-Pin_2)*%
X117000000Y-78760000D03*
%TO.P,U3,3,D0*%
%TO.N,Net-(J1-Pin_3)*%
X117000000Y-81300000D03*
%TO.P,U3,4,SCK/D5*%
%TO.N,Net-(J1-Pin_4)*%
X117000000Y-83840000D03*
%TO.P,U3,5,MISO/D6*%
%TO.N,Net-(J1-Pin_5)*%
X117000000Y-86380000D03*
%TO.P,U3,6,MOSI/D7*%
%TO.N,Net-(J1-Pin_6)*%
X117000000Y-88920000D03*
%TO.P,U3,7,CS/D8*%
%TO.N,Net-(J1-Pin_7)*%
X117000000Y-91460000D03*
%TO.P,U3,8,3V3*%
%TO.N,Net-(U2-3V3)*%
X117000000Y-94000000D03*
%TO.P,U3,9,5V*%
%TO.N,Net-(U2-5V)*%
X139860000Y-94000000D03*
%TO.P,U3,10,GND*%
%TO.N,GND*%
X139860000Y-91460000D03*
%TO.P,U3,11,D4*%
%TO.N,Net-(J2-Pin_6)*%
X139860000Y-88920000D03*
%TO.P,U3,12,D3*%
%TO.N,Net-(J2-Pin_5)*%
X139860000Y-86380000D03*
%TO.P,U3,13,SDA/D2*%
%TO.N,Net-(J2-Pin_4)*%
X139860000Y-83840000D03*
%TO.P,U3,14,SCL/D1*%
%TO.N,Net-(J2-Pin_3)*%
X139860000Y-81300000D03*
%TO.P,U3,15,RX*%
%TO.N,Net-(J2-Pin_2)*%
X139860000Y-78760000D03*
%TO.P,U3,16,TX*%
%TO.N,Net-(J2-Pin_1)*%
X139860000Y-76220000D03*
%TD*%
D10*
%TO.P,J1,1,Pin_1*%
%TO.N,Net-(J1-Pin_1)*%
X107500000Y-121515000D03*
D11*
%TO.P,J1,2,Pin_2*%
%TO.N,Net-(J1-Pin_2)*%
X107500000Y-124055000D03*
%TO.P,J1,3,Pin_3*%
%TO.N,Net-(J1-Pin_3)*%
X107500000Y-126595000D03*
%TO.P,J1,4,Pin_4*%
%TO.N,Net-(J1-Pin_4)*%
X107500000Y-129135000D03*
%TO.P,J1,5,Pin_5*%
%TO.N,Net-(J1-Pin_5)*%
X107500000Y-131675000D03*
%TO.P,J1,6,Pin_6*%
%TO.N,Net-(J1-Pin_6)*%
X107500000Y-134215000D03*
%TO.P,J1,7,Pin_7*%
%TO.N,Net-(J1-Pin_7)*%
X107500000Y-136755000D03*
%TO.P,J1,8,Pin_8*%
%TO.N,Net-(J1-Pin_8)*%
X107500000Y-139295000D03*
%TD*%
D18*
%TO.P,SW1,1,1*%
%TO.N,GND*%
X103750000Y-81250000D03*
X103750000Y-74750000D03*
%TO.P,SW1,2,2*%
%TO.N,Net-(J1-Pin_1)*%
X108250000Y-81250000D03*
X108250000Y-74750000D03*
%TD*%
D10*
%TO.P,J6,1,Pin_1*%
%TO.N,GND*%
X181500000Y-76000000D03*
D11*
%TO.P,J6,2,Pin_2*%
X181500000Y-78540000D03*
%TO.P,J6,3,Pin_3*%
X181500000Y-81080000D03*
%TO.P,J6,4,Pin_4*%
X181500000Y-83620000D03*
%TO.P,J6,5,Pin_5*%
X181500000Y-86160000D03*
%TD*%
D10*
%TO.P,J5,1,Pin_1*%
%TO.N,Net-(J1-Pin_8)*%
X181500000Y-92500000D03*
D11*
%TO.P,J5,2,Pin_2*%
X181500000Y-95040000D03*
%TO.P,J5,3,Pin_3*%
X181500000Y-97580000D03*
%TO.P,J5,4,Pin_4*%
X181500000Y-100120000D03*
%TO.P,J5,5,Pin_5*%
X181500000Y-102660000D03*
%TD*%
D19*
%TO.P,D1,1,K*%
%TO.N,GND*%
X164725000Y-60000000D03*
D20*
%TO.P,D1,2,A*%
%TO.N,Net-(D1-A)*%
X167265000Y-60000000D03*
%TD*%
D21*
%TO.N,Net-(U2-5V)*%
X140042800Y-95764700D03*
%TO.N,Net-(J2-Pin_8)*%
X179128400Y-134190500D03*
X180443500Y-130838100D03*
%TO.N,Net-(J2-Pin_2)*%
X174779500Y-122392200D03*
%TO.N,Net-(J2-Pin_6)*%
X172553300Y-132359400D03*
%TO.N,Net-(J1-Pin_3)*%
X151003000Y-116624400D03*
%TO.N,Net-(J1-Pin_6)*%
X135785000Y-77732600D03*
%TO.N,GND*%
X179765200Y-132388400D03*
%TD*%
D22*
%TO.N,Net-(U2-~{RST})*%
X153140000Y-121500000D02*
X153140000Y-120198300D01*
X153000000Y-76220000D02*
X151698300Y-76220000D01*
X117000000Y-76220000D02*
X118301700Y-76220000D01*
X138422300Y-74224800D02*
X134917400Y-77729700D01*
X149703100Y-74224800D02*
X138422300Y-74224800D01*
X151698300Y-76220000D02*
X149703100Y-74224800D01*
X134662100Y-77474500D02*
X134917400Y-77729700D01*
X119556200Y-77474500D02*
X134662100Y-77474500D01*
X118301700Y-76220000D02*
X119556200Y-77474500D01*
X135521900Y-78334300D02*
X134917400Y-77729700D01*
X136034200Y-78334300D02*
X135521900Y-78334300D01*
X138529900Y-75838600D02*
X136034200Y-78334300D01*
X138529900Y-75713900D02*
X138529900Y-75838600D01*
X139167300Y-75076500D02*
X138529900Y-75713900D01*
X140535600Y-75076500D02*
X139167300Y-75076500D01*
X142558500Y-77099400D02*
X140535600Y-75076500D01*
X142558500Y-84601900D02*
X142558500Y-77099400D01*
X142771200Y-84814600D02*
X142558500Y-84601900D01*
X142771200Y-109829500D02*
X142771200Y-84814600D01*
X153140000Y-120198300D02*
X142771200Y-109829500D01*
%TO.N,Net-(U2-3V3)*%
X117000000Y-94000000D02*
X117000000Y-95101700D01*
X153140000Y-139280000D02*
X153140000Y-138178300D01*
X152038300Y-138178300D02*
X153140000Y-138178300D01*
X149345000Y-135485000D02*
X152038300Y-138178300D01*
X129412700Y-135485000D02*
X149345000Y-135485000D01*
X124317700Y-130390000D02*
X129412700Y-135485000D01*
X116638200Y-130390000D02*
X124317700Y-130390000D01*
X114613700Y-128365500D02*
X116638200Y-130390000D01*
X114613700Y-97488000D02*
X114613700Y-128365500D01*
X117000000Y-95101700D02*
X114613700Y-97488000D01*
%TO.N,Net-(U2-5V)*%
X140042800Y-95284500D02*
X140042800Y-95764700D01*
X139860000Y-95101700D02*
X140042800Y-95284500D01*
X139860000Y-94000000D02*
X139860000Y-95101700D01*
%TO.N,Net-(J2-Pin_8)*%
X178755000Y-85067100D02*
X191344000Y-97656000D01*
X178755000Y-82404500D02*
X178755000Y-85067100D01*
X176500500Y-80150000D02*
X178755000Y-82404500D01*
X175436700Y-80150000D02*
X176500500Y-80150000D01*
X173690000Y-78403300D02*
X175436700Y-80150000D01*
X173690000Y-60000000D02*
X173690000Y-78403300D01*
X181500000Y-107500000D02*
X191344000Y-97656000D01*
X181500000Y-111000000D02*
X181500000Y-107500000D01*
X191344000Y-97656000D02*
X193000000Y-96000000D01*
X181500000Y-118620000D02*
X181500000Y-116080000D01*
X181500000Y-116080000D02*
X181500000Y-113540000D01*
X181500000Y-113540000D02*
X181500000Y-111000000D01*
X181500000Y-121160000D02*
X181500000Y-118620000D01*
X181500000Y-121160000D02*
X181500000Y-122311700D01*
X147000000Y-139295000D02*
X148151700Y-139295000D01*
X180443500Y-123368200D02*
X181500000Y-122311700D01*
X180443500Y-130838100D02*
X180443500Y-123368200D01*
X179128400Y-138028900D02*
X179128400Y-134190500D01*
X176312000Y-140845300D02*
X179128400Y-138028900D01*
X149702000Y-140845300D02*
X176312000Y-140845300D01*
X148151700Y-139295000D02*
X149702000Y-140845300D01*
%TO.N,Net-(J2-Pin_2)*%
X139860000Y-78760000D02*
X139860000Y-79861700D01*
X140000000Y-124040000D02*
X140000000Y-122938300D01*
X176000000Y-124040000D02*
X176000000Y-122938300D01*
X175325600Y-122938300D02*
X174779500Y-122392200D01*
X176000000Y-122938300D02*
X175325600Y-122938300D01*
X188620000Y-66000000D02*
X193000000Y-66000000D01*
X176961700Y-77658300D02*
X188620000Y-66000000D01*
X175860000Y-77658300D02*
X176961700Y-77658300D01*
X175860000Y-78760000D02*
X175860000Y-77658300D01*
X140273100Y-79861700D02*
X139860000Y-79861700D01*
X141571700Y-81160300D02*
X140273100Y-79861700D01*
X141571700Y-84751100D02*
X141571700Y-81160300D01*
X141967800Y-85147200D02*
X141571700Y-84751100D01*
X141967800Y-116120000D02*
X141967800Y-85147200D01*
X138696400Y-119391400D02*
X141967800Y-116120000D01*
X138696400Y-121960900D02*
X138696400Y-119391400D01*
X139673800Y-122938300D02*
X138696400Y-121960900D01*
X140000000Y-122938300D02*
X139673800Y-122938300D01*
%TO.N,Net-(J2-Pin_3)*%
X140188300Y-82401700D02*
X139860000Y-82401700D01*
X141165100Y-83378500D02*
X140188300Y-82401700D01*
X141165100Y-85319000D02*
X141165100Y-83378500D01*
X141564600Y-85718500D02*
X141165100Y-85319000D01*
X141564600Y-96007900D02*
X141564600Y-85718500D01*
X138279400Y-99293100D02*
X141564600Y-96007900D01*
X138279400Y-124170800D02*
X138279400Y-99293100D01*
X139586900Y-125478300D02*
X138279400Y-124170800D01*
X140000000Y-125478300D02*
X139586900Y-125478300D01*
X140000000Y-126580000D02*
X140000000Y-125478300D01*
X139860000Y-81300000D02*
X139860000Y-82401700D01*
%TO.N,Net-(J2-Pin_4)*%
X176000000Y-129120000D02*
X176000000Y-128018300D01*
X175860000Y-83840000D02*
X175860000Y-84941700D01*
X176188300Y-84941700D02*
X175860000Y-84941700D01*
X177599400Y-86352800D02*
X176188300Y-84941700D01*
X177599400Y-126832000D02*
X177599400Y-86352800D01*
X176413100Y-128018300D02*
X177599400Y-126832000D01*
X176000000Y-128018300D02*
X176413100Y-128018300D01*
X140000000Y-129120000D02*
X140000000Y-128018300D01*
X139860000Y-83840000D02*
X139860000Y-84941700D01*
X139586900Y-128018300D02*
X140000000Y-128018300D01*
X137862400Y-126293800D02*
X139586900Y-128018300D01*
X137862400Y-91669700D02*
X137862400Y-126293800D01*
X139342100Y-90190000D02*
X137862400Y-91669700D01*
X140453300Y-90190000D02*
X139342100Y-90190000D01*
X141162900Y-89480400D02*
X140453300Y-90190000D01*
X141162900Y-85890800D02*
X141162900Y-89480400D01*
X140213800Y-84941700D02*
X141162900Y-85890800D01*
X139860000Y-84941700D02*
X140213800Y-84941700D01*
%TO.N,Net-(J2-Pin_6)*%
X175860000Y-88920000D02*
X175860000Y-90021700D01*
X172553300Y-92915300D02*
X172553300Y-132359400D01*
X175446900Y-90021700D02*
X172553300Y-92915300D01*
X175860000Y-90021700D02*
X175446900Y-90021700D01*
%TO.N,Net-(J2-Pin_1)*%
X177161700Y-75286600D02*
X177161700Y-76220000D01*
X191448300Y-61000000D02*
X177161700Y-75286600D01*
X193000000Y-61000000D02*
X191448300Y-61000000D01*
X175860000Y-76220000D02*
X177161700Y-76220000D01*
X140000000Y-121500000D02*
X140000000Y-120398300D01*
X139860000Y-76220000D02*
X139860000Y-77321700D01*
X145848300Y-121507600D02*
X142369500Y-118028800D01*
X145848300Y-121515000D02*
X145848300Y-121507600D01*
X140000000Y-120398300D02*
X142369500Y-118028800D01*
X140188300Y-77321700D02*
X139860000Y-77321700D01*
X141989800Y-79123200D02*
X140188300Y-77321700D01*
X141989800Y-84601200D02*
X141989800Y-79123200D01*
X142369500Y-84980900D02*
X141989800Y-84601200D01*
X142369500Y-118028800D02*
X142369500Y-84980900D01*
X147000000Y-121515000D02*
X145848300Y-121515000D01*
%TO.N,Net-(J2-Pin_5)*%
X176000000Y-131660000D02*
X174698300Y-131660000D01*
X175860000Y-86380000D02*
X175860000Y-87481700D01*
X174171200Y-131132900D02*
X174698300Y-131660000D01*
X174171200Y-121519200D02*
X174171200Y-131132900D01*
X177180700Y-118509700D02*
X174171200Y-121519200D01*
X177180700Y-88389300D02*
X177180700Y-118509700D01*
X176273100Y-87481700D02*
X177180700Y-88389300D01*
X175860000Y-87481700D02*
X176273100Y-87481700D01*
X139531700Y-87481700D02*
X139860000Y-87481700D01*
X137455100Y-89558300D02*
X139531700Y-87481700D01*
X137455100Y-128426500D02*
X137455100Y-89558300D01*
X139586900Y-130558300D02*
X137455100Y-128426500D01*
X140000000Y-130558300D02*
X139586900Y-130558300D01*
X140000000Y-131660000D02*
X140000000Y-130558300D01*
X139860000Y-86380000D02*
X139860000Y-87481700D01*
%TO.N,Net-(J1-Pin_7)*%
X117000000Y-91460000D02*
X117000000Y-92561700D01*
X117140000Y-136740000D02*
X117140000Y-135638300D01*
X116814700Y-135638300D02*
X117140000Y-135638300D01*
X114129200Y-132952800D02*
X116814700Y-135638300D01*
X110327000Y-136755000D02*
X114129200Y-132952800D01*
X107500000Y-136755000D02*
X110327000Y-136755000D01*
X116586900Y-92561700D02*
X117000000Y-92561700D01*
X114129200Y-95019400D02*
X116586900Y-92561700D01*
X114129200Y-132952800D02*
X114129200Y-95019400D01*
%TO.N,Net-(J1-Pin_8)*%
X181500000Y-102660000D02*
X181500000Y-100120000D01*
X181500000Y-100120000D02*
X181500000Y-97580000D01*
X181500000Y-97580000D02*
X181500000Y-95040000D01*
X181500000Y-95040000D02*
X181500000Y-92500000D01*
%TO.N,Net-(J1-Pin_1)*%
X107500000Y-121515000D02*
X107500000Y-120363300D01*
X108250000Y-81250000D02*
X108250000Y-74750000D01*
X188000000Y-133000000D02*
X197468800Y-123531200D01*
X128640000Y-133000000D02*
X188000000Y-133000000D01*
X117140000Y-121500000D02*
X128640000Y-133000000D01*
X197468800Y-116520500D02*
X193000000Y-112051700D01*
X197468800Y-123531200D02*
X197468800Y-116520500D01*
X193000000Y-110500000D02*
X193000000Y-112051700D01*
X108250000Y-119613300D02*
X107500000Y-120363300D01*
X108250000Y-81250000D02*
X108250000Y-119613300D01*
%TO.N,Net-(J1-Pin_4)*%
X153000000Y-83840000D02*
X153000000Y-84941700D01*
X153140000Y-129120000D02*
X153140000Y-128018300D01*
X153468300Y-128018300D02*
X153140000Y-128018300D01*
X154843400Y-126643200D02*
X153468300Y-128018300D01*
X154843400Y-119613900D02*
X154843400Y-126643200D01*
X151296600Y-116067100D02*
X154843400Y-119613900D01*
X151296600Y-86265000D02*
X151296600Y-116067100D01*
X152619900Y-84941700D02*
X151296600Y-86265000D01*
X153000000Y-84941700D02*
X152619900Y-84941700D01*
X117140000Y-129120000D02*
X117140000Y-128018300D01*
X117000000Y-83840000D02*
X117000000Y-84941700D01*
X116726900Y-128018300D02*
X117140000Y-128018300D01*
X115015400Y-126306800D02*
X116726900Y-128018300D01*
X115015400Y-103831600D02*
X115015400Y-126306800D01*
X118318100Y-100528900D02*
X115015400Y-103831600D01*
X118318100Y-85931500D02*
X118318100Y-100528900D01*
X117328300Y-84941700D02*
X118318100Y-85931500D01*
X117000000Y-84941700D02*
X117328300Y-84941700D01*
%TO.N,Net-(J1-Pin_5)*%
X153140000Y-131660000D02*
X153140000Y-130558300D01*
X153000000Y-86380000D02*
X153000000Y-87481700D01*
X153553100Y-130558300D02*
X153140000Y-130558300D01*
X155245100Y-128866300D02*
X153553100Y-130558300D01*
X155245100Y-101109100D02*
X155245100Y-128866300D01*
X151698300Y-97562300D02*
X155245100Y-101109100D01*
X151698300Y-88455100D02*
X151698300Y-97562300D01*
X152671700Y-87481700D02*
X151698300Y-88455100D01*
X153000000Y-87481700D02*
X152671700Y-87481700D01*
X116671700Y-87481700D02*
X117000000Y-87481700D01*
X108651700Y-95501700D02*
X116671700Y-87481700D01*
X108651700Y-129659600D02*
X108651700Y-95501700D01*
X107788000Y-130523300D02*
X108651700Y-129659600D01*
X107500000Y-130523300D02*
X107788000Y-130523300D01*
X107500000Y-131675000D02*
X107500000Y-130523300D01*
X117000000Y-86380000D02*
X117000000Y-87481700D01*
%TO.N,Net-(J1-Pin_3)*%
X153000000Y-81300000D02*
X153000000Y-82401700D01*
X153140000Y-126580000D02*
X153140000Y-125478300D01*
X153468300Y-125478300D02*
X153140000Y-125478300D01*
X154441700Y-124504900D02*
X153468300Y-125478300D01*
X154441700Y-120063100D02*
X154441700Y-124504900D01*
X151003000Y-116624400D02*
X154441700Y-120063100D01*
X150875500Y-116496900D02*
X151003000Y-116624400D01*
X150875500Y-84113100D02*
X150875500Y-116496900D01*
X152586900Y-82401700D02*
X150875500Y-84113100D01*
X153000000Y-82401700D02*
X152586900Y-82401700D01*
X117328300Y-82401700D02*
X117000000Y-82401700D01*
X118749300Y-83822700D02*
X117328300Y-82401700D01*
X118749300Y-101456500D02*
X118749300Y-83822700D01*
X115417100Y-104788700D02*
X118749300Y-101456500D01*
X115417100Y-124149400D02*
X115417100Y-104788700D01*
X116746000Y-125478300D02*
X115417100Y-124149400D01*
X117140000Y-125478300D02*
X116746000Y-125478300D01*
X117140000Y-126580000D02*
X117140000Y-125478300D01*
X117000000Y-81300000D02*
X117000000Y-82401700D01*
%TO.N,Net-(J1-Pin_6)*%
X107500000Y-134215000D02*
X107500000Y-133063300D01*
X117000000Y-88920000D02*
X117000000Y-90021700D01*
X154351800Y-87568200D02*
X153000000Y-88920000D01*
X154351800Y-80842900D02*
X154351800Y-87568200D01*
X153538900Y-80030000D02*
X154351800Y-80842900D01*
X152270000Y-80030000D02*
X153538900Y-80030000D01*
X146890600Y-74650600D02*
X152270000Y-80030000D01*
X138867000Y-74650600D02*
X146890600Y-74650600D01*
X135785000Y-77732600D02*
X138867000Y-74650600D01*
X116677700Y-90021700D02*
X117000000Y-90021700D01*
X113652300Y-93047100D02*
X116677700Y-90021700D01*
X113652300Y-127198900D02*
X113652300Y-93047100D01*
X107787900Y-133063300D02*
X113652300Y-127198900D01*
X107500000Y-133063300D02*
X107787900Y-133063300D01*
%TO.N,Net-(J1-Pin_2)*%
X117140000Y-124040000D02*
X117140000Y-122938300D01*
X117000000Y-78760000D02*
X117000000Y-79861700D01*
X117328300Y-79861700D02*
X117000000Y-79861700D01*
X119151000Y-81684400D02*
X117328300Y-79861700D01*
X119151000Y-103576600D02*
X119151000Y-81684400D01*
X115838300Y-106889300D02*
X119151000Y-103576600D01*
X115838300Y-122738300D02*
X115838300Y-106889300D01*
X116038300Y-122938300D02*
X115838300Y-122738300D01*
X117140000Y-122938300D02*
X116038300Y-122938300D01*
%TO.N,GND*%
X103750000Y-74750000D02*
X103750000Y-81250000D01*
X181500000Y-83620000D02*
X181500000Y-81080000D01*
X181500000Y-81080000D02*
X181500000Y-78540000D01*
X181500000Y-78540000D02*
X181500000Y-76000000D01*
X181500000Y-86160000D02*
X181500000Y-83620000D01*
X151802400Y-140405700D02*
X148151700Y-136755000D01*
X172334300Y-140405700D02*
X151802400Y-140405700D01*
X174898300Y-137841700D02*
X172334300Y-140405700D01*
X176000000Y-137841700D02*
X174898300Y-137841700D01*
X176000000Y-136740000D02*
X176000000Y-137841700D01*
X147000000Y-136755000D02*
X148151700Y-136755000D01*
X188160000Y-86160000D02*
X193000000Y-91000000D01*
X181500000Y-86160000D02*
X188160000Y-86160000D01*
X182690400Y-129463200D02*
X179765200Y-132388400D01*
X182690400Y-112303800D02*
X182690400Y-129463200D01*
X194600300Y-100393900D02*
X182690400Y-112303800D01*
X194600300Y-92600300D02*
X194600300Y-100393900D01*
X193000000Y-91000000D02*
X194600300Y-92600300D01*
%TD*%
%TA.AperFunction,Conductor*%
%TO.N,GND*%
G36*
X149111942Y-136105185D02*
G01*
X149132584Y-136121819D01*
X151553439Y-138542674D01*
X151553449Y-138542685D01*
X151557779Y-138547015D01*
X151557780Y-138547016D01*
X151669584Y-138658820D01*
X151670887Y-138659572D01*
X151671766Y-138660494D01*
X151676035Y-138663770D01*
X151675524Y-138664435D01*
X151719102Y-138710137D01*
X151732327Y-138778744D01*
X151726819Y-138805278D01*
X151671523Y-138975461D01*
X151671523Y-138975464D01*
X151639500Y-139177648D01*
X151639500Y-139382351D01*
X151671522Y-139584534D01*
X151734781Y-139779223D01*
X151827715Y-139961613D01*
X151890416Y-140047915D01*
X151913896Y-140113721D01*
X151898070Y-140181775D01*
X151847964Y-140230470D01*
X151790098Y-140244800D01*
X150002097Y-140244800D01*
X149935058Y-140225115D01*
X149914416Y-140208481D01*
X148639290Y-138933355D01*
X148639288Y-138933352D01*
X148520417Y-138814481D01*
X148520416Y-138814480D01*
X148433604Y-138764360D01*
X148433604Y-138764359D01*
X148433600Y-138764358D01*
X148416112Y-138754260D01*
X148383486Y-138735423D01*
X148262994Y-138703137D01*
X148203334Y-138666771D01*
X148182708Y-138635768D01*
X148174038Y-138617176D01*
X148174034Y-138617169D01*
X148038494Y-138423597D01*
X147871402Y-138256506D01*
X147871401Y-138256505D01*
X147685405Y-138126269D01*
X147641781Y-138071692D01*
X147634588Y-138002193D01*
X147666110Y-137939839D01*
X147685405Y-137923119D01*
X147871082Y-137793105D01*
X148038105Y-137626082D01*
X148173600Y-137432578D01*
X148273429Y-137218492D01*
X148273432Y-137218486D01*
X148330636Y-137005000D01*
X147433012Y-137005000D01*
X147465925Y-136947993D01*
X147500000Y-136820826D01*
X147500000Y-136689174D01*
X147465925Y-136562007D01*
X147433012Y-136505000D01*
X148330636Y-136505000D01*
X148330635Y-136504999D01*
X148273432Y-136291513D01*
X148273430Y-136291507D01*
X148259626Y-136261905D01*
X148249134Y-136192828D01*
X148277653Y-136129044D01*
X148336130Y-136090804D01*
X148372008Y-136085500D01*
X149044903Y-136085500D01*
X149111942Y-136105185D01*
G37*
%TD.AperFunction*%
%TA.AperFunction,Conductor*%
G36*
X174523731Y-133620185D02*
G01*
X174569486Y-133672989D01*
X174579430Y-133742147D01*
X174574623Y-133762819D01*
X174531522Y-133895465D01*
X174499500Y-134097648D01*
X174499500Y-134302351D01*
X174531522Y-134504534D01*
X174594781Y-134699223D01*
X174687715Y-134881613D01*
X174808028Y-135047213D01*
X174952786Y-135191971D01*
X175107749Y-135304556D01*
X175118390Y-135312287D01*
X175190424Y-135348990D01*
X175211629Y-135359795D01*
X175262425Y-135407770D01*
X175279220Y-135475591D01*
X175256682Y-135541726D01*
X175211629Y-135580765D01*
X175118650Y-135628140D01*
X174953105Y-135748417D01*
X174953104Y-135748417D01*
X174808417Y-135893104D01*
X174808417Y-135893105D01*
X174688140Y-136058650D01*
X174595244Y-136240970D01*
X174532009Y-136435586D01*
X174523391Y-136490000D01*
X175566988Y-136490000D01*
X175534075Y-136547007D01*
X175500000Y-136674174D01*
X175500000Y-136805826D01*
X175534075Y-136932993D01*
X175566988Y-136990000D01*
X174523391Y-136990000D01*
X174532009Y-137044413D01*
X174595244Y-137239029D01*
X174688140Y-137421349D01*
X174808417Y-137586894D01*
X174808417Y-137586895D01*
X174953104Y-137731582D01*
X175118652Y-137851861D01*
X175211628Y-137899234D01*
X175262425Y-137947208D01*
X175279220Y-138015029D01*
X175256683Y-138081164D01*
X175211630Y-138120203D01*
X175118388Y-138167713D01*
X174952786Y-138288028D01*
X174808028Y-138432786D01*
X174687715Y-138598386D01*
X174594781Y-138780776D01*
X174531522Y-138975465D01*
X174499500Y-139177648D01*
X174499500Y-139382351D01*
X174531522Y-139584534D01*
X174594781Y-139779223D01*
X174687715Y-139961613D01*
X174750416Y-140047915D01*
X174773896Y-140113721D01*
X174758070Y-140181775D01*
X174707964Y-140230470D01*
X174650098Y-140244800D01*
X154489902Y-140244800D01*
X154422863Y-140225115D01*
X154377108Y-140172311D01*
X154367164Y-140103153D01*
X154389584Y-140047915D01*
X154437039Y-139982597D01*
X154452287Y-139961610D01*
X154545220Y-139779219D01*
X154608477Y-139584534D01*
X154640500Y-139382352D01*
X154640500Y-139177648D01*
X154621802Y-139059596D01*
X154608477Y-138975465D01*
X154579127Y-138885137D01*
X154545220Y-138780781D01*
X154545218Y-138780778D01*
X154545218Y-138780776D01*
X154487129Y-138666771D01*
X154452287Y-138598390D01*
X154414960Y-138547013D01*
X154331971Y-138432786D01*
X154187213Y-138288028D01*
X154021614Y-138167715D01*
X154015006Y-138164348D01*
X153928917Y-138120483D01*
X153878123Y-138072511D01*
X153861328Y-138004690D01*
X153883865Y-137938555D01*
X153928917Y-137899516D01*
X154021610Y-137852287D01*
X154042770Y-137836913D01*
X154187213Y-137731971D01*
X154187215Y-137731968D01*
X154187219Y-137731966D01*
X154331966Y-137587219D01*
X154331968Y-137587215D01*
X154331971Y-137587213D01*
X154444132Y-137432834D01*
X154452287Y-137421610D01*
X154545220Y-137239219D01*
X154608477Y-137044534D01*
X154640500Y-136842352D01*
X154640500Y-136637648D01*
X154608477Y-136435465D01*
X154561649Y-136291344D01*
X154545220Y-136240781D01*
X154545218Y-136240778D01*
X154545218Y-136240776D01*
X154503035Y-136157989D01*
X154452287Y-136058390D01*
X154414962Y-136007016D01*
X154331971Y-135892786D01*
X154187213Y-135748028D01*
X154021614Y-135627715D01*
X154015006Y-135624348D01*
X153928917Y-135580483D01*
X153878123Y-135532511D01*
X153861328Y-135464690D01*
X153883865Y-135398555D01*
X153928917Y-135359516D01*
X154021610Y-135312287D01*
X154102534Y-135253493D01*
X154187213Y-135191971D01*
X154187215Y-135191968D01*
X154187219Y-135191966D01*
X154331966Y-135047219D01*
X154331968Y-135047215D01*
X154331971Y-135047213D01*
X154450187Y-134884500D01*
X154452287Y-134881610D01*
X154545220Y-134699219D01*
X154608477Y-134504534D01*
X154640500Y-134302352D01*
X154640500Y-134097648D01*
X154621802Y-133979596D01*
X154608477Y-133895465D01*
X154565377Y-133762819D01*
X154563382Y-133692977D01*
X154599462Y-133633144D01*
X154662163Y-133602316D01*
X154683308Y-133600500D01*
X174456692Y-133600500D01*
X174523731Y-133620185D01*
G37*
%TD.AperFunction*%
%TA.AperFunction,Conductor*%
G36*
X178396391Y-133620185D02*
G01*
X178442146Y-133672989D01*
X178452090Y-133742147D01*
X178434346Y-133790472D01*
X178402611Y-133840977D01*
X178343031Y-134011245D01*
X178343030Y-134011250D01*
X178322835Y-134190496D01*
X178322835Y-134190503D01*
X178343030Y-134369749D01*
X178343031Y-134369754D01*
X178402611Y-134540023D01*
X178462915Y-134635996D01*
X178489722Y-134678659D01*
X178498585Y-134692763D01*
X178500845Y-134695597D01*
X178501734Y-134697775D01*
X178502289Y-134698658D01*
X178502134Y-134698755D01*
X178527255Y-134760283D01*
X178527900Y-134772912D01*
X178527900Y-137728802D01*
X178508215Y-137795841D01*
X178491581Y-137816483D01*
X177567104Y-138740959D01*
X177505781Y-138774444D01*
X177436089Y-138769460D01*
X177380156Y-138727588D01*
X177368938Y-138709573D01*
X177347129Y-138666771D01*
X177312287Y-138598390D01*
X177274960Y-138547013D01*
X177191971Y-138432786D01*
X177047213Y-138288028D01*
X176881611Y-138167713D01*
X176788369Y-138120203D01*
X176737574Y-138072229D01*
X176720779Y-138004407D01*
X176743317Y-137938273D01*
X176788371Y-137899234D01*
X176881347Y-137851861D01*
X177046894Y-137731582D01*
X177046895Y-137731582D01*
X177191582Y-137586895D01*
X177191582Y-137586894D01*
X177311859Y-137421349D01*
X177404755Y-137239029D01*
X177467990Y-137044413D01*
X177476609Y-136990000D01*
X176433012Y-136990000D01*
X176465925Y-136932993D01*
X176500000Y-136805826D01*
X176500000Y-136674174D01*
X176465925Y-136547007D01*
X176433012Y-136490000D01*
X177476609Y-136490000D01*
X177467990Y-136435586D01*
X177404755Y-136240970D01*
X177311859Y-136058650D01*
X177191582Y-135893105D01*
X177191582Y-135893104D01*
X177046895Y-135748417D01*
X176881349Y-135628140D01*
X176788370Y-135580765D01*
X176737574Y-135532790D01*
X176720779Y-135464969D01*
X176743316Y-135398835D01*
X176788370Y-135359795D01*
X176788920Y-135359515D01*
X176881610Y-135312287D01*
X176962534Y-135253493D01*
X177047213Y-135191971D01*
X177047215Y-135191968D01*
X177047219Y-135191966D01*
X177191966Y-135047219D01*
X177191968Y-135047215D01*
X177191971Y-135047213D01*
X177310187Y-134884500D01*
X177312287Y-134881610D01*
X177405220Y-134699219D01*
X177468477Y-134504534D01*
X177500500Y-134302352D01*
X177500500Y-134097648D01*
X177481802Y-133979596D01*
X177468477Y-133895465D01*
X177425377Y-133762819D01*
X177423382Y-133692977D01*
X177459462Y-133633144D01*
X177522163Y-133602316D01*
X177543308Y-133600500D01*
X178329352Y-133600500D01*
X178396391Y-133620185D01*
G37*
%TD.AperFunction*%
%TA.AperFunction,Conductor*%
G36*
X181750000Y-85726988D02*
G01*
X181692993Y-85694075D01*
X181565826Y-85660000D01*
X181434174Y-85660000D01*
X181307007Y-85694075D01*
X181250000Y-85726988D01*
X181250000Y-84053012D01*
X181307007Y-84085925D01*
X181434174Y-84120000D01*
X181565826Y-84120000D01*
X181692993Y-84085925D01*
X181750000Y-84053012D01*
X181750000Y-85726988D01*
G37*
%TD.AperFunction*%
%TA.AperFunction,Conductor*%
G36*
X180069334Y-75502414D02*
G01*
X180125267Y-75544286D01*
X180149684Y-75609750D01*
X180150000Y-75618596D01*
X180150000Y-75750000D01*
X181066988Y-75750000D01*
X181034075Y-75807007D01*
X181000000Y-75934174D01*
X181000000Y-76065826D01*
X181034075Y-76192993D01*
X181066988Y-76250000D01*
X180150000Y-76250000D01*
X180150000Y-76897844D01*
X180156401Y-76957372D01*
X180156403Y-76957379D01*
X180206645Y-77092086D01*
X180206649Y-77092093D01*
X180292809Y-77207187D01*
X180292812Y-77207190D01*
X180407906Y-77293350D01*
X180407913Y-77293354D01*
X180539986Y-77342614D01*
X180595920Y-77384485D01*
X180620337Y-77449949D01*
X180605486Y-77518222D01*
X180584335Y-77546477D01*
X180461886Y-77668926D01*
X180326400Y-77862420D01*
X180326399Y-77862422D01*
X180226570Y-78076507D01*
X180226567Y-78076513D01*
X180169364Y-78289999D01*
X180169364Y-78290000D01*
X181066988Y-78290000D01*
X181034075Y-78347007D01*
X181000000Y-78474174D01*
X181000000Y-78605826D01*
X181034075Y-78732993D01*
X181066988Y-78790000D01*
X180169364Y-78790000D01*
X180226567Y-79003486D01*
X180226570Y-79003492D01*
X180326399Y-79217578D01*
X180461894Y-79411082D01*
X180628917Y-79578105D01*
X180815031Y-79708425D01*
X180858656Y-79763003D01*
X180865848Y-79832501D01*
X180834326Y-79894856D01*
X180815031Y-79911575D01*
X180628922Y-80041890D01*
X180628920Y-80041891D01*
X180461891Y-80208920D01*
X180461886Y-80208926D01*
X180326400Y-80402420D01*
X180326399Y-80402422D01*
X180226570Y-80616507D01*
X180226567Y-80616513D01*
X180169364Y-80829999D01*
X180169364Y-80830000D01*
X181066988Y-80830000D01*
X181034075Y-80887007D01*
X181000000Y-81014174D01*
X181000000Y-81145826D01*
X181034075Y-81272993D01*
X181066988Y-81330000D01*
X180169364Y-81330000D01*
X180226567Y-81543486D01*
X180226570Y-81543492D01*
X180326399Y-81757578D01*
X180461894Y-81951082D01*
X180628917Y-82118105D01*
X180815031Y-82248425D01*
X180858656Y-82303003D01*
X180865848Y-82372501D01*
X180834326Y-82434856D01*
X180815031Y-82451575D01*
X180628922Y-82581890D01*
X180628920Y-82581891D01*
X180461891Y-82748920D01*
X180461886Y-82748926D01*
X180326400Y-82942420D01*
X180326399Y-82942422D01*
X180226570Y-83156507D01*
X180226567Y-83156513D01*
X180169364Y-83369999D01*
X180169364Y-83370000D01*
X181066988Y-83370000D01*
X181034075Y-83427007D01*
X181000000Y-83554174D01*
X181000000Y-83685826D01*
X181034075Y-83812993D01*
X181066988Y-83870000D01*
X180169364Y-83870000D01*
X180226567Y-84083486D01*
X180226570Y-84083492D01*
X180326399Y-84297578D01*
X180461894Y-84491082D01*
X180628917Y-84658105D01*
X180815031Y-84788425D01*
X180858656Y-84843003D01*
X180865848Y-84912501D01*
X180834326Y-84974856D01*
X180815031Y-84991575D01*
X180628922Y-85121890D01*
X180628920Y-85121891D01*
X180461891Y-85288920D01*
X180461886Y-85288926D01*
X180326401Y-85482419D01*
X180303663Y-85531181D01*
X180257490Y-85583620D01*
X180190296Y-85602771D01*
X180123415Y-85582555D01*
X180103600Y-85566457D01*
X179391819Y-84854681D01*
X179358334Y-84793358D01*
X179355500Y-84766999D01*
X179355500Y-82325445D01*
X179355500Y-82325443D01*
X179314577Y-82172716D01*
X179302382Y-82151593D01*
X179235524Y-82035790D01*
X179235521Y-82035786D01*
X179235520Y-82035784D01*
X179123716Y-81923980D01*
X179123715Y-81923979D01*
X179119385Y-81919649D01*
X179119374Y-81919639D01*
X177017141Y-79817406D01*
X176983656Y-79756083D01*
X176988640Y-79686391D01*
X177017141Y-79642044D01*
X177031618Y-79627567D01*
X177051966Y-79607219D01*
X177051968Y-79607215D01*
X177051971Y-79607213D01*
X177112028Y-79524550D01*
X177172287Y-79441610D01*
X177265220Y-79259219D01*
X177328477Y-79064534D01*
X177360500Y-78862352D01*
X177360500Y-78657648D01*
X177328477Y-78455466D01*
X177273178Y-78285276D01*
X177271184Y-78215438D01*
X177307264Y-78155605D01*
X177329109Y-78139574D01*
X177330416Y-78138820D01*
X177442220Y-78027016D01*
X177442220Y-78027014D01*
X177452428Y-78016807D01*
X177452429Y-78016804D01*
X179938319Y-75530914D01*
X179999642Y-75497430D01*
X180069334Y-75502414D01*
G37*
%TD.AperFunction*%
%TA.AperFunction,Conductor*%
G36*
X181750000Y-83186988D02*
G01*
X181692993Y-83154075D01*
X181565826Y-83120000D01*
X181434174Y-83120000D01*
X181307007Y-83154075D01*
X181250000Y-83186988D01*
X181250000Y-81513012D01*
X181307007Y-81545925D01*
X181434174Y-81580000D01*
X181565826Y-81580000D01*
X181692993Y-81545925D01*
X181750000Y-81513012D01*
X181750000Y-83186988D01*
G37*
%TD.AperFunction*%
%TA.AperFunction,Conductor*%
G36*
X181750000Y-80646988D02*
G01*
X181692993Y-80614075D01*
X181565826Y-80580000D01*
X181434174Y-80580000D01*
X181307007Y-80614075D01*
X181250000Y-80646988D01*
X181250000Y-78973012D01*
X181307007Y-79005925D01*
X181434174Y-79040000D01*
X181565826Y-79040000D01*
X181692993Y-79005925D01*
X181750000Y-78973012D01*
X181750000Y-80646988D01*
G37*
%TD.AperFunction*%
%TA.AperFunction,Conductor*%
G36*
X181750000Y-78106988D02*
G01*
X181692993Y-78074075D01*
X181565826Y-78040000D01*
X181434174Y-78040000D01*
X181307007Y-78074075D01*
X181250000Y-78106988D01*
X181250000Y-76433012D01*
X181307007Y-76465925D01*
X181434174Y-76500000D01*
X181565826Y-76500000D01*
X181692993Y-76465925D01*
X181750000Y-76433012D01*
X181750000Y-78106988D01*
G37*
%TD.AperFunction*%
%TA.AperFunction,Conductor*%
G36*
X199942539Y-53520185D02*
G01*
X199988294Y-53572989D01*
X199999500Y-53624500D01*
X199999500Y-151875500D01*
X199979815Y-151942539D01*
X199927011Y-151988294D01*
X199875500Y-151999500D01*
X101624500Y-151999500D01*
X101557461Y-151979815D01*
X101511706Y-151927011D01*
X101500500Y-151875500D01*
X101500500Y-145499995D01*
X191244592Y-145499995D01*
X191244592Y-145500004D01*
X191264196Y-145761620D01*
X191264197Y-145761625D01*
X191322576Y-146017402D01*
X191322578Y-146017411D01*
X191322580Y-146017416D01*
X191418432Y-146261643D01*
X191549614Y-146488857D01*
X191681736Y-146654533D01*
X191713198Y-146693985D01*
X191894753Y-146862441D01*
X191905521Y-146872433D01*
X192122296Y-147020228D01*
X192122301Y-147020230D01*
X192122302Y-147020231D01*
X192122303Y-147020232D01*
X192247843Y-147080688D01*
X192358673Y-147134061D01*
X192358674Y-147134061D01*
X192358677Y-147134063D01*
X192609385Y-147211396D01*
X192868818Y-147250500D01*
X193131182Y-147250500D01*
X193390615Y-147211396D01*
X193641323Y-147134063D01*
X193877704Y-147020228D01*
X194094479Y-146872433D01*
X194286805Y-146693981D01*
X194450386Y-146488857D01*
X194581568Y-146261643D01*
X194677420Y-146017416D01*
X194735802Y-145761630D01*
X194755408Y-145500000D01*
X194735802Y-145238370D01*
X194677420Y-144982584D01*
X194581568Y-144738357D01*
X194450386Y-144511143D01*
X194286805Y-144306019D01*
X194286804Y-144306018D01*
X194286801Y-144306014D01*
X194094479Y-144127567D01*
X193877704Y-143979772D01*
X193877700Y-143979770D01*
X193877697Y-143979768D01*
X193877696Y-143979767D01*
X193641325Y-143865938D01*
X193641327Y-143865938D01*
X193390623Y-143788606D01*
X193390619Y-143788605D01*
X193390615Y-143788604D01*
X193265823Y-143769794D01*
X193131187Y-143749500D01*
X193131182Y-143749500D01*
X192868818Y-143749500D01*
X192868812Y-143749500D01*
X192707247Y-143773853D01*
X192609385Y-143788604D01*
X192609382Y-143788605D01*
X192609376Y-143788606D01*
X192358673Y-143865938D01*
X192122303Y-143979767D01*
X192122302Y-143979768D01*
X191905520Y-144127567D01*
X191713198Y-144306014D01*
X191549614Y-144511143D01*
X191418432Y-144738356D01*
X191322582Y-144982578D01*
X191322576Y-144982597D01*
X191264197Y-145238374D01*
X191264196Y-145238379D01*
X191244592Y-145499995D01*
X101500500Y-145499995D01*
X101500500Y-124054999D01*
X106144341Y-124054999D01*
X106144341Y-124055000D01*
X106164936Y-124290403D01*
X106164938Y-124290413D01*
X106226094Y-124518655D01*
X106226096Y-124518659D01*
X106226097Y-124518663D01*
X106320733Y-124721610D01*
X106325965Y-124732830D01*
X106325967Y-124732834D01*
X106461501Y-124926395D01*
X106461506Y-124926402D01*
X106628597Y-125093493D01*
X106628603Y-125093498D01*
X106814158Y-125223425D01*
X106857783Y-125278002D01*
X106864977Y-125347500D01*
X106833454Y-125409855D01*
X106814158Y-125426575D01*
X106628597Y-125556505D01*
X106461505Y-125723597D01*
X106325965Y-125917169D01*
X106325964Y-125917171D01*
X106226098Y-126131335D01*
X106226094Y-126131344D01*
X106164938Y-126359586D01*
X106164936Y-126359596D01*
X106144341Y-126594999D01*
X106144341Y-126595000D01*
X106164936Y-126830403D01*
X106164938Y-126830413D01*
X106226094Y-127058655D01*
X106226096Y-127058659D01*
X106226097Y-127058663D01*
X106297317Y-127211395D01*
X106325965Y-127272830D01*
X106325967Y-127272834D01*
X106461501Y-127466395D01*
X106461506Y-127466402D01*
X106628597Y-127633493D01*
X106628603Y-127633498D01*
X106814158Y-127763425D01*
X106857783Y-127818002D01*
X106864977Y-127887500D01*
X106833454Y-127949855D01*
X106814158Y-127966575D01*
X106628597Y-128096505D01*
X106461505Y-128263597D01*
X106325965Y-128457169D01*
X106325964Y-128457171D01*
X106226098Y-128671335D01*
X106226094Y-128671344D01*
X106164938Y-128899586D01*
X106164936Y-128899596D01*
X106144341Y-129134999D01*
X106144341Y-129135000D01*
X106164936Y-129370403D01*
X106164938Y-129370413D01*
X106226094Y-129598655D01*
X106226096Y-129598659D01*
X106226097Y-129598663D01*
X106291378Y-129738658D01*
X106325965Y-129812830D01*
X106325967Y-129812834D01*
X106461501Y-130006395D01*
X106461506Y-130006402D01*
X106628597Y-130173493D01*
X106628603Y-130173498D01*
X106814158Y-130303425D01*
X106857783Y-130358002D01*
X106864977Y-130427500D01*
X106833454Y-130489855D01*
X106814158Y-130506575D01*
X106628597Y-130636505D01*
X106461505Y-130803597D01*
X106325965Y-130997169D01*
X106325964Y-130997171D01*
X106226098Y-131211335D01*
X106226094Y-131211344D01*
X106164938Y-131439586D01*
X106164936Y-131439596D01*
X106144341Y-131674999D01*
X106144341Y-131675000D01*
X106164936Y-131910403D01*
X106164938Y-131910413D01*
X106226094Y-132138655D01*
X106226096Y-132138659D01*
X106226097Y-132138663D01*
X106282911Y-132260501D01*
X106325965Y-132352830D01*
X106325967Y-132352834D01*
X106461501Y-132546395D01*
X106461506Y-132546402D01*
X106628597Y-132713493D01*
X106628603Y-132713498D01*
X106814158Y-132843425D01*
X106857783Y-132898002D01*
X106864977Y-132967500D01*
X106833454Y-133029855D01*
X106814158Y-133046575D01*
X106628597Y-133176505D01*
X106461505Y-133343597D01*
X106325965Y-133537169D01*
X106325964Y-133537171D01*
X106226098Y-133751335D01*
X106226094Y-133751344D01*
X106164938Y-133979586D01*
X106164936Y-133979596D01*
X106144341Y-134214999D01*
X106144341Y-134215000D01*
X106164936Y-134450403D01*
X106164938Y-134450413D01*
X106226094Y-134678655D01*
X106226096Y-134678659D01*
X106226097Y-134678663D01*
X106300219Y-134837618D01*
X106325965Y-134892830D01*
X106325967Y-134892834D01*
X106461501Y-135086395D01*
X106461506Y-135086402D01*
X106628597Y-135253493D01*
X106628603Y-135253498D01*
X106814158Y-135383425D01*
X106857783Y-135438002D01*
X106864977Y-135507500D01*
X106833454Y-135569855D01*
X106814158Y-135586575D01*
X106628597Y-135716505D01*
X106461505Y-135883597D01*
X106325965Y-136077169D01*
X106325964Y-136077171D01*
X106226098Y-136291335D01*
X106226094Y-136291344D01*
X106164938Y-136519586D01*
X106164936Y-136519596D01*
X106144341Y-136754999D01*
X106144341Y-136755000D01*
X106164936Y-136990403D01*
X106164938Y-136990413D01*
X106226094Y-137218655D01*
X106226096Y-137218659D01*
X106226097Y-137218663D01*
X106289906Y-137355501D01*
X106325965Y-137432830D01*
X106325967Y-137432834D01*
X106461501Y-137626395D01*
X106461506Y-137626402D01*
X106628597Y-137793493D01*
X106628603Y-137793498D01*
X106814158Y-137923425D01*
X106857783Y-137978002D01*
X106864977Y-138047500D01*
X106833454Y-138109855D01*
X106814158Y-138126575D01*
X106628597Y-138256505D01*
X106461505Y-138423597D01*
X106325965Y-138617169D01*
X106325964Y-138617171D01*
X106226098Y-138831335D01*
X106226094Y-138831344D01*
X106164938Y-139059586D01*
X106164936Y-139059596D01*
X106144341Y-139294999D01*
X106144341Y-139295000D01*
X106164936Y-139530403D01*
X106164938Y-139530413D01*
X106226094Y-139758655D01*
X106226096Y-139758659D01*
X106226097Y-139758663D01*
X106320733Y-139961610D01*
X106325965Y-139972830D01*
X106325967Y-139972834D01*
X106378540Y-140047915D01*
X106461505Y-140166401D01*
X106628599Y-140333495D01*
X106712558Y-140392284D01*
X106822165Y-140469032D01*
X106822167Y-140469033D01*
X106822170Y-140469035D01*
X107036337Y-140568903D01*
X107264592Y-140630063D01*
X107452918Y-140646539D01*
X107499999Y-140650659D01*
X107500000Y-140650659D01*
X107500001Y-140650659D01*
X107539234Y-140647226D01*
X107735408Y-140630063D01*
X107963663Y-140568903D01*
X108177830Y-140469035D01*
X108371401Y-140333495D01*
X108538495Y-140166401D01*
X108674035Y-139972830D01*
X108773903Y-139758663D01*
X108835063Y-139530408D01*
X108855659Y-139295000D01*
X108835063Y-139059592D01*
X108773903Y-138831337D01*
X108674035Y-138617171D01*
X108660885Y-138598390D01*
X108538494Y-138423597D01*
X108371402Y-138256506D01*
X108371396Y-138256501D01*
X108185842Y-138126575D01*
X108142217Y-138071998D01*
X108135023Y-138002500D01*
X108166546Y-137940145D01*
X108185842Y-137923425D01*
X108287437Y-137852287D01*
X108371401Y-137793495D01*
X108538495Y-137626401D01*
X108674035Y-137432830D01*
X108676707Y-137427097D01*
X108722878Y-137374658D01*
X108789091Y-137355500D01*
X110240331Y-137355500D01*
X110240347Y-137355501D01*
X110247943Y-137355501D01*
X110406054Y-137355501D01*
X110406057Y-137355501D01*
X110558785Y-137314577D01*
X110608904Y-137285639D01*
X110695716Y-137235520D01*
X110807520Y-137123716D01*
X110807520Y-137123714D01*
X110817728Y-137113507D01*
X110817730Y-137113504D01*
X114041518Y-133889716D01*
X114102841Y-133856231D01*
X114172533Y-133861215D01*
X114216880Y-133889716D01*
X115996307Y-135669143D01*
X116029792Y-135730466D01*
X116024808Y-135800158D01*
X115996309Y-135844504D01*
X115948030Y-135892784D01*
X115827715Y-136058386D01*
X115734781Y-136240776D01*
X115671522Y-136435465D01*
X115639500Y-136637648D01*
X115639500Y-136842351D01*
X115671522Y-137044534D01*
X115734781Y-137239223D01*
X115827715Y-137421613D01*
X115948028Y-137587213D01*
X116092786Y-137731971D01*
X116247749Y-137844556D01*
X116258390Y-137852287D01*
X116349840Y-137898883D01*
X116351080Y-137899515D01*
X116401876Y-137947490D01*
X116418671Y-138015311D01*
X116396134Y-138081446D01*
X116351080Y-138120485D01*
X116258386Y-138167715D01*
X116092786Y-138288028D01*
X115948028Y-138432786D01*
X115827715Y-138598386D01*
X115734781Y-138780776D01*
X115671522Y-138975465D01*
X115639500Y-139177648D01*
X115639500Y-139382351D01*
X115671522Y-139584534D01*
X115734781Y-139779223D01*
X115827715Y-139961613D01*
X115948028Y-140127213D01*
X116092786Y-140271971D01*
X116247749Y-140384556D01*
X116258390Y-140392287D01*
X116374607Y-140451503D01*
X116440776Y-140485218D01*
X116440778Y-140485218D01*
X116440781Y-140485220D01*
X116545137Y-140519127D01*
X116635465Y-140548477D01*
X116736557Y-140564488D01*
X116837648Y-140580500D01*
X116837649Y-140580500D01*
X117442351Y-140580500D01*
X117442352Y-140580500D01*
X117644534Y-140548477D01*
X117839219Y-140485220D01*
X118021610Y-140392287D01*
X118114590Y-140324732D01*
X118187213Y-140271971D01*
X118187215Y-140271968D01*
X118187219Y-140271966D01*
X118331966Y-140127219D01*
X118331968Y-140127215D01*
X118331971Y-140127213D01*
X118437039Y-139982597D01*
X118452287Y-139961610D01*
X118545220Y-139779219D01*
X118608477Y-139584534D01*
X118640500Y-139382352D01*
X118640500Y-139177648D01*
X118621802Y-139059596D01*
X118608477Y-138975465D01*
X118579127Y-138885137D01*
X118545220Y-138780781D01*
X118545218Y-138780778D01*
X118545218Y-138780776D01*
X118487129Y-138666771D01*
X118452287Y-138598390D01*
X118414960Y-138547013D01*
X118331971Y-138432786D01*
X118187213Y-138288028D01*
X118021614Y-138167715D01*
X118015006Y-138164348D01*
X117928917Y-138120483D01*
X117878123Y-138072511D01*
X117861328Y-138004690D01*
X117883865Y-137938555D01*
X117928917Y-137899516D01*
X118021610Y-137852287D01*
X118042770Y-137836913D01*
X118187213Y-137731971D01*
X118187215Y-137731968D01*
X118187219Y-137731966D01*
X118331966Y-137587219D01*
X118331968Y-137587215D01*
X118331971Y-137587213D01*
X118444132Y-137432834D01*
X118452287Y-137421610D01*
X118545220Y-137239219D01*
X118608477Y-137044534D01*
X118640500Y-136842352D01*
X118640500Y-136637648D01*
X118608477Y-136435465D01*
X118561649Y-136291344D01*
X118545220Y-136240781D01*
X118545218Y-136240778D01*
X118545218Y-136240776D01*
X118503035Y-136157989D01*
X118452287Y-136058390D01*
X118414962Y-136007016D01*
X118331971Y-135892786D01*
X118187213Y-135748028D01*
X118021614Y-135627715D01*
X118015006Y-135624348D01*
X117928917Y-135580483D01*
X117878123Y-135532511D01*
X117861328Y-135464690D01*
X117883865Y-135398555D01*
X117928917Y-135359516D01*
X118021610Y-135312287D01*
X118102534Y-135253493D01*
X118187213Y-135191971D01*
X118187215Y-135191968D01*
X118187219Y-135191966D01*
X118331966Y-135047219D01*
X118331968Y-135047215D01*
X118331971Y-135047213D01*
X118450187Y-134884500D01*
X118452287Y-134881610D01*
X118545220Y-134699219D01*
X118608477Y-134504534D01*
X118640500Y-134302352D01*
X118640500Y-134097648D01*
X118621802Y-133979596D01*
X118608477Y-133895465D01*
X118561649Y-133751344D01*
X118545220Y-133700781D01*
X118545218Y-133700778D01*
X118545218Y-133700776D01*
X118506727Y-133625234D01*
X118452287Y-133518390D01*
X118424773Y-133480520D01*
X118331971Y-133352786D01*
X118187213Y-133208028D01*
X118021614Y-133087715D01*
X118015006Y-133084348D01*
X117928917Y-133040483D01*
X117878123Y-132992511D01*
X117861328Y-132924690D01*
X117883865Y-132858555D01*
X117928917Y-132819516D01*
X118021610Y-132772287D01*
X118065521Y-132740384D01*
X118187213Y-132651971D01*
X118187215Y-132651968D01*
X118187219Y-132651966D01*
X118331966Y-132507219D01*
X118331968Y-132507215D01*
X118331971Y-132507213D01*
X118384732Y-132434590D01*
X118452287Y-132341610D01*
X118545220Y-132159219D01*
X118608477Y-131964534D01*
X118640500Y-131762352D01*
X118640500Y-131557648D01*
X118626288Y-131467916D01*
X118608477Y-131355465D01*
X118561649Y-131211344D01*
X118545220Y-131160781D01*
X118545218Y-131160777D01*
X118543714Y-131156148D01*
X118545035Y-131155718D01*
X118538236Y-131092486D01*
X118569509Y-131030006D01*
X118629597Y-130994352D01*
X118660266Y-130990500D01*
X124017603Y-130990500D01*
X124084642Y-131010185D01*
X124105284Y-131026819D01*
X128927839Y-135849374D01*
X128927849Y-135849385D01*
X128932179Y-135853715D01*
X128932180Y-135853716D01*
X129043984Y-135965520D01*
X129115858Y-136007016D01*
X129180915Y-136044577D01*
X129333643Y-136085500D01*
X129491757Y-136085500D01*
X138475088Y-136085500D01*
X138542127Y-136105185D01*
X138587882Y-136157989D01*
X138597826Y-136227147D01*
X138593019Y-136247818D01*
X138532009Y-136435586D01*
X138523391Y-136490000D01*
X139566988Y-136490000D01*
X139534075Y-136547007D01*
X139500000Y-136674174D01*
X139500000Y-136805826D01*
X139534075Y-136932993D01*
X139566988Y-136990000D01*
X138523391Y-136990000D01*
X138532009Y-137044413D01*
X138595244Y-137239029D01*
X138688140Y-137421349D01*
X138808417Y-137586894D01*
X138808417Y-137586895D01*
X138953104Y-137731582D01*
X139118652Y-137851861D01*
X139211628Y-137899234D01*
X139262425Y-137947208D01*
X139279220Y-138015029D01*
X139256683Y-138081164D01*
X139211630Y-138120203D01*
X139118388Y-138167713D01*
X138952786Y-138288028D01*
X138808028Y-138432786D01*
X138687715Y-138598386D01*
X138594781Y-138780776D01*
X138531522Y-138975465D01*
X138499500Y-139177648D01*
X138499500Y-139382351D01*
X138531522Y-139584534D01*
X138594781Y-139779223D01*
X138687715Y-139961613D01*
X138808028Y-140127213D01*
X138952786Y-140271971D01*
X139107749Y-140384556D01*
X139118390Y-140392287D01*
X139234607Y-140451503D01*
X139300776Y-140485218D01*
X139300778Y-140485218D01*
X139300781Y-140485220D01*
X139405137Y-140519127D01*
X139495465Y-140548477D01*
X139596557Y-140564488D01*
X139697648Y-140580500D01*
X139697649Y-140580500D01*
X140302351Y-140580500D01*
X140302352Y-140580500D01*
X140504534Y-140548477D01*
X140699219Y-140485220D01*
X140881610Y-140392287D01*
X140974590Y-140324732D01*
X141047213Y-140271971D01*
X141047215Y-140271968D01*
X141047219Y-140271966D01*
X141191966Y-140127219D01*
X141191968Y-140127215D01*
X141191971Y-140127213D01*
X141297039Y-139982597D01*
X141312287Y-139961610D01*
X141405220Y-139779219D01*
X141468477Y-139584534D01*
X141500500Y-139382352D01*
X141500500Y-139177648D01*
X141481802Y-139059596D01*
X141468477Y-138975465D01*
X141439127Y-138885137D01*
X141405220Y-138780781D01*
X141405218Y-138780778D01*
X141405218Y-138780776D01*
X141347129Y-138666771D01*
X141312287Y-138598390D01*
X141274960Y-138547013D01*
X141191971Y-138432786D01*
X141047213Y-138288028D01*
X140881611Y-138167713D01*
X140788369Y-138120203D01*
X140737574Y-138072229D01*
X140720779Y-138004407D01*
X140743317Y-137938273D01*
X140788371Y-137899234D01*
X140881347Y-137851861D01*
X141046894Y-137731582D01*
X141046895Y-137731582D01*
X141191582Y-137586895D01*
X141191582Y-137586894D01*
X141311859Y-137421349D01*
X141404755Y-137239029D01*
X141467990Y-137044413D01*
X141476609Y-136990000D01*
X140433012Y-136990000D01*
X140465925Y-136932993D01*
X140500000Y-136805826D01*
X140500000Y-136674174D01*
X140465925Y-136547007D01*
X140433012Y-136490000D01*
X141476609Y-136490000D01*
X141467990Y-136435586D01*
X141406981Y-136247818D01*
X141404986Y-136177977D01*
X141441066Y-136118144D01*
X141503767Y-136087316D01*
X141524912Y-136085500D01*
X145627992Y-136085500D01*
X145695031Y-136105185D01*
X145740786Y-136157989D01*
X145750730Y-136227147D01*
X145740374Y-136261905D01*
X145726569Y-136291507D01*
X145726567Y-136291513D01*
X145669364Y-136504999D01*
X145669364Y-136505000D01*
X146566988Y-136505000D01*
X146534075Y-136562007D01*
X146500000Y-136689174D01*
X146500000Y-136820826D01*
X146534075Y-136947993D01*
X146566988Y-137005000D01*
X145669364Y-137005000D01*
X145726567Y-137218486D01*
X145726570Y-137218492D01*
X145826399Y-137432578D01*
X145961894Y-137626082D01*
X146128917Y-137793105D01*
X146314595Y-137923119D01*
X146358219Y-137977696D01*
X146365412Y-138047195D01*
X146333890Y-138109549D01*
X146314595Y-138126269D01*
X146128594Y-138256508D01*
X145961505Y-138423597D01*
X145825965Y-138617169D01*
X145825964Y-138617171D01*
X145726098Y-138831335D01*
X145726094Y-138831344D01*
X145664938Y-139059586D01*
X145664936Y-139059596D01*
X145644341Y-139294999D01*
X145644341Y-139295000D01*
X145664936Y-139530403D01*
X145664938Y-139530413D01*
X145726094Y-139758655D01*
X145726096Y-139758659D01*
X145726097Y-139758663D01*
X145820733Y-139961610D01*
X145825965Y-139972830D01*
X145825967Y-139972834D01*
X145878540Y-140047915D01*
X145961505Y-140166401D01*
X146128599Y-140333495D01*
X146212558Y-140392284D01*
X146322165Y-140469032D01*
X146322167Y-140469033D01*
X146322170Y-140469035D01*
X146536337Y-140568903D01*
X146764592Y-140630063D01*
X146952918Y-140646539D01*
X146999999Y-140650659D01*
X147000000Y-140650659D01*
X147000001Y-140650659D01*
X147039234Y-140647226D01*
X147235408Y-140630063D01*
X147463663Y-140568903D01*
X147677830Y-140469035D01*
X147871401Y-140333495D01*
X148018502Y-140186393D01*
X148079822Y-140152911D01*
X148149513Y-140157895D01*
X148193861Y-140186396D01*
X149217139Y-141209674D01*
X149217149Y-141209685D01*
X149221479Y-141214015D01*
X149221480Y-141214016D01*
X149333284Y-141325820D01*
X149420095Y-141375939D01*
X149420097Y-141375941D01*
X149470213Y-141404876D01*
X149470215Y-141404877D01*
X149622942Y-141445800D01*
X149622943Y-141445800D01*
X176225331Y-141445800D01*
X176225347Y-141445801D01*
X176232943Y-141445801D01*
X176391054Y-141445801D01*
X176391057Y-141445801D01*
X176543785Y-141404877D01*
X176593904Y-141375939D01*
X176680716Y-141325820D01*
X176792520Y-141214016D01*
X176792520Y-141214014D01*
X176802728Y-141203807D01*
X176802730Y-141203804D01*
X177506539Y-140499995D01*
X191244592Y-140499995D01*
X191244592Y-140500004D01*
X191264196Y-140761620D01*
X191264197Y-140761625D01*
X191322576Y-141017402D01*
X191322578Y-141017411D01*
X191322580Y-141017416D01*
X191418432Y-141261643D01*
X191549614Y-141488857D01*
X191681736Y-141654533D01*
X191713198Y-141693985D01*
X191894753Y-141862441D01*
X191905521Y-141872433D01*
X192122296Y-142020228D01*
X192122301Y-142020230D01*
X192122302Y-142020231D01*
X192122303Y-142020232D01*
X192247843Y-142080688D01*
X192358673Y-142134061D01*
X192358674Y-142134061D01*
X192358677Y-142134063D01*
X192609385Y-142211396D01*
X192868818Y-142250500D01*
X193131182Y-142250500D01*
X193390615Y-142211396D01*
X193641323Y-142134063D01*
X193877704Y-142020228D01*
X194094479Y-141872433D01*
X194286805Y-141693981D01*
X194450386Y-141488857D01*
X194581568Y-141261643D01*
X194677420Y-141017416D01*
X194735802Y-140761630D01*
X194744118Y-140650659D01*
X194755408Y-140500004D01*
X194755408Y-140499995D01*
X194735803Y-140238379D01*
X194735802Y-140238374D01*
X194735802Y-140238370D01*
X194677420Y-139982584D01*
X194581568Y-139738357D01*
X194450386Y-139511143D01*
X194286805Y-139306019D01*
X194286804Y-139306018D01*
X194286801Y-139306014D01*
X194094479Y-139127567D01*
X193994769Y-139059586D01*
X193877704Y-138979772D01*
X193877700Y-138979770D01*
X193877697Y-138979768D01*
X193877696Y-138979767D01*
X193641325Y-138865938D01*
X193641327Y-138865938D01*
X193390623Y-138788606D01*
X193390619Y-138788605D01*
X193390615Y-138788604D01*
X193263605Y-138769460D01*
X193131187Y-138749500D01*
X193131182Y-138749500D01*
X192868818Y-138749500D01*
X192868812Y-138749500D01*
X192707247Y-138773853D01*
X192609385Y-138788604D01*
X192609382Y-138788605D01*
X192609376Y-138788606D01*
X192358673Y-138865938D01*
X192122303Y-138979767D01*
X192122302Y-138979768D01*
X191905520Y-139127567D01*
X191713198Y-139306014D01*
X191549614Y-139511143D01*
X191418432Y-139738356D01*
X191322582Y-139982578D01*
X191322576Y-139982597D01*
X191264197Y-140238374D01*
X191264196Y-140238379D01*
X191244592Y-140499995D01*
X177506539Y-140499995D01*
X179486906Y-138519628D01*
X179486911Y-138519624D01*
X179497114Y-138509420D01*
X179497116Y-138509420D01*
X179608920Y-138397616D01*
X179677114Y-138279500D01*
X179687977Y-138260685D01*
X179728900Y-138107957D01*
X179728900Y-137949843D01*
X179728900Y-135499995D01*
X191244592Y-135499995D01*
X191244592Y-135500004D01*
X191264196Y-135761620D01*
X191264197Y-135761625D01*
X191322576Y-136017402D01*
X191322578Y-136017411D01*
X191322580Y-136017416D01*
X191418432Y-136261643D01*
X191549614Y-136488857D01*
X191668271Y-136637648D01*
X191713198Y-136693985D01*
X191873100Y-136842351D01*
X191905521Y-136872433D01*
X192122296Y-137020228D01*
X192122301Y-137020230D01*
X192122302Y-137020231D01*
X192122303Y-137020232D01*
X192209051Y-137062007D01*
X192358673Y-137134061D01*
X192358674Y-137134061D01*
X192358677Y-137134063D01*
X192609385Y-137211396D01*
X192868818Y-137250500D01*
X193131182Y-137250500D01*
X193390615Y-137211396D01*
X193641323Y-137134063D01*
X193877704Y-137020228D01*
X194094479Y-136872433D01*
X194286805Y-136693981D01*
X194450386Y-136488857D01*
X194581568Y-136261643D01*
X194677420Y-136017416D01*
X194735802Y-135761630D01*
X194736821Y-135748034D01*
X194755408Y-135500004D01*
X194755408Y-135499995D01*
X194735803Y-135238379D01*
X194735802Y-135238374D01*
X194735802Y-135238370D01*
X194677420Y-134982584D01*
X194581568Y-134738357D01*
X194450386Y-134511143D01*
X194286805Y-134306019D01*
X194286804Y-134306018D01*
X194286801Y-134306014D01*
X194094479Y-134127567D01*
X194050596Y-134097648D01*
X193877704Y-133979772D01*
X193877700Y-133979770D01*
X193877697Y-133979768D01*
X193877696Y-133979767D01*
X193641325Y-133865938D01*
X193641327Y-133865938D01*
X193390623Y-133788606D01*
X193390619Y-133788605D01*
X193390615Y-133788604D01*
X193265823Y-133769794D01*
X193131187Y-133749500D01*
X193131182Y-133749500D01*
X192868818Y-133749500D01*
X192868812Y-133749500D01*
X192707247Y-133773853D01*
X192609385Y-133788604D01*
X192609382Y-133788605D01*
X192609376Y-133788606D01*
X192358673Y-133865938D01*
X192122303Y-133979767D01*
X192122302Y-133979768D01*
X191905520Y-134127567D01*
X191713198Y-134306014D01*
X191549614Y-134511143D01*
X191418432Y-134738356D01*
X191322582Y-134982578D01*
X191322576Y-134982597D01*
X191264197Y-135238374D01*
X191264196Y-135238379D01*
X191244592Y-135499995D01*
X179728900Y-135499995D01*
X179728900Y-134772912D01*
X179748585Y-134705873D01*
X179755955Y-134695597D01*
X179758210Y-134692767D01*
X179758216Y-134692762D01*
X179854189Y-134540022D01*
X179913768Y-134369755D01*
X179913769Y-134369749D01*
X179933965Y-134190503D01*
X179933965Y-134190496D01*
X179913769Y-134011250D01*
X179913768Y-134011245D01*
X179902753Y-133979767D01*
X179854189Y-133840978D01*
X179822454Y-133790472D01*
X179803454Y-133723236D01*
X179823822Y-133656400D01*
X179877089Y-133611186D01*
X179927448Y-133600500D01*
X187913331Y-133600500D01*
X187913347Y-133600501D01*
X187920943Y-133600501D01*
X188079054Y-133600501D01*
X188079057Y-133600501D01*
X188231785Y-133559577D01*
X188281904Y-133530639D01*
X188368716Y-133480520D01*
X188480520Y-133368716D01*
X188480520Y-133368714D01*
X188490728Y-133358507D01*
X188490730Y-133358504D01*
X191072736Y-130776497D01*
X191134057Y-130743014D01*
X191203749Y-130747998D01*
X191259682Y-130789870D01*
X191281306Y-130836587D01*
X191322566Y-131017354D01*
X191322580Y-131017416D01*
X191418432Y-131261643D01*
X191549614Y-131488857D01*
X191609450Y-131563889D01*
X191713198Y-131693985D01*
X191874905Y-131844026D01*
X191905521Y-131872433D01*
X192122296Y-132020228D01*
X192122301Y-132020230D01*
X192122302Y-132020231D01*
X192122303Y-132020232D01*
X192247843Y-132080688D01*
X192358673Y-132134061D01*
X192358674Y-132134061D01*
X192358677Y-132134063D01*
X192609385Y-132211396D01*
X192868818Y-132250500D01*
X193131182Y-132250500D01*
X193390615Y-132211396D01*
X193641323Y-132134063D01*
X193828111Y-132044110D01*
X193877696Y-132020232D01*
X193877696Y-132020231D01*
X193877704Y-132020228D01*
X194094479Y-131872433D01*
X194286805Y-131693981D01*
X194450386Y-131488857D01*
X194581568Y-131261643D01*
X194677420Y-131017416D01*
X194735802Y-130761630D01*
X194738603Y-130724259D01*
X194755408Y-130500004D01*
X194755408Y-130499995D01*
X194735803Y-130238379D01*
X194735802Y-130238374D01*
X194735802Y-130238370D01*
X194677420Y-129982584D01*
X194581568Y-129738357D01*
X194450386Y-129511143D01*
X194286805Y-129306019D01*
X194286804Y-129306018D01*
X194286801Y-129306014D01*
X194094479Y-129127567D01*
X194051234Y-129098083D01*
X193877704Y-128979772D01*
X193877700Y-128979770D01*
X193877697Y-128979768D01*
X193877696Y-128979767D01*
X193641325Y-128865938D01*
X193641327Y-128865938D01*
X193390623Y-128788606D01*
X193390619Y-128788605D01*
X193390615Y-128788604D01*
X193346736Y-128781990D01*
X193283381Y-128752534D01*
X193246008Y-128693500D01*
X193246483Y-128623632D01*
X193277537Y-128571697D01*
X197827306Y-124021927D01*
X197827311Y-124021924D01*
X197837514Y-124011720D01*
X197837516Y-124011720D01*
X197949320Y-123899916D01*
X198028377Y-123762984D01*
X198069300Y-123610257D01*
X198069300Y-116609560D01*
X198069301Y-116609547D01*
X198069301Y-116441444D01*
X198066631Y-116431478D01*
X198028377Y-116288716D01*
X197968325Y-116184702D01*
X197949324Y-116151790D01*
X197949318Y-116151782D01*
X196103550Y-114306014D01*
X194255552Y-112458017D01*
X194222068Y-112396695D01*
X194227052Y-112327003D01*
X194268924Y-112271070D01*
X194329981Y-112247047D01*
X194357483Y-112244091D01*
X194492331Y-112193796D01*
X194607546Y-112107546D01*
X194693796Y-111992331D01*
X194744091Y-111857483D01*
X194750500Y-111797873D01*
X194750499Y-109202128D01*
X194744091Y-109142517D01*
X194693796Y-109007669D01*
X194693795Y-109007668D01*
X194693793Y-109007664D01*
X194607547Y-108892455D01*
X194607544Y-108892452D01*
X194492335Y-108806206D01*
X194492328Y-108806202D01*
X194357482Y-108755908D01*
X194357483Y-108755908D01*
X194297883Y-108749501D01*
X194297881Y-108749500D01*
X194297873Y-108749500D01*
X194297864Y-108749500D01*
X191702129Y-108749500D01*
X191702123Y-108749501D01*
X191642516Y-108755908D01*
X191507671Y-108806202D01*
X191507664Y-108806206D01*
X191392455Y-108892452D01*
X191392452Y-108892455D01*
X191306206Y-109007664D01*
X191306202Y-109007671D01*
X191255908Y-109142517D01*
X191249501Y-109202116D01*
X191249501Y-109202123D01*
X191249500Y-109202135D01*
X191249500Y-111797870D01*
X191249501Y-111797876D01*
X191255908Y-111857483D01*
X191306202Y-111992328D01*
X191306206Y-111992335D01*
X191392452Y-112107544D01*
X191392455Y-112107547D01*
X191507664Y-112193793D01*
X191507671Y-112193797D01*
X191544529Y-112207544D01*
X191642517Y-112244091D01*
X191702127Y-112250500D01*
X192349787Y-112250499D01*
X192416826Y-112270183D01*
X192457172Y-112312495D01*
X192469357Y-112333598D01*
X192469358Y-112333604D01*
X192469360Y-112333604D01*
X192519479Y-112420414D01*
X192519481Y-112420417D01*
X192638349Y-112539285D01*
X192638355Y-112539290D01*
X193755831Y-113656766D01*
X193789316Y-113718089D01*
X193784332Y-113787781D01*
X193742460Y-113843714D01*
X193676996Y-113868131D01*
X193631600Y-113862938D01*
X193390623Y-113788606D01*
X193390619Y-113788605D01*
X193390615Y-113788604D01*
X193265823Y-113769794D01*
X193131187Y-113749500D01*
X193131182Y-113749500D01*
X192868818Y-113749500D01*
X192868812Y-113749500D01*
X192707247Y-113773853D01*
X192609385Y-113788604D01*
X192609382Y-113788605D01*
X192609376Y-113788606D01*
X192358673Y-113865938D01*
X192122303Y-113979767D01*
X192122302Y-113979768D01*
X191905520Y-114127567D01*
X191713198Y-114306014D01*
X191549614Y-114511143D01*
X191418432Y-114738356D01*
X191322582Y-114982578D01*
X191322576Y-114982597D01*
X191264197Y-115238374D01*
X191264196Y-115238379D01*
X191244592Y-115499995D01*
X191244592Y-115500004D01*
X191264196Y-115761620D01*
X191264197Y-115761625D01*
X191322576Y-116017402D01*
X191322578Y-116017411D01*
X191322580Y-116017416D01*
X191418432Y-116261643D01*
X191549614Y-116488857D01*
X191681736Y-116654533D01*
X191713198Y-116693985D01*
X191849655Y-116820597D01*
X191905521Y-116872433D01*
X192122296Y-117020228D01*
X192122301Y-117020230D01*
X192122302Y-117020231D01*
X192122303Y-117020232D01*
X192247843Y-117080688D01*
X192358673Y-117134061D01*
X192358674Y-117134061D01*
X192358677Y-117134063D01*
X192609385Y-117211396D01*
X192868818Y-117250500D01*
X193131182Y-117250500D01*
X193390615Y-117211396D01*
X193641323Y-117134063D01*
X193877704Y-117020228D01*
X194094479Y-116872433D01*
X194286805Y-116693981D01*
X194450386Y-116488857D01*
X194581568Y-116261643D01*
X194677420Y-116017416D01*
X194735802Y-115761630D01*
X194735803Y-115761620D01*
X194755408Y-115500004D01*
X194755408Y-115499995D01*
X194735803Y-115238379D01*
X194735802Y-115238374D01*
X194735802Y-115238370D01*
X194677420Y-114982584D01*
X194633401Y-114870427D01*
X194627233Y-114800833D01*
X194659671Y-114738949D01*
X194720416Y-114704426D01*
X194790182Y-114708225D01*
X194836511Y-114737446D01*
X196831981Y-116732916D01*
X196865466Y-116794239D01*
X196868300Y-116820597D01*
X196868300Y-123231102D01*
X196848615Y-123298141D01*
X196831981Y-123318783D01*
X194927265Y-125223498D01*
X194865942Y-125256983D01*
X194796250Y-125251999D01*
X194740317Y-125210127D01*
X194718693Y-125163410D01*
X194688691Y-125031966D01*
X194677420Y-124982584D01*
X194581568Y-124738357D01*
X194450386Y-124511143D01*
X194286805Y-124306019D01*
X194286804Y-124306018D01*
X194286801Y-124306014D01*
X194094479Y-124127567D01*
X194015824Y-124073941D01*
X193877704Y-123979772D01*
X193877700Y-123979770D01*
X193877697Y-123979768D01*
X193877696Y-123979767D01*
X193641325Y-123865938D01*
X193641327Y-123865938D01*
X193390623Y-123788606D01*
X193390619Y-123788605D01*
X193390615Y-123788604D01*
X193265823Y-123769794D01*
X193131187Y-123749500D01*
X193131182Y-123749500D01*
X192868818Y-123749500D01*
X192868812Y-123749500D01*
X192707247Y-123773853D01*
X192609385Y-123788604D01*
X192609382Y-123788605D01*
X192609376Y-123788606D01*
X192358673Y-123865938D01*
X192122303Y-123979767D01*
X192122302Y-123979768D01*
X191905520Y-124127567D01*
X191713198Y-124306014D01*
X191549614Y-124511143D01*
X191418432Y-124738356D01*
X191322582Y-124982578D01*
X191322576Y-124982597D01*
X191264197Y-125238374D01*
X191264196Y-125238379D01*
X191244592Y-125499995D01*
X191244592Y-125500004D01*
X191264196Y-125761620D01*
X191264197Y-125761625D01*
X191322576Y-126017402D01*
X191322578Y-126017411D01*
X191322580Y-126017416D01*
X191418432Y-126261643D01*
X191549614Y-126488857D01*
X191681736Y-126654533D01*
X191713198Y-126693985D01*
X191860234Y-126830413D01*
X191905521Y-126872433D01*
X192122296Y-127020228D01*
X192122301Y-127020230D01*
X192122302Y-127020231D01*
X192122303Y-127020232D01*
X192202107Y-127058663D01*
X192358673Y-127134061D01*
X192358674Y-127134061D01*
X192358677Y-127134063D01*
X192609385Y-127211396D01*
X192653262Y-127218009D01*
X192716616Y-127247463D01*
X192753991Y-127306497D01*
X192753516Y-127376365D01*
X192722460Y-127428304D01*
X187787584Y-132363181D01*
X187726261Y-132396666D01*
X187699903Y-132399500D01*
X177485141Y-132399500D01*
X177418102Y-132379815D01*
X177372347Y-132327011D01*
X177362403Y-132257853D01*
X177374656Y-132219206D01*
X177405217Y-132159226D01*
X177405217Y-132159222D01*
X177405220Y-132159219D01*
X177468477Y-131964534D01*
X177500500Y-131762352D01*
X177500500Y-131557648D01*
X177486288Y-131467916D01*
X177468477Y-131355465D01*
X177421649Y-131211344D01*
X177405220Y-131160781D01*
X177405218Y-131160778D01*
X177405218Y-131160776D01*
X177346853Y-131046230D01*
X177312287Y-130978390D01*
X177304556Y-130967749D01*
X177191971Y-130812786D01*
X177047213Y-130668028D01*
X176881614Y-130547715D01*
X176875006Y-130544348D01*
X176788917Y-130500483D01*
X176738123Y-130452511D01*
X176721328Y-130384690D01*
X176743865Y-130318555D01*
X176788917Y-130279516D01*
X176881610Y-130232287D01*
X176985609Y-130156728D01*
X177047213Y-130111971D01*
X177047215Y-130111968D01*
X177047219Y-130111966D01*
X177191966Y-129967219D01*
X177191968Y-129967215D01*
X177191971Y-129967213D01*
X177247062Y-129891385D01*
X177312287Y-129801610D01*
X177405220Y-129619219D01*
X177468477Y-129424534D01*
X177500500Y-129222352D01*
X177500500Y-129017648D01*
X177481802Y-128899596D01*
X177468477Y-128815465D01*
X177421647Y-128671339D01*
X177405220Y-128620781D01*
X177405218Y-128620778D01*
X177405218Y-128620776D01*
X177359210Y-128530481D01*
X177312287Y-128438390D01*
X177240680Y-128339830D01*
X177191971Y-128272786D01*
X177187591Y-128268406D01*
X177154106Y-128207083D01*
X177159090Y-128137391D01*
X177187591Y-128093044D01*
X177589400Y-127691235D01*
X178079920Y-127200716D01*
X178158977Y-127063784D01*
X178199901Y-126911057D01*
X178199901Y-126752942D01*
X178199901Y-126745347D01*
X178199900Y-126745329D01*
X178199900Y-95039999D01*
X180144341Y-95039999D01*
X180144341Y-95040000D01*
X180164936Y-95275403D01*
X180164938Y-95275413D01*
X180226094Y-95503655D01*
X180226096Y-95503659D01*
X180226097Y-95503663D01*
X180264233Y-95585445D01*
X180325965Y-95717830D01*
X180325967Y-95717834D01*
X180461501Y-95911395D01*
X180461506Y-95911402D01*
X180628597Y-96078493D01*
X180628603Y-96078498D01*
X180814158Y-96208425D01*
X180857783Y-96263002D01*
X180864977Y-96332500D01*
X180833454Y-96394855D01*
X180814158Y-96411575D01*
X180628597Y-96541505D01*
X180461505Y-96708597D01*
X180325965Y-96902169D01*
X180325964Y-96902171D01*
X180226098Y-97116335D01*
X180226094Y-97116344D01*
X180164938Y-97344586D01*
X180164936Y-97344596D01*
X180144341Y-97579999D01*
X180144341Y-97580000D01*
X180164936Y-97815403D01*
X180164938Y-97815413D01*
X180226094Y-98043655D01*
X180226096Y-98043659D01*
X180226097Y-98043663D01*
X180269396Y-98136518D01*
X180325965Y-98257830D01*
X180325967Y-98257834D01*
X180461501Y-98451395D01*
X180461506Y-98451402D01*
X180628597Y-98618493D01*
X180628603Y-98618498D01*
X180814158Y-98748425D01*
X180857783Y-98803002D01*
X180864977Y-98872500D01*
X180833454Y-98934855D01*
X180814158Y-98951575D01*
X180628597Y-99081505D01*
X180461505Y-99248597D01*
X180325965Y-99442169D01*
X180325964Y-99442171D01*
X180226098Y-99656335D01*
X180226094Y-99656344D01*
X180164938Y-99884586D01*
X180164936Y-99884596D01*
X180144341Y-100119999D01*
X180144341Y-100120000D01*
X180164936Y-100355403D01*
X180164938Y-100355413D01*
X180226094Y-100583655D01*
X180226096Y-100583659D01*
X180226097Y-100583663D01*
X180299180Y-100740390D01*
X180325965Y-100797830D01*
X180325967Y-100797834D01*
X180461501Y-100991395D01*
X180461506Y-100991402D01*
X180628597Y-101158493D01*
X180628603Y-101158498D01*
X180814158Y-101288425D01*
X180857783Y-101343002D01*
X180864977Y-101412500D01*
X180833454Y-101474855D01*
X180814158Y-101491575D01*
X180628597Y-101621505D01*
X180461505Y-101788597D01*
X180325965Y-101982169D01*
X180325964Y-101982171D01*
X180226098Y-102196335D01*
X180226094Y-102196344D01*
X180164938Y-102424586D01*
X180164936Y-102424596D01*
X180144341Y-102659999D01*
X180144341Y-102660000D01*
X180164936Y-102895403D01*
X180164938Y-102895413D01*
X180226094Y-103123655D01*
X180226096Y-103123659D01*
X180226097Y-103123663D01*
X180297368Y-103276503D01*
X180325965Y-103337830D01*
X180325967Y-103337834D01*
X180344418Y-103364184D01*
X180461505Y-103531401D01*
X180628599Y-103698495D01*
X180725384Y-103766265D01*
X180822165Y-103834032D01*
X180822167Y-103834033D01*
X180822170Y-103834035D01*
X181036337Y-103933903D01*
X181264592Y-103995063D01*
X181452918Y-104011539D01*
X181499999Y-104015659D01*
X181500000Y-104015659D01*
X181500001Y-104015659D01*
X181539234Y-104012226D01*
X181735408Y-103995063D01*
X181963663Y-103933903D01*
X182177830Y-103834035D01*
X182371401Y-103698495D01*
X182538495Y-103531401D01*
X182674035Y-103337830D01*
X182773903Y-103123663D01*
X182835063Y-102895408D01*
X182855659Y-102660000D01*
X182835063Y-102424592D01*
X182773903Y-102196337D01*
X182674035Y-101982171D01*
X182538495Y-101788599D01*
X182538494Y-101788597D01*
X182371402Y-101621506D01*
X182371396Y-101621501D01*
X182185842Y-101491575D01*
X182142217Y-101436998D01*
X182135023Y-101367500D01*
X182166546Y-101305145D01*
X182185842Y-101288425D01*
X182208026Y-101272891D01*
X182371401Y-101158495D01*
X182538495Y-100991401D01*
X182674035Y-100797830D01*
X182773903Y-100583663D01*
X182835063Y-100355408D01*
X182855659Y-100120000D01*
X182835063Y-99884592D01*
X182773903Y-99656337D01*
X182674035Y-99442171D01*
X182538495Y-99248599D01*
X182538494Y-99248597D01*
X182371402Y-99081506D01*
X182371396Y-99081501D01*
X182185842Y-98951575D01*
X182142217Y-98896998D01*
X182135023Y-98827500D01*
X182166546Y-98765145D01*
X182185842Y-98748425D01*
X182208026Y-98732891D01*
X182371401Y-98618495D01*
X182538495Y-98451401D01*
X182674035Y-98257830D01*
X182773903Y-98043663D01*
X182835063Y-97815408D01*
X182855659Y-97580000D01*
X182835063Y-97344592D01*
X182773903Y-97116337D01*
X182674035Y-96902171D01*
X182576935Y-96763496D01*
X182538494Y-96708597D01*
X182371402Y-96541506D01*
X182371396Y-96541501D01*
X182185842Y-96411575D01*
X182142217Y-96356998D01*
X182135023Y-96287500D01*
X182166546Y-96225145D01*
X182185842Y-96208425D01*
X182320376Y-96114223D01*
X182371401Y-96078495D01*
X182538495Y-95911401D01*
X182674035Y-95717830D01*
X182773903Y-95503663D01*
X182835063Y-95275408D01*
X182855659Y-95040000D01*
X182835063Y-94804592D01*
X182773903Y-94576337D01*
X182674035Y-94362171D01*
X182633677Y-94304534D01*
X182538496Y-94168600D01*
X182524197Y-94154301D01*
X182416567Y-94046671D01*
X182383084Y-93985351D01*
X182388068Y-93915659D01*
X182429939Y-93859725D01*
X182460915Y-93842810D01*
X182592331Y-93793796D01*
X182707546Y-93707546D01*
X182793796Y-93592331D01*
X182844091Y-93457483D01*
X182850500Y-93397873D01*
X182850499Y-91602128D01*
X182844091Y-91542517D01*
X182834674Y-91517270D01*
X182793797Y-91407671D01*
X182793793Y-91407664D01*
X182707547Y-91292455D01*
X182707544Y-91292452D01*
X182592335Y-91206206D01*
X182592328Y-91206202D01*
X182457482Y-91155908D01*
X182457483Y-91155908D01*
X182397883Y-91149501D01*
X182397881Y-91149500D01*
X182397873Y-91149500D01*
X182397864Y-91149500D01*
X180602129Y-91149500D01*
X180602123Y-91149501D01*
X180542516Y-91155908D01*
X180407671Y-91206202D01*
X180407664Y-91206206D01*
X180292455Y-91292452D01*
X180292452Y-91292455D01*
X180206206Y-91407664D01*
X180206202Y-91407671D01*
X180155908Y-91542517D01*
X180149501Y-91602116D01*
X180149501Y-91602123D01*
X180149500Y-91602135D01*
X180149500Y-93397870D01*
X180149501Y-93397876D01*
X180155908Y-93457483D01*
X180206202Y-93592328D01*
X180206206Y-93592335D01*
X180292452Y-93707544D01*
X180292455Y-93707547D01*
X180407664Y-93793793D01*
X180407671Y-93793797D01*
X180539081Y-93842810D01*
X180595015Y-93884681D01*
X180619432Y-93950145D01*
X180604580Y-94018418D01*
X180583430Y-94046673D01*
X180461503Y-94168600D01*
X180325965Y-94362169D01*
X180325964Y-94362171D01*
X180226098Y-94576335D01*
X180226094Y-94576344D01*
X180164938Y-94804586D01*
X180164936Y-94804596D01*
X180144341Y-95039999D01*
X178199900Y-95039999D01*
X178199900Y-86441860D01*
X178199901Y-86441847D01*
X178199901Y-86273744D01*
X178196654Y-86261625D01*
X178158977Y-86121016D01*
X178132679Y-86075466D01*
X178079924Y-85984090D01*
X178079918Y-85984082D01*
X177005191Y-84909355D01*
X176971706Y-84848032D01*
X176976690Y-84778340D01*
X177005190Y-84733993D01*
X177051966Y-84687219D01*
X177051968Y-84687215D01*
X177051971Y-84687213D01*
X177155434Y-84544806D01*
X177172287Y-84521610D01*
X177265220Y-84339219D01*
X177328477Y-84144534D01*
X177360500Y-83942352D01*
X177360500Y-83737648D01*
X177328477Y-83535466D01*
X177265220Y-83340781D01*
X177265218Y-83340778D01*
X177265218Y-83340776D01*
X177203628Y-83219901D01*
X177172287Y-83158390D01*
X177164556Y-83147749D01*
X177051971Y-82992786D01*
X176907213Y-82848028D01*
X176741614Y-82727715D01*
X176709580Y-82711393D01*
X176648917Y-82680483D01*
X176598123Y-82632511D01*
X176581328Y-82564690D01*
X176603865Y-82498555D01*
X176648917Y-82459516D01*
X176741610Y-82412287D01*
X176858312Y-82327499D01*
X176907213Y-82291971D01*
X176907215Y-82291968D01*
X176907219Y-82291966D01*
X177051966Y-82147219D01*
X177051968Y-82147215D01*
X177051971Y-82147213D01*
X177167022Y-81988857D01*
X177172287Y-81981610D01*
X177199641Y-81927924D01*
X177247612Y-81877131D01*
X177315432Y-81860335D01*
X177381568Y-81882871D01*
X177397805Y-81896540D01*
X178118181Y-82616916D01*
X178151666Y-82678239D01*
X178154500Y-82704597D01*
X178154500Y-84980433D01*
X178154499Y-84980451D01*
X178154499Y-85146158D01*
X178154500Y-85146160D01*
X178192753Y-85288920D01*
X178195424Y-85298886D01*
X178195425Y-85298890D01*
X178224708Y-85349610D01*
X178224712Y-85349615D01*
X178224713Y-85349616D01*
X178274479Y-85435814D01*
X178274481Y-85435817D01*
X178386285Y-85547621D01*
X178386286Y-85547621D01*
X190407081Y-97568320D01*
X190440566Y-97629642D01*
X190435582Y-97699334D01*
X190407081Y-97743682D01*
X181131286Y-107019478D01*
X181019481Y-107131282D01*
X181019479Y-107131285D01*
X180969361Y-107218094D01*
X180969359Y-107218096D01*
X180940425Y-107268209D01*
X180940424Y-107268210D01*
X180940423Y-107268215D01*
X180899499Y-107420943D01*
X180899499Y-107420945D01*
X180899499Y-107589046D01*
X180899500Y-107589059D01*
X180899500Y-109525500D01*
X180879815Y-109592539D01*
X180827011Y-109638294D01*
X180775501Y-109649500D01*
X180602130Y-109649500D01*
X180602123Y-109649501D01*
X180542516Y-109655908D01*
X180407671Y-109706202D01*
X180407664Y-109706206D01*
X180292455Y-109792452D01*
X180292452Y-109792455D01*
X180206206Y-109907664D01*
X180206202Y-109907671D01*
X180155908Y-110042517D01*
X180149501Y-110102116D01*
X180149501Y-110102123D01*
X180149500Y-110102135D01*
X180149500Y-111897870D01*
X180149501Y-111897876D01*
X180155908Y-111957483D01*
X180206202Y-112092328D01*
X180206206Y-112092335D01*
X180292452Y-112207544D01*
X180292455Y-112207547D01*
X180407664Y-112293793D01*
X180407671Y-112293797D01*
X180539081Y-112342810D01*
X180595015Y-112384681D01*
X180619432Y-112450145D01*
X180604580Y-112518418D01*
X180583430Y-112546673D01*
X180461503Y-112668600D01*
X180325965Y-112862169D01*
X180325964Y-112862171D01*
X180226098Y-113076335D01*
X180226094Y-113076344D01*
X180164938Y-113304586D01*
X180164936Y-113304596D01*
X180144341Y-113539999D01*
X180144341Y-113540000D01*
X180164936Y-113775403D01*
X180164938Y-113775413D01*
X180226094Y-114003655D01*
X180226096Y-114003659D01*
X180226097Y-114003663D01*
X180283875Y-114127567D01*
X180325965Y-114217830D01*
X180325967Y-114217834D01*
X180461501Y-114411395D01*
X180461506Y-114411402D01*
X180628597Y-114578493D01*
X180628603Y-114578498D01*
X180814158Y-114708425D01*
X180857783Y-114763002D01*
X180864977Y-114832500D01*
X180833454Y-114894855D01*
X180814158Y-114911575D01*
X180628597Y-115041505D01*
X180461505Y-115208597D01*
X180325965Y-115402169D01*
X180325964Y-115402171D01*
X180226098Y-115616335D01*
X180226094Y-115616344D01*
X180164938Y-115844586D01*
X180164936Y-115844596D01*
X180144341Y-116079999D01*
X180144341Y-116080000D01*
X180164936Y-116315403D01*
X180164938Y-116315413D01*
X180226094Y-116543655D01*
X180226096Y-116543659D01*
X180226097Y-116543663D01*
X180296192Y-116693981D01*
X180325965Y-116757830D01*
X180325967Y-116757834D01*
X180461501Y-116951395D01*
X180461506Y-116951402D01*
X180628597Y-117118493D01*
X180628603Y-117118498D01*
X180814158Y-117248425D01*
X180857783Y-117303002D01*
X180864977Y-117372500D01*
X180833454Y-117434855D01*
X180814158Y-117451575D01*
X180628597Y-117581505D01*
X180461505Y-117748597D01*
X180325965Y-117942169D01*
X180325964Y-117942171D01*
X180226098Y-118156335D01*
X180226094Y-118156344D01*
X180164938Y-118384586D01*
X180164936Y-118384596D01*
X180144341Y-118619999D01*
X180144341Y-118620000D01*
X180164936Y-118855403D01*
X180164938Y-118855413D01*
X180226094Y-119083655D01*
X180226096Y-119083659D01*
X180226097Y-119083663D01*
X180246570Y-119127567D01*
X180325965Y-119297830D01*
X180325967Y-119297834D01*
X180461501Y-119491395D01*
X180461506Y-119491402D01*
X180628597Y-119658493D01*
X180628603Y-119658498D01*
X180814158Y-119788425D01*
X180857783Y-119843002D01*
X180864977Y-119912500D01*
X180833454Y-119974855D01*
X180814158Y-119991575D01*
X180628597Y-120121505D01*
X180461505Y-120288597D01*
X180325965Y-120482169D01*
X180325964Y-120482171D01*
X180226098Y-120696335D01*
X180226094Y-120696344D01*
X180164938Y-120924586D01*
X180164936Y-120924596D01*
X180144341Y-121159999D01*
X180144341Y-121160000D01*
X180164936Y-121395403D01*
X180164938Y-121395413D01*
X180226094Y-121623655D01*
X180226096Y-121623659D01*
X180226097Y-121623663D01*
X180258887Y-121693981D01*
X180325965Y-121837830D01*
X180325967Y-121837834D01*
X180358096Y-121883718D01*
X180453684Y-122020232D01*
X180461501Y-122031395D01*
X180461506Y-122031402D01*
X180608602Y-122178498D01*
X180642087Y-122239821D01*
X180637103Y-122309513D01*
X180608602Y-122353860D01*
X180074786Y-122887678D01*
X179962981Y-122999482D01*
X179962979Y-122999484D01*
X179955218Y-123012928D01*
X179934950Y-123048034D01*
X179883923Y-123136415D01*
X179842999Y-123289143D01*
X179842999Y-123289145D01*
X179842999Y-123457246D01*
X179843000Y-123457259D01*
X179843000Y-130255687D01*
X179823315Y-130322726D01*
X179815950Y-130332996D01*
X179813686Y-130335834D01*
X179717711Y-130488576D01*
X179658131Y-130658845D01*
X179658130Y-130658850D01*
X179637935Y-130838096D01*
X179637935Y-130838103D01*
X179658130Y-131017349D01*
X179658131Y-131017354D01*
X179717711Y-131187623D01*
X179813684Y-131340362D01*
X179941238Y-131467916D01*
X179994868Y-131501614D01*
X180084045Y-131557648D01*
X180093978Y-131563889D01*
X180235532Y-131613421D01*
X180264245Y-131623468D01*
X180264250Y-131623469D01*
X180443496Y-131643665D01*
X180443500Y-131643665D01*
X180443504Y-131643665D01*
X180622749Y-131623469D01*
X180622752Y-131623468D01*
X180622755Y-131623468D01*
X180793022Y-131563889D01*
X180945762Y-131467916D01*
X181073316Y-131340362D01*
X181169289Y-131187622D01*
X181228868Y-131017355D01*
X181231142Y-130997171D01*
X181249065Y-130838103D01*
X181249065Y-130838096D01*
X181228869Y-130658850D01*
X181228868Y-130658845D01*
X181173287Y-130500004D01*
X181169289Y-130488578D01*
X181073316Y-130335838D01*
X181073314Y-130335836D01*
X181073313Y-130335834D01*
X181071050Y-130332996D01*
X181070159Y-130330815D01*
X181069611Y-130329942D01*
X181069764Y-130329845D01*
X181044644Y-130268309D01*
X181044000Y-130255687D01*
X181044000Y-123668297D01*
X181063685Y-123601258D01*
X181080319Y-123580616D01*
X181499385Y-123161550D01*
X181980520Y-122680416D01*
X182059577Y-122543484D01*
X182091863Y-122422993D01*
X182128228Y-122363335D01*
X182159233Y-122342707D01*
X182161188Y-122341794D01*
X182177830Y-122334035D01*
X182371401Y-122198495D01*
X182538495Y-122031401D01*
X182674035Y-121837830D01*
X182773903Y-121623663D01*
X182835063Y-121395408D01*
X182855659Y-121160000D01*
X182854826Y-121150484D01*
X182851539Y-121112918D01*
X182835063Y-120924592D01*
X182773903Y-120696337D01*
X182682347Y-120499995D01*
X191244592Y-120499995D01*
X191244592Y-120500004D01*
X191264196Y-120761620D01*
X191264197Y-120761625D01*
X191322576Y-121017402D01*
X191322578Y-121017411D01*
X191322580Y-121017416D01*
X191418432Y-121261643D01*
X191549614Y-121488857D01*
X191644824Y-121608246D01*
X191713198Y-121693985D01*
X191832343Y-121804534D01*
X191905521Y-121872433D01*
X192122296Y-122020228D01*
X192122301Y-122020230D01*
X192122302Y-122020231D01*
X192122303Y-122020232D01*
X192200367Y-122057825D01*
X192358673Y-122134061D01*
X192358674Y-122134061D01*
X192358677Y-122134063D01*
X192609385Y-122211396D01*
X192868818Y-122250500D01*
X193131182Y-122250500D01*
X193390615Y-122211396D01*
X193641323Y-122134063D01*
X193854503Y-122031401D01*
X193877696Y-122020232D01*
X193877696Y-122020231D01*
X193877704Y-122020228D01*
X194094479Y-121872433D01*
X194286805Y-121693981D01*
X194450386Y-121488857D01*
X194581568Y-121261643D01*
X194677420Y-121017416D01*
X194735802Y-120761630D01*
X194735803Y-120761620D01*
X194755408Y-120500004D01*
X194755408Y-120499995D01*
X194735803Y-120238379D01*
X194735802Y-120238374D01*
X194735802Y-120238370D01*
X194677420Y-119982584D01*
X194581568Y-119738357D01*
X194450386Y-119511143D01*
X194286805Y-119306019D01*
X194286804Y-119306018D01*
X194286801Y-119306014D01*
X194094479Y-119127567D01*
X194030085Y-119083664D01*
X193877704Y-118979772D01*
X193877700Y-118979770D01*
X193877697Y-118979768D01*
X193877696Y-118979767D01*
X193641325Y-118865938D01*
X193641327Y-118865938D01*
X193390623Y-118788606D01*
X193390619Y-118788605D01*
X193390615Y-118788604D01*
X193265823Y-118769794D01*
X193131187Y-118749500D01*
X193131182Y-118749500D01*
X192868818Y-118749500D01*
X192868812Y-118749500D01*
X192707247Y-118773853D01*
X192609385Y-118788604D01*
X192609382Y-118788605D01*
X192609376Y-118788606D01*
X192358673Y-118865938D01*
X192122303Y-118979767D01*
X192122302Y-118979768D01*
X191905520Y-119127567D01*
X191713198Y-119306014D01*
X191549614Y-119511143D01*
X191418432Y-119738356D01*
X191322582Y-119982578D01*
X191322576Y-119982597D01*
X191264197Y-120238374D01*
X191264196Y-120238379D01*
X191244592Y-120499995D01*
X182682347Y-120499995D01*
X182674035Y-120482171D01*
X182653000Y-120452129D01*
X182538494Y-120288597D01*
X182371402Y-120121506D01*
X182371396Y-120121501D01*
X182185842Y-119991575D01*
X182142217Y-119936998D01*
X182135023Y-119867500D01*
X182166546Y-119805145D01*
X182185842Y-119788425D01*
X182257348Y-119738356D01*
X182371401Y-119658495D01*
X182538495Y-119491401D01*
X182674035Y-119297830D01*
X182773903Y-119083663D01*
X182835063Y-118855408D01*
X182855659Y-118620000D01*
X182835063Y-118384592D01*
X182773903Y-118156337D01*
X182674035Y-117942171D01*
X182585959Y-117816384D01*
X182538494Y-117748597D01*
X182371402Y-117581506D01*
X182371396Y-117581501D01*
X182185842Y-117451575D01*
X182142217Y-117396998D01*
X182135023Y-117327500D01*
X182166546Y-117265145D01*
X182185842Y-117248425D01*
X182238725Y-117211396D01*
X182371401Y-117118495D01*
X182538495Y-116951401D01*
X182674035Y-116757830D01*
X182773903Y-116543663D01*
X182835063Y-116315408D01*
X182855659Y-116080000D01*
X182835063Y-115844592D01*
X182773903Y-115616337D01*
X182674035Y-115402171D01*
X182538495Y-115208599D01*
X182538494Y-115208597D01*
X182371402Y-115041506D01*
X182371396Y-115041501D01*
X182185842Y-114911575D01*
X182142217Y-114856998D01*
X182135023Y-114787500D01*
X182166546Y-114725145D01*
X182185842Y-114708425D01*
X182208026Y-114692891D01*
X182371401Y-114578495D01*
X182538495Y-114411401D01*
X182674035Y-114217830D01*
X182773903Y-114003663D01*
X182835063Y-113775408D01*
X182855659Y-113540000D01*
X182835063Y-113304592D01*
X182773903Y-113076337D01*
X182674035Y-112862171D01*
X182538495Y-112668599D01*
X182416567Y-112546671D01*
X182383084Y-112485351D01*
X182388068Y-112415659D01*
X182429939Y-112359725D01*
X182460915Y-112342810D01*
X182592331Y-112293796D01*
X182707546Y-112207546D01*
X182793796Y-112092331D01*
X182844091Y-111957483D01*
X182850500Y-111897873D01*
X182850499Y-110102128D01*
X182844091Y-110042517D01*
X182793796Y-109907669D01*
X182793795Y-109907668D01*
X182793793Y-109907664D01*
X182707547Y-109792455D01*
X182707544Y-109792452D01*
X182592335Y-109706206D01*
X182592328Y-109706202D01*
X182457482Y-109655908D01*
X182457483Y-109655908D01*
X182397883Y-109649501D01*
X182397881Y-109649500D01*
X182397873Y-109649500D01*
X182397865Y-109649500D01*
X182224500Y-109649500D01*
X182157461Y-109629815D01*
X182111706Y-109577011D01*
X182100500Y-109525500D01*
X182100500Y-107800096D01*
X182120185Y-107733057D01*
X182136814Y-107712420D01*
X191702507Y-98146726D01*
X191702512Y-98146723D01*
X191712716Y-98136518D01*
X191712718Y-98136518D01*
X191824521Y-98024714D01*
X191824520Y-98024714D01*
X192199605Y-97649628D01*
X192260926Y-97616145D01*
X192330618Y-97621129D01*
X192341079Y-97625588D01*
X192358677Y-97634063D01*
X192609385Y-97711396D01*
X192868818Y-97750500D01*
X193131182Y-97750500D01*
X193390615Y-97711396D01*
X193641323Y-97634063D01*
X193877704Y-97520228D01*
X194094479Y-97372433D01*
X194286805Y-97193981D01*
X194450386Y-96988857D01*
X194581568Y-96761643D01*
X194677420Y-96517416D01*
X194735802Y-96261630D01*
X194735803Y-96261620D01*
X194755408Y-96000004D01*
X194755408Y-95999995D01*
X194735803Y-95738379D01*
X194735802Y-95738374D01*
X194735802Y-95738370D01*
X194677420Y-95482584D01*
X194581568Y-95238357D01*
X194450386Y-95011143D01*
X194286805Y-94806019D01*
X194286804Y-94806018D01*
X194286801Y-94806014D01*
X194094479Y-94627567D01*
X194035832Y-94587582D01*
X193877704Y-94479772D01*
X193877700Y-94479770D01*
X193877697Y-94479768D01*
X193877696Y-94479767D01*
X193641325Y-94365938D01*
X193641327Y-94365938D01*
X193390623Y-94288606D01*
X193390619Y-94288605D01*
X193390615Y-94288604D01*
X193265823Y-94269794D01*
X193131187Y-94249500D01*
X193131182Y-94249500D01*
X192868818Y-94249500D01*
X192868812Y-94249500D01*
X192707247Y-94273853D01*
X192609385Y-94288604D01*
X192609382Y-94288605D01*
X192609376Y-94288606D01*
X192358673Y-94365938D01*
X192122303Y-94479767D01*
X192122302Y-94479768D01*
X191905520Y-94627567D01*
X191713198Y-94806014D01*
X191549614Y-95011143D01*
X191418432Y-95238356D01*
X191322582Y-95482578D01*
X191322576Y-95482597D01*
X191264197Y-95738374D01*
X191264196Y-95738379D01*
X191244592Y-95999995D01*
X191244592Y-96000004D01*
X191264196Y-96261620D01*
X191264197Y-96261625D01*
X191306043Y-96444967D01*
X191301770Y-96514706D01*
X191260471Y-96571063D01*
X191195259Y-96596146D01*
X191126838Y-96581991D01*
X191097471Y-96560241D01*
X190907133Y-96369905D01*
X188380019Y-93842810D01*
X185537181Y-90999995D01*
X191245093Y-90999995D01*
X191245093Y-91000004D01*
X191264692Y-91261545D01*
X191264693Y-91261550D01*
X191323058Y-91517270D01*
X191418883Y-91761426D01*
X191418882Y-91761426D01*
X191550027Y-91988573D01*
X191597874Y-92048571D01*
X192398958Y-91247488D01*
X192423978Y-91307890D01*
X192495112Y-91414351D01*
X192585649Y-91504888D01*
X192692110Y-91576022D01*
X192752510Y-91601041D01*
X191950830Y-92402720D01*
X192122546Y-92519793D01*
X192122550Y-92519795D01*
X192358854Y-92633594D01*
X192358858Y-92633595D01*
X192609494Y-92710907D01*
X192609500Y-92710909D01*
X192868848Y-92749999D01*
X192868857Y-92750000D01*
X193131143Y-92750000D01*
X193131151Y-92749999D01*
X193390499Y-92710909D01*
X193390505Y-92710907D01*
X193641143Y-92633595D01*
X193877445Y-92519798D01*
X193877447Y-92519797D01*
X194049168Y-92402720D01*
X193247488Y-91601041D01*
X193307890Y-91576022D01*
X193414351Y-91504888D01*
X193504888Y-91414351D01*
X193576022Y-91307890D01*
X193601041Y-91247488D01*
X194402125Y-92048572D01*
X194449971Y-91988573D01*
X194581116Y-91761426D01*
X194676941Y-91517270D01*
X194735306Y-91261550D01*
X194735307Y-91261545D01*
X194754907Y-91000004D01*
X194754907Y-90999995D01*
X194735307Y-90738454D01*
X194735306Y-90738449D01*
X194676941Y-90482729D01*
X194581116Y-90238573D01*
X194581117Y-90238573D01*
X194449972Y-90011426D01*
X194402124Y-89951427D01*
X193601041Y-90752510D01*
X193576022Y-90692110D01*
X193504888Y-90585649D01*
X193414351Y-90495112D01*
X193307890Y-90423978D01*
X193247488Y-90398958D01*
X194049168Y-89597278D01*
X193877454Y-89480206D01*
X193877445Y-89480201D01*
X193641142Y-89366404D01*
X193641144Y-89366404D01*
X193390505Y-89289092D01*
X193390499Y-89289090D01*
X193131151Y-89250000D01*
X192868848Y-89250000D01*
X192609500Y-89289090D01*
X192609494Y-89289092D01*
X192358858Y-89366404D01*
X192358854Y-89366405D01*
X192122547Y-89480205D01*
X192122539Y-89480210D01*
X191950830Y-89597277D01*
X192752511Y-90398958D01*
X192692110Y-90423978D01*
X192585649Y-90495112D01*
X192495112Y-90585649D01*
X192423978Y-90692110D01*
X192398958Y-90752510D01*
X191597874Y-89951427D01*
X191550028Y-90011425D01*
X191418883Y-90238573D01*
X191323058Y-90482729D01*
X191264693Y-90738449D01*
X191264692Y-90738454D01*
X191245093Y-90999995D01*
X185537181Y-90999995D01*
X182093554Y-87556395D01*
X182060069Y-87495072D01*
X182065053Y-87425380D01*
X182106924Y-87369446D01*
X182128832Y-87356330D01*
X182177578Y-87333599D01*
X182371082Y-87198105D01*
X182538105Y-87031082D01*
X182673600Y-86837578D01*
X182773429Y-86623492D01*
X182773432Y-86623486D01*
X182830636Y-86410000D01*
X181933012Y-86410000D01*
X181965925Y-86352993D01*
X182000000Y-86225826D01*
X182000000Y-86094174D01*
X181974764Y-85999995D01*
X191244592Y-85999995D01*
X191244592Y-86000004D01*
X191264196Y-86261620D01*
X191264197Y-86261625D01*
X191322576Y-86517402D01*
X191322578Y-86517411D01*
X191322580Y-86517416D01*
X191418432Y-86761643D01*
X191549614Y-86988857D01*
X191607633Y-87061610D01*
X191713198Y-87193985D01*
X191848230Y-87319275D01*
X191905521Y-87372433D01*
X192122296Y-87520228D01*
X192122301Y-87520230D01*
X192122302Y-87520231D01*
X192122303Y-87520232D01*
X192237805Y-87575854D01*
X192358673Y-87634061D01*
X192358674Y-87634061D01*
X192358677Y-87634063D01*
X192609385Y-87711396D01*
X192868818Y-87750500D01*
X193131182Y-87750500D01*
X193390615Y-87711396D01*
X193641323Y-87634063D01*
X193877704Y-87520228D01*
X194094479Y-87372433D01*
X194250989Y-87227213D01*
X194286801Y-87193985D01*
X194286801Y-87193983D01*
X194286805Y-87193981D01*
X194450386Y-86988857D01*
X194581568Y-86761643D01*
X194677420Y-86517416D01*
X194735802Y-86261630D01*
X194738485Y-86225826D01*
X194755408Y-86000004D01*
X194755408Y-85999995D01*
X194735803Y-85738379D01*
X194735802Y-85738374D01*
X194735802Y-85738370D01*
X194677420Y-85482584D01*
X194581568Y-85238357D01*
X194450386Y-85011143D01*
X194286805Y-84806019D01*
X194286804Y-84806018D01*
X194286801Y-84806014D01*
X194094479Y-84627567D01*
X193973091Y-84544806D01*
X193877704Y-84479772D01*
X193877700Y-84479770D01*
X193877697Y-84479768D01*
X193877696Y-84479767D01*
X193641325Y-84365938D01*
X193641327Y-84365938D01*
X193390623Y-84288606D01*
X193390619Y-84288605D01*
X193390615Y-84288604D01*
X193265823Y-84269794D01*
X193131187Y-84249500D01*
X193131182Y-84249500D01*
X192868818Y-84249500D01*
X192868812Y-84249500D01*
X192707247Y-84273853D01*
X192609385Y-84288604D01*
X192609382Y-84288605D01*
X192609376Y-84288606D01*
X192358673Y-84365938D01*
X192122303Y-84479767D01*
X192122302Y-84479768D01*
X191905520Y-84627567D01*
X191713198Y-84806014D01*
X191549614Y-85011143D01*
X191418432Y-85238356D01*
X191322582Y-85482578D01*
X191322576Y-85482597D01*
X191264197Y-85738374D01*
X191264196Y-85738379D01*
X191244592Y-85999995D01*
X181974764Y-85999995D01*
X181965925Y-85967007D01*
X181933012Y-85910000D01*
X182830636Y-85910000D01*
X182830635Y-85909999D01*
X182773432Y-85696513D01*
X182773429Y-85696507D01*
X182673600Y-85482422D01*
X182673599Y-85482420D01*
X182538113Y-85288926D01*
X182538108Y-85288920D01*
X182371082Y-85121894D01*
X182184968Y-84991575D01*
X182141344Y-84936998D01*
X182134151Y-84867499D01*
X182165673Y-84805145D01*
X182184968Y-84788425D01*
X182371082Y-84658105D01*
X182538105Y-84491082D01*
X182673600Y-84297578D01*
X182773429Y-84083492D01*
X182773432Y-84083486D01*
X182830636Y-83870000D01*
X181933012Y-83870000D01*
X181965925Y-83812993D01*
X182000000Y-83685826D01*
X182000000Y-83554174D01*
X181965925Y-83427007D01*
X181933012Y-83370000D01*
X182830636Y-83370000D01*
X182830635Y-83369999D01*
X182773432Y-83156513D01*
X182773429Y-83156507D01*
X182673600Y-82942422D01*
X182673599Y-82942420D01*
X182538113Y-82748926D01*
X182538108Y-82748920D01*
X182371082Y-82581894D01*
X182184968Y-82451575D01*
X182141344Y-82396998D01*
X182134151Y-82327499D01*
X182165673Y-82265145D01*
X182184968Y-82248425D01*
X182371082Y-82118105D01*
X182538105Y-81951082D01*
X182673600Y-81757578D01*
X182773429Y-81543492D01*
X182773432Y-81543486D01*
X182830636Y-81330000D01*
X181933012Y-81330000D01*
X181965925Y-81272993D01*
X182000000Y-81145826D01*
X182000000Y-81014174D01*
X181996201Y-80999995D01*
X191244592Y-80999995D01*
X191244592Y-81000004D01*
X191264196Y-81261620D01*
X191264197Y-81261625D01*
X191322576Y-81517402D01*
X191322578Y-81517411D01*
X191322580Y-81517416D01*
X191418432Y-81761643D01*
X191549614Y-81988857D01*
X191587039Y-82035786D01*
X191713198Y-82193985D01*
X191894753Y-82362441D01*
X191905521Y-82372433D01*
X192122296Y-82520228D01*
X192122301Y-82520230D01*
X192122302Y-82520231D01*
X192122303Y-82520232D01*
X192228811Y-82571523D01*
X192358673Y-82634061D01*
X192358674Y-82634061D01*
X192358677Y-82634063D01*
X192609385Y-82711396D01*
X192868818Y-82750500D01*
X193131182Y-82750500D01*
X193390615Y-82711396D01*
X193641323Y-82634063D01*
X193877704Y-82520228D01*
X194094479Y-82372433D01*
X194286805Y-82193981D01*
X194450386Y-81988857D01*
X194581568Y-81761643D01*
X194677420Y-81517416D01*
X194735802Y-81261630D01*
X194736673Y-81250005D01*
X194755408Y-81000004D01*
X194755408Y-80999995D01*
X194735803Y-80738379D01*
X194735802Y-80738374D01*
X194735802Y-80738370D01*
X194677420Y-80482584D01*
X194581568Y-80238357D01*
X194450386Y-80011143D01*
X194286805Y-79806019D01*
X194286804Y-79806018D01*
X194286801Y-79806014D01*
X194094479Y-79627567D01*
X194064625Y-79607213D01*
X193877704Y-79479772D01*
X193877700Y-79479770D01*
X193877697Y-79479768D01*
X193877696Y-79479767D01*
X193641325Y-79365938D01*
X193641327Y-79365938D01*
X193390623Y-79288606D01*
X193390619Y-79288605D01*
X193390615Y-79288604D01*
X193265823Y-79269794D01*
X193131187Y-79249500D01*
X193131182Y-79249500D01*
X192868818Y-79249500D01*
X192868812Y-79249500D01*
X192707247Y-79273853D01*
X192609385Y-79288604D01*
X192609382Y-79288605D01*
X192609376Y-79288606D01*
X192358673Y-79365938D01*
X192122303Y-79479767D01*
X192122302Y-79479768D01*
X191905520Y-79627567D01*
X191713198Y-79806014D01*
X191549614Y-80011143D01*
X191418432Y-80238356D01*
X191322582Y-80482578D01*
X191322576Y-80482597D01*
X191264197Y-80738374D01*
X191264196Y-80738379D01*
X191244592Y-80999995D01*
X181996201Y-80999995D01*
X181965925Y-80887007D01*
X181933012Y-80830000D01*
X182830636Y-80830000D01*
X182830635Y-80829999D01*
X182773432Y-80616513D01*
X182773429Y-80616507D01*
X182673600Y-80402422D01*
X182673599Y-80402420D01*
X182538113Y-80208926D01*
X182538108Y-80208920D01*
X182371082Y-80041894D01*
X182184968Y-79911575D01*
X182141344Y-79856998D01*
X182134151Y-79787499D01*
X182165673Y-79725145D01*
X182184968Y-79708425D01*
X182371082Y-79578105D01*
X182538105Y-79411082D01*
X182673600Y-79217578D01*
X182773429Y-79003492D01*
X182773432Y-79003486D01*
X182830636Y-78790000D01*
X181933012Y-78790000D01*
X181965925Y-78732993D01*
X182000000Y-78605826D01*
X182000000Y-78474174D01*
X181965925Y-78347007D01*
X181933012Y-78290000D01*
X182830636Y-78290000D01*
X182830635Y-78289999D01*
X182773432Y-78076513D01*
X182773429Y-78076507D01*
X182673600Y-77862422D01*
X182673599Y-77862420D01*
X182538113Y-77668926D01*
X182538108Y-77668920D01*
X182415665Y-77546477D01*
X182382180Y-77485154D01*
X182387164Y-77415462D01*
X182429036Y-77359529D01*
X182460013Y-77342614D01*
X182592086Y-77293354D01*
X182592093Y-77293350D01*
X182707187Y-77207190D01*
X182707190Y-77207187D01*
X182793350Y-77092093D01*
X182793354Y-77092086D01*
X182843596Y-76957379D01*
X182843598Y-76957372D01*
X182849999Y-76897844D01*
X182850000Y-76897827D01*
X182850000Y-76250000D01*
X181933012Y-76250000D01*
X181965925Y-76192993D01*
X182000000Y-76065826D01*
X182000000Y-75999995D01*
X191244592Y-75999995D01*
X191244592Y-76000004D01*
X191264196Y-76261620D01*
X191264197Y-76261625D01*
X191322576Y-76517402D01*
X191322578Y-76517411D01*
X191322580Y-76517416D01*
X191418432Y-76761643D01*
X191549614Y-76988857D01*
X191631942Y-77092093D01*
X191713198Y-77193985D01*
X191862254Y-77332287D01*
X191905521Y-77372433D01*
X192122296Y-77520228D01*
X192122301Y-77520230D01*
X192122302Y-77520231D01*
X192122303Y-77520232D01*
X192207886Y-77561446D01*
X192358673Y-77634061D01*
X192358674Y-77634061D01*
X192358677Y-77634063D01*
X192609385Y-77711396D01*
X192868818Y-77750500D01*
X193131182Y-77750500D01*
X193390615Y-77711396D01*
X193641323Y-77634063D01*
X193877704Y-77520228D01*
X194094479Y-77372433D01*
X194250107Y-77228032D01*
X194286801Y-77193985D01*
X194286801Y-77193983D01*
X194286805Y-77193981D01*
X194450386Y-76988857D01*
X194581568Y-76761643D01*
X194677420Y-76517416D01*
X194735802Y-76261630D01*
X194745754Y-76128828D01*
X194755408Y-76000004D01*
X194755408Y-75999995D01*
X194735803Y-75738379D01*
X194735802Y-75738374D01*
X194735802Y-75738370D01*
X194677420Y-75482584D01*
X194581568Y-75238357D01*
X194450386Y-75011143D01*
X194286805Y-74806019D01*
X194286804Y-74806018D01*
X194286801Y-74806014D01*
X194094479Y-74627567D01*
X193962680Y-74537708D01*
X193877704Y-74479772D01*
X193877700Y-74479770D01*
X193877697Y-74479768D01*
X193877696Y-74479767D01*
X193641325Y-74365938D01*
X193641327Y-74365938D01*
X193390623Y-74288606D01*
X193390619Y-74288605D01*
X193390615Y-74288604D01*
X193265823Y-74269794D01*
X193131187Y-74249500D01*
X193131182Y-74249500D01*
X192868818Y-74249500D01*
X192868812Y-74249500D01*
X192707247Y-74273853D01*
X192609385Y-74288604D01*
X192609382Y-74288605D01*
X192609376Y-74288606D01*
X192358673Y-74365938D01*
X192122303Y-74479767D01*
X192122302Y-74479768D01*
X191905520Y-74627567D01*
X191713198Y-74806014D01*
X191549614Y-75011143D01*
X191418432Y-75238356D01*
X191322582Y-75482578D01*
X191322576Y-75482597D01*
X191264197Y-75738374D01*
X191264196Y-75738379D01*
X191244592Y-75999995D01*
X182000000Y-75999995D01*
X182000000Y-75934174D01*
X181965925Y-75807007D01*
X181933012Y-75750000D01*
X182850000Y-75750000D01*
X182850000Y-75102172D01*
X182849999Y-75102155D01*
X182843598Y-75042627D01*
X182843596Y-75042620D01*
X182793354Y-74907913D01*
X182793350Y-74907906D01*
X182707190Y-74792812D01*
X182707187Y-74792809D01*
X182592093Y-74706649D01*
X182592086Y-74706645D01*
X182457379Y-74656403D01*
X182457372Y-74656401D01*
X182397844Y-74650000D01*
X181750000Y-74650000D01*
X181750000Y-75566988D01*
X181692993Y-75534075D01*
X181565826Y-75500000D01*
X181434174Y-75500000D01*
X181307007Y-75534075D01*
X181250000Y-75566988D01*
X181250000Y-74650000D01*
X181118596Y-74650000D01*
X181051557Y-74630315D01*
X181005802Y-74577511D01*
X180995858Y-74508353D01*
X181024883Y-74444797D01*
X181030915Y-74438319D01*
X183275250Y-72193985D01*
X184469240Y-70999995D01*
X191244592Y-70999995D01*
X191244592Y-71000004D01*
X191264196Y-71261620D01*
X191264197Y-71261625D01*
X191322576Y-71517402D01*
X191322578Y-71517411D01*
X191322580Y-71517416D01*
X191418432Y-71761643D01*
X191549614Y-71988857D01*
X191681736Y-72154533D01*
X191713198Y-72193985D01*
X191894753Y-72362441D01*
X191905521Y-72372433D01*
X192122296Y-72520228D01*
X192122301Y-72520230D01*
X192122302Y-72520231D01*
X192122303Y-72520232D01*
X192247843Y-72580688D01*
X192358673Y-72634061D01*
X192358674Y-72634061D01*
X192358677Y-72634063D01*
X192609385Y-72711396D01*
X192868818Y-72750500D01*
X193131182Y-72750500D01*
X193390615Y-72711396D01*
X193641323Y-72634063D01*
X193877704Y-72520228D01*
X194094479Y-72372433D01*
X194286805Y-72193981D01*
X194450386Y-71988857D01*
X194581568Y-71761643D01*
X194677420Y-71517416D01*
X194735802Y-71261630D01*
X194755408Y-71000000D01*
X194735802Y-70738370D01*
X194677420Y-70482584D01*
X194581568Y-70238357D01*
X194450386Y-70011143D01*
X194286805Y-69806019D01*
X194286804Y-69806018D01*
X194286801Y-69806014D01*
X194094479Y-69627567D01*
X193877704Y-69479772D01*
X193877700Y-69479770D01*
X193877697Y-69479768D01*
X193877696Y-69479767D01*
X193641325Y-69365938D01*
X193641327Y-69365938D01*
X193390623Y-69288606D01*
X193390619Y-69288605D01*
X193390615Y-69288604D01*
X193265823Y-69269794D01*
X193131187Y-69249500D01*
X193131182Y-69249500D01*
X192868818Y-69249500D01*
X192868812Y-69249500D01*
X192707247Y-69273853D01*
X192609385Y-69288604D01*
X192609382Y-69288605D01*
X192609376Y-69288606D01*
X192358673Y-69365938D01*
X192122303Y-69479767D01*
X192122302Y-69479768D01*
X191905520Y-69627567D01*
X191713198Y-69806014D01*
X191549614Y-70011143D01*
X191418432Y-70238356D01*
X191322582Y-70482578D01*
X191322576Y-70482597D01*
X191264197Y-70738374D01*
X191264196Y-70738379D01*
X191244592Y-70999995D01*
X184469240Y-70999995D01*
X188832416Y-66636819D01*
X188893739Y-66603334D01*
X188920097Y-66600500D01*
X191270647Y-66600500D01*
X191337686Y-66620185D01*
X191383441Y-66672989D01*
X191386058Y-66679157D01*
X191418432Y-66761643D01*
X191549614Y-66988857D01*
X191681736Y-67154533D01*
X191713198Y-67193985D01*
X191894753Y-67362441D01*
X191905521Y-67372433D01*
X192122296Y-67520228D01*
X192122301Y-67520230D01*
X192122302Y-67520231D01*
X192122303Y-67520232D01*
X192247843Y-67580688D01*
X192358673Y-67634061D01*
X192358674Y-67634061D01*
X192358677Y-67634063D01*
X192609385Y-67711396D01*
X192868818Y-67750500D01*
X193131182Y-67750500D01*
X193390615Y-67711396D01*
X193641323Y-67634063D01*
X193877704Y-67520228D01*
X194094479Y-67372433D01*
X194286805Y-67193981D01*
X194450386Y-66988857D01*
X194581568Y-66761643D01*
X194677420Y-66517416D01*
X194735802Y-66261630D01*
X194755408Y-66000000D01*
X194735802Y-65738370D01*
X194677420Y-65482584D01*
X194581568Y-65238357D01*
X194450386Y-65011143D01*
X194286805Y-64806019D01*
X194286804Y-64806018D01*
X194286801Y-64806014D01*
X194094479Y-64627567D01*
X193877704Y-64479772D01*
X193877700Y-64479770D01*
X193877697Y-64479768D01*
X193877696Y-64479767D01*
X193641325Y-64365938D01*
X193641327Y-64365938D01*
X193390623Y-64288606D01*
X193390619Y-64288605D01*
X193390615Y-64288604D01*
X193265823Y-64269794D01*
X193131187Y-64249500D01*
X193131182Y-64249500D01*
X192868818Y-64249500D01*
X192868812Y-64249500D01*
X192707247Y-64273853D01*
X192609385Y-64288604D01*
X192609382Y-64288605D01*
X192609376Y-64288606D01*
X192358673Y-64365938D01*
X192122303Y-64479767D01*
X192122302Y-64479768D01*
X191905520Y-64627567D01*
X191713198Y-64806014D01*
X191549614Y-65011143D01*
X191418435Y-65238350D01*
X191418432Y-65238355D01*
X191418432Y-65238357D01*
X191386073Y-65320805D01*
X191343260Y-65376016D01*
X191277390Y-65399317D01*
X191270647Y-65399500D01*
X188706669Y-65399500D01*
X188706653Y-65399499D01*
X188699057Y-65399499D01*
X188540943Y-65399499D01*
X188433587Y-65428265D01*
X188388210Y-65440424D01*
X188388209Y-65440425D01*
X188338096Y-65469359D01*
X188338095Y-65469360D01*
X188315168Y-65482597D01*
X188251285Y-65519479D01*
X188251282Y-65519481D01*
X177973881Y-75796883D01*
X177912558Y-75830368D01*
X177842866Y-75825384D01*
X177786933Y-75783512D01*
X177762516Y-75718048D01*
X177762200Y-75709202D01*
X177762200Y-75586696D01*
X177781885Y-75519657D01*
X177798514Y-75499020D01*
X191041983Y-62255550D01*
X191103304Y-62222067D01*
X191172996Y-62227051D01*
X191228929Y-62268923D01*
X191252952Y-62329978D01*
X191255909Y-62357483D01*
X191306202Y-62492328D01*
X191306206Y-62492335D01*
X191392452Y-62607544D01*
X191392455Y-62607547D01*
X191507664Y-62693793D01*
X191507671Y-62693797D01*
X191642517Y-62744091D01*
X191642516Y-62744091D01*
X191649444Y-62744835D01*
X191702127Y-62750500D01*
X194297872Y-62750499D01*
X194357483Y-62744091D01*
X194492331Y-62693796D01*
X194607546Y-62607546D01*
X194693796Y-62492331D01*
X194744091Y-62357483D01*
X194750500Y-62297873D01*
X194750499Y-59702128D01*
X194744091Y-59642517D01*
X194721022Y-59580667D01*
X194693797Y-59507671D01*
X194693793Y-59507664D01*
X194607547Y-59392455D01*
X194607544Y-59392452D01*
X194492335Y-59306206D01*
X194492328Y-59306202D01*
X194357482Y-59255908D01*
X194357483Y-59255908D01*
X194297883Y-59249501D01*
X194297881Y-59249500D01*
X194297873Y-59249500D01*
X194297864Y-59249500D01*
X191702129Y-59249500D01*
X191702123Y-59249501D01*
X191642516Y-59255908D01*
X191507671Y-59306202D01*
X191507664Y-59306206D01*
X191392455Y-59392452D01*
X191392452Y-59392455D01*
X191306206Y-59507664D01*
X191306202Y-59507671D01*
X191255908Y-59642517D01*
X191249501Y-59702116D01*
X191249501Y-59702123D01*
X191249500Y-59702135D01*
X191249500Y-60349787D01*
X191229815Y-60416826D01*
X191187500Y-60457174D01*
X191079587Y-60519477D01*
X191079582Y-60519481D01*
X176681181Y-74917882D01*
X176681175Y-74917890D01*
X176665014Y-74945882D01*
X176614447Y-74994097D01*
X176545840Y-75007319D01*
X176519310Y-75001812D01*
X176364537Y-74951523D01*
X176212897Y-74927505D01*
X176162352Y-74919500D01*
X175557648Y-74919500D01*
X175533329Y-74923351D01*
X175355465Y-74951522D01*
X175160776Y-75014781D01*
X174978386Y-75107715D01*
X174812786Y-75228028D01*
X174668028Y-75372786D01*
X174547715Y-75538386D01*
X174524985Y-75582996D01*
X174477010Y-75633792D01*
X174409189Y-75650587D01*
X174343054Y-75628049D01*
X174299603Y-75573334D01*
X174290500Y-75526701D01*
X174290500Y-61231692D01*
X174310185Y-61164653D01*
X174343374Y-61130119D01*
X174529139Y-61000047D01*
X174690047Y-60839139D01*
X174820568Y-60652734D01*
X174916739Y-60446496D01*
X174975635Y-60226692D01*
X174992634Y-60032384D01*
X174995468Y-60000001D01*
X174995468Y-59999998D01*
X180004532Y-59999998D01*
X180004532Y-60000001D01*
X180024364Y-60226686D01*
X180024366Y-60226697D01*
X180083258Y-60446488D01*
X180083261Y-60446497D01*
X180179431Y-60652732D01*
X180179432Y-60652734D01*
X180309954Y-60839141D01*
X180470858Y-61000045D01*
X180470861Y-61000047D01*
X180657266Y-61130568D01*
X180863504Y-61226739D01*
X181083308Y-61285635D01*
X181245230Y-61299801D01*
X181309998Y-61305468D01*
X181310000Y-61305468D01*
X181310002Y-61305468D01*
X181366673Y-61300509D01*
X181536692Y-61285635D01*
X181756496Y-61226739D01*
X181962734Y-61130568D01*
X182149139Y-61000047D01*
X182310047Y-60839139D01*
X182440568Y-60652734D01*
X182536739Y-60446496D01*
X182595635Y-60226692D01*
X182612634Y-60032384D01*
X182615468Y-60000001D01*
X182615468Y-59999998D01*
X182609801Y-59935230D01*
X182595635Y-59773308D01*
X182536739Y-59553504D01*
X182440568Y-59347266D01*
X182310047Y-59160861D01*
X182310045Y-59160858D01*
X182149141Y-58999954D01*
X181962734Y-58869432D01*
X181962732Y-58869431D01*
X181756497Y-58773261D01*
X181756488Y-58773258D01*
X181536697Y-58714366D01*
X181536693Y-58714365D01*
X181536692Y-58714365D01*
X181536691Y-58714364D01*
X181536686Y-58714364D01*
X181310002Y-58694532D01*
X181309998Y-58694532D01*
X181083313Y-58714364D01*
X181083302Y-58714366D01*
X180863511Y-58773258D01*
X180863502Y-58773261D01*
X180657267Y-58869431D01*
X180657265Y-58869432D01*
X180470858Y-58999954D01*
X180309954Y-59160858D01*
X180179432Y-59347265D01*
X180179431Y-59347267D01*
X180083261Y-59553502D01*
X180083258Y-59553511D01*
X180024366Y-59773302D01*
X180024364Y-59773313D01*
X180004532Y-59999998D01*
X174995468Y-59999998D01*
X174989801Y-59935230D01*
X174975635Y-59773308D01*
X174916739Y-59553504D01*
X174820568Y-59347266D01*
X174690047Y-59160861D01*
X174690045Y-59160858D01*
X174529141Y-58999954D01*
X174342734Y-58869432D01*
X174342732Y-58869431D01*
X174136497Y-58773261D01*
X174136488Y-58773258D01*
X173916697Y-58714366D01*
X173916693Y-58714365D01*
X173916692Y-58714365D01*
X173916691Y-58714364D01*
X173916686Y-58714364D01*
X173690002Y-58694532D01*
X173689998Y-58694532D01*
X173463313Y-58714364D01*
X173463302Y-58714366D01*
X173243511Y-58773258D01*
X173243502Y-58773261D01*
X173037267Y-58869431D01*
X173037265Y-58869432D01*
X172850858Y-58999954D01*
X172689954Y-59160858D01*
X172559432Y-59347265D01*
X172559431Y-59347267D01*
X172463261Y-59553502D01*
X172463258Y-59553511D01*
X172404366Y-59773302D01*
X172404364Y-59773313D01*
X172384532Y-59999998D01*
X172384532Y-60000001D01*
X172404364Y-60226686D01*
X172404366Y-60226697D01*
X172463258Y-60446488D01*
X172463261Y-60446497D01*
X172559431Y-60652732D01*
X172559432Y-60652734D01*
X172689954Y-60839141D01*
X172850858Y-61000045D01*
X172850861Y-61000047D01*
X173036624Y-61130118D01*
X173080248Y-61184693D01*
X173089500Y-61231692D01*
X173089500Y-78316630D01*
X173089499Y-78316648D01*
X173089499Y-78482354D01*
X173089498Y-78482354D01*
X173089499Y-78482357D01*
X173130423Y-78635085D01*
X173130424Y-78635086D01*
X173143449Y-78657648D01*
X173143450Y-78657649D01*
X173209475Y-78772009D01*
X173209481Y-78772017D01*
X173328349Y-78890885D01*
X173328355Y-78890890D01*
X174691459Y-80253994D01*
X174724944Y-80315317D01*
X174719960Y-80385009D01*
X174691459Y-80429356D01*
X174668032Y-80452782D01*
X174668028Y-80452786D01*
X174547715Y-80618386D01*
X174454781Y-80800776D01*
X174391522Y-80995465D01*
X174359500Y-81197648D01*
X174359500Y-81402351D01*
X174391522Y-81604534D01*
X174454781Y-81799223D01*
X174509545Y-81906702D01*
X174543985Y-81974294D01*
X174547715Y-81981613D01*
X174668028Y-82147213D01*
X174812786Y-82291971D01*
X174957346Y-82396998D01*
X174978390Y-82412287D01*
X175055497Y-82451575D01*
X175071080Y-82459515D01*
X175121876Y-82507490D01*
X175138671Y-82575311D01*
X175116134Y-82641446D01*
X175071080Y-82680485D01*
X174978386Y-82727715D01*
X174812786Y-82848028D01*
X174668028Y-82992786D01*
X174547715Y-83158386D01*
X174454781Y-83340776D01*
X174391522Y-83535465D01*
X174359500Y-83737648D01*
X174359500Y-83942351D01*
X174391522Y-84144534D01*
X174454781Y-84339223D01*
X174509129Y-84445885D01*
X174546544Y-84519316D01*
X174547715Y-84521613D01*
X174668028Y-84687213D01*
X174812786Y-84831971D01*
X174924266Y-84912964D01*
X174978390Y-84952287D01*
X175048569Y-84988045D01*
X175071080Y-84999515D01*
X175121876Y-85047490D01*
X175138671Y-85115311D01*
X175116134Y-85181446D01*
X175071080Y-85220485D01*
X174978386Y-85267715D01*
X174812786Y-85388028D01*
X174668028Y-85532786D01*
X174547715Y-85698386D01*
X174454781Y-85880776D01*
X174391522Y-86075465D01*
X174359500Y-86277648D01*
X174359500Y-86482351D01*
X174391522Y-86684534D01*
X174454781Y-86879223D01*
X174547715Y-87061613D01*
X174668028Y-87227213D01*
X174812786Y-87371971D01*
X174963584Y-87481530D01*
X174978390Y-87492287D01*
X175069840Y-87538883D01*
X175071080Y-87539515D01*
X175121876Y-87587490D01*
X175138671Y-87655311D01*
X175116134Y-87721446D01*
X175071080Y-87760485D01*
X174978386Y-87807715D01*
X174812786Y-87928028D01*
X174668028Y-88072786D01*
X174547715Y-88238386D01*
X174454781Y-88420776D01*
X174391522Y-88615465D01*
X174359500Y-88817648D01*
X174359500Y-89022351D01*
X174391522Y-89224534D01*
X174454781Y-89419223D01*
X174495373Y-89498888D01*
X174545505Y-89597277D01*
X174547715Y-89601613D01*
X174668028Y-89767213D01*
X174672408Y-89771593D01*
X174705893Y-89832916D01*
X174700909Y-89902608D01*
X174672408Y-89946955D01*
X173413162Y-91206202D01*
X172184586Y-92434778D01*
X172184584Y-92434780D01*
X172132409Y-92486955D01*
X172072781Y-92546582D01*
X172072780Y-92546584D01*
X172057941Y-92572287D01*
X172030836Y-92619234D01*
X171996687Y-92678382D01*
X171993723Y-92683515D01*
X171952799Y-92836243D01*
X171952799Y-92836245D01*
X171952799Y-93004346D01*
X171952800Y-93004359D01*
X171952800Y-131776987D01*
X171933115Y-131844026D01*
X171925750Y-131854296D01*
X171923486Y-131857134D01*
X171827511Y-132009876D01*
X171767931Y-132180145D01*
X171767930Y-132180149D01*
X171755623Y-132289384D01*
X171728556Y-132353798D01*
X171670961Y-132393353D01*
X171632403Y-132399500D01*
X154625141Y-132399500D01*
X154558102Y-132379815D01*
X154512347Y-132327011D01*
X154502403Y-132257853D01*
X154514656Y-132219206D01*
X154545217Y-132159226D01*
X154545217Y-132159222D01*
X154545220Y-132159219D01*
X154608477Y-131964534D01*
X154640500Y-131762352D01*
X154640500Y-131557648D01*
X154626288Y-131467916D01*
X154608477Y-131355465D01*
X154561649Y-131211344D01*
X154545220Y-131160781D01*
X154545218Y-131160778D01*
X154545218Y-131160776D01*
X154486853Y-131046230D01*
X154452287Y-130978390D01*
X154444556Y-130967749D01*
X154331971Y-130812786D01*
X154327590Y-130808405D01*
X154294105Y-130747082D01*
X154299089Y-130677390D01*
X154327586Y-130633048D01*
X155603606Y-129357027D01*
X155603611Y-129357024D01*
X155613814Y-129346820D01*
X155613816Y-129346820D01*
X155725620Y-129235016D01*
X155804677Y-129098084D01*
X155845600Y-128945357D01*
X155845600Y-101198160D01*
X155845601Y-101198147D01*
X155845601Y-101030044D01*
X155835247Y-100991402D01*
X155804677Y-100877316D01*
X155804673Y-100877309D01*
X155725624Y-100740390D01*
X155725618Y-100740382D01*
X152335119Y-97349883D01*
X152301634Y-97288560D01*
X152298800Y-97262202D01*
X152298800Y-95375248D01*
X152318485Y-95308209D01*
X152371289Y-95262454D01*
X152440447Y-95252510D01*
X152461119Y-95257317D01*
X152495465Y-95268477D01*
X152539257Y-95275413D01*
X152697648Y-95300500D01*
X152697649Y-95300500D01*
X153302351Y-95300500D01*
X153302352Y-95300500D01*
X153504534Y-95268477D01*
X153699219Y-95205220D01*
X153881610Y-95112287D01*
X153981107Y-95039999D01*
X154047213Y-94991971D01*
X154047215Y-94991968D01*
X154047219Y-94991966D01*
X154191966Y-94847219D01*
X154191968Y-94847215D01*
X154191971Y-94847213D01*
X154244732Y-94774590D01*
X154312287Y-94681610D01*
X154405220Y-94499219D01*
X154468477Y-94304534D01*
X154500500Y-94102352D01*
X154500500Y-93897648D01*
X154495073Y-93863383D01*
X154468477Y-93695465D01*
X154405218Y-93500776D01*
X154371503Y-93434607D01*
X154312287Y-93318390D01*
X154295900Y-93295835D01*
X154191971Y-93152786D01*
X154047213Y-93008028D01*
X153881614Y-92887715D01*
X153875006Y-92884348D01*
X153788917Y-92840483D01*
X153738123Y-92792511D01*
X153721328Y-92724690D01*
X153743865Y-92658555D01*
X153788917Y-92619516D01*
X153881610Y-92572287D01*
X153902770Y-92556913D01*
X154047213Y-92451971D01*
X154047215Y-92451968D01*
X154047219Y-92451966D01*
X154191966Y-92307219D01*
X154191968Y-92307215D01*
X154191971Y-92307213D01*
X154244732Y-92234590D01*
X154312287Y-92141610D01*
X154405220Y-91959219D01*
X154468477Y-91764534D01*
X154500500Y-91562352D01*
X154500500Y-91357648D01*
X154468477Y-91155466D01*
X154467673Y-91152993D01*
X154417963Y-91000000D01*
X154405220Y-90960781D01*
X154405218Y-90960778D01*
X154405218Y-90960776D01*
X154371503Y-90894607D01*
X154312287Y-90778390D01*
X154283272Y-90738454D01*
X154191971Y-90612786D01*
X154047213Y-90468028D01*
X153881614Y-90347715D01*
X153860092Y-90336749D01*
X153788917Y-90300483D01*
X153738123Y-90252511D01*
X153721328Y-90184690D01*
X153743865Y-90118555D01*
X153788917Y-90079516D01*
X153881610Y-90032287D01*
X153955359Y-89978706D01*
X154047213Y-89911971D01*
X154047215Y-89911968D01*
X154047219Y-89911966D01*
X154191966Y-89767219D01*
X154191968Y-89767215D01*
X154191971Y-89767213D01*
X154244732Y-89694590D01*
X154312287Y-89601610D01*
X154405220Y-89419219D01*
X154468477Y-89224534D01*
X154500500Y-89022352D01*
X154500500Y-88817648D01*
X154468477Y-88615466D01*
X154468476Y-88615462D01*
X154468476Y-88615461D01*
X154414780Y-88450202D01*
X154412785Y-88380361D01*
X154445028Y-88324205D01*
X154720513Y-88048721D01*
X154720516Y-88048720D01*
X154832320Y-87936916D01*
X154882439Y-87850104D01*
X154911377Y-87799985D01*
X154952301Y-87647257D01*
X154952301Y-87489143D01*
X154952301Y-87481548D01*
X154952300Y-87481530D01*
X154952300Y-80763841D01*
X154949236Y-80752405D01*
X154912823Y-80616513D01*
X154911377Y-80611115D01*
X154853298Y-80510520D01*
X154853297Y-80510518D01*
X154832322Y-80474187D01*
X154832321Y-80474186D01*
X154832320Y-80474184D01*
X154720516Y-80362380D01*
X154720515Y-80362379D01*
X154716185Y-80358049D01*
X154716174Y-80358039D01*
X154166341Y-79808206D01*
X154132856Y-79746883D01*
X154137840Y-79677191D01*
X154166341Y-79632844D01*
X154171618Y-79627567D01*
X154191966Y-79607219D01*
X154191968Y-79607215D01*
X154191971Y-79607213D01*
X154252028Y-79524550D01*
X154312287Y-79441610D01*
X154405220Y-79259219D01*
X154468477Y-79064534D01*
X154500500Y-78862352D01*
X154500500Y-78657648D01*
X154468477Y-78455466D01*
X154405220Y-78260781D01*
X154405218Y-78260778D01*
X154405218Y-78260776D01*
X154360897Y-78173792D01*
X154312287Y-78078390D01*
X154295726Y-78055596D01*
X154191971Y-77912786D01*
X154160736Y-77881551D01*
X154127251Y-77820228D01*
X154132235Y-77750536D01*
X154174107Y-77694603D01*
X154205080Y-77677689D01*
X154242331Y-77663796D01*
X154357546Y-77577546D01*
X154443796Y-77462331D01*
X154494091Y-77327483D01*
X154500500Y-77267873D01*
X154500499Y-75172128D01*
X154494091Y-75112517D01*
X154492299Y-75107713D01*
X154443797Y-74977671D01*
X154443793Y-74977664D01*
X154357547Y-74862455D01*
X154357544Y-74862452D01*
X154242335Y-74776206D01*
X154242328Y-74776202D01*
X154107482Y-74725908D01*
X154107483Y-74725908D01*
X154047883Y-74719501D01*
X154047881Y-74719500D01*
X154047873Y-74719500D01*
X154047864Y-74719500D01*
X151952129Y-74719500D01*
X151952123Y-74719501D01*
X151892516Y-74725908D01*
X151757671Y-74776202D01*
X151757664Y-74776206D01*
X151642455Y-74862452D01*
X151642452Y-74862455D01*
X151556206Y-74977664D01*
X151556203Y-74977669D01*
X151555446Y-74979701D01*
X151554146Y-74981436D01*
X151551953Y-74985454D01*
X151551375Y-74985138D01*
X151513574Y-75035634D01*
X151448110Y-75060051D01*
X151379837Y-75045199D01*
X151351583Y-75024048D01*
X150190690Y-73863155D01*
X150190688Y-73863152D01*
X150071817Y-73744281D01*
X150071816Y-73744280D01*
X149985004Y-73694160D01*
X149985004Y-73694159D01*
X149985000Y-73694158D01*
X149934885Y-73665223D01*
X149782157Y-73624299D01*
X149624043Y-73624299D01*
X149616447Y-73624299D01*
X149616431Y-73624300D01*
X138501357Y-73624300D01*
X138343243Y-73624300D01*
X138190515Y-73665223D01*
X138190514Y-73665223D01*
X138190512Y-73665224D01*
X138190509Y-73665225D01*
X138140396Y-73694159D01*
X138140395Y-73694160D01*
X138096989Y-73719220D01*
X138053585Y-73744279D01*
X138053582Y-73744281D01*
X137941778Y-73856086D01*
X134935876Y-76861987D01*
X134874553Y-76895472D01*
X134816103Y-76894081D01*
X134793402Y-76887998D01*
X134741157Y-76874000D01*
X134741156Y-76874000D01*
X134741141Y-76873996D01*
X134741045Y-76873983D01*
X134659449Y-76873999D01*
X134659432Y-76874000D01*
X119856297Y-76874000D01*
X119789258Y-76854315D01*
X119768616Y-76837681D01*
X118789290Y-75858355D01*
X118789288Y-75858352D01*
X118670417Y-75739481D01*
X118670412Y-75739477D01*
X118569023Y-75680941D01*
X118562492Y-75677170D01*
X118514281Y-75626602D01*
X118500499Y-75569787D01*
X118500499Y-75172129D01*
X118500498Y-75172123D01*
X118500497Y-75172116D01*
X118494091Y-75112517D01*
X118492299Y-75107713D01*
X118443797Y-74977671D01*
X118443793Y-74977664D01*
X118357547Y-74862455D01*
X118357544Y-74862452D01*
X118242335Y-74776206D01*
X118242328Y-74776202D01*
X118107482Y-74725908D01*
X118107483Y-74725908D01*
X118047883Y-74719501D01*
X118047881Y-74719500D01*
X118047873Y-74719500D01*
X118047864Y-74719500D01*
X115952129Y-74719500D01*
X115952123Y-74719501D01*
X115892516Y-74725908D01*
X115757671Y-74776202D01*
X115757664Y-74776206D01*
X115642455Y-74862452D01*
X115642452Y-74862455D01*
X115556206Y-74977664D01*
X115556202Y-74977671D01*
X115505908Y-75112517D01*
X115499516Y-75171980D01*
X115499501Y-75172123D01*
X115499500Y-75172135D01*
X115499500Y-77267870D01*
X115499501Y-77267876D01*
X115505908Y-77327483D01*
X115556202Y-77462328D01*
X115556206Y-77462335D01*
X115642452Y-77577544D01*
X115642455Y-77577547D01*
X115757664Y-77663793D01*
X115757673Y-77663798D01*
X115794914Y-77677688D01*
X115850848Y-77719559D01*
X115875266Y-77785023D01*
X115860415Y-77853296D01*
X115839265Y-77881550D01*
X115808027Y-77912787D01*
X115687715Y-78078386D01*
X115594781Y-78260776D01*
X115531522Y-78455465D01*
X115499500Y-78657648D01*
X115499500Y-78862351D01*
X115531522Y-79064534D01*
X115594781Y-79259223D01*
X115649156Y-79365938D01*
X115684663Y-79435625D01*
X115687715Y-79441613D01*
X115808028Y-79607213D01*
X115952786Y-79751971D01*
X116094302Y-79854786D01*
X116118390Y-79872287D01*
X116195497Y-79911575D01*
X116211080Y-79919515D01*
X116261876Y-79967490D01*
X116278671Y-80035311D01*
X116256134Y-80101446D01*
X116211080Y-80140485D01*
X116118386Y-80187715D01*
X115952786Y-80308028D01*
X115808028Y-80452786D01*
X115687715Y-80618386D01*
X115594781Y-80800776D01*
X115531522Y-80995465D01*
X115499500Y-81197648D01*
X115499500Y-81402351D01*
X115531522Y-81604534D01*
X115594781Y-81799223D01*
X115649545Y-81906702D01*
X115683985Y-81974294D01*
X115687715Y-81981613D01*
X115808028Y-82147213D01*
X115952786Y-82291971D01*
X116097346Y-82396998D01*
X116118390Y-82412287D01*
X116195497Y-82451575D01*
X116211080Y-82459515D01*
X116261876Y-82507490D01*
X116278671Y-82575311D01*
X116256134Y-82641446D01*
X116211080Y-82680485D01*
X116118386Y-82727715D01*
X115952786Y-82848028D01*
X115808028Y-82992786D01*
X115687715Y-83158386D01*
X115594781Y-83340776D01*
X115531522Y-83535465D01*
X115499500Y-83737648D01*
X115499500Y-83942351D01*
X115531522Y-84144534D01*
X115594781Y-84339223D01*
X115649129Y-84445885D01*
X115686544Y-84519316D01*
X115687715Y-84521613D01*
X115808028Y-84687213D01*
X115952786Y-84831971D01*
X116064266Y-84912964D01*
X116118390Y-84952287D01*
X116188569Y-84988045D01*
X116211080Y-84999515D01*
X116261876Y-85047490D01*
X116278671Y-85115311D01*
X116256134Y-85181446D01*
X116211080Y-85220485D01*
X116118386Y-85267715D01*
X115952786Y-85388028D01*
X115808028Y-85532786D01*
X115687715Y-85698386D01*
X115594781Y-85880776D01*
X115531522Y-86075465D01*
X115499500Y-86277648D01*
X115499500Y-86482351D01*
X115531522Y-86684534D01*
X115594781Y-86879223D01*
X115687715Y-87061613D01*
X115808028Y-87227213D01*
X115854808Y-87273993D01*
X115888293Y-87335316D01*
X115883309Y-87405008D01*
X115854808Y-87449355D01*
X109062181Y-94241982D01*
X109000858Y-94275467D01*
X108931166Y-94270483D01*
X108875233Y-94228611D01*
X108850816Y-94163147D01*
X108850500Y-94154301D01*
X108850500Y-82705048D01*
X108870185Y-82638009D01*
X108915481Y-82595993D01*
X109073509Y-82510474D01*
X109269744Y-82357738D01*
X109438164Y-82174785D01*
X109574173Y-81966607D01*
X109674063Y-81738881D01*
X109735108Y-81497821D01*
X109735116Y-81497729D01*
X109755643Y-81250005D01*
X109755643Y-81249994D01*
X109735109Y-81002187D01*
X109735107Y-81002175D01*
X109674063Y-80761118D01*
X109574173Y-80533393D01*
X109438166Y-80325217D01*
X109372600Y-80253994D01*
X109269744Y-80142262D01*
X109073509Y-79989526D01*
X109073507Y-79989525D01*
X109073506Y-79989524D01*
X108915482Y-79904006D01*
X108865892Y-79854786D01*
X108850500Y-79794951D01*
X108850500Y-76205048D01*
X108870185Y-76138009D01*
X108915481Y-76095993D01*
X109073509Y-76010474D01*
X109269744Y-75857738D01*
X109438164Y-75674785D01*
X109574173Y-75466607D01*
X109674063Y-75238881D01*
X109735108Y-74997821D01*
X109735116Y-74997729D01*
X109755643Y-74750005D01*
X109755643Y-74749994D01*
X109735109Y-74502187D01*
X109735107Y-74502175D01*
X109674063Y-74261118D01*
X109574173Y-74033393D01*
X109438166Y-73825217D01*
X109317519Y-73694160D01*
X109269744Y-73642262D01*
X109073509Y-73489526D01*
X109073507Y-73489525D01*
X109073506Y-73489524D01*
X108854811Y-73371172D01*
X108854802Y-73371169D01*
X108619616Y-73290429D01*
X108374335Y-73249500D01*
X108125665Y-73249500D01*
X107880383Y-73290429D01*
X107645197Y-73371169D01*
X107645188Y-73371172D01*
X107426493Y-73489524D01*
X107230257Y-73642261D01*
X107061833Y-73825217D01*
X106925826Y-74033393D01*
X106825936Y-74261118D01*
X106764892Y-74502175D01*
X106764890Y-74502187D01*
X106744357Y-74749994D01*
X106744357Y-74750005D01*
X106764890Y-74997812D01*
X106764892Y-74997824D01*
X106825936Y-75238881D01*
X106925826Y-75466606D01*
X107061833Y-75674782D01*
X107061836Y-75674785D01*
X107230256Y-75857738D01*
X107426491Y-76010474D01*
X107426494Y-76010476D01*
X107426496Y-76010477D01*
X107492609Y-76046255D01*
X107584517Y-76095993D01*
X107634108Y-76145212D01*
X107649500Y-76205048D01*
X107649500Y-79794951D01*
X107629815Y-79861990D01*
X107584518Y-79904006D01*
X107426493Y-79989524D01*
X107230257Y-80142261D01*
X107061833Y-80325217D01*
X106925826Y-80533393D01*
X106825936Y-80761118D01*
X106764892Y-81002175D01*
X106764890Y-81002187D01*
X106744357Y-81249994D01*
X106744357Y-81250005D01*
X106764890Y-81497812D01*
X106764892Y-81497824D01*
X106825936Y-81738881D01*
X106925826Y-81966606D01*
X107061833Y-82174782D01*
X107061836Y-82174785D01*
X107230256Y-82357738D01*
X107426491Y-82510474D01*
X107426494Y-82510476D01*
X107426496Y-82510477D01*
X107444520Y-82520231D01*
X107584517Y-82595993D01*
X107634108Y-82645212D01*
X107649500Y-82705048D01*
X107649500Y-119313202D01*
X107629815Y-119380241D01*
X107613181Y-119400883D01*
X107019481Y-119994582D01*
X107019479Y-119994585D01*
X107001692Y-120025394D01*
X106983906Y-120056202D01*
X106983905Y-120056203D01*
X106983903Y-120056206D01*
X106957173Y-120102502D01*
X106906605Y-120150717D01*
X106849787Y-120164500D01*
X106602130Y-120164500D01*
X106602123Y-120164501D01*
X106542516Y-120170908D01*
X106407671Y-120221202D01*
X106407664Y-120221206D01*
X106292455Y-120307452D01*
X106292452Y-120307455D01*
X106206206Y-120422664D01*
X106206202Y-120422671D01*
X106155908Y-120557517D01*
X106149501Y-120617116D01*
X106149501Y-120617123D01*
X106149500Y-120617135D01*
X106149500Y-122412870D01*
X106149501Y-122412876D01*
X106155908Y-122472483D01*
X106206202Y-122607328D01*
X106206206Y-122607335D01*
X106292452Y-122722544D01*
X106292455Y-122722547D01*
X106407664Y-122808793D01*
X106407671Y-122808797D01*
X106539081Y-122857810D01*
X106595015Y-122899681D01*
X106619432Y-122965145D01*
X106604580Y-123033418D01*
X106583430Y-123061673D01*
X106461503Y-123183600D01*
X106325965Y-123377169D01*
X106325964Y-123377171D01*
X106226098Y-123591335D01*
X106226094Y-123591344D01*
X106164938Y-123819586D01*
X106164936Y-123819596D01*
X106144341Y-124054999D01*
X101500500Y-124054999D01*
X101500500Y-81249994D01*
X102244859Y-81249994D01*
X102244859Y-81250005D01*
X102265385Y-81497729D01*
X102265387Y-81497738D01*
X102326412Y-81738717D01*
X102426266Y-81966364D01*
X102526564Y-82119882D01*
X103226212Y-81420234D01*
X103237482Y-81462292D01*
X103309890Y-81587708D01*
X103412292Y-81690110D01*
X103537708Y-81762518D01*
X103579765Y-81773787D01*
X102879942Y-82473609D01*
X102926768Y-82510055D01*
X102926770Y-82510056D01*
X103145385Y-82628364D01*
X103145396Y-82628369D01*
X103380506Y-82709083D01*
X103625707Y-82750000D01*
X103874293Y-82750000D01*
X104119493Y-82709083D01*
X104354603Y-82628369D01*
X104354614Y-82628364D01*
X104573228Y-82510057D01*
X104573231Y-82510055D01*
X104620056Y-82473609D01*
X103920234Y-81773787D01*
X103962292Y-81762518D01*
X104087708Y-81690110D01*
X104190110Y-81587708D01*
X104262518Y-81462292D01*
X104273787Y-81420235D01*
X104973434Y-82119882D01*
X105073731Y-81966369D01*
X105173587Y-81738717D01*
X105234612Y-81497738D01*
X105234614Y-81497729D01*
X105255141Y-81250005D01*
X105255141Y-81249994D01*
X105234614Y-81002270D01*
X105234612Y-81002261D01*
X105173587Y-80761282D01*
X105073731Y-80533630D01*
X104973434Y-80380116D01*
X104273787Y-81079764D01*
X104262518Y-81037708D01*
X104190110Y-80912292D01*
X104087708Y-80809890D01*
X103962292Y-80737482D01*
X103920235Y-80726212D01*
X104620057Y-80026390D01*
X104620056Y-80026389D01*
X104573229Y-79989943D01*
X104354614Y-79871635D01*
X104354603Y-79871630D01*
X104119493Y-79790916D01*
X103874293Y-79750000D01*
X103625707Y-79750000D01*
X103380506Y-79790916D01*
X103145396Y-79871630D01*
X103145390Y-79871632D01*
X102926761Y-79989949D01*
X102879942Y-80026388D01*
X102879942Y-80026390D01*
X103579765Y-80726212D01*
X103537708Y-80737482D01*
X103412292Y-80809890D01*
X103309890Y-80912292D01*
X103237482Y-81037708D01*
X103226212Y-81079764D01*
X102526564Y-80380116D01*
X102426267Y-80533632D01*
X102326412Y-80761282D01*
X102265387Y-81002261D01*
X102265385Y-81002270D01*
X102244859Y-81249994D01*
X101500500Y-81249994D01*
X101500500Y-74749994D01*
X102244859Y-74749994D01*
X102244859Y-74750005D01*
X102265385Y-74997729D01*
X102265387Y-74997738D01*
X102326412Y-75238717D01*
X102426266Y-75466364D01*
X102526564Y-75619882D01*
X103226212Y-74920234D01*
X103237482Y-74962292D01*
X103309890Y-75087708D01*
X103412292Y-75190110D01*
X103537708Y-75262518D01*
X103579765Y-75273787D01*
X102879942Y-75973609D01*
X102926768Y-76010055D01*
X102926770Y-76010056D01*
X103145385Y-76128364D01*
X103145396Y-76128369D01*
X103380506Y-76209083D01*
X103625707Y-76250000D01*
X103874293Y-76250000D01*
X104119493Y-76209083D01*
X104354603Y-76128369D01*
X104354614Y-76128364D01*
X104573228Y-76010057D01*
X104573231Y-76010055D01*
X104620056Y-75973609D01*
X103920234Y-75273787D01*
X103962292Y-75262518D01*
X104087708Y-75190110D01*
X104190110Y-75087708D01*
X104262518Y-74962292D01*
X104273787Y-74920235D01*
X104973434Y-75619882D01*
X105073731Y-75466369D01*
X105173587Y-75238717D01*
X105234612Y-74997738D01*
X105234614Y-74997729D01*
X105255141Y-74750005D01*
X105255141Y-74749994D01*
X105234614Y-74502270D01*
X105234612Y-74502261D01*
X105173587Y-74261282D01*
X105073731Y-74033630D01*
X104973434Y-73880116D01*
X104273787Y-74579764D01*
X104262518Y-74537708D01*
X104190110Y-74412292D01*
X104087708Y-74309890D01*
X103962292Y-74237482D01*
X103920235Y-74226212D01*
X104620057Y-73526390D01*
X104620056Y-73526389D01*
X104573229Y-73489943D01*
X104354614Y-73371635D01*
X104354603Y-73371630D01*
X104119493Y-73290916D01*
X103874293Y-73250000D01*
X103625707Y-73250000D01*
X103380506Y-73290916D01*
X103145396Y-73371630D01*
X103145390Y-73371632D01*
X102926761Y-73489949D01*
X102879942Y-73526388D01*
X102879942Y-73526390D01*
X103579765Y-74226212D01*
X103537708Y-74237482D01*
X103412292Y-74309890D01*
X103309890Y-74412292D01*
X103237482Y-74537708D01*
X103226212Y-74579764D01*
X102526564Y-73880116D01*
X102426267Y-74033632D01*
X102326412Y-74261282D01*
X102265387Y-74502261D01*
X102265385Y-74502270D01*
X102244859Y-74749994D01*
X101500500Y-74749994D01*
X101500500Y-59052155D01*
X163325000Y-59052155D01*
X163325000Y-59750000D01*
X164349722Y-59750000D01*
X164305667Y-59826306D01*
X164275000Y-59940756D01*
X164275000Y-60059244D01*
X164305667Y-60173694D01*
X164349722Y-60250000D01*
X163325000Y-60250000D01*
X163325000Y-60947844D01*
X163331401Y-61007372D01*
X163331403Y-61007379D01*
X163381645Y-61142086D01*
X163381649Y-61142093D01*
X163467809Y-61257187D01*
X163467812Y-61257190D01*
X163582906Y-61343350D01*
X163582913Y-61343354D01*
X163717620Y-61393596D01*
X163717627Y-61393598D01*
X163777155Y-61399999D01*
X163777172Y-61400000D01*
X164475000Y-61400000D01*
X164475000Y-60375277D01*
X164551306Y-60419333D01*
X164665756Y-60450000D01*
X164784244Y-60450000D01*
X164898694Y-60419333D01*
X164975000Y-60375277D01*
X164975000Y-61400000D01*
X165672828Y-61400000D01*
X165672844Y-61399999D01*
X165732372Y-61393598D01*
X165732379Y-61393596D01*
X165867086Y-61343354D01*
X165867093Y-61343350D01*
X165982187Y-61257190D01*
X165982190Y-61257187D01*
X166068350Y-61142093D01*
X166068355Y-61142084D01*
X166097075Y-61065081D01*
X166138945Y-61009147D01*
X166204409Y-60984729D01*
X166272682Y-60999580D01*
X166304484Y-61024428D01*
X166313216Y-61033913D01*
X166313219Y-61033915D01*
X166313222Y-61033918D01*
X166496365Y-61176464D01*
X166496371Y-61176468D01*
X166496374Y-61176470D01*
X166700497Y-61286936D01*
X166754479Y-61305468D01*
X166920015Y-61362297D01*
X166920017Y-61362297D01*
X166920019Y-61362298D01*
X167148951Y-61400500D01*
X167148952Y-61400500D01*
X167381048Y-61400500D01*
X167381049Y-61400500D01*
X167609981Y-61362298D01*
X167829503Y-61286936D01*
X168033626Y-61176470D01*
X168216784Y-61033913D01*
X168373979Y-60863153D01*
X168500924Y-60668849D01*
X168594157Y-60456300D01*
X168651134Y-60231305D01*
X168651516Y-60226697D01*
X168670300Y-60000006D01*
X168670300Y-59999993D01*
X168651135Y-59768702D01*
X168651133Y-59768691D01*
X168594157Y-59543699D01*
X168500924Y-59331151D01*
X168373983Y-59136852D01*
X168373980Y-59136849D01*
X168373979Y-59136847D01*
X168216784Y-58966087D01*
X168216779Y-58966083D01*
X168216777Y-58966081D01*
X168033634Y-58823535D01*
X168033628Y-58823531D01*
X167829504Y-58713064D01*
X167829495Y-58713061D01*
X167609984Y-58637702D01*
X167422404Y-58606401D01*
X167381049Y-58599500D01*
X167148951Y-58599500D01*
X167107596Y-58606401D01*
X166920015Y-58637702D01*
X166700504Y-58713061D01*
X166700495Y-58713064D01*
X166496371Y-58823531D01*
X166496365Y-58823535D01*
X166313222Y-58966081D01*
X166313215Y-58966087D01*
X166304484Y-58975572D01*
X166244595Y-59011561D01*
X166174757Y-59009458D01*
X166117143Y-58969932D01*
X166097075Y-58934918D01*
X166068355Y-58857915D01*
X166068350Y-58857906D01*
X165982190Y-58742812D01*
X165982187Y-58742809D01*
X165867093Y-58656649D01*
X165867086Y-58656645D01*
X165732379Y-58606403D01*
X165732372Y-58606401D01*
X165672844Y-58600000D01*
X164975000Y-58600000D01*
X164975000Y-59624722D01*
X164898694Y-59580667D01*
X164784244Y-59550000D01*
X164665756Y-59550000D01*
X164551306Y-59580667D01*
X164475000Y-59624722D01*
X164475000Y-58600000D01*
X163777155Y-58600000D01*
X163717627Y-58606401D01*
X163717620Y-58606403D01*
X163582913Y-58656645D01*
X163582906Y-58656649D01*
X163467812Y-58742809D01*
X163467809Y-58742812D01*
X163381649Y-58857906D01*
X163381645Y-58857913D01*
X163331403Y-58992620D01*
X163331401Y-58992627D01*
X163325000Y-59052155D01*
X101500500Y-59052155D01*
X101500500Y-53624500D01*
X101520185Y-53557461D01*
X101572989Y-53511706D01*
X101624500Y-53500500D01*
X199875500Y-53500500D01*
X199942539Y-53520185D01*
G37*
%TD.AperFunction*%
%TD*%
M02*
