%TF.GenerationSoftware,KiCad,Pcbnew,8.0.3*%
%TF.CreationDate,2024-07-29T20:38:45-07:00*%
%TF.ProjectId,First,46697273-742e-46b6-9963-61645f706362,rev?*%
%TF.SameCoordinates,Original*%
%TF.FileFunction,Soldermask,Top*%
%TF.FilePolarity,Negative*%
%FSLAX46Y46*%
G04 Gerber Fmt 4.6, Leading zero omitted, Abs format (unit mm)*
G04 Created by KiCad (PCBNEW 8.0.3) date 2024-07-29 20:38:45*
%MOMM*%
%LPD*%
G01*
G04 APERTURE LIST*
%ADD10R,1.700000X1.700000*%
%ADD11O,1.700000X1.700000*%
%ADD12R,2.000000X2.000000*%
%ADD13O,2.000000X1.600000*%
%ADD14C,1.600000*%
%ADD15O,1.600000X1.600000*%
%ADD16R,2.500000X2.500000*%
%ADD17C,2.500000*%
%ADD18C,2.000000*%
%ADD19R,1.800000X1.800000*%
%ADD20C,1.800000*%
G04 APERTURE END LIST*
D10*
%TO.C,J8*%
X181500000Y-111000000D03*
D11*
X181500000Y-113540000D03*
X181500000Y-116080000D03*
X181500000Y-118620000D03*
X181500000Y-121160000D03*
%TD*%
D12*
%TO.C,U4*%
X153000000Y-76220000D03*
D13*
X153000000Y-78760000D03*
X153000000Y-81300000D03*
X153000000Y-83840000D03*
X153000000Y-86380000D03*
X153000000Y-88920000D03*
X153000000Y-91460000D03*
X153000000Y-94000000D03*
X175860000Y-94000000D03*
X175860000Y-91460000D03*
X175860000Y-88920000D03*
X175860000Y-86380000D03*
X175860000Y-83840000D03*
X175860000Y-81300000D03*
X175860000Y-78760000D03*
X175860000Y-76220000D03*
%TD*%
D12*
%TO.C,U1*%
X117140000Y-121500000D03*
D13*
X117140000Y-124040000D03*
X117140000Y-126580000D03*
X117140000Y-129120000D03*
X117140000Y-131660000D03*
X117140000Y-134200000D03*
X117140000Y-136740000D03*
X117140000Y-139280000D03*
X140000000Y-139280000D03*
X140000000Y-136740000D03*
X140000000Y-134200000D03*
X140000000Y-131660000D03*
X140000000Y-129120000D03*
X140000000Y-126580000D03*
X140000000Y-124040000D03*
X140000000Y-121500000D03*
%TD*%
D14*
%TO.C,R1*%
X181310000Y-60000000D03*
D15*
X173690000Y-60000000D03*
%TD*%
D16*
%TO.C,J4*%
X193000000Y-110500000D03*
D17*
X193000000Y-115500000D03*
X193000000Y-120500000D03*
X193000000Y-125500000D03*
X193000000Y-130500000D03*
X193000000Y-135500000D03*
X193000000Y-140500000D03*
X193000000Y-145500000D03*
%TD*%
D16*
%TO.C,J3*%
X193000000Y-61000000D03*
D17*
X193000000Y-66000000D03*
X193000000Y-71000000D03*
X193000000Y-76000000D03*
X193000000Y-81000000D03*
X193000000Y-86000000D03*
X193000000Y-91000000D03*
X193000000Y-96000000D03*
%TD*%
D12*
%TO.C,U2*%
X153140000Y-121500000D03*
D13*
X153140000Y-124040000D03*
X153140000Y-126580000D03*
X153140000Y-129120000D03*
X153140000Y-131660000D03*
X153140000Y-134200000D03*
X153140000Y-136740000D03*
X153140000Y-139280000D03*
X176000000Y-139280000D03*
X176000000Y-136740000D03*
X176000000Y-134200000D03*
X176000000Y-131660000D03*
X176000000Y-129120000D03*
X176000000Y-126580000D03*
X176000000Y-124040000D03*
X176000000Y-121500000D03*
%TD*%
D10*
%TO.C,J2*%
X147000000Y-121515000D03*
D11*
X147000000Y-124055000D03*
X147000000Y-126595000D03*
X147000000Y-129135000D03*
X147000000Y-131675000D03*
X147000000Y-134215000D03*
X147000000Y-136755000D03*
X147000000Y-139295000D03*
%TD*%
D12*
%TO.C,U3*%
X117000000Y-76220000D03*
D13*
X117000000Y-78760000D03*
X117000000Y-81300000D03*
X117000000Y-83840000D03*
X117000000Y-86380000D03*
X117000000Y-88920000D03*
X117000000Y-91460000D03*
X117000000Y-94000000D03*
X139860000Y-94000000D03*
X139860000Y-91460000D03*
X139860000Y-88920000D03*
X139860000Y-86380000D03*
X139860000Y-83840000D03*
X139860000Y-81300000D03*
X139860000Y-78760000D03*
X139860000Y-76220000D03*
%TD*%
D10*
%TO.C,J1*%
X107500000Y-121515000D03*
D11*
X107500000Y-124055000D03*
X107500000Y-126595000D03*
X107500000Y-129135000D03*
X107500000Y-131675000D03*
X107500000Y-134215000D03*
X107500000Y-136755000D03*
X107500000Y-139295000D03*
%TD*%
D18*
%TO.C,SW1*%
X103750000Y-81250000D03*
X103750000Y-74750000D03*
X108250000Y-81250000D03*
X108250000Y-74750000D03*
%TD*%
D10*
%TO.C,J6*%
X181500000Y-76000000D03*
D11*
X181500000Y-78540000D03*
X181500000Y-81080000D03*
X181500000Y-83620000D03*
X181500000Y-86160000D03*
%TD*%
D10*
%TO.C,J5*%
X181500000Y-92500000D03*
D11*
X181500000Y-95040000D03*
X181500000Y-97580000D03*
X181500000Y-100120000D03*
X181500000Y-102660000D03*
%TD*%
D19*
%TO.C,D1*%
X164725000Y-60000000D03*
D20*
X167265000Y-60000000D03*
%TD*%
M02*
