%TF.GenerationSoftware,KiCad,Pcbnew,8.0.3*%
%TF.CreationDate,2024-07-29T20:38:45-07:00*%
%TF.ProjectId,First,46697273-742e-46b6-9963-61645f706362,rev?*%
%TF.SameCoordinates,Original*%
%TF.FileFunction,Legend,Bot*%
%TF.FilePolarity,Positive*%
%FSLAX46Y46*%
G04 Gerber Fmt 4.6, Leading zero omitted, Abs format (unit mm)*
G04 Created by KiCad (PCBNEW 8.0.3) date 2024-07-29 20:38:45*
%MOMM*%
%LPD*%
G01*
G04 APERTURE LIST*
%ADD10C,0.100000*%
G04 APERTURE END LIST*
D10*
X159696115Y-66652531D02*
X159696115Y-65652531D01*
X159696115Y-65652531D02*
X159315163Y-65652531D01*
X159315163Y-65652531D02*
X159219925Y-65700150D01*
X159219925Y-65700150D02*
X159172306Y-65747769D01*
X159172306Y-65747769D02*
X159124687Y-65843007D01*
X159124687Y-65843007D02*
X159124687Y-65985864D01*
X159124687Y-65985864D02*
X159172306Y-66081102D01*
X159172306Y-66081102D02*
X159219925Y-66128721D01*
X159219925Y-66128721D02*
X159315163Y-66176340D01*
X159315163Y-66176340D02*
X159696115Y-66176340D01*
X158696115Y-66652531D02*
X158696115Y-65985864D01*
X158696115Y-66176340D02*
X158648496Y-66081102D01*
X158648496Y-66081102D02*
X158600877Y-66033483D01*
X158600877Y-66033483D02*
X158505639Y-65985864D01*
X158505639Y-65985864D02*
X158410401Y-65985864D01*
X157934210Y-66652531D02*
X158029448Y-66604912D01*
X158029448Y-66604912D02*
X158077067Y-66557292D01*
X158077067Y-66557292D02*
X158124686Y-66462054D01*
X158124686Y-66462054D02*
X158124686Y-66176340D01*
X158124686Y-66176340D02*
X158077067Y-66081102D01*
X158077067Y-66081102D02*
X158029448Y-66033483D01*
X158029448Y-66033483D02*
X157934210Y-65985864D01*
X157934210Y-65985864D02*
X157791353Y-65985864D01*
X157791353Y-65985864D02*
X157696115Y-66033483D01*
X157696115Y-66033483D02*
X157648496Y-66081102D01*
X157648496Y-66081102D02*
X157600877Y-66176340D01*
X157600877Y-66176340D02*
X157600877Y-66462054D01*
X157600877Y-66462054D02*
X157648496Y-66557292D01*
X157648496Y-66557292D02*
X157696115Y-66604912D01*
X157696115Y-66604912D02*
X157791353Y-66652531D01*
X157791353Y-66652531D02*
X157934210Y-66652531D01*
X157172305Y-65985864D02*
X157172305Y-66843007D01*
X157172305Y-66843007D02*
X157219924Y-66938245D01*
X157219924Y-66938245D02*
X157315162Y-66985864D01*
X157315162Y-66985864D02*
X157362781Y-66985864D01*
X157172305Y-65652531D02*
X157219924Y-65700150D01*
X157219924Y-65700150D02*
X157172305Y-65747769D01*
X157172305Y-65747769D02*
X157124686Y-65700150D01*
X157124686Y-65700150D02*
X157172305Y-65652531D01*
X157172305Y-65652531D02*
X157172305Y-65747769D01*
X156315163Y-66604912D02*
X156410401Y-66652531D01*
X156410401Y-66652531D02*
X156600877Y-66652531D01*
X156600877Y-66652531D02*
X156696115Y-66604912D01*
X156696115Y-66604912D02*
X156743734Y-66509673D01*
X156743734Y-66509673D02*
X156743734Y-66128721D01*
X156743734Y-66128721D02*
X156696115Y-66033483D01*
X156696115Y-66033483D02*
X156600877Y-65985864D01*
X156600877Y-65985864D02*
X156410401Y-65985864D01*
X156410401Y-65985864D02*
X156315163Y-66033483D01*
X156315163Y-66033483D02*
X156267544Y-66128721D01*
X156267544Y-66128721D02*
X156267544Y-66223959D01*
X156267544Y-66223959D02*
X156743734Y-66319197D01*
X155410401Y-66604912D02*
X155505639Y-66652531D01*
X155505639Y-66652531D02*
X155696115Y-66652531D01*
X155696115Y-66652531D02*
X155791353Y-66604912D01*
X155791353Y-66604912D02*
X155838972Y-66557292D01*
X155838972Y-66557292D02*
X155886591Y-66462054D01*
X155886591Y-66462054D02*
X155886591Y-66176340D01*
X155886591Y-66176340D02*
X155838972Y-66081102D01*
X155838972Y-66081102D02*
X155791353Y-66033483D01*
X155791353Y-66033483D02*
X155696115Y-65985864D01*
X155696115Y-65985864D02*
X155505639Y-65985864D01*
X155505639Y-65985864D02*
X155410401Y-66033483D01*
X155124686Y-65985864D02*
X154743734Y-65985864D01*
X154981829Y-65652531D02*
X154981829Y-66509673D01*
X154981829Y-66509673D02*
X154934210Y-66604912D01*
X154934210Y-66604912D02*
X154838972Y-66652531D01*
X154838972Y-66652531D02*
X154743734Y-66652531D01*
X153648495Y-66652531D02*
X153648495Y-65652531D01*
X153648495Y-66033483D02*
X153553257Y-65985864D01*
X153553257Y-65985864D02*
X153362781Y-65985864D01*
X153362781Y-65985864D02*
X153267543Y-66033483D01*
X153267543Y-66033483D02*
X153219924Y-66081102D01*
X153219924Y-66081102D02*
X153172305Y-66176340D01*
X153172305Y-66176340D02*
X153172305Y-66462054D01*
X153172305Y-66462054D02*
X153219924Y-66557292D01*
X153219924Y-66557292D02*
X153267543Y-66604912D01*
X153267543Y-66604912D02*
X153362781Y-66652531D01*
X153362781Y-66652531D02*
X153553257Y-66652531D01*
X153553257Y-66652531D02*
X153648495Y-66604912D01*
X152838971Y-65985864D02*
X152600876Y-66652531D01*
X152362781Y-65985864D02*
X152600876Y-66652531D01*
X152600876Y-66652531D02*
X152696114Y-66890626D01*
X152696114Y-66890626D02*
X152743733Y-66938245D01*
X152743733Y-66938245D02*
X152838971Y-66985864D01*
X151267542Y-66604912D02*
X151124685Y-66652531D01*
X151124685Y-66652531D02*
X150886590Y-66652531D01*
X150886590Y-66652531D02*
X150791352Y-66604912D01*
X150791352Y-66604912D02*
X150743733Y-66557292D01*
X150743733Y-66557292D02*
X150696114Y-66462054D01*
X150696114Y-66462054D02*
X150696114Y-66366816D01*
X150696114Y-66366816D02*
X150743733Y-66271578D01*
X150743733Y-66271578D02*
X150791352Y-66223959D01*
X150791352Y-66223959D02*
X150886590Y-66176340D01*
X150886590Y-66176340D02*
X151077066Y-66128721D01*
X151077066Y-66128721D02*
X151172304Y-66081102D01*
X151172304Y-66081102D02*
X151219923Y-66033483D01*
X151219923Y-66033483D02*
X151267542Y-65938245D01*
X151267542Y-65938245D02*
X151267542Y-65843007D01*
X151267542Y-65843007D02*
X151219923Y-65747769D01*
X151219923Y-65747769D02*
X151172304Y-65700150D01*
X151172304Y-65700150D02*
X151077066Y-65652531D01*
X151077066Y-65652531D02*
X150838971Y-65652531D01*
X150838971Y-65652531D02*
X150696114Y-65700150D01*
X150267542Y-66652531D02*
X150267542Y-65652531D01*
X149838971Y-66652531D02*
X149838971Y-66128721D01*
X149838971Y-66128721D02*
X149886590Y-66033483D01*
X149886590Y-66033483D02*
X149981828Y-65985864D01*
X149981828Y-65985864D02*
X150124685Y-65985864D01*
X150124685Y-65985864D02*
X150219923Y-66033483D01*
X150219923Y-66033483D02*
X150267542Y-66081102D01*
X149362780Y-66652531D02*
X149362780Y-65985864D01*
X149362780Y-66176340D02*
X149315161Y-66081102D01*
X149315161Y-66081102D02*
X149267542Y-66033483D01*
X149267542Y-66033483D02*
X149172304Y-65985864D01*
X149172304Y-65985864D02*
X149077066Y-65985864D01*
X148362780Y-66604912D02*
X148458018Y-66652531D01*
X148458018Y-66652531D02*
X148648494Y-66652531D01*
X148648494Y-66652531D02*
X148743732Y-66604912D01*
X148743732Y-66604912D02*
X148791351Y-66509673D01*
X148791351Y-66509673D02*
X148791351Y-66128721D01*
X148791351Y-66128721D02*
X148743732Y-66033483D01*
X148743732Y-66033483D02*
X148648494Y-65985864D01*
X148648494Y-65985864D02*
X148458018Y-65985864D01*
X148458018Y-65985864D02*
X148362780Y-66033483D01*
X148362780Y-66033483D02*
X148315161Y-66128721D01*
X148315161Y-66128721D02*
X148315161Y-66223959D01*
X148315161Y-66223959D02*
X148791351Y-66319197D01*
X147505637Y-66604912D02*
X147600875Y-66652531D01*
X147600875Y-66652531D02*
X147791351Y-66652531D01*
X147791351Y-66652531D02*
X147886589Y-66604912D01*
X147886589Y-66604912D02*
X147934208Y-66509673D01*
X147934208Y-66509673D02*
X147934208Y-66128721D01*
X147934208Y-66128721D02*
X147886589Y-66033483D01*
X147886589Y-66033483D02*
X147791351Y-65985864D01*
X147791351Y-65985864D02*
X147600875Y-65985864D01*
X147600875Y-65985864D02*
X147505637Y-66033483D01*
X147505637Y-66033483D02*
X147458018Y-66128721D01*
X147458018Y-66128721D02*
X147458018Y-66223959D01*
X147458018Y-66223959D02*
X147934208Y-66319197D01*
X145743732Y-65700150D02*
X145838970Y-65652531D01*
X145838970Y-65652531D02*
X145981827Y-65652531D01*
X145981827Y-65652531D02*
X146124684Y-65700150D01*
X146124684Y-65700150D02*
X146219922Y-65795388D01*
X146219922Y-65795388D02*
X146267541Y-65890626D01*
X146267541Y-65890626D02*
X146315160Y-66081102D01*
X146315160Y-66081102D02*
X146315160Y-66223959D01*
X146315160Y-66223959D02*
X146267541Y-66414435D01*
X146267541Y-66414435D02*
X146219922Y-66509673D01*
X146219922Y-66509673D02*
X146124684Y-66604912D01*
X146124684Y-66604912D02*
X145981827Y-66652531D01*
X145981827Y-66652531D02*
X145886589Y-66652531D01*
X145886589Y-66652531D02*
X145743732Y-66604912D01*
X145743732Y-66604912D02*
X145696113Y-66557292D01*
X145696113Y-66557292D02*
X145696113Y-66223959D01*
X145696113Y-66223959D02*
X145886589Y-66223959D01*
X144838970Y-66652531D02*
X144838970Y-66128721D01*
X144838970Y-66128721D02*
X144886589Y-66033483D01*
X144886589Y-66033483D02*
X144981827Y-65985864D01*
X144981827Y-65985864D02*
X145172303Y-65985864D01*
X145172303Y-65985864D02*
X145267541Y-66033483D01*
X144838970Y-66604912D02*
X144934208Y-66652531D01*
X144934208Y-66652531D02*
X145172303Y-66652531D01*
X145172303Y-66652531D02*
X145267541Y-66604912D01*
X145267541Y-66604912D02*
X145315160Y-66509673D01*
X145315160Y-66509673D02*
X145315160Y-66414435D01*
X145315160Y-66414435D02*
X145267541Y-66319197D01*
X145267541Y-66319197D02*
X145172303Y-66271578D01*
X145172303Y-66271578D02*
X144934208Y-66271578D01*
X144934208Y-66271578D02*
X144838970Y-66223959D01*
X144362779Y-65985864D02*
X144362779Y-66652531D01*
X144362779Y-66081102D02*
X144315160Y-66033483D01*
X144315160Y-66033483D02*
X144219922Y-65985864D01*
X144219922Y-65985864D02*
X144077065Y-65985864D01*
X144077065Y-65985864D02*
X143981827Y-66033483D01*
X143981827Y-66033483D02*
X143934208Y-66128721D01*
X143934208Y-66128721D02*
X143934208Y-66652531D01*
X143077065Y-66604912D02*
X143172303Y-66652531D01*
X143172303Y-66652531D02*
X143362779Y-66652531D01*
X143362779Y-66652531D02*
X143458017Y-66604912D01*
X143458017Y-66604912D02*
X143505636Y-66509673D01*
X143505636Y-66509673D02*
X143505636Y-66128721D01*
X143505636Y-66128721D02*
X143458017Y-66033483D01*
X143458017Y-66033483D02*
X143362779Y-65985864D01*
X143362779Y-65985864D02*
X143172303Y-65985864D01*
X143172303Y-65985864D02*
X143077065Y-66033483D01*
X143077065Y-66033483D02*
X143029446Y-66128721D01*
X143029446Y-66128721D02*
X143029446Y-66223959D01*
X143029446Y-66223959D02*
X143505636Y-66319197D01*
X142648493Y-66604912D02*
X142553255Y-66652531D01*
X142553255Y-66652531D02*
X142362779Y-66652531D01*
X142362779Y-66652531D02*
X142267541Y-66604912D01*
X142267541Y-66604912D02*
X142219922Y-66509673D01*
X142219922Y-66509673D02*
X142219922Y-66462054D01*
X142219922Y-66462054D02*
X142267541Y-66366816D01*
X142267541Y-66366816D02*
X142362779Y-66319197D01*
X142362779Y-66319197D02*
X142505636Y-66319197D01*
X142505636Y-66319197D02*
X142600874Y-66271578D01*
X142600874Y-66271578D02*
X142648493Y-66176340D01*
X142648493Y-66176340D02*
X142648493Y-66128721D01*
X142648493Y-66128721D02*
X142600874Y-66033483D01*
X142600874Y-66033483D02*
X142505636Y-65985864D01*
X142505636Y-65985864D02*
X142362779Y-65985864D01*
X142362779Y-65985864D02*
X142267541Y-66033483D01*
X141791350Y-66652531D02*
X141791350Y-65652531D01*
X141362779Y-66652531D02*
X141362779Y-66128721D01*
X141362779Y-66128721D02*
X141410398Y-66033483D01*
X141410398Y-66033483D02*
X141505636Y-65985864D01*
X141505636Y-65985864D02*
X141648493Y-65985864D01*
X141648493Y-65985864D02*
X141743731Y-66033483D01*
X141743731Y-66033483D02*
X141791350Y-66081102D01*
X140219921Y-65652531D02*
X139981826Y-66652531D01*
X139981826Y-66652531D02*
X139791350Y-65938245D01*
X139791350Y-65938245D02*
X139600874Y-66652531D01*
X139600874Y-66652531D02*
X139362779Y-65652531D01*
X138838969Y-66652531D02*
X138934207Y-66604912D01*
X138934207Y-66604912D02*
X138981826Y-66557292D01*
X138981826Y-66557292D02*
X139029445Y-66462054D01*
X139029445Y-66462054D02*
X139029445Y-66176340D01*
X139029445Y-66176340D02*
X138981826Y-66081102D01*
X138981826Y-66081102D02*
X138934207Y-66033483D01*
X138934207Y-66033483D02*
X138838969Y-65985864D01*
X138838969Y-65985864D02*
X138696112Y-65985864D01*
X138696112Y-65985864D02*
X138600874Y-66033483D01*
X138600874Y-66033483D02*
X138553255Y-66081102D01*
X138553255Y-66081102D02*
X138505636Y-66176340D01*
X138505636Y-66176340D02*
X138505636Y-66462054D01*
X138505636Y-66462054D02*
X138553255Y-66557292D01*
X138553255Y-66557292D02*
X138600874Y-66604912D01*
X138600874Y-66604912D02*
X138696112Y-66652531D01*
X138696112Y-66652531D02*
X138838969Y-66652531D01*
X137934207Y-66652531D02*
X138029445Y-66604912D01*
X138029445Y-66604912D02*
X138077064Y-66557292D01*
X138077064Y-66557292D02*
X138124683Y-66462054D01*
X138124683Y-66462054D02*
X138124683Y-66176340D01*
X138124683Y-66176340D02*
X138077064Y-66081102D01*
X138077064Y-66081102D02*
X138029445Y-66033483D01*
X138029445Y-66033483D02*
X137934207Y-65985864D01*
X137934207Y-65985864D02*
X137791350Y-65985864D01*
X137791350Y-65985864D02*
X137696112Y-66033483D01*
X137696112Y-66033483D02*
X137648493Y-66081102D01*
X137648493Y-66081102D02*
X137600874Y-66176340D01*
X137600874Y-66176340D02*
X137600874Y-66462054D01*
X137600874Y-66462054D02*
X137648493Y-66557292D01*
X137648493Y-66557292D02*
X137696112Y-66604912D01*
X137696112Y-66604912D02*
X137791350Y-66652531D01*
X137791350Y-66652531D02*
X137934207Y-66652531D01*
X137172302Y-66652531D02*
X137172302Y-65985864D01*
X137172302Y-66176340D02*
X137124683Y-66081102D01*
X137124683Y-66081102D02*
X137077064Y-66033483D01*
X137077064Y-66033483D02*
X136981826Y-65985864D01*
X136981826Y-65985864D02*
X136886588Y-65985864D01*
X136124683Y-66652531D02*
X136124683Y-66128721D01*
X136124683Y-66128721D02*
X136172302Y-66033483D01*
X136172302Y-66033483D02*
X136267540Y-65985864D01*
X136267540Y-65985864D02*
X136458016Y-65985864D01*
X136458016Y-65985864D02*
X136553254Y-66033483D01*
X136124683Y-66604912D02*
X136219921Y-66652531D01*
X136219921Y-66652531D02*
X136458016Y-66652531D01*
X136458016Y-66652531D02*
X136553254Y-66604912D01*
X136553254Y-66604912D02*
X136600873Y-66509673D01*
X136600873Y-66509673D02*
X136600873Y-66414435D01*
X136600873Y-66414435D02*
X136553254Y-66319197D01*
X136553254Y-66319197D02*
X136458016Y-66271578D01*
X136458016Y-66271578D02*
X136219921Y-66271578D01*
X136219921Y-66271578D02*
X136124683Y-66223959D01*
X135219921Y-66652531D02*
X135219921Y-65652531D01*
X135219921Y-66604912D02*
X135315159Y-66652531D01*
X135315159Y-66652531D02*
X135505635Y-66652531D01*
X135505635Y-66652531D02*
X135600873Y-66604912D01*
X135600873Y-66604912D02*
X135648492Y-66557292D01*
X135648492Y-66557292D02*
X135696111Y-66462054D01*
X135696111Y-66462054D02*
X135696111Y-66176340D01*
X135696111Y-66176340D02*
X135648492Y-66081102D01*
X135648492Y-66081102D02*
X135600873Y-66033483D01*
X135600873Y-66033483D02*
X135505635Y-65985864D01*
X135505635Y-65985864D02*
X135315159Y-65985864D01*
X135315159Y-65985864D02*
X135219921Y-66033483D01*
X134743730Y-66652531D02*
X134743730Y-65985864D01*
X134743730Y-65652531D02*
X134791349Y-65700150D01*
X134791349Y-65700150D02*
X134743730Y-65747769D01*
X134743730Y-65747769D02*
X134696111Y-65700150D01*
X134696111Y-65700150D02*
X134743730Y-65652531D01*
X134743730Y-65652531D02*
X134743730Y-65747769D01*
X159267544Y-69205752D02*
X159267544Y-70015276D01*
X159267544Y-70015276D02*
X159315163Y-70110514D01*
X159315163Y-70110514D02*
X159362782Y-70158133D01*
X159362782Y-70158133D02*
X159458020Y-70205752D01*
X159458020Y-70205752D02*
X159600877Y-70205752D01*
X159600877Y-70205752D02*
X159696115Y-70158133D01*
X159267544Y-69824800D02*
X159362782Y-69872419D01*
X159362782Y-69872419D02*
X159553258Y-69872419D01*
X159553258Y-69872419D02*
X159648496Y-69824800D01*
X159648496Y-69824800D02*
X159696115Y-69777180D01*
X159696115Y-69777180D02*
X159743734Y-69681942D01*
X159743734Y-69681942D02*
X159743734Y-69396228D01*
X159743734Y-69396228D02*
X159696115Y-69300990D01*
X159696115Y-69300990D02*
X159648496Y-69253371D01*
X159648496Y-69253371D02*
X159553258Y-69205752D01*
X159553258Y-69205752D02*
X159362782Y-69205752D01*
X159362782Y-69205752D02*
X159267544Y-69253371D01*
X158791353Y-69872419D02*
X158791353Y-69205752D01*
X158791353Y-68872419D02*
X158838972Y-68920038D01*
X158838972Y-68920038D02*
X158791353Y-68967657D01*
X158791353Y-68967657D02*
X158743734Y-68920038D01*
X158743734Y-68920038D02*
X158791353Y-68872419D01*
X158791353Y-68872419D02*
X158791353Y-68967657D01*
X158458020Y-69205752D02*
X158077068Y-69205752D01*
X158315163Y-68872419D02*
X158315163Y-69729561D01*
X158315163Y-69729561D02*
X158267544Y-69824800D01*
X158267544Y-69824800D02*
X158172306Y-69872419D01*
X158172306Y-69872419D02*
X158077068Y-69872419D01*
X157743734Y-69872419D02*
X157743734Y-68872419D01*
X157315163Y-69872419D02*
X157315163Y-69348609D01*
X157315163Y-69348609D02*
X157362782Y-69253371D01*
X157362782Y-69253371D02*
X157458020Y-69205752D01*
X157458020Y-69205752D02*
X157600877Y-69205752D01*
X157600877Y-69205752D02*
X157696115Y-69253371D01*
X157696115Y-69253371D02*
X157743734Y-69300990D01*
X156410401Y-69205752D02*
X156410401Y-69872419D01*
X156838972Y-69205752D02*
X156838972Y-69729561D01*
X156838972Y-69729561D02*
X156791353Y-69824800D01*
X156791353Y-69824800D02*
X156696115Y-69872419D01*
X156696115Y-69872419D02*
X156553258Y-69872419D01*
X156553258Y-69872419D02*
X156458020Y-69824800D01*
X156458020Y-69824800D02*
X156410401Y-69777180D01*
X155934210Y-69872419D02*
X155934210Y-68872419D01*
X155934210Y-69253371D02*
X155838972Y-69205752D01*
X155838972Y-69205752D02*
X155648496Y-69205752D01*
X155648496Y-69205752D02*
X155553258Y-69253371D01*
X155553258Y-69253371D02*
X155505639Y-69300990D01*
X155505639Y-69300990D02*
X155458020Y-69396228D01*
X155458020Y-69396228D02*
X155458020Y-69681942D01*
X155458020Y-69681942D02*
X155505639Y-69777180D01*
X155505639Y-69777180D02*
X155553258Y-69824800D01*
X155553258Y-69824800D02*
X155648496Y-69872419D01*
X155648496Y-69872419D02*
X155838972Y-69872419D01*
X155838972Y-69872419D02*
X155934210Y-69824800D01*
X155029448Y-69777180D02*
X154981829Y-69824800D01*
X154981829Y-69824800D02*
X155029448Y-69872419D01*
X155029448Y-69872419D02*
X155077067Y-69824800D01*
X155077067Y-69824800D02*
X155029448Y-69777180D01*
X155029448Y-69777180D02*
X155029448Y-69872419D01*
X154124687Y-69824800D02*
X154219925Y-69872419D01*
X154219925Y-69872419D02*
X154410401Y-69872419D01*
X154410401Y-69872419D02*
X154505639Y-69824800D01*
X154505639Y-69824800D02*
X154553258Y-69777180D01*
X154553258Y-69777180D02*
X154600877Y-69681942D01*
X154600877Y-69681942D02*
X154600877Y-69396228D01*
X154600877Y-69396228D02*
X154553258Y-69300990D01*
X154553258Y-69300990D02*
X154505639Y-69253371D01*
X154505639Y-69253371D02*
X154410401Y-69205752D01*
X154410401Y-69205752D02*
X154219925Y-69205752D01*
X154219925Y-69205752D02*
X154124687Y-69253371D01*
X153553258Y-69872419D02*
X153648496Y-69824800D01*
X153648496Y-69824800D02*
X153696115Y-69777180D01*
X153696115Y-69777180D02*
X153743734Y-69681942D01*
X153743734Y-69681942D02*
X153743734Y-69396228D01*
X153743734Y-69396228D02*
X153696115Y-69300990D01*
X153696115Y-69300990D02*
X153648496Y-69253371D01*
X153648496Y-69253371D02*
X153553258Y-69205752D01*
X153553258Y-69205752D02*
X153410401Y-69205752D01*
X153410401Y-69205752D02*
X153315163Y-69253371D01*
X153315163Y-69253371D02*
X153267544Y-69300990D01*
X153267544Y-69300990D02*
X153219925Y-69396228D01*
X153219925Y-69396228D02*
X153219925Y-69681942D01*
X153219925Y-69681942D02*
X153267544Y-69777180D01*
X153267544Y-69777180D02*
X153315163Y-69824800D01*
X153315163Y-69824800D02*
X153410401Y-69872419D01*
X153410401Y-69872419D02*
X153553258Y-69872419D01*
X152791353Y-69872419D02*
X152791353Y-69205752D01*
X152791353Y-69300990D02*
X152743734Y-69253371D01*
X152743734Y-69253371D02*
X152648496Y-69205752D01*
X152648496Y-69205752D02*
X152505639Y-69205752D01*
X152505639Y-69205752D02*
X152410401Y-69253371D01*
X152410401Y-69253371D02*
X152362782Y-69348609D01*
X152362782Y-69348609D02*
X152362782Y-69872419D01*
X152362782Y-69348609D02*
X152315163Y-69253371D01*
X152315163Y-69253371D02*
X152219925Y-69205752D01*
X152219925Y-69205752D02*
X152077068Y-69205752D01*
X152077068Y-69205752D02*
X151981829Y-69253371D01*
X151981829Y-69253371D02*
X151934210Y-69348609D01*
X151934210Y-69348609D02*
X151934210Y-69872419D01*
X150743735Y-68824800D02*
X151600877Y-70110514D01*
X150458020Y-69824800D02*
X150362782Y-69872419D01*
X150362782Y-69872419D02*
X150172306Y-69872419D01*
X150172306Y-69872419D02*
X150077068Y-69824800D01*
X150077068Y-69824800D02*
X150029449Y-69729561D01*
X150029449Y-69729561D02*
X150029449Y-69681942D01*
X150029449Y-69681942D02*
X150077068Y-69586704D01*
X150077068Y-69586704D02*
X150172306Y-69539085D01*
X150172306Y-69539085D02*
X150315163Y-69539085D01*
X150315163Y-69539085D02*
X150410401Y-69491466D01*
X150410401Y-69491466D02*
X150458020Y-69396228D01*
X150458020Y-69396228D02*
X150458020Y-69348609D01*
X150458020Y-69348609D02*
X150410401Y-69253371D01*
X150410401Y-69253371D02*
X150315163Y-69205752D01*
X150315163Y-69205752D02*
X150172306Y-69205752D01*
X150172306Y-69205752D02*
X150077068Y-69253371D01*
X149600877Y-69872419D02*
X149600877Y-68872419D01*
X149172306Y-69872419D02*
X149172306Y-69348609D01*
X149172306Y-69348609D02*
X149219925Y-69253371D01*
X149219925Y-69253371D02*
X149315163Y-69205752D01*
X149315163Y-69205752D02*
X149458020Y-69205752D01*
X149458020Y-69205752D02*
X149553258Y-69253371D01*
X149553258Y-69253371D02*
X149600877Y-69300990D01*
X148696115Y-69872419D02*
X148696115Y-69205752D01*
X148696115Y-69396228D02*
X148648496Y-69300990D01*
X148648496Y-69300990D02*
X148600877Y-69253371D01*
X148600877Y-69253371D02*
X148505639Y-69205752D01*
X148505639Y-69205752D02*
X148410401Y-69205752D01*
X147696115Y-69824800D02*
X147791353Y-69872419D01*
X147791353Y-69872419D02*
X147981829Y-69872419D01*
X147981829Y-69872419D02*
X148077067Y-69824800D01*
X148077067Y-69824800D02*
X148124686Y-69729561D01*
X148124686Y-69729561D02*
X148124686Y-69348609D01*
X148124686Y-69348609D02*
X148077067Y-69253371D01*
X148077067Y-69253371D02*
X147981829Y-69205752D01*
X147981829Y-69205752D02*
X147791353Y-69205752D01*
X147791353Y-69205752D02*
X147696115Y-69253371D01*
X147696115Y-69253371D02*
X147648496Y-69348609D01*
X147648496Y-69348609D02*
X147648496Y-69443847D01*
X147648496Y-69443847D02*
X148124686Y-69539085D01*
X146838972Y-69824800D02*
X146934210Y-69872419D01*
X146934210Y-69872419D02*
X147124686Y-69872419D01*
X147124686Y-69872419D02*
X147219924Y-69824800D01*
X147219924Y-69824800D02*
X147267543Y-69729561D01*
X147267543Y-69729561D02*
X147267543Y-69348609D01*
X147267543Y-69348609D02*
X147219924Y-69253371D01*
X147219924Y-69253371D02*
X147124686Y-69205752D01*
X147124686Y-69205752D02*
X146934210Y-69205752D01*
X146934210Y-69205752D02*
X146838972Y-69253371D01*
X146838972Y-69253371D02*
X146791353Y-69348609D01*
X146791353Y-69348609D02*
X146791353Y-69443847D01*
X146791353Y-69443847D02*
X147267543Y-69539085D01*
X145934210Y-69205752D02*
X145934210Y-70015276D01*
X145934210Y-70015276D02*
X145981829Y-70110514D01*
X145981829Y-70110514D02*
X146029448Y-70158133D01*
X146029448Y-70158133D02*
X146124686Y-70205752D01*
X146124686Y-70205752D02*
X146267543Y-70205752D01*
X146267543Y-70205752D02*
X146362781Y-70158133D01*
X145934210Y-69824800D02*
X146029448Y-69872419D01*
X146029448Y-69872419D02*
X146219924Y-69872419D01*
X146219924Y-69872419D02*
X146315162Y-69824800D01*
X146315162Y-69824800D02*
X146362781Y-69777180D01*
X146362781Y-69777180D02*
X146410400Y-69681942D01*
X146410400Y-69681942D02*
X146410400Y-69396228D01*
X146410400Y-69396228D02*
X146362781Y-69300990D01*
X146362781Y-69300990D02*
X146315162Y-69253371D01*
X146315162Y-69253371D02*
X146219924Y-69205752D01*
X146219924Y-69205752D02*
X146029448Y-69205752D01*
X146029448Y-69205752D02*
X145934210Y-69253371D01*
X145553257Y-69205752D02*
X145362781Y-69872419D01*
X145362781Y-69872419D02*
X145172305Y-69396228D01*
X145172305Y-69396228D02*
X144981829Y-69872419D01*
X144981829Y-69872419D02*
X144791353Y-69205752D01*
M02*
