M48
; DRILL file {KiCad 8.0.3} date 2024-07-29T20:38:39-0700
; FORMAT={-:-/ absolute / inch / decimal}
; #@! TF.CreationDate,2024-07-29T20:38:39-07:00
; #@! TF.GenerationSoftware,Kicad,Pcbnew,8.0.3
; #@! TF.FileFunction,Plated,1,2,PTH
FMAT,2
INCH
; #@! TA.AperFunction,Plated,PTH,ViaDrill
T1C0.0118
; #@! TA.AperFunction,Plated,PTH,ComponentDrill
T2C0.0315
; #@! TA.AperFunction,Plated,PTH,ComponentDrill
T3C0.0354
; #@! TA.AperFunction,Plated,PTH,ComponentDrill
T4C0.0394
; #@! TA.AperFunction,Plated,PTH,ComponentDrill
T5C0.0433
; #@! TA.AperFunction,Plated,PTH,ComponentDrill
T6C0.0512
%
G90
G05
T1
X5.3459Y-3.0603
X5.5135Y-3.7703
X5.945Y-4.5915
X6.7934Y-5.211
X6.8811Y-4.8186
X7.0523Y-5.2831
X7.0774Y-5.2121
X7.1041Y-5.1511
T2
X6.8382Y-2.3622
X7.1382Y-2.3622
T3
X6.4852Y-2.3622
X6.5852Y-2.3622
T4
X4.2323Y-4.7841
X4.2323Y-4.8841
X4.2323Y-4.9841
X4.2323Y-5.0841
X4.2323Y-5.1841
X4.2323Y-5.2841
X4.2323Y-5.3841
X4.2323Y-5.4841
X4.6063Y-3.0008
X4.6063Y-3.1008
X4.6063Y-3.2008
X4.6063Y-3.3008
X4.6063Y-3.4008
X4.6063Y-3.5008
X4.6063Y-3.6008
X4.6063Y-3.7008
X4.6118Y-4.7835
X4.6118Y-4.8835
X4.6118Y-4.9835
X4.6118Y-5.0835
X4.6118Y-5.1835
X4.6118Y-5.2835
X4.6118Y-5.3835
X4.6118Y-5.4835
X5.5063Y-3.0008
X5.5063Y-3.1008
X5.5063Y-3.2008
X5.5063Y-3.3008
X5.5063Y-3.4008
X5.5063Y-3.5008
X5.5063Y-3.6008
X5.5063Y-3.7008
X5.5118Y-4.7835
X5.5118Y-4.8835
X5.5118Y-4.9835
X5.5118Y-5.0835
X5.5118Y-5.1835
X5.5118Y-5.2835
X5.5118Y-5.3835
X5.5118Y-5.4835
X5.7874Y-4.7841
X5.7874Y-4.8841
X5.7874Y-4.9841
X5.7874Y-5.0841
X5.7874Y-5.1841
X5.7874Y-5.2841
X5.7874Y-5.3841
X5.7874Y-5.4841
X6.0236Y-3.0008
X6.0236Y-3.1008
X6.0236Y-3.2008
X6.0236Y-3.3008
X6.0236Y-3.4008
X6.0236Y-3.5008
X6.0236Y-3.6008
X6.0236Y-3.7008
X6.0291Y-4.7835
X6.0291Y-4.8835
X6.0291Y-4.9835
X6.0291Y-5.0835
X6.0291Y-5.1835
X6.0291Y-5.2835
X6.0291Y-5.3835
X6.0291Y-5.4835
X6.9236Y-3.0008
X6.9236Y-3.1008
X6.9236Y-3.2008
X6.9236Y-3.3008
X6.9236Y-3.4008
X6.9236Y-3.5008
X6.9236Y-3.6008
X6.9236Y-3.7008
X6.9291Y-4.7835
X6.9291Y-4.8835
X6.9291Y-4.9835
X6.9291Y-5.0835
X6.9291Y-5.1835
X6.9291Y-5.2835
X6.9291Y-5.3835
X6.9291Y-5.4835
X7.1457Y-2.9921
X7.1457Y-3.0921
X7.1457Y-3.1921
X7.1457Y-3.2921
X7.1457Y-3.3921
X7.1457Y-3.6417
X7.1457Y-3.7417
X7.1457Y-3.8417
X7.1457Y-3.9417
X7.1457Y-4.0417
X7.1457Y-4.3701
X7.1457Y-4.4701
X7.1457Y-4.5701
X7.1457Y-4.6701
X7.1457Y-4.7701
T5
X4.0846Y-2.9429
X4.0846Y-3.1988
X4.2618Y-2.9429
X4.2618Y-3.1988
T6
X7.5984Y-2.4016
X7.5984Y-2.5984
X7.5984Y-2.7953
X7.5984Y-2.9921
X7.5984Y-3.189
X7.5984Y-3.3858
X7.5984Y-3.5827
X7.5984Y-3.7795
X7.5984Y-4.3504
X7.5984Y-4.5472
X7.5984Y-4.7441
X7.5984Y-4.9409
X7.5984Y-5.1378
X7.5984Y-5.3346
X7.5984Y-5.5315
X7.5984Y-5.7283
M30
