M48
; DRILL file {KiCad 8.0.3} date 2024-08-06T14:14:21-0700
; FORMAT={-:-/ absolute / inch / decimal}
; #@! TF.CreationDate,2024-08-06T14:14:21-07:00
; #@! TF.GenerationSoftware,Kicad,Pcbnew,8.0.3
; #@! TF.FileFunction,Plated,1,2,PTH
FMAT,2
INCH
; #@! TA.AperFunction,Plated,PTH,ComponentDrill
T1C0.0295
; #@! TA.AperFunction,Plated,PTH,ComponentDrill
T2C0.0315
; #@! TA.AperFunction,Plated,PTH,ComponentDrill
T3C0.0354
; #@! TA.AperFunction,Plated,PTH,ComponentDrill
T4C0.0394
; #@! TA.AperFunction,Plated,PTH,ComponentDrill
T5C0.0433
; #@! TA.AperFunction,Plated,PTH,ComponentDrill
T6C0.0512
%
G90
G05
T1
X5.5496Y-2.6772
X5.5996Y-2.6772
X5.6496Y-2.6772
T2
X4.4685Y-2.6256
X4.4685Y-2.9256
X4.4685Y-3.1768
X4.4685Y-3.4768
X5.4409Y-3.5719
X5.4409Y-3.6719
X5.7409Y-3.5719
X5.7409Y-3.6719
T3
X5.3445Y-3.2805
X5.4445Y-3.2805
T4
X4.4685Y-3.7205
X4.7224Y-2.6398
X4.7224Y-3.1122
T5
X5.6299Y-2.9102
X5.6299Y-3.3102
T6
X4.6457Y-2.874
X4.7835Y-3.6024
X4.9803Y-3.6024
X5.1772Y-3.6024
X5.2028Y-3.1122
X5.2047Y-2.6378
M30
