%TF.GenerationSoftware,KiCad,Pcbnew,8.0.3*%
%TF.CreationDate,2024-08-06T14:14:26-07:00*%
%TF.ProjectId,ESP8266_HomAuto,45535038-3236-4365-9f48-6f6d4175746f,rev?*%
%TF.SameCoordinates,Original*%
%TF.FileFunction,Copper,L2,Bot*%
%TF.FilePolarity,Positive*%
%FSLAX46Y46*%
G04 Gerber Fmt 4.6, Leading zero omitted, Abs format (unit mm)*
G04 Created by KiCad (PCBNEW 8.0.3) date 2024-08-06 14:14:26*
%MOMM*%
%LPD*%
G01*
G04 APERTURE LIST*
%TA.AperFunction,ComponentPad*%
%ADD10O,1.600000X1.600000*%
%TD*%
%TA.AperFunction,ComponentPad*%
%ADD11C,1.600000*%
%TD*%
%TA.AperFunction,ComponentPad*%
%ADD12R,1.600000X1.600000*%
%TD*%
%TA.AperFunction,ComponentPad*%
%ADD13O,1.050000X1.500000*%
%TD*%
%TA.AperFunction,ComponentPad*%
%ADD14R,1.050000X1.500000*%
%TD*%
%TA.AperFunction,ComponentPad*%
%ADD15C,3.000000*%
%TD*%
%TA.AperFunction,ComponentPad*%
%ADD16C,2.500000*%
%TD*%
%TA.AperFunction,ComponentPad*%
%ADD17R,2.500000X2.500000*%
%TD*%
%TA.AperFunction,ComponentPad*%
%ADD18R,1.700000X1.700000*%
%TD*%
%TA.AperFunction,ComponentPad*%
%ADD19R,2.200000X2.200000*%
%TD*%
%TA.AperFunction,ComponentPad*%
%ADD20O,2.200000X2.200000*%
%TD*%
%TA.AperFunction,ComponentPad*%
%ADD21R,1.800000X1.800000*%
%TD*%
%TA.AperFunction,ComponentPad*%
%ADD22C,1.800000*%
%TD*%
%TA.AperFunction,Conductor*%
%ADD23C,0.200000*%
%TD*%
G04 APERTURE END LIST*
D10*
%TO.P,R2,2*%
%TO.N,Net-(Q1-B)*%
X113500000Y-80690000D03*
D11*
%TO.P,R2,1*%
%TO.N,Net-(R2-Pad1)*%
X113500000Y-88310000D03*
%TD*%
%TO.P,R1,1*%
%TO.N,+5V*%
X113500000Y-74310000D03*
D10*
%TO.P,R1,2*%
%TO.N,Net-(R1-Pad2)*%
X113500000Y-66690000D03*
%TD*%
D12*
%TO.P,U1,1*%
%TO.N,Net-(R1-Pad2)*%
X138200000Y-90725000D03*
D10*
%TO.P,U1,2*%
%TO.N,Net-(D1-A)*%
X138200000Y-93265000D03*
%TO.P,U1,3*%
%TO.N,Net-(R2-Pad1)*%
X145820000Y-93265000D03*
%TO.P,U1,4*%
%TO.N,+5V*%
X145820000Y-90725000D03*
%TD*%
D13*
%TO.P,Q1,3,E*%
%TO.N,GND*%
X143500000Y-68000000D03*
%TO.P,Q1,2,B*%
%TO.N,Net-(Q1-B)*%
X142230000Y-68000000D03*
D14*
%TO.P,Q1,1,C*%
%TO.N,Net-(D2-A)*%
X140960000Y-68000000D03*
%TD*%
D15*
%TO.P,K1,1*%
%TO.N,Net-(J2-Pin_2)*%
X118000000Y-73000000D03*
D16*
%TO.P,K1,2*%
%TO.N,Net-(D2-A)*%
X119950000Y-79050000D03*
D15*
%TO.P,K1,3*%
%TO.N,Net-(J2-Pin_3)*%
X132150000Y-79050000D03*
%TO.P,K1,4*%
%TO.N,Net-(J2-Pin_1)*%
X132200000Y-67000000D03*
D16*
%TO.P,K1,5*%
%TO.N,+5V*%
X119950000Y-67050000D03*
%TD*%
D17*
%TO.P,J2,1,Pin_1*%
%TO.N,Net-(J2-Pin_1)*%
X121500000Y-91500000D03*
D16*
%TO.P,J2,2,Pin_2*%
%TO.N,Net-(J2-Pin_2)*%
X126500000Y-91500000D03*
%TO.P,J2,3,Pin_3*%
%TO.N,Net-(J2-Pin_3)*%
X131500000Y-91500000D03*
%TD*%
D18*
%TO.P,J1,1,Pin_1*%
%TO.N,Net-(D1-K)*%
X113500000Y-94500000D03*
%TD*%
D19*
%TO.P,D2,1,K*%
%TO.N,+5V*%
X143000000Y-84080000D03*
D20*
%TO.P,D2,2,A*%
%TO.N,Net-(D2-A)*%
X143000000Y-73920000D03*
%TD*%
D21*
%TO.P,D1,1,K*%
%TO.N,Net-(D1-K)*%
X135750000Y-83325000D03*
D22*
%TO.P,D1,2,A*%
%TO.N,Net-(D1-A)*%
X138290000Y-83325000D03*
%TD*%
D23*
%TO.N,Net-(Q1-B)*%
X115868600Y-77219700D02*
X113500000Y-79588300D01*
X115868600Y-72565700D02*
X115868600Y-77219700D01*
X119561100Y-68873200D02*
X115868600Y-72565700D01*
X127745500Y-68873200D02*
X119561100Y-68873200D01*
X131461300Y-65157400D02*
X127745500Y-68873200D01*
X140439100Y-65157400D02*
X131461300Y-65157400D01*
X142230000Y-66948300D02*
X140439100Y-65157400D01*
X142230000Y-68000000D02*
X142230000Y-66948300D01*
X113500000Y-80690000D02*
X113500000Y-79588300D01*
%TO.N,Net-(J2-Pin_3)*%
X131500000Y-79700000D02*
X132150000Y-79050000D01*
X131500000Y-91500000D02*
X131500000Y-79700000D01*
%TO.N,Net-(J2-Pin_1)*%
X121500000Y-91500000D02*
X123051700Y-91500000D01*
X124612600Y-93060900D02*
X123051700Y-91500000D01*
X127166300Y-93060900D02*
X124612600Y-93060900D01*
X129616300Y-90610900D02*
X127166300Y-93060900D01*
X129616300Y-69583700D02*
X129616300Y-90610900D01*
X132200000Y-67000000D02*
X129616300Y-69583700D01*
%TO.N,Net-(J2-Pin_2)*%
X126500000Y-81500000D02*
X118000000Y-73000000D01*
X126500000Y-91500000D02*
X126500000Y-81500000D01*
%TO.N,+5V*%
X145820000Y-88301700D02*
X145820000Y-90725000D01*
X143000000Y-85481700D02*
X145820000Y-88301700D01*
X143000000Y-84080000D02*
X143000000Y-85481700D01*
X119950000Y-67860000D02*
X119950000Y-67050000D01*
X113500000Y-74310000D02*
X119950000Y-67860000D01*
%TO.N,Net-(D1-K)*%
X130752500Y-94500000D02*
X113500000Y-94500000D01*
X135750000Y-89502500D02*
X130752500Y-94500000D01*
X135750000Y-83325000D02*
X135750000Y-89502500D01*
%TO.N,Net-(D1-A)*%
X137582100Y-92163300D02*
X138200000Y-92163300D01*
X137098300Y-91679500D02*
X137582100Y-92163300D01*
X137098300Y-84516700D02*
X137098300Y-91679500D01*
X138290000Y-83325000D02*
X137098300Y-84516700D01*
X138200000Y-93265000D02*
X138200000Y-92163300D01*
%TD*%
%TA.AperFunction,Conductor*%
%TO.N,GND*%
G36*
X147942539Y-62520185D02*
G01*
X147988294Y-62572989D01*
X147999500Y-62624500D01*
X147999500Y-97375500D01*
X147979815Y-97442539D01*
X147927011Y-97488294D01*
X147875500Y-97499500D01*
X110624500Y-97499500D01*
X110557461Y-97479815D01*
X110511706Y-97427011D01*
X110500500Y-97375500D01*
X110500500Y-93602135D01*
X112149500Y-93602135D01*
X112149500Y-95397870D01*
X112149501Y-95397876D01*
X112155908Y-95457483D01*
X112206202Y-95592328D01*
X112206206Y-95592335D01*
X112292452Y-95707544D01*
X112292455Y-95707547D01*
X112407664Y-95793793D01*
X112407671Y-95793797D01*
X112542517Y-95844091D01*
X112542516Y-95844091D01*
X112549444Y-95844835D01*
X112602127Y-95850500D01*
X114397872Y-95850499D01*
X114457483Y-95844091D01*
X114592331Y-95793796D01*
X114707546Y-95707546D01*
X114793796Y-95592331D01*
X114844091Y-95457483D01*
X114850500Y-95397873D01*
X114850500Y-95224500D01*
X114870185Y-95157461D01*
X114922989Y-95111706D01*
X114974500Y-95100500D01*
X130665831Y-95100500D01*
X130665847Y-95100501D01*
X130673443Y-95100501D01*
X130831554Y-95100501D01*
X130831557Y-95100501D01*
X130984285Y-95059577D01*
X131034404Y-95030639D01*
X131121216Y-94980520D01*
X131233020Y-94868716D01*
X131233020Y-94868714D01*
X131243228Y-94858507D01*
X131243230Y-94858504D01*
X136108506Y-89993228D01*
X136108511Y-89993224D01*
X136118714Y-89983020D01*
X136118716Y-89983020D01*
X136230520Y-89871216D01*
X136266413Y-89809046D01*
X136316979Y-89760832D01*
X136385586Y-89747608D01*
X136450451Y-89773576D01*
X136490980Y-89830490D01*
X136497800Y-89871047D01*
X136497800Y-91592830D01*
X136497799Y-91592848D01*
X136497799Y-91758554D01*
X136497798Y-91758554D01*
X136497799Y-91758557D01*
X136531022Y-91882546D01*
X136538724Y-91911287D01*
X136556247Y-91941637D01*
X136556248Y-91941639D01*
X136617777Y-92048212D01*
X136617781Y-92048217D01*
X137043781Y-92474217D01*
X137077266Y-92535540D01*
X137072282Y-92605232D01*
X137068482Y-92614303D01*
X136982882Y-92797873D01*
X136973262Y-92818502D01*
X136973258Y-92818511D01*
X136914366Y-93038302D01*
X136914364Y-93038313D01*
X136894532Y-93264998D01*
X136894532Y-93265001D01*
X136914364Y-93491686D01*
X136914366Y-93491697D01*
X136973258Y-93711488D01*
X136973261Y-93711497D01*
X137069431Y-93917732D01*
X137069432Y-93917734D01*
X137199954Y-94104141D01*
X137360858Y-94265045D01*
X137360861Y-94265047D01*
X137547266Y-94395568D01*
X137753504Y-94491739D01*
X137973308Y-94550635D01*
X138135230Y-94564801D01*
X138199998Y-94570468D01*
X138200000Y-94570468D01*
X138200002Y-94570468D01*
X138256673Y-94565509D01*
X138426692Y-94550635D01*
X138646496Y-94491739D01*
X138852734Y-94395568D01*
X139039139Y-94265047D01*
X139200047Y-94104139D01*
X139330568Y-93917734D01*
X139426739Y-93711496D01*
X139485635Y-93491692D01*
X139505468Y-93265000D01*
X139504199Y-93250500D01*
X139499238Y-93193793D01*
X139485635Y-93038308D01*
X139426739Y-92818504D01*
X139330568Y-92612266D01*
X139200047Y-92425861D01*
X139200045Y-92425858D01*
X139039143Y-92264956D01*
X139014536Y-92247726D01*
X138970912Y-92193149D01*
X138963719Y-92123650D01*
X138995241Y-92061296D01*
X139055471Y-92025882D01*
X139072404Y-92022861D01*
X139107483Y-92019091D01*
X139242331Y-91968796D01*
X139357546Y-91882546D01*
X139443796Y-91767331D01*
X139494091Y-91632483D01*
X139500500Y-91572873D01*
X139500499Y-89877128D01*
X139494091Y-89817517D01*
X139490932Y-89809048D01*
X139443797Y-89682671D01*
X139443793Y-89682664D01*
X139357547Y-89567455D01*
X139357544Y-89567452D01*
X139242335Y-89481206D01*
X139242328Y-89481202D01*
X139107482Y-89430908D01*
X139107483Y-89430908D01*
X139047883Y-89424501D01*
X139047881Y-89424500D01*
X139047873Y-89424500D01*
X139047865Y-89424500D01*
X137822800Y-89424500D01*
X137755761Y-89404815D01*
X137710006Y-89352011D01*
X137698800Y-89300500D01*
X137698800Y-84816797D01*
X137718485Y-84749758D01*
X137735114Y-84729120D01*
X137765160Y-84699074D01*
X137826480Y-84665590D01*
X137893101Y-84669474D01*
X137945019Y-84687298D01*
X138173951Y-84725500D01*
X138173952Y-84725500D01*
X138406048Y-84725500D01*
X138406049Y-84725500D01*
X138634981Y-84687298D01*
X138854503Y-84611936D01*
X139058626Y-84501470D01*
X139241784Y-84358913D01*
X139398979Y-84188153D01*
X139525924Y-83993849D01*
X139619157Y-83781300D01*
X139676134Y-83556305D01*
X139695300Y-83325000D01*
X139695300Y-83324993D01*
X139676135Y-83093702D01*
X139676133Y-83093691D01*
X139635221Y-82932135D01*
X141399500Y-82932135D01*
X141399500Y-85227870D01*
X141399501Y-85227876D01*
X141405908Y-85287483D01*
X141456202Y-85422328D01*
X141456206Y-85422335D01*
X141542452Y-85537544D01*
X141542455Y-85537547D01*
X141657664Y-85623793D01*
X141657671Y-85623797D01*
X141657674Y-85623798D01*
X141792517Y-85674091D01*
X141852127Y-85680500D01*
X142349788Y-85680499D01*
X142416827Y-85700183D01*
X142457172Y-85742495D01*
X142469360Y-85763604D01*
X142519479Y-85850414D01*
X142519481Y-85850417D01*
X142638349Y-85969285D01*
X142638355Y-85969290D01*
X145183181Y-88514116D01*
X145216666Y-88575439D01*
X145219500Y-88601797D01*
X145219500Y-89493306D01*
X145199815Y-89560345D01*
X145166623Y-89594881D01*
X144980859Y-89724953D01*
X144819954Y-89885858D01*
X144689432Y-90072265D01*
X144689431Y-90072267D01*
X144593261Y-90278502D01*
X144593258Y-90278511D01*
X144534366Y-90498302D01*
X144534364Y-90498313D01*
X144514532Y-90724998D01*
X144514532Y-90725001D01*
X144534364Y-90951686D01*
X144534366Y-90951697D01*
X144593258Y-91171488D01*
X144593261Y-91171497D01*
X144689431Y-91377732D01*
X144689432Y-91377734D01*
X144819954Y-91564141D01*
X144980858Y-91725045D01*
X144980861Y-91725047D01*
X145167266Y-91855568D01*
X145225275Y-91882618D01*
X145277714Y-91928791D01*
X145296866Y-91995984D01*
X145276650Y-92062865D01*
X145225275Y-92107382D01*
X145167267Y-92134431D01*
X145167265Y-92134432D01*
X144980858Y-92264954D01*
X144819954Y-92425858D01*
X144689432Y-92612265D01*
X144689431Y-92612267D01*
X144593261Y-92818502D01*
X144593258Y-92818511D01*
X144534366Y-93038302D01*
X144534364Y-93038313D01*
X144514532Y-93264998D01*
X144514532Y-93265001D01*
X144534364Y-93491686D01*
X144534366Y-93491697D01*
X144593258Y-93711488D01*
X144593261Y-93711497D01*
X144689431Y-93917732D01*
X144689432Y-93917734D01*
X144819954Y-94104141D01*
X144980858Y-94265045D01*
X144980861Y-94265047D01*
X145167266Y-94395568D01*
X145373504Y-94491739D01*
X145593308Y-94550635D01*
X145755230Y-94564801D01*
X145819998Y-94570468D01*
X145820000Y-94570468D01*
X145820002Y-94570468D01*
X145876673Y-94565509D01*
X146046692Y-94550635D01*
X146266496Y-94491739D01*
X146472734Y-94395568D01*
X146659139Y-94265047D01*
X146820047Y-94104139D01*
X146950568Y-93917734D01*
X147046739Y-93711496D01*
X147105635Y-93491692D01*
X147125468Y-93265000D01*
X147124199Y-93250500D01*
X147119238Y-93193793D01*
X147105635Y-93038308D01*
X147046739Y-92818504D01*
X146950568Y-92612266D01*
X146820047Y-92425861D01*
X146820045Y-92425858D01*
X146659141Y-92264954D01*
X146472734Y-92134432D01*
X146472728Y-92134429D01*
X146414725Y-92107382D01*
X146362285Y-92061210D01*
X146343133Y-91994017D01*
X146363348Y-91927135D01*
X146414725Y-91882618D01*
X146472734Y-91855568D01*
X146659139Y-91725047D01*
X146820047Y-91564139D01*
X146950568Y-91377734D01*
X147046739Y-91171496D01*
X147105635Y-90951692D01*
X147125468Y-90725000D01*
X147105635Y-90498308D01*
X147046739Y-90278504D01*
X146950568Y-90072266D01*
X146824664Y-89892455D01*
X146820045Y-89885858D01*
X146659140Y-89724953D01*
X146473377Y-89594881D01*
X146429752Y-89540304D01*
X146420500Y-89493306D01*
X146420500Y-88222645D01*
X146420500Y-88222643D01*
X146383166Y-88083308D01*
X146379577Y-88069915D01*
X146350639Y-88019795D01*
X146300520Y-87932984D01*
X146188716Y-87821180D01*
X146188715Y-87821179D01*
X146184385Y-87816849D01*
X146184374Y-87816839D01*
X144223117Y-85855582D01*
X144189632Y-85794259D01*
X144194616Y-85724567D01*
X144236488Y-85668634D01*
X144267466Y-85651719D01*
X144342326Y-85623798D01*
X144342326Y-85623797D01*
X144342331Y-85623796D01*
X144457546Y-85537546D01*
X144543796Y-85422331D01*
X144594091Y-85287483D01*
X144600500Y-85227873D01*
X144600499Y-82932128D01*
X144594091Y-82872517D01*
X144592667Y-82868700D01*
X144543797Y-82737671D01*
X144543793Y-82737664D01*
X144457547Y-82622455D01*
X144457544Y-82622452D01*
X144342335Y-82536206D01*
X144342328Y-82536202D01*
X144207482Y-82485908D01*
X144207483Y-82485908D01*
X144147883Y-82479501D01*
X144147881Y-82479500D01*
X144147873Y-82479500D01*
X144147864Y-82479500D01*
X141852129Y-82479500D01*
X141852123Y-82479501D01*
X141792516Y-82485908D01*
X141657671Y-82536202D01*
X141657664Y-82536206D01*
X141542455Y-82622452D01*
X141542452Y-82622455D01*
X141456206Y-82737664D01*
X141456202Y-82737671D01*
X141405908Y-82872517D01*
X141399501Y-82932116D01*
X141399501Y-82932123D01*
X141399500Y-82932135D01*
X139635221Y-82932135D01*
X139619157Y-82868699D01*
X139525924Y-82656151D01*
X139398983Y-82461852D01*
X139398980Y-82461849D01*
X139398979Y-82461847D01*
X139241784Y-82291087D01*
X139241779Y-82291083D01*
X139241777Y-82291081D01*
X139058634Y-82148535D01*
X139058628Y-82148531D01*
X138854504Y-82038064D01*
X138854495Y-82038061D01*
X138634984Y-81962702D01*
X138444450Y-81930908D01*
X138406049Y-81924500D01*
X138173951Y-81924500D01*
X138135550Y-81930908D01*
X137945015Y-81962702D01*
X137725504Y-82038061D01*
X137725495Y-82038064D01*
X137521371Y-82148531D01*
X137521365Y-82148535D01*
X137338222Y-82291081D01*
X137338218Y-82291085D01*
X137329866Y-82300158D01*
X137269979Y-82336148D01*
X137200141Y-82334047D01*
X137142525Y-82294522D01*
X137122455Y-82259507D01*
X137093797Y-82182671D01*
X137093793Y-82182664D01*
X137007547Y-82067455D01*
X137007544Y-82067452D01*
X136892335Y-81981206D01*
X136892328Y-81981202D01*
X136757482Y-81930908D01*
X136757483Y-81930908D01*
X136697883Y-81924501D01*
X136697881Y-81924500D01*
X136697873Y-81924500D01*
X136697864Y-81924500D01*
X134802129Y-81924500D01*
X134802123Y-81924501D01*
X134742516Y-81930908D01*
X134607671Y-81981202D01*
X134607664Y-81981206D01*
X134492455Y-82067452D01*
X134492452Y-82067455D01*
X134406206Y-82182664D01*
X134406202Y-82182671D01*
X134355908Y-82317517D01*
X134349501Y-82377116D01*
X134349500Y-82377135D01*
X134349500Y-84272870D01*
X134349501Y-84272876D01*
X134355908Y-84332483D01*
X134406202Y-84467328D01*
X134406206Y-84467335D01*
X134492452Y-84582544D01*
X134492455Y-84582547D01*
X134607664Y-84668793D01*
X134607671Y-84668797D01*
X134609489Y-84669475D01*
X134742517Y-84719091D01*
X134802127Y-84725500D01*
X135025500Y-84725499D01*
X135092539Y-84745183D01*
X135138294Y-84797987D01*
X135149500Y-84849499D01*
X135149500Y-89202402D01*
X135129815Y-89269441D01*
X135113181Y-89290083D01*
X133379901Y-91023363D01*
X133318578Y-91056848D01*
X133248886Y-91051864D01*
X133192953Y-91009992D01*
X133176792Y-90980984D01*
X133169661Y-90962815D01*
X133081568Y-90738357D01*
X132950386Y-90511143D01*
X132786805Y-90306019D01*
X132786804Y-90306018D01*
X132786801Y-90306014D01*
X132594479Y-90127567D01*
X132418621Y-90007669D01*
X132377704Y-89979772D01*
X132377701Y-89979771D01*
X132377699Y-89979769D01*
X132170698Y-89880083D01*
X132118839Y-89833261D01*
X132100500Y-89768363D01*
X132100500Y-81174598D01*
X132120185Y-81107559D01*
X132172989Y-81061804D01*
X132215651Y-81050914D01*
X132435428Y-81035196D01*
X132507674Y-81019480D01*
X132715037Y-80974371D01*
X132715037Y-80974370D01*
X132715046Y-80974369D01*
X132983161Y-80874367D01*
X133234315Y-80737226D01*
X133463395Y-80565739D01*
X133665739Y-80363395D01*
X133837226Y-80134315D01*
X133974367Y-79883161D01*
X134074369Y-79615046D01*
X134135196Y-79335428D01*
X134155610Y-79050000D01*
X134135196Y-78764572D01*
X134084730Y-78532584D01*
X134074371Y-78484962D01*
X134074370Y-78484960D01*
X134074369Y-78484954D01*
X133974367Y-78216839D01*
X133837231Y-77965695D01*
X133837229Y-77965690D01*
X133837224Y-77965682D01*
X133665745Y-77736612D01*
X133665729Y-77736594D01*
X133463405Y-77534270D01*
X133463387Y-77534254D01*
X133234317Y-77362775D01*
X133234309Y-77362770D01*
X132983166Y-77225635D01*
X132983167Y-77225635D01*
X132875915Y-77185632D01*
X132715046Y-77125631D01*
X132715043Y-77125630D01*
X132715037Y-77125628D01*
X132435433Y-77064804D01*
X132150001Y-77044390D01*
X132149999Y-77044390D01*
X131864566Y-77064804D01*
X131584962Y-77125628D01*
X131316833Y-77225635D01*
X131065690Y-77362770D01*
X131065682Y-77362775D01*
X130836612Y-77534254D01*
X130836594Y-77534270D01*
X130634270Y-77736594D01*
X130634254Y-77736612D01*
X130462775Y-77965682D01*
X130462767Y-77965695D01*
X130449631Y-77989752D01*
X130400225Y-78039157D01*
X130331952Y-78054008D01*
X130266488Y-78029590D01*
X130224618Y-77973656D01*
X130216800Y-77930324D01*
X130216800Y-73920000D01*
X141394551Y-73920000D01*
X141414317Y-74171151D01*
X141473126Y-74416110D01*
X141569533Y-74648859D01*
X141701160Y-74863653D01*
X141701161Y-74863656D01*
X141701164Y-74863659D01*
X141864776Y-75055224D01*
X141974739Y-75149141D01*
X142056343Y-75218838D01*
X142056346Y-75218839D01*
X142271140Y-75350466D01*
X142488665Y-75440567D01*
X142503889Y-75446873D01*
X142748852Y-75505683D01*
X143000000Y-75525449D01*
X143251148Y-75505683D01*
X143496111Y-75446873D01*
X143728859Y-75350466D01*
X143943659Y-75218836D01*
X144135224Y-75055224D01*
X144298836Y-74863659D01*
X144430466Y-74648859D01*
X144526873Y-74416111D01*
X144585683Y-74171148D01*
X144605449Y-73920000D01*
X144585683Y-73668852D01*
X144526873Y-73423889D01*
X144479680Y-73309954D01*
X144430466Y-73191140D01*
X144298839Y-72976346D01*
X144298838Y-72976343D01*
X144261875Y-72933066D01*
X144135224Y-72784776D01*
X144008571Y-72676604D01*
X143943656Y-72621161D01*
X143943653Y-72621160D01*
X143728859Y-72489533D01*
X143496110Y-72393126D01*
X143251151Y-72334317D01*
X143000000Y-72314551D01*
X142748848Y-72334317D01*
X142503889Y-72393126D01*
X142271140Y-72489533D01*
X142056346Y-72621160D01*
X142056343Y-72621161D01*
X141864776Y-72784776D01*
X141701161Y-72976343D01*
X141701160Y-72976346D01*
X141569533Y-73191140D01*
X141473126Y-73423889D01*
X141414317Y-73668848D01*
X141394551Y-73920000D01*
X130216800Y-73920000D01*
X130216800Y-69883796D01*
X130236485Y-69816757D01*
X130253114Y-69796119D01*
X131209374Y-68839859D01*
X131270695Y-68806376D01*
X131340386Y-68811360D01*
X131356474Y-68818707D01*
X131366839Y-68824367D01*
X131634954Y-68924369D01*
X131634960Y-68924370D01*
X131634962Y-68924371D01*
X131914566Y-68985195D01*
X131914568Y-68985195D01*
X131914572Y-68985196D01*
X132168220Y-69003337D01*
X132199999Y-69005610D01*
X132200000Y-69005610D01*
X132200001Y-69005610D01*
X132228595Y-69003564D01*
X132485428Y-68985196D01*
X132765046Y-68924369D01*
X133033161Y-68824367D01*
X133284315Y-68687226D01*
X133513395Y-68515739D01*
X133715739Y-68313395D01*
X133887226Y-68084315D01*
X134024367Y-67833161D01*
X134124369Y-67565046D01*
X134185196Y-67285428D01*
X134205610Y-67000000D01*
X134185196Y-66714572D01*
X134179850Y-66689998D01*
X134124371Y-66434962D01*
X134124370Y-66434960D01*
X134124369Y-66434954D01*
X134024367Y-66166839D01*
X134024364Y-66166833D01*
X133901228Y-65941327D01*
X133886376Y-65873054D01*
X133910793Y-65807590D01*
X133966726Y-65765718D01*
X134010060Y-65757900D01*
X140139003Y-65757900D01*
X140206042Y-65777585D01*
X140226684Y-65794219D01*
X140970284Y-66537819D01*
X141003769Y-66599142D01*
X140998785Y-66668834D01*
X140956913Y-66724767D01*
X140891449Y-66749184D01*
X140882603Y-66749500D01*
X140387129Y-66749500D01*
X140387123Y-66749501D01*
X140327516Y-66755908D01*
X140192671Y-66806202D01*
X140192664Y-66806206D01*
X140077455Y-66892452D01*
X140077452Y-66892455D01*
X139991206Y-67007664D01*
X139991202Y-67007671D01*
X139940908Y-67142517D01*
X139934501Y-67202116D01*
X139934500Y-67202135D01*
X139934500Y-68797870D01*
X139934501Y-68797876D01*
X139940908Y-68857483D01*
X139991202Y-68992328D01*
X139991206Y-68992335D01*
X140077452Y-69107544D01*
X140077455Y-69107547D01*
X140192664Y-69193793D01*
X140192671Y-69193797D01*
X140327517Y-69244091D01*
X140327516Y-69244091D01*
X140334444Y-69244835D01*
X140387127Y-69250500D01*
X141532872Y-69250499D01*
X141592483Y-69244091D01*
X141727331Y-69193796D01*
X141728430Y-69192972D01*
X141729717Y-69192492D01*
X141735112Y-69189547D01*
X141735535Y-69190322D01*
X141793887Y-69168552D01*
X141850198Y-69177673D01*
X141930873Y-69211091D01*
X142085827Y-69241913D01*
X142128992Y-69250499D01*
X142128996Y-69250500D01*
X142128997Y-69250500D01*
X142331004Y-69250500D01*
X142331005Y-69250499D01*
X142529127Y-69211091D01*
X142715756Y-69133786D01*
X142796562Y-69079792D01*
X142863234Y-69058917D01*
X142930614Y-69077401D01*
X142934340Y-69079795D01*
X143014479Y-69133343D01*
X143014486Y-69133347D01*
X143201016Y-69210609D01*
X143201025Y-69210612D01*
X143250000Y-69220353D01*
X143250000Y-68365865D01*
X143252383Y-68341671D01*
X143255500Y-68326002D01*
X143255500Y-68285830D01*
X143269745Y-68300075D01*
X143355255Y-68349444D01*
X143450630Y-68375000D01*
X143549370Y-68375000D01*
X143644745Y-68349444D01*
X143730255Y-68300075D01*
X143750000Y-68280330D01*
X143750000Y-69220352D01*
X143798974Y-69210612D01*
X143798983Y-69210609D01*
X143985513Y-69133347D01*
X143985526Y-69133340D01*
X144153399Y-69021170D01*
X144153403Y-69021167D01*
X144296167Y-68878403D01*
X144296170Y-68878399D01*
X144408340Y-68710526D01*
X144408347Y-68710513D01*
X144485609Y-68523983D01*
X144485612Y-68523974D01*
X144524999Y-68325958D01*
X144525000Y-68325955D01*
X144525000Y-68250000D01*
X143780330Y-68250000D01*
X143800075Y-68230255D01*
X143849444Y-68144745D01*
X143875000Y-68049370D01*
X143875000Y-67950630D01*
X143849444Y-67855255D01*
X143800075Y-67769745D01*
X143780330Y-67750000D01*
X144525000Y-67750000D01*
X144525000Y-67674045D01*
X144524999Y-67674041D01*
X144485612Y-67476025D01*
X144485609Y-67476016D01*
X144408347Y-67289486D01*
X144408340Y-67289473D01*
X144296170Y-67121600D01*
X144296167Y-67121596D01*
X144153403Y-66978832D01*
X144153399Y-66978829D01*
X143985526Y-66866659D01*
X143985513Y-66866652D01*
X143798984Y-66789390D01*
X143798977Y-66789388D01*
X143750000Y-66779645D01*
X143750000Y-67719670D01*
X143730255Y-67699925D01*
X143644745Y-67650556D01*
X143549370Y-67625000D01*
X143450630Y-67625000D01*
X143355255Y-67650556D01*
X143269745Y-67699925D01*
X143255500Y-67714170D01*
X143255500Y-67673996D01*
X143255499Y-67673995D01*
X143252383Y-67658326D01*
X143250000Y-67634134D01*
X143250000Y-66779646D01*
X143249999Y-66779645D01*
X143201022Y-66789388D01*
X143201015Y-66789390D01*
X143014481Y-66866654D01*
X143001721Y-66875180D01*
X142935043Y-66896053D01*
X142867664Y-66877564D01*
X142820977Y-66825583D01*
X142813062Y-66804164D01*
X142809103Y-66789390D01*
X142800737Y-66758165D01*
X142789577Y-66716515D01*
X142774268Y-66690001D01*
X142760639Y-66666395D01*
X142760637Y-66666392D01*
X142710520Y-66579584D01*
X142598716Y-66467780D01*
X142598715Y-66467779D01*
X142594385Y-66463449D01*
X142594374Y-66463439D01*
X140926690Y-64795755D01*
X140926688Y-64795752D01*
X140807817Y-64676881D01*
X140807816Y-64676880D01*
X140721004Y-64626760D01*
X140721004Y-64626759D01*
X140721000Y-64626758D01*
X140670885Y-64597823D01*
X140518157Y-64556899D01*
X140360043Y-64556899D01*
X140352447Y-64556899D01*
X140352431Y-64556900D01*
X131547970Y-64556900D01*
X131547954Y-64556899D01*
X131540358Y-64556899D01*
X131382243Y-64556899D01*
X131305879Y-64577361D01*
X131229514Y-64597823D01*
X131229509Y-64597826D01*
X131092590Y-64676875D01*
X131092582Y-64676881D01*
X127533084Y-68236381D01*
X127471761Y-68269866D01*
X127445403Y-68272700D01*
X121471391Y-68272700D01*
X121404352Y-68253015D01*
X121358597Y-68200211D01*
X121348653Y-68131053D01*
X121374444Y-68071387D01*
X121400386Y-68038857D01*
X121531568Y-67811643D01*
X121627420Y-67567416D01*
X121685802Y-67311630D01*
X121685803Y-67311620D01*
X121705408Y-67050004D01*
X121705408Y-67049995D01*
X121685803Y-66788379D01*
X121685802Y-66788374D01*
X121685802Y-66788370D01*
X121627420Y-66532584D01*
X121531568Y-66288357D01*
X121400386Y-66061143D01*
X121236805Y-65856019D01*
X121236804Y-65856018D01*
X121236801Y-65856014D01*
X121044479Y-65677567D01*
X120827704Y-65529772D01*
X120827700Y-65529770D01*
X120827697Y-65529768D01*
X120827696Y-65529767D01*
X120591325Y-65415938D01*
X120591327Y-65415938D01*
X120340623Y-65338606D01*
X120340619Y-65338605D01*
X120340615Y-65338604D01*
X120215823Y-65319794D01*
X120081187Y-65299500D01*
X120081182Y-65299500D01*
X119818818Y-65299500D01*
X119818812Y-65299500D01*
X119657247Y-65323853D01*
X119559385Y-65338604D01*
X119559382Y-65338605D01*
X119559376Y-65338606D01*
X119308673Y-65415938D01*
X119072303Y-65529767D01*
X119072302Y-65529768D01*
X118855520Y-65677567D01*
X118663198Y-65856014D01*
X118499614Y-66061143D01*
X118368432Y-66288356D01*
X118272582Y-66532578D01*
X118272576Y-66532597D01*
X118214197Y-66788374D01*
X118214196Y-66788379D01*
X118194592Y-67049995D01*
X118194592Y-67050004D01*
X118214196Y-67311620D01*
X118214197Y-67311625D01*
X118272576Y-67567402D01*
X118272578Y-67567411D01*
X118272580Y-67567416D01*
X118368432Y-67811643D01*
X118499614Y-68038857D01*
X118573138Y-68131053D01*
X118617879Y-68187156D01*
X118644288Y-68251843D01*
X118631531Y-68320538D01*
X118608613Y-68352150D01*
X113942705Y-73018058D01*
X113881382Y-73051543D01*
X113822931Y-73050152D01*
X113726697Y-73024366D01*
X113726693Y-73024365D01*
X113726692Y-73024365D01*
X113726691Y-73024364D01*
X113726686Y-73024364D01*
X113500002Y-73004532D01*
X113499998Y-73004532D01*
X113273313Y-73024364D01*
X113273302Y-73024366D01*
X113053511Y-73083258D01*
X113053502Y-73083261D01*
X112847267Y-73179431D01*
X112847265Y-73179432D01*
X112660858Y-73309954D01*
X112499954Y-73470858D01*
X112369432Y-73657265D01*
X112369431Y-73657267D01*
X112273261Y-73863502D01*
X112273258Y-73863511D01*
X112214366Y-74083302D01*
X112214364Y-74083313D01*
X112194532Y-74309998D01*
X112194532Y-74310001D01*
X112214364Y-74536686D01*
X112214366Y-74536697D01*
X112273258Y-74756488D01*
X112273261Y-74756497D01*
X112369431Y-74962732D01*
X112369432Y-74962734D01*
X112499954Y-75149141D01*
X112660858Y-75310045D01*
X112660861Y-75310047D01*
X112847266Y-75440568D01*
X113053504Y-75536739D01*
X113273308Y-75595635D01*
X113435230Y-75609801D01*
X113499998Y-75615468D01*
X113500000Y-75615468D01*
X113500002Y-75615468D01*
X113556673Y-75610509D01*
X113726692Y-75595635D01*
X113946496Y-75536739D01*
X114152734Y-75440568D01*
X114339139Y-75310047D01*
X114500047Y-75149139D01*
X114630568Y-74962734D01*
X114726739Y-74756496D01*
X114785635Y-74536692D01*
X114805468Y-74310000D01*
X114785635Y-74083308D01*
X114759847Y-73987066D01*
X114761510Y-73917217D01*
X114791939Y-73867294D01*
X115056420Y-73602814D01*
X115117742Y-73569330D01*
X115187434Y-73574314D01*
X115243367Y-73616186D01*
X115267784Y-73681650D01*
X115268100Y-73690496D01*
X115268100Y-76919602D01*
X115248415Y-76986641D01*
X115231781Y-77007283D01*
X113019481Y-79219582D01*
X113019479Y-79219585D01*
X112983570Y-79281783D01*
X112983569Y-79281785D01*
X112940423Y-79356514D01*
X112906443Y-79483329D01*
X112870077Y-79542989D01*
X112848680Y-79558615D01*
X112847272Y-79559427D01*
X112660858Y-79689954D01*
X112499954Y-79850858D01*
X112369432Y-80037265D01*
X112369431Y-80037267D01*
X112273261Y-80243502D01*
X112273258Y-80243511D01*
X112214366Y-80463302D01*
X112214364Y-80463313D01*
X112194532Y-80689998D01*
X112194532Y-80690001D01*
X112214364Y-80916686D01*
X112214366Y-80916697D01*
X112273258Y-81136488D01*
X112273261Y-81136497D01*
X112369431Y-81342732D01*
X112369432Y-81342734D01*
X112499954Y-81529141D01*
X112660858Y-81690045D01*
X112707693Y-81722839D01*
X112847266Y-81820568D01*
X113053504Y-81916739D01*
X113053509Y-81916740D01*
X113053511Y-81916741D01*
X113082472Y-81924501D01*
X113273308Y-81975635D01*
X113435230Y-81989801D01*
X113499998Y-81995468D01*
X113500000Y-81995468D01*
X113500002Y-81995468D01*
X113556673Y-81990509D01*
X113726692Y-81975635D01*
X113946496Y-81916739D01*
X114152734Y-81820568D01*
X114339139Y-81690047D01*
X114500047Y-81529139D01*
X114630568Y-81342734D01*
X114726739Y-81136496D01*
X114785635Y-80916692D01*
X114805468Y-80690000D01*
X114804948Y-80684061D01*
X114795461Y-80575624D01*
X114785635Y-80463308D01*
X114726739Y-80243504D01*
X114630568Y-80037266D01*
X114522667Y-79883166D01*
X114500045Y-79850858D01*
X114381041Y-79731854D01*
X114347556Y-79670531D01*
X114352540Y-79600839D01*
X114381039Y-79556494D01*
X114887538Y-79049995D01*
X118194592Y-79049995D01*
X118194592Y-79050004D01*
X118214196Y-79311620D01*
X118214197Y-79311625D01*
X118272576Y-79567402D01*
X118272578Y-79567411D01*
X118272580Y-79567416D01*
X118368432Y-79811643D01*
X118499614Y-80038857D01*
X118575741Y-80134317D01*
X118663198Y-80243985D01*
X118844753Y-80412441D01*
X118855521Y-80422433D01*
X119072296Y-80570228D01*
X119072301Y-80570230D01*
X119072302Y-80570231D01*
X119072303Y-80570232D01*
X119160741Y-80612821D01*
X119308673Y-80684061D01*
X119308674Y-80684061D01*
X119308677Y-80684063D01*
X119559385Y-80761396D01*
X119818818Y-80800500D01*
X120081182Y-80800500D01*
X120340615Y-80761396D01*
X120591323Y-80684063D01*
X120827704Y-80570228D01*
X121044479Y-80422433D01*
X121236805Y-80243981D01*
X121400386Y-80038857D01*
X121531568Y-79811643D01*
X121627420Y-79567416D01*
X121685802Y-79311630D01*
X121701078Y-79107780D01*
X121705408Y-79050004D01*
X121705408Y-79049995D01*
X121685803Y-78788379D01*
X121685802Y-78788374D01*
X121685802Y-78788370D01*
X121627420Y-78532584D01*
X121531568Y-78288357D01*
X121400386Y-78061143D01*
X121236805Y-77856019D01*
X121236804Y-77856018D01*
X121236801Y-77856014D01*
X121044479Y-77677567D01*
X120827704Y-77529772D01*
X120827700Y-77529770D01*
X120827697Y-77529768D01*
X120827696Y-77529767D01*
X120591325Y-77415938D01*
X120591327Y-77415938D01*
X120340623Y-77338606D01*
X120340619Y-77338605D01*
X120340615Y-77338604D01*
X120215823Y-77319794D01*
X120081187Y-77299500D01*
X120081182Y-77299500D01*
X119818818Y-77299500D01*
X119818812Y-77299500D01*
X119657247Y-77323853D01*
X119559385Y-77338604D01*
X119559382Y-77338605D01*
X119559376Y-77338606D01*
X119308673Y-77415938D01*
X119072303Y-77529767D01*
X119072302Y-77529768D01*
X118855520Y-77677567D01*
X118663198Y-77856014D01*
X118499614Y-78061143D01*
X118368432Y-78288356D01*
X118272582Y-78532578D01*
X118272576Y-78532597D01*
X118214197Y-78788374D01*
X118214196Y-78788379D01*
X118194592Y-79049995D01*
X114887538Y-79049995D01*
X116237313Y-77700221D01*
X116237316Y-77700220D01*
X116349120Y-77588416D01*
X116399239Y-77501604D01*
X116428177Y-77451485D01*
X116469100Y-77298758D01*
X116469100Y-77140643D01*
X116469100Y-74597597D01*
X116488785Y-74530558D01*
X116541589Y-74484803D01*
X116610747Y-74474859D01*
X116674303Y-74503884D01*
X116680781Y-74509916D01*
X116686594Y-74515729D01*
X116686612Y-74515745D01*
X116915682Y-74687224D01*
X116915690Y-74687229D01*
X117166833Y-74824364D01*
X117166832Y-74824364D01*
X117166836Y-74824365D01*
X117166839Y-74824367D01*
X117434954Y-74924369D01*
X117434960Y-74924370D01*
X117434962Y-74924371D01*
X117714566Y-74985195D01*
X117714568Y-74985195D01*
X117714572Y-74985196D01*
X117968220Y-75003337D01*
X117999999Y-75005610D01*
X118000000Y-75005610D01*
X118000001Y-75005610D01*
X118028595Y-75003564D01*
X118285428Y-74985196D01*
X118388685Y-74962734D01*
X118565037Y-74924371D01*
X118565037Y-74924370D01*
X118565046Y-74924369D01*
X118833161Y-74824367D01*
X118843519Y-74818710D01*
X118911791Y-74803859D01*
X118977255Y-74828275D01*
X118990627Y-74839862D01*
X125863181Y-81712416D01*
X125896666Y-81773739D01*
X125899500Y-81800097D01*
X125899500Y-89768363D01*
X125879815Y-89835402D01*
X125829302Y-89880083D01*
X125622300Y-89979769D01*
X125405520Y-90127567D01*
X125213198Y-90306014D01*
X125049614Y-90511143D01*
X124918432Y-90738356D01*
X124822582Y-90982578D01*
X124822576Y-90982597D01*
X124764197Y-91238374D01*
X124764196Y-91238379D01*
X124744592Y-91499995D01*
X124744592Y-91500004D01*
X124764196Y-91761620D01*
X124764197Y-91761625D01*
X124822576Y-92017402D01*
X124822582Y-92017421D01*
X124866597Y-92129570D01*
X124872766Y-92199167D01*
X124840328Y-92261050D01*
X124779583Y-92295573D01*
X124709816Y-92291774D01*
X124663488Y-92262553D01*
X123539290Y-91138355D01*
X123539288Y-91138352D01*
X123420417Y-91019481D01*
X123420416Y-91019480D01*
X123333604Y-90969360D01*
X123333604Y-90969358D01*
X123333599Y-90969357D01*
X123322047Y-90962687D01*
X123312495Y-90957172D01*
X123264281Y-90906602D01*
X123250499Y-90849787D01*
X123250499Y-90202129D01*
X123250498Y-90202123D01*
X123250497Y-90202116D01*
X123244091Y-90142517D01*
X123238570Y-90127715D01*
X123193797Y-90007671D01*
X123193793Y-90007664D01*
X123107547Y-89892455D01*
X123107544Y-89892452D01*
X122992335Y-89806206D01*
X122992328Y-89806202D01*
X122857482Y-89755908D01*
X122857483Y-89755908D01*
X122797883Y-89749501D01*
X122797881Y-89749500D01*
X122797873Y-89749500D01*
X122797864Y-89749500D01*
X120202129Y-89749500D01*
X120202123Y-89749501D01*
X120142516Y-89755908D01*
X120007671Y-89806202D01*
X120007664Y-89806206D01*
X119892455Y-89892452D01*
X119892452Y-89892455D01*
X119806206Y-90007664D01*
X119806202Y-90007671D01*
X119755908Y-90142517D01*
X119749501Y-90202116D01*
X119749501Y-90202123D01*
X119749500Y-90202135D01*
X119749500Y-92797870D01*
X119749501Y-92797876D01*
X119755908Y-92857483D01*
X119806202Y-92992328D01*
X119806206Y-92992335D01*
X119892452Y-93107544D01*
X119892455Y-93107547D01*
X120007664Y-93193793D01*
X120007671Y-93193797D01*
X120142517Y-93244091D01*
X120142516Y-93244091D01*
X120149444Y-93244835D01*
X120202127Y-93250500D01*
X122797872Y-93250499D01*
X122857483Y-93244091D01*
X122992331Y-93193796D01*
X123107546Y-93107546D01*
X123193796Y-92992331D01*
X123244091Y-92857483D01*
X123247048Y-92829976D01*
X123273785Y-92765428D01*
X123331177Y-92725580D01*
X123401002Y-92723086D01*
X123458018Y-92755553D01*
X124127739Y-93425274D01*
X124127749Y-93425285D01*
X124132079Y-93429615D01*
X124132080Y-93429616D01*
X124243884Y-93541420D01*
X124330695Y-93591539D01*
X124330697Y-93591541D01*
X124368751Y-93613511D01*
X124380815Y-93620477D01*
X124512365Y-93655726D01*
X124572023Y-93692090D01*
X124602552Y-93754937D01*
X124594257Y-93824313D01*
X124549772Y-93878191D01*
X124483220Y-93899465D01*
X124480269Y-93899500D01*
X114974499Y-93899500D01*
X114907460Y-93879815D01*
X114861705Y-93827011D01*
X114850499Y-93775500D01*
X114850499Y-93602129D01*
X114850498Y-93602123D01*
X114850497Y-93602116D01*
X114844091Y-93542517D01*
X114843681Y-93541419D01*
X114793797Y-93407671D01*
X114793793Y-93407664D01*
X114707547Y-93292455D01*
X114707544Y-93292452D01*
X114592335Y-93206206D01*
X114592328Y-93206202D01*
X114457482Y-93155908D01*
X114457483Y-93155908D01*
X114397883Y-93149501D01*
X114397881Y-93149500D01*
X114397873Y-93149500D01*
X114397864Y-93149500D01*
X112602129Y-93149500D01*
X112602123Y-93149501D01*
X112542516Y-93155908D01*
X112407671Y-93206202D01*
X112407664Y-93206206D01*
X112292455Y-93292452D01*
X112292452Y-93292455D01*
X112206206Y-93407664D01*
X112206202Y-93407671D01*
X112155908Y-93542517D01*
X112150638Y-93591539D01*
X112149501Y-93602123D01*
X112149500Y-93602135D01*
X110500500Y-93602135D01*
X110500500Y-88309998D01*
X112194532Y-88309998D01*
X112194532Y-88310001D01*
X112214364Y-88536686D01*
X112214366Y-88536697D01*
X112273258Y-88756488D01*
X112273261Y-88756497D01*
X112369431Y-88962732D01*
X112369432Y-88962734D01*
X112499954Y-89149141D01*
X112660858Y-89310045D01*
X112660861Y-89310047D01*
X112847266Y-89440568D01*
X113053504Y-89536739D01*
X113053509Y-89536740D01*
X113053511Y-89536741D01*
X113106415Y-89550916D01*
X113273308Y-89595635D01*
X113435230Y-89609801D01*
X113499998Y-89615468D01*
X113500000Y-89615468D01*
X113500002Y-89615468D01*
X113556673Y-89610509D01*
X113726692Y-89595635D01*
X113946496Y-89536739D01*
X114152734Y-89440568D01*
X114339139Y-89310047D01*
X114500047Y-89149139D01*
X114630568Y-88962734D01*
X114726739Y-88756496D01*
X114785635Y-88536692D01*
X114805468Y-88310000D01*
X114785635Y-88083308D01*
X114726739Y-87863504D01*
X114630568Y-87657266D01*
X114500047Y-87470861D01*
X114500045Y-87470858D01*
X114339141Y-87309954D01*
X114152734Y-87179432D01*
X114152732Y-87179431D01*
X113946497Y-87083261D01*
X113946488Y-87083258D01*
X113726697Y-87024366D01*
X113726693Y-87024365D01*
X113726692Y-87024365D01*
X113726691Y-87024364D01*
X113726686Y-87024364D01*
X113500002Y-87004532D01*
X113499998Y-87004532D01*
X113273313Y-87024364D01*
X113273302Y-87024366D01*
X113053511Y-87083258D01*
X113053502Y-87083261D01*
X112847267Y-87179431D01*
X112847265Y-87179432D01*
X112660858Y-87309954D01*
X112499954Y-87470858D01*
X112369432Y-87657265D01*
X112369431Y-87657267D01*
X112273261Y-87863502D01*
X112273258Y-87863511D01*
X112214366Y-88083302D01*
X112214365Y-88083309D01*
X112194532Y-88309998D01*
X110500500Y-88309998D01*
X110500500Y-66689998D01*
X112194532Y-66689998D01*
X112194532Y-66690001D01*
X112214364Y-66916686D01*
X112214366Y-66916697D01*
X112273258Y-67136488D01*
X112273261Y-67136497D01*
X112369431Y-67342732D01*
X112369432Y-67342734D01*
X112499954Y-67529141D01*
X112660858Y-67690045D01*
X112660861Y-67690047D01*
X112847266Y-67820568D01*
X113053504Y-67916739D01*
X113053509Y-67916740D01*
X113053511Y-67916741D01*
X113106415Y-67930916D01*
X113273308Y-67975635D01*
X113435230Y-67989801D01*
X113499998Y-67995468D01*
X113500000Y-67995468D01*
X113500002Y-67995468D01*
X113556673Y-67990509D01*
X113726692Y-67975635D01*
X113946496Y-67916739D01*
X114152734Y-67820568D01*
X114339139Y-67690047D01*
X114500047Y-67529139D01*
X114630568Y-67342734D01*
X114726739Y-67136496D01*
X114785635Y-66916692D01*
X114805468Y-66690000D01*
X114785635Y-66463308D01*
X114726739Y-66243504D01*
X114630568Y-66037266D01*
X114500047Y-65850861D01*
X114500045Y-65850858D01*
X114339141Y-65689954D01*
X114152734Y-65559432D01*
X114152732Y-65559431D01*
X113946497Y-65463261D01*
X113946488Y-65463258D01*
X113726697Y-65404366D01*
X113726693Y-65404365D01*
X113726692Y-65404365D01*
X113726691Y-65404364D01*
X113726686Y-65404364D01*
X113500002Y-65384532D01*
X113499998Y-65384532D01*
X113273313Y-65404364D01*
X113273302Y-65404366D01*
X113053511Y-65463258D01*
X113053502Y-65463261D01*
X112847267Y-65559431D01*
X112847265Y-65559432D01*
X112660858Y-65689954D01*
X112499954Y-65850858D01*
X112369432Y-66037265D01*
X112369431Y-66037267D01*
X112273261Y-66243502D01*
X112273258Y-66243511D01*
X112214366Y-66463302D01*
X112214364Y-66463313D01*
X112194532Y-66689998D01*
X110500500Y-66689998D01*
X110500500Y-62624500D01*
X110520185Y-62557461D01*
X110572989Y-62511706D01*
X110624500Y-62500500D01*
X147875500Y-62500500D01*
X147942539Y-62520185D01*
G37*
%TD.AperFunction*%
%TD*%
M02*
