%TF.GenerationSoftware,KiCad,Pcbnew,8.0.3*%
%TF.CreationDate,2024-07-29T20:38:45-07:00*%
%TF.ProjectId,First,46697273-742e-46b6-9963-61645f706362,rev?*%
%TF.SameCoordinates,Original*%
%TF.FileFunction,Legend,Top*%
%TF.FilePolarity,Positive*%
%FSLAX46Y46*%
G04 Gerber Fmt 4.6, Leading zero omitted, Abs format (unit mm)*
G04 Created by KiCad (PCBNEW 8.0.3) date 2024-07-29 20:38:45*
%MOMM*%
%LPD*%
G01*
G04 APERTURE LIST*
%ADD10C,0.100000*%
%ADD11C,1.000000*%
%ADD12C,0.150000*%
%ADD13C,0.120000*%
G04 APERTURE END LIST*
D10*
X104875312Y-84872419D02*
X104541979Y-84396228D01*
X104303884Y-84872419D02*
X104303884Y-83872419D01*
X104303884Y-83872419D02*
X104684836Y-83872419D01*
X104684836Y-83872419D02*
X104780074Y-83920038D01*
X104780074Y-83920038D02*
X104827693Y-83967657D01*
X104827693Y-83967657D02*
X104875312Y-84062895D01*
X104875312Y-84062895D02*
X104875312Y-84205752D01*
X104875312Y-84205752D02*
X104827693Y-84300990D01*
X104827693Y-84300990D02*
X104780074Y-84348609D01*
X104780074Y-84348609D02*
X104684836Y-84396228D01*
X104684836Y-84396228D02*
X104303884Y-84396228D01*
X105684836Y-84824800D02*
X105589598Y-84872419D01*
X105589598Y-84872419D02*
X105399122Y-84872419D01*
X105399122Y-84872419D02*
X105303884Y-84824800D01*
X105303884Y-84824800D02*
X105256265Y-84729561D01*
X105256265Y-84729561D02*
X105256265Y-84348609D01*
X105256265Y-84348609D02*
X105303884Y-84253371D01*
X105303884Y-84253371D02*
X105399122Y-84205752D01*
X105399122Y-84205752D02*
X105589598Y-84205752D01*
X105589598Y-84205752D02*
X105684836Y-84253371D01*
X105684836Y-84253371D02*
X105732455Y-84348609D01*
X105732455Y-84348609D02*
X105732455Y-84443847D01*
X105732455Y-84443847D02*
X105256265Y-84539085D01*
X106113408Y-84824800D02*
X106208646Y-84872419D01*
X106208646Y-84872419D02*
X106399122Y-84872419D01*
X106399122Y-84872419D02*
X106494360Y-84824800D01*
X106494360Y-84824800D02*
X106541979Y-84729561D01*
X106541979Y-84729561D02*
X106541979Y-84681942D01*
X106541979Y-84681942D02*
X106494360Y-84586704D01*
X106494360Y-84586704D02*
X106399122Y-84539085D01*
X106399122Y-84539085D02*
X106256265Y-84539085D01*
X106256265Y-84539085D02*
X106161027Y-84491466D01*
X106161027Y-84491466D02*
X106113408Y-84396228D01*
X106113408Y-84396228D02*
X106113408Y-84348609D01*
X106113408Y-84348609D02*
X106161027Y-84253371D01*
X106161027Y-84253371D02*
X106256265Y-84205752D01*
X106256265Y-84205752D02*
X106399122Y-84205752D01*
X106399122Y-84205752D02*
X106494360Y-84253371D01*
X107351503Y-84824800D02*
X107256265Y-84872419D01*
X107256265Y-84872419D02*
X107065789Y-84872419D01*
X107065789Y-84872419D02*
X106970551Y-84824800D01*
X106970551Y-84824800D02*
X106922932Y-84729561D01*
X106922932Y-84729561D02*
X106922932Y-84348609D01*
X106922932Y-84348609D02*
X106970551Y-84253371D01*
X106970551Y-84253371D02*
X107065789Y-84205752D01*
X107065789Y-84205752D02*
X107256265Y-84205752D01*
X107256265Y-84205752D02*
X107351503Y-84253371D01*
X107351503Y-84253371D02*
X107399122Y-84348609D01*
X107399122Y-84348609D02*
X107399122Y-84443847D01*
X107399122Y-84443847D02*
X106922932Y-84539085D01*
X107684837Y-84205752D02*
X108065789Y-84205752D01*
X107827694Y-83872419D02*
X107827694Y-84729561D01*
X107827694Y-84729561D02*
X107875313Y-84824800D01*
X107875313Y-84824800D02*
X107970551Y-84872419D01*
X107970551Y-84872419D02*
X108065789Y-84872419D01*
D11*
X111729322Y-57958476D02*
X112681703Y-61958476D01*
X112681703Y-61958476D02*
X113443608Y-59101333D01*
X113443608Y-59101333D02*
X114205513Y-61958476D01*
X114205513Y-61958476D02*
X115157894Y-57958476D01*
X118205513Y-61768000D02*
X117824561Y-61958476D01*
X117824561Y-61958476D02*
X117062656Y-61958476D01*
X117062656Y-61958476D02*
X116681703Y-61768000D01*
X116681703Y-61768000D02*
X116491227Y-61387047D01*
X116491227Y-61387047D02*
X116491227Y-59863238D01*
X116491227Y-59863238D02*
X116681703Y-59482285D01*
X116681703Y-59482285D02*
X117062656Y-59291809D01*
X117062656Y-59291809D02*
X117824561Y-59291809D01*
X117824561Y-59291809D02*
X118205513Y-59482285D01*
X118205513Y-59482285D02*
X118395989Y-59863238D01*
X118395989Y-59863238D02*
X118395989Y-60244190D01*
X118395989Y-60244190D02*
X116491227Y-60625142D01*
X120110274Y-61958476D02*
X120110274Y-59291809D01*
X120110274Y-59672761D02*
X120300751Y-59482285D01*
X120300751Y-59482285D02*
X120681703Y-59291809D01*
X120681703Y-59291809D02*
X121253132Y-59291809D01*
X121253132Y-59291809D02*
X121634084Y-59482285D01*
X121634084Y-59482285D02*
X121824560Y-59863238D01*
X121824560Y-59863238D02*
X121824560Y-61958476D01*
X121824560Y-59863238D02*
X122015036Y-59482285D01*
X122015036Y-59482285D02*
X122395989Y-59291809D01*
X122395989Y-59291809D02*
X122967417Y-59291809D01*
X122967417Y-59291809D02*
X123348370Y-59482285D01*
X123348370Y-59482285D02*
X123538846Y-59863238D01*
X123538846Y-59863238D02*
X123538846Y-61958476D01*
X126015036Y-61958476D02*
X125634084Y-61768000D01*
X125634084Y-61768000D02*
X125443607Y-61577523D01*
X125443607Y-61577523D02*
X125253131Y-61196571D01*
X125253131Y-61196571D02*
X125253131Y-60053714D01*
X125253131Y-60053714D02*
X125443607Y-59672761D01*
X125443607Y-59672761D02*
X125634084Y-59482285D01*
X125634084Y-59482285D02*
X126015036Y-59291809D01*
X126015036Y-59291809D02*
X126586465Y-59291809D01*
X126586465Y-59291809D02*
X126967417Y-59482285D01*
X126967417Y-59482285D02*
X127157893Y-59672761D01*
X127157893Y-59672761D02*
X127348369Y-60053714D01*
X127348369Y-60053714D02*
X127348369Y-61196571D01*
X127348369Y-61196571D02*
X127157893Y-61577523D01*
X127157893Y-61577523D02*
X126967417Y-61768000D01*
X126967417Y-61768000D02*
X126586465Y-61958476D01*
X126586465Y-61958476D02*
X126015036Y-61958476D01*
X128872179Y-61768000D02*
X129253132Y-61958476D01*
X129253132Y-61958476D02*
X130015036Y-61958476D01*
X130015036Y-61958476D02*
X130395989Y-61768000D01*
X130395989Y-61768000D02*
X130586465Y-61387047D01*
X130586465Y-61387047D02*
X130586465Y-61196571D01*
X130586465Y-61196571D02*
X130395989Y-60815619D01*
X130395989Y-60815619D02*
X130015036Y-60625142D01*
X130015036Y-60625142D02*
X129443608Y-60625142D01*
X129443608Y-60625142D02*
X129062655Y-60434666D01*
X129062655Y-60434666D02*
X128872179Y-60053714D01*
X128872179Y-60053714D02*
X128872179Y-59863238D01*
X128872179Y-59863238D02*
X129062655Y-59482285D01*
X129062655Y-59482285D02*
X129443608Y-59291809D01*
X129443608Y-59291809D02*
X130015036Y-59291809D01*
X130015036Y-59291809D02*
X130395989Y-59482285D01*
X135348369Y-61958476D02*
X135348369Y-57958476D01*
X135348369Y-57958476D02*
X136300750Y-57958476D01*
X136300750Y-57958476D02*
X136872179Y-58148952D01*
X136872179Y-58148952D02*
X137253131Y-58529904D01*
X137253131Y-58529904D02*
X137443608Y-58910857D01*
X137443608Y-58910857D02*
X137634084Y-59672761D01*
X137634084Y-59672761D02*
X137634084Y-60244190D01*
X137634084Y-60244190D02*
X137443608Y-61006095D01*
X137443608Y-61006095D02*
X137253131Y-61387047D01*
X137253131Y-61387047D02*
X136872179Y-61768000D01*
X136872179Y-61768000D02*
X136300750Y-61958476D01*
X136300750Y-61958476D02*
X135348369Y-61958476D01*
X141443608Y-61958476D02*
X139157893Y-61958476D01*
X140300750Y-61958476D02*
X140300750Y-57958476D01*
X140300750Y-57958476D02*
X139919798Y-58529904D01*
X139919798Y-58529904D02*
X139538846Y-58910857D01*
X139538846Y-58910857D02*
X139157893Y-59101333D01*
X146205512Y-61958476D02*
X146205512Y-57958476D01*
X146205512Y-57958476D02*
X147538846Y-60815619D01*
X147538846Y-60815619D02*
X148872179Y-57958476D01*
X148872179Y-57958476D02*
X148872179Y-61958476D01*
X152491227Y-61958476D02*
X152491227Y-59863238D01*
X152491227Y-59863238D02*
X152300751Y-59482285D01*
X152300751Y-59482285D02*
X151919799Y-59291809D01*
X151919799Y-59291809D02*
X151157894Y-59291809D01*
X151157894Y-59291809D02*
X150776941Y-59482285D01*
X152491227Y-61768000D02*
X152110275Y-61958476D01*
X152110275Y-61958476D02*
X151157894Y-61958476D01*
X151157894Y-61958476D02*
X150776941Y-61768000D01*
X150776941Y-61768000D02*
X150586465Y-61387047D01*
X150586465Y-61387047D02*
X150586465Y-61006095D01*
X150586465Y-61006095D02*
X150776941Y-60625142D01*
X150776941Y-60625142D02*
X151157894Y-60434666D01*
X151157894Y-60434666D02*
X152110275Y-60434666D01*
X152110275Y-60434666D02*
X152491227Y-60244190D01*
X154015037Y-61958476D02*
X156110275Y-59291809D01*
X154015037Y-59291809D02*
X156110275Y-61958476D01*
D10*
X186872419Y-61838972D02*
X186872419Y-61267544D01*
X187872419Y-61553258D02*
X186872419Y-61553258D01*
X186872419Y-61029448D02*
X187872419Y-60362782D01*
X186872419Y-60362782D02*
X187872419Y-61029448D01*
X187872419Y-66124687D02*
X187396228Y-66458020D01*
X187872419Y-66696115D02*
X186872419Y-66696115D01*
X186872419Y-66696115D02*
X186872419Y-66315163D01*
X186872419Y-66315163D02*
X186920038Y-66219925D01*
X186920038Y-66219925D02*
X186967657Y-66172306D01*
X186967657Y-66172306D02*
X187062895Y-66124687D01*
X187062895Y-66124687D02*
X187205752Y-66124687D01*
X187205752Y-66124687D02*
X187300990Y-66172306D01*
X187300990Y-66172306D02*
X187348609Y-66219925D01*
X187348609Y-66219925D02*
X187396228Y-66315163D01*
X187396228Y-66315163D02*
X187396228Y-66696115D01*
X186872419Y-65791353D02*
X187872419Y-65124687D01*
X186872419Y-65124687D02*
X187872419Y-65791353D01*
X187872419Y-71696115D02*
X186872419Y-71696115D01*
X186872419Y-71696115D02*
X186872419Y-71458020D01*
X186872419Y-71458020D02*
X186920038Y-71315163D01*
X186920038Y-71315163D02*
X187015276Y-71219925D01*
X187015276Y-71219925D02*
X187110514Y-71172306D01*
X187110514Y-71172306D02*
X187300990Y-71124687D01*
X187300990Y-71124687D02*
X187443847Y-71124687D01*
X187443847Y-71124687D02*
X187634323Y-71172306D01*
X187634323Y-71172306D02*
X187729561Y-71219925D01*
X187729561Y-71219925D02*
X187824800Y-71315163D01*
X187824800Y-71315163D02*
X187872419Y-71458020D01*
X187872419Y-71458020D02*
X187872419Y-71696115D01*
X187872419Y-70172306D02*
X187872419Y-70743734D01*
X187872419Y-70458020D02*
X186872419Y-70458020D01*
X186872419Y-70458020D02*
X187015276Y-70553258D01*
X187015276Y-70553258D02*
X187110514Y-70648496D01*
X187110514Y-70648496D02*
X187158133Y-70743734D01*
X187872419Y-76696115D02*
X186872419Y-76696115D01*
X186872419Y-76696115D02*
X186872419Y-76458020D01*
X186872419Y-76458020D02*
X186920038Y-76315163D01*
X186920038Y-76315163D02*
X187015276Y-76219925D01*
X187015276Y-76219925D02*
X187110514Y-76172306D01*
X187110514Y-76172306D02*
X187300990Y-76124687D01*
X187300990Y-76124687D02*
X187443847Y-76124687D01*
X187443847Y-76124687D02*
X187634323Y-76172306D01*
X187634323Y-76172306D02*
X187729561Y-76219925D01*
X187729561Y-76219925D02*
X187824800Y-76315163D01*
X187824800Y-76315163D02*
X187872419Y-76458020D01*
X187872419Y-76458020D02*
X187872419Y-76696115D01*
X186967657Y-75743734D02*
X186920038Y-75696115D01*
X186920038Y-75696115D02*
X186872419Y-75600877D01*
X186872419Y-75600877D02*
X186872419Y-75362782D01*
X186872419Y-75362782D02*
X186920038Y-75267544D01*
X186920038Y-75267544D02*
X186967657Y-75219925D01*
X186967657Y-75219925D02*
X187062895Y-75172306D01*
X187062895Y-75172306D02*
X187158133Y-75172306D01*
X187158133Y-75172306D02*
X187300990Y-75219925D01*
X187300990Y-75219925D02*
X187872419Y-75791353D01*
X187872419Y-75791353D02*
X187872419Y-75172306D01*
X187872419Y-81696115D02*
X186872419Y-81696115D01*
X186872419Y-81696115D02*
X186872419Y-81458020D01*
X186872419Y-81458020D02*
X186920038Y-81315163D01*
X186920038Y-81315163D02*
X187015276Y-81219925D01*
X187015276Y-81219925D02*
X187110514Y-81172306D01*
X187110514Y-81172306D02*
X187300990Y-81124687D01*
X187300990Y-81124687D02*
X187443847Y-81124687D01*
X187443847Y-81124687D02*
X187634323Y-81172306D01*
X187634323Y-81172306D02*
X187729561Y-81219925D01*
X187729561Y-81219925D02*
X187824800Y-81315163D01*
X187824800Y-81315163D02*
X187872419Y-81458020D01*
X187872419Y-81458020D02*
X187872419Y-81696115D01*
X186872419Y-80791353D02*
X186872419Y-80172306D01*
X186872419Y-80172306D02*
X187253371Y-80505639D01*
X187253371Y-80505639D02*
X187253371Y-80362782D01*
X187253371Y-80362782D02*
X187300990Y-80267544D01*
X187300990Y-80267544D02*
X187348609Y-80219925D01*
X187348609Y-80219925D02*
X187443847Y-80172306D01*
X187443847Y-80172306D02*
X187681942Y-80172306D01*
X187681942Y-80172306D02*
X187777180Y-80219925D01*
X187777180Y-80219925D02*
X187824800Y-80267544D01*
X187824800Y-80267544D02*
X187872419Y-80362782D01*
X187872419Y-80362782D02*
X187872419Y-80648496D01*
X187872419Y-80648496D02*
X187824800Y-80743734D01*
X187824800Y-80743734D02*
X187777180Y-80791353D01*
X187872419Y-86696115D02*
X186872419Y-86696115D01*
X186872419Y-86696115D02*
X186872419Y-86458020D01*
X186872419Y-86458020D02*
X186920038Y-86315163D01*
X186920038Y-86315163D02*
X187015276Y-86219925D01*
X187015276Y-86219925D02*
X187110514Y-86172306D01*
X187110514Y-86172306D02*
X187300990Y-86124687D01*
X187300990Y-86124687D02*
X187443847Y-86124687D01*
X187443847Y-86124687D02*
X187634323Y-86172306D01*
X187634323Y-86172306D02*
X187729561Y-86219925D01*
X187729561Y-86219925D02*
X187824800Y-86315163D01*
X187824800Y-86315163D02*
X187872419Y-86458020D01*
X187872419Y-86458020D02*
X187872419Y-86696115D01*
X187205752Y-85267544D02*
X187872419Y-85267544D01*
X186824800Y-85505639D02*
X187539085Y-85743734D01*
X187539085Y-85743734D02*
X187539085Y-85124687D01*
X186920038Y-90672306D02*
X186872419Y-90767544D01*
X186872419Y-90767544D02*
X186872419Y-90910401D01*
X186872419Y-90910401D02*
X186920038Y-91053258D01*
X186920038Y-91053258D02*
X187015276Y-91148496D01*
X187015276Y-91148496D02*
X187110514Y-91196115D01*
X187110514Y-91196115D02*
X187300990Y-91243734D01*
X187300990Y-91243734D02*
X187443847Y-91243734D01*
X187443847Y-91243734D02*
X187634323Y-91196115D01*
X187634323Y-91196115D02*
X187729561Y-91148496D01*
X187729561Y-91148496D02*
X187824800Y-91053258D01*
X187824800Y-91053258D02*
X187872419Y-90910401D01*
X187872419Y-90910401D02*
X187872419Y-90815163D01*
X187872419Y-90815163D02*
X187824800Y-90672306D01*
X187824800Y-90672306D02*
X187777180Y-90624687D01*
X187777180Y-90624687D02*
X187443847Y-90624687D01*
X187443847Y-90624687D02*
X187443847Y-90815163D01*
X186872419Y-96219925D02*
X186872419Y-96696115D01*
X186872419Y-96696115D02*
X187348609Y-96743734D01*
X187348609Y-96743734D02*
X187300990Y-96696115D01*
X187300990Y-96696115D02*
X187253371Y-96600877D01*
X187253371Y-96600877D02*
X187253371Y-96362782D01*
X187253371Y-96362782D02*
X187300990Y-96267544D01*
X187300990Y-96267544D02*
X187348609Y-96219925D01*
X187348609Y-96219925D02*
X187443847Y-96172306D01*
X187443847Y-96172306D02*
X187681942Y-96172306D01*
X187681942Y-96172306D02*
X187777180Y-96219925D01*
X187777180Y-96219925D02*
X187824800Y-96267544D01*
X187824800Y-96267544D02*
X187872419Y-96362782D01*
X187872419Y-96362782D02*
X187872419Y-96600877D01*
X187872419Y-96600877D02*
X187824800Y-96696115D01*
X187824800Y-96696115D02*
X187777180Y-96743734D01*
X187205752Y-95838972D02*
X187872419Y-95600877D01*
X187872419Y-95600877D02*
X187205752Y-95362782D01*
X187872419Y-110624687D02*
X187396228Y-110958020D01*
X187872419Y-111196115D02*
X186872419Y-111196115D01*
X186872419Y-111196115D02*
X186872419Y-110815163D01*
X186872419Y-110815163D02*
X186920038Y-110719925D01*
X186920038Y-110719925D02*
X186967657Y-110672306D01*
X186967657Y-110672306D02*
X187062895Y-110624687D01*
X187062895Y-110624687D02*
X187205752Y-110624687D01*
X187205752Y-110624687D02*
X187300990Y-110672306D01*
X187300990Y-110672306D02*
X187348609Y-110719925D01*
X187348609Y-110719925D02*
X187396228Y-110815163D01*
X187396228Y-110815163D02*
X187396228Y-111196115D01*
X187824800Y-110243734D02*
X187872419Y-110100877D01*
X187872419Y-110100877D02*
X187872419Y-109862782D01*
X187872419Y-109862782D02*
X187824800Y-109767544D01*
X187824800Y-109767544D02*
X187777180Y-109719925D01*
X187777180Y-109719925D02*
X187681942Y-109672306D01*
X187681942Y-109672306D02*
X187586704Y-109672306D01*
X187586704Y-109672306D02*
X187491466Y-109719925D01*
X187491466Y-109719925D02*
X187443847Y-109767544D01*
X187443847Y-109767544D02*
X187396228Y-109862782D01*
X187396228Y-109862782D02*
X187348609Y-110053258D01*
X187348609Y-110053258D02*
X187300990Y-110148496D01*
X187300990Y-110148496D02*
X187253371Y-110196115D01*
X187253371Y-110196115D02*
X187158133Y-110243734D01*
X187158133Y-110243734D02*
X187062895Y-110243734D01*
X187062895Y-110243734D02*
X186967657Y-110196115D01*
X186967657Y-110196115D02*
X186920038Y-110148496D01*
X186920038Y-110148496D02*
X186872419Y-110053258D01*
X186872419Y-110053258D02*
X186872419Y-109815163D01*
X186872419Y-109815163D02*
X186920038Y-109672306D01*
X186872419Y-109386591D02*
X186872419Y-108815163D01*
X187872419Y-109100877D02*
X186872419Y-109100877D01*
X187586704Y-116243734D02*
X187586704Y-115767544D01*
X187872419Y-116338972D02*
X186872419Y-116005639D01*
X186872419Y-116005639D02*
X187872419Y-115672306D01*
X186872419Y-115148496D02*
X186872419Y-115053258D01*
X186872419Y-115053258D02*
X186920038Y-114958020D01*
X186920038Y-114958020D02*
X186967657Y-114910401D01*
X186967657Y-114910401D02*
X187062895Y-114862782D01*
X187062895Y-114862782D02*
X187253371Y-114815163D01*
X187253371Y-114815163D02*
X187491466Y-114815163D01*
X187491466Y-114815163D02*
X187681942Y-114862782D01*
X187681942Y-114862782D02*
X187777180Y-114910401D01*
X187777180Y-114910401D02*
X187824800Y-114958020D01*
X187824800Y-114958020D02*
X187872419Y-115053258D01*
X187872419Y-115053258D02*
X187872419Y-115148496D01*
X187872419Y-115148496D02*
X187824800Y-115243734D01*
X187824800Y-115243734D02*
X187777180Y-115291353D01*
X187777180Y-115291353D02*
X187681942Y-115338972D01*
X187681942Y-115338972D02*
X187491466Y-115386591D01*
X187491466Y-115386591D02*
X187253371Y-115386591D01*
X187253371Y-115386591D02*
X187062895Y-115338972D01*
X187062895Y-115338972D02*
X186967657Y-115291353D01*
X186967657Y-115291353D02*
X186920038Y-115243734D01*
X186920038Y-115243734D02*
X186872419Y-115148496D01*
X187872419Y-121196115D02*
X186872419Y-121196115D01*
X186872419Y-121196115D02*
X186872419Y-120958020D01*
X186872419Y-120958020D02*
X186920038Y-120815163D01*
X186920038Y-120815163D02*
X187015276Y-120719925D01*
X187015276Y-120719925D02*
X187110514Y-120672306D01*
X187110514Y-120672306D02*
X187300990Y-120624687D01*
X187300990Y-120624687D02*
X187443847Y-120624687D01*
X187443847Y-120624687D02*
X187634323Y-120672306D01*
X187634323Y-120672306D02*
X187729561Y-120719925D01*
X187729561Y-120719925D02*
X187824800Y-120815163D01*
X187824800Y-120815163D02*
X187872419Y-120958020D01*
X187872419Y-120958020D02*
X187872419Y-121196115D01*
X186872419Y-120005639D02*
X186872419Y-119910401D01*
X186872419Y-119910401D02*
X186920038Y-119815163D01*
X186920038Y-119815163D02*
X186967657Y-119767544D01*
X186967657Y-119767544D02*
X187062895Y-119719925D01*
X187062895Y-119719925D02*
X187253371Y-119672306D01*
X187253371Y-119672306D02*
X187491466Y-119672306D01*
X187491466Y-119672306D02*
X187681942Y-119719925D01*
X187681942Y-119719925D02*
X187777180Y-119767544D01*
X187777180Y-119767544D02*
X187824800Y-119815163D01*
X187824800Y-119815163D02*
X187872419Y-119910401D01*
X187872419Y-119910401D02*
X187872419Y-120005639D01*
X187872419Y-120005639D02*
X187824800Y-120100877D01*
X187824800Y-120100877D02*
X187777180Y-120148496D01*
X187777180Y-120148496D02*
X187681942Y-120196115D01*
X187681942Y-120196115D02*
X187491466Y-120243734D01*
X187491466Y-120243734D02*
X187253371Y-120243734D01*
X187253371Y-120243734D02*
X187062895Y-120196115D01*
X187062895Y-120196115D02*
X186967657Y-120148496D01*
X186967657Y-120148496D02*
X186920038Y-120100877D01*
X186920038Y-120100877D02*
X186872419Y-120005639D01*
X187872419Y-126196115D02*
X186872419Y-126196115D01*
X186872419Y-126196115D02*
X186872419Y-125958020D01*
X186872419Y-125958020D02*
X186920038Y-125815163D01*
X186920038Y-125815163D02*
X187015276Y-125719925D01*
X187015276Y-125719925D02*
X187110514Y-125672306D01*
X187110514Y-125672306D02*
X187300990Y-125624687D01*
X187300990Y-125624687D02*
X187443847Y-125624687D01*
X187443847Y-125624687D02*
X187634323Y-125672306D01*
X187634323Y-125672306D02*
X187729561Y-125719925D01*
X187729561Y-125719925D02*
X187824800Y-125815163D01*
X187824800Y-125815163D02*
X187872419Y-125958020D01*
X187872419Y-125958020D02*
X187872419Y-126196115D01*
X186872419Y-124719925D02*
X186872419Y-125196115D01*
X186872419Y-125196115D02*
X187348609Y-125243734D01*
X187348609Y-125243734D02*
X187300990Y-125196115D01*
X187300990Y-125196115D02*
X187253371Y-125100877D01*
X187253371Y-125100877D02*
X187253371Y-124862782D01*
X187253371Y-124862782D02*
X187300990Y-124767544D01*
X187300990Y-124767544D02*
X187348609Y-124719925D01*
X187348609Y-124719925D02*
X187443847Y-124672306D01*
X187443847Y-124672306D02*
X187681942Y-124672306D01*
X187681942Y-124672306D02*
X187777180Y-124719925D01*
X187777180Y-124719925D02*
X187824800Y-124767544D01*
X187824800Y-124767544D02*
X187872419Y-124862782D01*
X187872419Y-124862782D02*
X187872419Y-125100877D01*
X187872419Y-125100877D02*
X187824800Y-125196115D01*
X187824800Y-125196115D02*
X187777180Y-125243734D01*
X187872419Y-131196115D02*
X186872419Y-131196115D01*
X186872419Y-131196115D02*
X186872419Y-130958020D01*
X186872419Y-130958020D02*
X186920038Y-130815163D01*
X186920038Y-130815163D02*
X187015276Y-130719925D01*
X187015276Y-130719925D02*
X187110514Y-130672306D01*
X187110514Y-130672306D02*
X187300990Y-130624687D01*
X187300990Y-130624687D02*
X187443847Y-130624687D01*
X187443847Y-130624687D02*
X187634323Y-130672306D01*
X187634323Y-130672306D02*
X187729561Y-130719925D01*
X187729561Y-130719925D02*
X187824800Y-130815163D01*
X187824800Y-130815163D02*
X187872419Y-130958020D01*
X187872419Y-130958020D02*
X187872419Y-131196115D01*
X186872419Y-129767544D02*
X186872419Y-129958020D01*
X186872419Y-129958020D02*
X186920038Y-130053258D01*
X186920038Y-130053258D02*
X186967657Y-130100877D01*
X186967657Y-130100877D02*
X187110514Y-130196115D01*
X187110514Y-130196115D02*
X187300990Y-130243734D01*
X187300990Y-130243734D02*
X187681942Y-130243734D01*
X187681942Y-130243734D02*
X187777180Y-130196115D01*
X187777180Y-130196115D02*
X187824800Y-130148496D01*
X187824800Y-130148496D02*
X187872419Y-130053258D01*
X187872419Y-130053258D02*
X187872419Y-129862782D01*
X187872419Y-129862782D02*
X187824800Y-129767544D01*
X187824800Y-129767544D02*
X187777180Y-129719925D01*
X187777180Y-129719925D02*
X187681942Y-129672306D01*
X187681942Y-129672306D02*
X187443847Y-129672306D01*
X187443847Y-129672306D02*
X187348609Y-129719925D01*
X187348609Y-129719925D02*
X187300990Y-129767544D01*
X187300990Y-129767544D02*
X187253371Y-129862782D01*
X187253371Y-129862782D02*
X187253371Y-130053258D01*
X187253371Y-130053258D02*
X187300990Y-130148496D01*
X187300990Y-130148496D02*
X187348609Y-130196115D01*
X187348609Y-130196115D02*
X187443847Y-130243734D01*
X187872419Y-136196115D02*
X186872419Y-136196115D01*
X186872419Y-136196115D02*
X186872419Y-135958020D01*
X186872419Y-135958020D02*
X186920038Y-135815163D01*
X186920038Y-135815163D02*
X187015276Y-135719925D01*
X187015276Y-135719925D02*
X187110514Y-135672306D01*
X187110514Y-135672306D02*
X187300990Y-135624687D01*
X187300990Y-135624687D02*
X187443847Y-135624687D01*
X187443847Y-135624687D02*
X187634323Y-135672306D01*
X187634323Y-135672306D02*
X187729561Y-135719925D01*
X187729561Y-135719925D02*
X187824800Y-135815163D01*
X187824800Y-135815163D02*
X187872419Y-135958020D01*
X187872419Y-135958020D02*
X187872419Y-136196115D01*
X186872419Y-135291353D02*
X186872419Y-134624687D01*
X186872419Y-134624687D02*
X187872419Y-135053258D01*
X187872419Y-141196115D02*
X186872419Y-141196115D01*
X186872419Y-141196115D02*
X186872419Y-140958020D01*
X186872419Y-140958020D02*
X186920038Y-140815163D01*
X186920038Y-140815163D02*
X187015276Y-140719925D01*
X187015276Y-140719925D02*
X187110514Y-140672306D01*
X187110514Y-140672306D02*
X187300990Y-140624687D01*
X187300990Y-140624687D02*
X187443847Y-140624687D01*
X187443847Y-140624687D02*
X187634323Y-140672306D01*
X187634323Y-140672306D02*
X187729561Y-140719925D01*
X187729561Y-140719925D02*
X187824800Y-140815163D01*
X187824800Y-140815163D02*
X187872419Y-140958020D01*
X187872419Y-140958020D02*
X187872419Y-141196115D01*
X187300990Y-140053258D02*
X187253371Y-140148496D01*
X187253371Y-140148496D02*
X187205752Y-140196115D01*
X187205752Y-140196115D02*
X187110514Y-140243734D01*
X187110514Y-140243734D02*
X187062895Y-140243734D01*
X187062895Y-140243734D02*
X186967657Y-140196115D01*
X186967657Y-140196115D02*
X186920038Y-140148496D01*
X186920038Y-140148496D02*
X186872419Y-140053258D01*
X186872419Y-140053258D02*
X186872419Y-139862782D01*
X186872419Y-139862782D02*
X186920038Y-139767544D01*
X186920038Y-139767544D02*
X186967657Y-139719925D01*
X186967657Y-139719925D02*
X187062895Y-139672306D01*
X187062895Y-139672306D02*
X187110514Y-139672306D01*
X187110514Y-139672306D02*
X187205752Y-139719925D01*
X187205752Y-139719925D02*
X187253371Y-139767544D01*
X187253371Y-139767544D02*
X187300990Y-139862782D01*
X187300990Y-139862782D02*
X187300990Y-140053258D01*
X187300990Y-140053258D02*
X187348609Y-140148496D01*
X187348609Y-140148496D02*
X187396228Y-140196115D01*
X187396228Y-140196115D02*
X187491466Y-140243734D01*
X187491466Y-140243734D02*
X187681942Y-140243734D01*
X187681942Y-140243734D02*
X187777180Y-140196115D01*
X187777180Y-140196115D02*
X187824800Y-140148496D01*
X187824800Y-140148496D02*
X187872419Y-140053258D01*
X187872419Y-140053258D02*
X187872419Y-139862782D01*
X187872419Y-139862782D02*
X187824800Y-139767544D01*
X187824800Y-139767544D02*
X187777180Y-139719925D01*
X187777180Y-139719925D02*
X187681942Y-139672306D01*
X187681942Y-139672306D02*
X187491466Y-139672306D01*
X187491466Y-139672306D02*
X187396228Y-139719925D01*
X187396228Y-139719925D02*
X187348609Y-139767544D01*
X187348609Y-139767544D02*
X187300990Y-139862782D01*
X186872419Y-146291353D02*
X186872419Y-145672306D01*
X186872419Y-145672306D02*
X187253371Y-146005639D01*
X187253371Y-146005639D02*
X187253371Y-145862782D01*
X187253371Y-145862782D02*
X187300990Y-145767544D01*
X187300990Y-145767544D02*
X187348609Y-145719925D01*
X187348609Y-145719925D02*
X187443847Y-145672306D01*
X187443847Y-145672306D02*
X187681942Y-145672306D01*
X187681942Y-145672306D02*
X187777180Y-145719925D01*
X187777180Y-145719925D02*
X187824800Y-145767544D01*
X187824800Y-145767544D02*
X187872419Y-145862782D01*
X187872419Y-145862782D02*
X187872419Y-146148496D01*
X187872419Y-146148496D02*
X187824800Y-146243734D01*
X187824800Y-146243734D02*
X187777180Y-146291353D01*
X187205752Y-145338972D02*
X187872419Y-145100877D01*
X187872419Y-145100877D02*
X187205752Y-144862782D01*
X143780074Y-138872419D02*
X143303884Y-138872419D01*
X143303884Y-138872419D02*
X143256265Y-139348609D01*
X143256265Y-139348609D02*
X143303884Y-139300990D01*
X143303884Y-139300990D02*
X143399122Y-139253371D01*
X143399122Y-139253371D02*
X143637217Y-139253371D01*
X143637217Y-139253371D02*
X143732455Y-139300990D01*
X143732455Y-139300990D02*
X143780074Y-139348609D01*
X143780074Y-139348609D02*
X143827693Y-139443847D01*
X143827693Y-139443847D02*
X143827693Y-139681942D01*
X143827693Y-139681942D02*
X143780074Y-139777180D01*
X143780074Y-139777180D02*
X143732455Y-139824800D01*
X143732455Y-139824800D02*
X143637217Y-139872419D01*
X143637217Y-139872419D02*
X143399122Y-139872419D01*
X143399122Y-139872419D02*
X143303884Y-139824800D01*
X143303884Y-139824800D02*
X143256265Y-139777180D01*
X144161027Y-139205752D02*
X144399122Y-139872419D01*
X144399122Y-139872419D02*
X144637217Y-139205752D01*
X143161027Y-120776456D02*
X143732455Y-120776456D01*
X143446741Y-121776456D02*
X143446741Y-120776456D01*
X143970551Y-121776456D02*
X144494360Y-121109789D01*
X143970551Y-121109789D02*
X144494360Y-121776456D01*
X143739202Y-124276456D02*
X143405869Y-123800265D01*
X143167774Y-124276456D02*
X143167774Y-123276456D01*
X143167774Y-123276456D02*
X143548726Y-123276456D01*
X143548726Y-123276456D02*
X143643964Y-123324075D01*
X143643964Y-123324075D02*
X143691583Y-123371694D01*
X143691583Y-123371694D02*
X143739202Y-123466932D01*
X143739202Y-123466932D02*
X143739202Y-123609789D01*
X143739202Y-123609789D02*
X143691583Y-123705027D01*
X143691583Y-123705027D02*
X143643964Y-123752646D01*
X143643964Y-123752646D02*
X143548726Y-123800265D01*
X143548726Y-123800265D02*
X143167774Y-123800265D01*
X144072536Y-124276456D02*
X144596345Y-123609789D01*
X144072536Y-123609789D02*
X144596345Y-124276456D01*
X114280074Y-138872419D02*
X113803884Y-138872419D01*
X113803884Y-138872419D02*
X113756265Y-139348609D01*
X113756265Y-139348609D02*
X113803884Y-139300990D01*
X113803884Y-139300990D02*
X113899122Y-139253371D01*
X113899122Y-139253371D02*
X114137217Y-139253371D01*
X114137217Y-139253371D02*
X114232455Y-139300990D01*
X114232455Y-139300990D02*
X114280074Y-139348609D01*
X114280074Y-139348609D02*
X114327693Y-139443847D01*
X114327693Y-139443847D02*
X114327693Y-139681942D01*
X114327693Y-139681942D02*
X114280074Y-139777180D01*
X114280074Y-139777180D02*
X114232455Y-139824800D01*
X114232455Y-139824800D02*
X114137217Y-139872419D01*
X114137217Y-139872419D02*
X113899122Y-139872419D01*
X113899122Y-139872419D02*
X113803884Y-139824800D01*
X113803884Y-139824800D02*
X113756265Y-139777180D01*
X114661027Y-139205752D02*
X114899122Y-139872419D01*
X114899122Y-139872419D02*
X115137217Y-139205752D01*
X144691583Y-136324075D02*
X144596345Y-136276456D01*
X144596345Y-136276456D02*
X144453488Y-136276456D01*
X144453488Y-136276456D02*
X144310631Y-136324075D01*
X144310631Y-136324075D02*
X144215393Y-136419313D01*
X144215393Y-136419313D02*
X144167774Y-136514551D01*
X144167774Y-136514551D02*
X144120155Y-136705027D01*
X144120155Y-136705027D02*
X144120155Y-136847884D01*
X144120155Y-136847884D02*
X144167774Y-137038360D01*
X144167774Y-137038360D02*
X144215393Y-137133598D01*
X144215393Y-137133598D02*
X144310631Y-137228837D01*
X144310631Y-137228837D02*
X144453488Y-137276456D01*
X144453488Y-137276456D02*
X144548726Y-137276456D01*
X144548726Y-137276456D02*
X144691583Y-137228837D01*
X144691583Y-137228837D02*
X144739202Y-137181217D01*
X144739202Y-137181217D02*
X144739202Y-136847884D01*
X144739202Y-136847884D02*
X144548726Y-136847884D01*
X102708646Y-138872419D02*
X103327693Y-138872419D01*
X103327693Y-138872419D02*
X102994360Y-139253371D01*
X102994360Y-139253371D02*
X103137217Y-139253371D01*
X103137217Y-139253371D02*
X103232455Y-139300990D01*
X103232455Y-139300990D02*
X103280074Y-139348609D01*
X103280074Y-139348609D02*
X103327693Y-139443847D01*
X103327693Y-139443847D02*
X103327693Y-139681942D01*
X103327693Y-139681942D02*
X103280074Y-139777180D01*
X103280074Y-139777180D02*
X103232455Y-139824800D01*
X103232455Y-139824800D02*
X103137217Y-139872419D01*
X103137217Y-139872419D02*
X102851503Y-139872419D01*
X102851503Y-139872419D02*
X102756265Y-139824800D01*
X102756265Y-139824800D02*
X102708646Y-139777180D01*
X103661027Y-139205752D02*
X103899122Y-139872419D01*
X103899122Y-139872419D02*
X104137217Y-139205752D01*
X104422932Y-138872419D02*
X105041979Y-138872419D01*
X105041979Y-138872419D02*
X104708646Y-139253371D01*
X104708646Y-139253371D02*
X104851503Y-139253371D01*
X104851503Y-139253371D02*
X104946741Y-139300990D01*
X104946741Y-139300990D02*
X104994360Y-139348609D01*
X104994360Y-139348609D02*
X105041979Y-139443847D01*
X105041979Y-139443847D02*
X105041979Y-139681942D01*
X105041979Y-139681942D02*
X104994360Y-139777180D01*
X104994360Y-139777180D02*
X104946741Y-139824800D01*
X104946741Y-139824800D02*
X104851503Y-139872419D01*
X104851503Y-139872419D02*
X104565789Y-139872419D01*
X104565789Y-139872419D02*
X104470551Y-139824800D01*
X104470551Y-139824800D02*
X104422932Y-139777180D01*
X103303884Y-137372419D02*
X103303884Y-136372419D01*
X103303884Y-136372419D02*
X103541979Y-136372419D01*
X103541979Y-136372419D02*
X103684836Y-136420038D01*
X103684836Y-136420038D02*
X103780074Y-136515276D01*
X103780074Y-136515276D02*
X103827693Y-136610514D01*
X103827693Y-136610514D02*
X103875312Y-136800990D01*
X103875312Y-136800990D02*
X103875312Y-136943847D01*
X103875312Y-136943847D02*
X103827693Y-137134323D01*
X103827693Y-137134323D02*
X103780074Y-137229561D01*
X103780074Y-137229561D02*
X103684836Y-137324800D01*
X103684836Y-137324800D02*
X103541979Y-137372419D01*
X103541979Y-137372419D02*
X103303884Y-137372419D01*
X104446741Y-136800990D02*
X104351503Y-136753371D01*
X104351503Y-136753371D02*
X104303884Y-136705752D01*
X104303884Y-136705752D02*
X104256265Y-136610514D01*
X104256265Y-136610514D02*
X104256265Y-136562895D01*
X104256265Y-136562895D02*
X104303884Y-136467657D01*
X104303884Y-136467657D02*
X104351503Y-136420038D01*
X104351503Y-136420038D02*
X104446741Y-136372419D01*
X104446741Y-136372419D02*
X104637217Y-136372419D01*
X104637217Y-136372419D02*
X104732455Y-136420038D01*
X104732455Y-136420038D02*
X104780074Y-136467657D01*
X104780074Y-136467657D02*
X104827693Y-136562895D01*
X104827693Y-136562895D02*
X104827693Y-136610514D01*
X104827693Y-136610514D02*
X104780074Y-136705752D01*
X104780074Y-136705752D02*
X104732455Y-136753371D01*
X104732455Y-136753371D02*
X104637217Y-136800990D01*
X104637217Y-136800990D02*
X104446741Y-136800990D01*
X104446741Y-136800990D02*
X104351503Y-136848609D01*
X104351503Y-136848609D02*
X104303884Y-136896228D01*
X104303884Y-136896228D02*
X104256265Y-136991466D01*
X104256265Y-136991466D02*
X104256265Y-137181942D01*
X104256265Y-137181942D02*
X104303884Y-137277180D01*
X104303884Y-137277180D02*
X104351503Y-137324800D01*
X104351503Y-137324800D02*
X104446741Y-137372419D01*
X104446741Y-137372419D02*
X104637217Y-137372419D01*
X104637217Y-137372419D02*
X104732455Y-137324800D01*
X104732455Y-137324800D02*
X104780074Y-137277180D01*
X104780074Y-137277180D02*
X104827693Y-137181942D01*
X104827693Y-137181942D02*
X104827693Y-136991466D01*
X104827693Y-136991466D02*
X104780074Y-136896228D01*
X104780074Y-136896228D02*
X104732455Y-136848609D01*
X104732455Y-136848609D02*
X104637217Y-136800990D01*
X103303884Y-134872419D02*
X103303884Y-133872419D01*
X103303884Y-133872419D02*
X103541979Y-133872419D01*
X103541979Y-133872419D02*
X103684836Y-133920038D01*
X103684836Y-133920038D02*
X103780074Y-134015276D01*
X103780074Y-134015276D02*
X103827693Y-134110514D01*
X103827693Y-134110514D02*
X103875312Y-134300990D01*
X103875312Y-134300990D02*
X103875312Y-134443847D01*
X103875312Y-134443847D02*
X103827693Y-134634323D01*
X103827693Y-134634323D02*
X103780074Y-134729561D01*
X103780074Y-134729561D02*
X103684836Y-134824800D01*
X103684836Y-134824800D02*
X103541979Y-134872419D01*
X103541979Y-134872419D02*
X103303884Y-134872419D01*
X104208646Y-133872419D02*
X104875312Y-133872419D01*
X104875312Y-133872419D02*
X104446741Y-134872419D01*
X103303884Y-132372419D02*
X103303884Y-131372419D01*
X103303884Y-131372419D02*
X103541979Y-131372419D01*
X103541979Y-131372419D02*
X103684836Y-131420038D01*
X103684836Y-131420038D02*
X103780074Y-131515276D01*
X103780074Y-131515276D02*
X103827693Y-131610514D01*
X103827693Y-131610514D02*
X103875312Y-131800990D01*
X103875312Y-131800990D02*
X103875312Y-131943847D01*
X103875312Y-131943847D02*
X103827693Y-132134323D01*
X103827693Y-132134323D02*
X103780074Y-132229561D01*
X103780074Y-132229561D02*
X103684836Y-132324800D01*
X103684836Y-132324800D02*
X103541979Y-132372419D01*
X103541979Y-132372419D02*
X103303884Y-132372419D01*
X104732455Y-131372419D02*
X104541979Y-131372419D01*
X104541979Y-131372419D02*
X104446741Y-131420038D01*
X104446741Y-131420038D02*
X104399122Y-131467657D01*
X104399122Y-131467657D02*
X104303884Y-131610514D01*
X104303884Y-131610514D02*
X104256265Y-131800990D01*
X104256265Y-131800990D02*
X104256265Y-132181942D01*
X104256265Y-132181942D02*
X104303884Y-132277180D01*
X104303884Y-132277180D02*
X104351503Y-132324800D01*
X104351503Y-132324800D02*
X104446741Y-132372419D01*
X104446741Y-132372419D02*
X104637217Y-132372419D01*
X104637217Y-132372419D02*
X104732455Y-132324800D01*
X104732455Y-132324800D02*
X104780074Y-132277180D01*
X104780074Y-132277180D02*
X104827693Y-132181942D01*
X104827693Y-132181942D02*
X104827693Y-131943847D01*
X104827693Y-131943847D02*
X104780074Y-131848609D01*
X104780074Y-131848609D02*
X104732455Y-131800990D01*
X104732455Y-131800990D02*
X104637217Y-131753371D01*
X104637217Y-131753371D02*
X104446741Y-131753371D01*
X104446741Y-131753371D02*
X104351503Y-131800990D01*
X104351503Y-131800990D02*
X104303884Y-131848609D01*
X104303884Y-131848609D02*
X104256265Y-131943847D01*
X103303884Y-129872419D02*
X103303884Y-128872419D01*
X103303884Y-128872419D02*
X103541979Y-128872419D01*
X103541979Y-128872419D02*
X103684836Y-128920038D01*
X103684836Y-128920038D02*
X103780074Y-129015276D01*
X103780074Y-129015276D02*
X103827693Y-129110514D01*
X103827693Y-129110514D02*
X103875312Y-129300990D01*
X103875312Y-129300990D02*
X103875312Y-129443847D01*
X103875312Y-129443847D02*
X103827693Y-129634323D01*
X103827693Y-129634323D02*
X103780074Y-129729561D01*
X103780074Y-129729561D02*
X103684836Y-129824800D01*
X103684836Y-129824800D02*
X103541979Y-129872419D01*
X103541979Y-129872419D02*
X103303884Y-129872419D01*
X104780074Y-128872419D02*
X104303884Y-128872419D01*
X104303884Y-128872419D02*
X104256265Y-129348609D01*
X104256265Y-129348609D02*
X104303884Y-129300990D01*
X104303884Y-129300990D02*
X104399122Y-129253371D01*
X104399122Y-129253371D02*
X104637217Y-129253371D01*
X104637217Y-129253371D02*
X104732455Y-129300990D01*
X104732455Y-129300990D02*
X104780074Y-129348609D01*
X104780074Y-129348609D02*
X104827693Y-129443847D01*
X104827693Y-129443847D02*
X104827693Y-129681942D01*
X104827693Y-129681942D02*
X104780074Y-129777180D01*
X104780074Y-129777180D02*
X104732455Y-129824800D01*
X104732455Y-129824800D02*
X104637217Y-129872419D01*
X104637217Y-129872419D02*
X104399122Y-129872419D01*
X104399122Y-129872419D02*
X104303884Y-129824800D01*
X104303884Y-129824800D02*
X104256265Y-129777180D01*
X143167774Y-134776456D02*
X143167774Y-133776456D01*
X143167774Y-133776456D02*
X143405869Y-133776456D01*
X143405869Y-133776456D02*
X143548726Y-133824075D01*
X143548726Y-133824075D02*
X143643964Y-133919313D01*
X143643964Y-133919313D02*
X143691583Y-134014551D01*
X143691583Y-134014551D02*
X143739202Y-134205027D01*
X143739202Y-134205027D02*
X143739202Y-134347884D01*
X143739202Y-134347884D02*
X143691583Y-134538360D01*
X143691583Y-134538360D02*
X143643964Y-134633598D01*
X143643964Y-134633598D02*
X143548726Y-134728837D01*
X143548726Y-134728837D02*
X143405869Y-134776456D01*
X143405869Y-134776456D02*
X143167774Y-134776456D01*
X144596345Y-134109789D02*
X144596345Y-134776456D01*
X144358250Y-133728837D02*
X144120155Y-134443122D01*
X144120155Y-134443122D02*
X144739202Y-134443122D01*
X143167774Y-132276456D02*
X143167774Y-131276456D01*
X143167774Y-131276456D02*
X143405869Y-131276456D01*
X143405869Y-131276456D02*
X143548726Y-131324075D01*
X143548726Y-131324075D02*
X143643964Y-131419313D01*
X143643964Y-131419313D02*
X143691583Y-131514551D01*
X143691583Y-131514551D02*
X143739202Y-131705027D01*
X143739202Y-131705027D02*
X143739202Y-131847884D01*
X143739202Y-131847884D02*
X143691583Y-132038360D01*
X143691583Y-132038360D02*
X143643964Y-132133598D01*
X143643964Y-132133598D02*
X143548726Y-132228837D01*
X143548726Y-132228837D02*
X143405869Y-132276456D01*
X143405869Y-132276456D02*
X143167774Y-132276456D01*
X144072536Y-131276456D02*
X144691583Y-131276456D01*
X144691583Y-131276456D02*
X144358250Y-131657408D01*
X144358250Y-131657408D02*
X144501107Y-131657408D01*
X144501107Y-131657408D02*
X144596345Y-131705027D01*
X144596345Y-131705027D02*
X144643964Y-131752646D01*
X144643964Y-131752646D02*
X144691583Y-131847884D01*
X144691583Y-131847884D02*
X144691583Y-132085979D01*
X144691583Y-132085979D02*
X144643964Y-132181217D01*
X144643964Y-132181217D02*
X144596345Y-132228837D01*
X144596345Y-132228837D02*
X144501107Y-132276456D01*
X144501107Y-132276456D02*
X144215393Y-132276456D01*
X144215393Y-132276456D02*
X144120155Y-132228837D01*
X144120155Y-132228837D02*
X144072536Y-132181217D01*
X143167774Y-129776456D02*
X143167774Y-128776456D01*
X143167774Y-128776456D02*
X143405869Y-128776456D01*
X143405869Y-128776456D02*
X143548726Y-128824075D01*
X143548726Y-128824075D02*
X143643964Y-128919313D01*
X143643964Y-128919313D02*
X143691583Y-129014551D01*
X143691583Y-129014551D02*
X143739202Y-129205027D01*
X143739202Y-129205027D02*
X143739202Y-129347884D01*
X143739202Y-129347884D02*
X143691583Y-129538360D01*
X143691583Y-129538360D02*
X143643964Y-129633598D01*
X143643964Y-129633598D02*
X143548726Y-129728837D01*
X143548726Y-129728837D02*
X143405869Y-129776456D01*
X143405869Y-129776456D02*
X143167774Y-129776456D01*
X144120155Y-128871694D02*
X144167774Y-128824075D01*
X144167774Y-128824075D02*
X144263012Y-128776456D01*
X144263012Y-128776456D02*
X144501107Y-128776456D01*
X144501107Y-128776456D02*
X144596345Y-128824075D01*
X144596345Y-128824075D02*
X144643964Y-128871694D01*
X144643964Y-128871694D02*
X144691583Y-128966932D01*
X144691583Y-128966932D02*
X144691583Y-129062170D01*
X144691583Y-129062170D02*
X144643964Y-129205027D01*
X144643964Y-129205027D02*
X144072536Y-129776456D01*
X144072536Y-129776456D02*
X144691583Y-129776456D01*
X143167774Y-126776456D02*
X143167774Y-125776456D01*
X143167774Y-125776456D02*
X143405869Y-125776456D01*
X143405869Y-125776456D02*
X143548726Y-125824075D01*
X143548726Y-125824075D02*
X143643964Y-125919313D01*
X143643964Y-125919313D02*
X143691583Y-126014551D01*
X143691583Y-126014551D02*
X143739202Y-126205027D01*
X143739202Y-126205027D02*
X143739202Y-126347884D01*
X143739202Y-126347884D02*
X143691583Y-126538360D01*
X143691583Y-126538360D02*
X143643964Y-126633598D01*
X143643964Y-126633598D02*
X143548726Y-126728837D01*
X143548726Y-126728837D02*
X143405869Y-126776456D01*
X143405869Y-126776456D02*
X143167774Y-126776456D01*
X144691583Y-126776456D02*
X144120155Y-126776456D01*
X144405869Y-126776456D02*
X144405869Y-125776456D01*
X144405869Y-125776456D02*
X144310631Y-125919313D01*
X144310631Y-125919313D02*
X144215393Y-126014551D01*
X144215393Y-126014551D02*
X144120155Y-126062170D01*
X103303884Y-126872419D02*
X103303884Y-125872419D01*
X103303884Y-125872419D02*
X103541979Y-125872419D01*
X103541979Y-125872419D02*
X103684836Y-125920038D01*
X103684836Y-125920038D02*
X103780074Y-126015276D01*
X103780074Y-126015276D02*
X103827693Y-126110514D01*
X103827693Y-126110514D02*
X103875312Y-126300990D01*
X103875312Y-126300990D02*
X103875312Y-126443847D01*
X103875312Y-126443847D02*
X103827693Y-126634323D01*
X103827693Y-126634323D02*
X103780074Y-126729561D01*
X103780074Y-126729561D02*
X103684836Y-126824800D01*
X103684836Y-126824800D02*
X103541979Y-126872419D01*
X103541979Y-126872419D02*
X103303884Y-126872419D01*
X104494360Y-125872419D02*
X104589598Y-125872419D01*
X104589598Y-125872419D02*
X104684836Y-125920038D01*
X104684836Y-125920038D02*
X104732455Y-125967657D01*
X104732455Y-125967657D02*
X104780074Y-126062895D01*
X104780074Y-126062895D02*
X104827693Y-126253371D01*
X104827693Y-126253371D02*
X104827693Y-126491466D01*
X104827693Y-126491466D02*
X104780074Y-126681942D01*
X104780074Y-126681942D02*
X104732455Y-126777180D01*
X104732455Y-126777180D02*
X104684836Y-126824800D01*
X104684836Y-126824800D02*
X104589598Y-126872419D01*
X104589598Y-126872419D02*
X104494360Y-126872419D01*
X104494360Y-126872419D02*
X104399122Y-126824800D01*
X104399122Y-126824800D02*
X104351503Y-126777180D01*
X104351503Y-126777180D02*
X104303884Y-126681942D01*
X104303884Y-126681942D02*
X104256265Y-126491466D01*
X104256265Y-126491466D02*
X104256265Y-126253371D01*
X104256265Y-126253371D02*
X104303884Y-126062895D01*
X104303884Y-126062895D02*
X104351503Y-125967657D01*
X104351503Y-125967657D02*
X104399122Y-125920038D01*
X104399122Y-125920038D02*
X104494360Y-125872419D01*
X103256265Y-124086704D02*
X103732455Y-124086704D01*
X103161027Y-124372419D02*
X103494360Y-123372419D01*
X103494360Y-123372419D02*
X103827693Y-124372419D01*
X104351503Y-123372419D02*
X104446741Y-123372419D01*
X104446741Y-123372419D02*
X104541979Y-123420038D01*
X104541979Y-123420038D02*
X104589598Y-123467657D01*
X104589598Y-123467657D02*
X104637217Y-123562895D01*
X104637217Y-123562895D02*
X104684836Y-123753371D01*
X104684836Y-123753371D02*
X104684836Y-123991466D01*
X104684836Y-123991466D02*
X104637217Y-124181942D01*
X104637217Y-124181942D02*
X104589598Y-124277180D01*
X104589598Y-124277180D02*
X104541979Y-124324800D01*
X104541979Y-124324800D02*
X104446741Y-124372419D01*
X104446741Y-124372419D02*
X104351503Y-124372419D01*
X104351503Y-124372419D02*
X104256265Y-124324800D01*
X104256265Y-124324800D02*
X104208646Y-124277180D01*
X104208646Y-124277180D02*
X104161027Y-124181942D01*
X104161027Y-124181942D02*
X104113408Y-123991466D01*
X104113408Y-123991466D02*
X104113408Y-123753371D01*
X104113408Y-123753371D02*
X104161027Y-123562895D01*
X104161027Y-123562895D02*
X104208646Y-123467657D01*
X104208646Y-123467657D02*
X104256265Y-123420038D01*
X104256265Y-123420038D02*
X104351503Y-123372419D01*
X103375312Y-122372419D02*
X103041979Y-121896228D01*
X102803884Y-122372419D02*
X102803884Y-121372419D01*
X102803884Y-121372419D02*
X103184836Y-121372419D01*
X103184836Y-121372419D02*
X103280074Y-121420038D01*
X103280074Y-121420038D02*
X103327693Y-121467657D01*
X103327693Y-121467657D02*
X103375312Y-121562895D01*
X103375312Y-121562895D02*
X103375312Y-121705752D01*
X103375312Y-121705752D02*
X103327693Y-121800990D01*
X103327693Y-121800990D02*
X103280074Y-121848609D01*
X103280074Y-121848609D02*
X103184836Y-121896228D01*
X103184836Y-121896228D02*
X102803884Y-121896228D01*
X103756265Y-122324800D02*
X103899122Y-122372419D01*
X103899122Y-122372419D02*
X104137217Y-122372419D01*
X104137217Y-122372419D02*
X104232455Y-122324800D01*
X104232455Y-122324800D02*
X104280074Y-122277180D01*
X104280074Y-122277180D02*
X104327693Y-122181942D01*
X104327693Y-122181942D02*
X104327693Y-122086704D01*
X104327693Y-122086704D02*
X104280074Y-121991466D01*
X104280074Y-121991466D02*
X104232455Y-121943847D01*
X104232455Y-121943847D02*
X104137217Y-121896228D01*
X104137217Y-121896228D02*
X103946741Y-121848609D01*
X103946741Y-121848609D02*
X103851503Y-121800990D01*
X103851503Y-121800990D02*
X103803884Y-121753371D01*
X103803884Y-121753371D02*
X103756265Y-121658133D01*
X103756265Y-121658133D02*
X103756265Y-121562895D01*
X103756265Y-121562895D02*
X103803884Y-121467657D01*
X103803884Y-121467657D02*
X103851503Y-121420038D01*
X103851503Y-121420038D02*
X103946741Y-121372419D01*
X103946741Y-121372419D02*
X104184836Y-121372419D01*
X104184836Y-121372419D02*
X104327693Y-121420038D01*
X104613408Y-121372419D02*
X105184836Y-121372419D01*
X104899122Y-122372419D02*
X104899122Y-121372419D01*
X157708646Y-103872419D02*
X157946741Y-104872419D01*
X157946741Y-104872419D02*
X158137217Y-104158133D01*
X158137217Y-104158133D02*
X158327693Y-104872419D01*
X158327693Y-104872419D02*
X158565789Y-103872419D01*
X159327693Y-104824800D02*
X159232455Y-104872419D01*
X159232455Y-104872419D02*
X159041979Y-104872419D01*
X159041979Y-104872419D02*
X158946741Y-104824800D01*
X158946741Y-104824800D02*
X158899122Y-104729561D01*
X158899122Y-104729561D02*
X158899122Y-104348609D01*
X158899122Y-104348609D02*
X158946741Y-104253371D01*
X158946741Y-104253371D02*
X159041979Y-104205752D01*
X159041979Y-104205752D02*
X159232455Y-104205752D01*
X159232455Y-104205752D02*
X159327693Y-104253371D01*
X159327693Y-104253371D02*
X159375312Y-104348609D01*
X159375312Y-104348609D02*
X159375312Y-104443847D01*
X159375312Y-104443847D02*
X158899122Y-104539085D01*
X159803884Y-104872419D02*
X159803884Y-103872419D01*
X159803884Y-103872419D02*
X160137217Y-104586704D01*
X160137217Y-104586704D02*
X160470550Y-103872419D01*
X160470550Y-103872419D02*
X160470550Y-104872419D01*
X161089598Y-104872419D02*
X160994360Y-104824800D01*
X160994360Y-104824800D02*
X160946741Y-104777180D01*
X160946741Y-104777180D02*
X160899122Y-104681942D01*
X160899122Y-104681942D02*
X160899122Y-104396228D01*
X160899122Y-104396228D02*
X160946741Y-104300990D01*
X160946741Y-104300990D02*
X160994360Y-104253371D01*
X160994360Y-104253371D02*
X161089598Y-104205752D01*
X161089598Y-104205752D02*
X161232455Y-104205752D01*
X161232455Y-104205752D02*
X161327693Y-104253371D01*
X161327693Y-104253371D02*
X161375312Y-104300990D01*
X161375312Y-104300990D02*
X161422931Y-104396228D01*
X161422931Y-104396228D02*
X161422931Y-104681942D01*
X161422931Y-104681942D02*
X161375312Y-104777180D01*
X161375312Y-104777180D02*
X161327693Y-104824800D01*
X161327693Y-104824800D02*
X161232455Y-104872419D01*
X161232455Y-104872419D02*
X161089598Y-104872419D01*
X161803884Y-104824800D02*
X161899122Y-104872419D01*
X161899122Y-104872419D02*
X162089598Y-104872419D01*
X162089598Y-104872419D02*
X162184836Y-104824800D01*
X162184836Y-104824800D02*
X162232455Y-104729561D01*
X162232455Y-104729561D02*
X162232455Y-104681942D01*
X162232455Y-104681942D02*
X162184836Y-104586704D01*
X162184836Y-104586704D02*
X162089598Y-104539085D01*
X162089598Y-104539085D02*
X161946741Y-104539085D01*
X161946741Y-104539085D02*
X161851503Y-104491466D01*
X161851503Y-104491466D02*
X161803884Y-104396228D01*
X161803884Y-104396228D02*
X161803884Y-104348609D01*
X161803884Y-104348609D02*
X161851503Y-104253371D01*
X161851503Y-104253371D02*
X161946741Y-104205752D01*
X161946741Y-104205752D02*
X162089598Y-104205752D01*
X162089598Y-104205752D02*
X162184836Y-104253371D01*
X163375313Y-104824800D02*
X163518170Y-104872419D01*
X163518170Y-104872419D02*
X163756265Y-104872419D01*
X163756265Y-104872419D02*
X163851503Y-104824800D01*
X163851503Y-104824800D02*
X163899122Y-104777180D01*
X163899122Y-104777180D02*
X163946741Y-104681942D01*
X163946741Y-104681942D02*
X163946741Y-104586704D01*
X163946741Y-104586704D02*
X163899122Y-104491466D01*
X163899122Y-104491466D02*
X163851503Y-104443847D01*
X163851503Y-104443847D02*
X163756265Y-104396228D01*
X163756265Y-104396228D02*
X163565789Y-104348609D01*
X163565789Y-104348609D02*
X163470551Y-104300990D01*
X163470551Y-104300990D02*
X163422932Y-104253371D01*
X163422932Y-104253371D02*
X163375313Y-104158133D01*
X163375313Y-104158133D02*
X163375313Y-104062895D01*
X163375313Y-104062895D02*
X163422932Y-103967657D01*
X163422932Y-103967657D02*
X163470551Y-103920038D01*
X163470551Y-103920038D02*
X163565789Y-103872419D01*
X163565789Y-103872419D02*
X163803884Y-103872419D01*
X163803884Y-103872419D02*
X163946741Y-103920038D01*
X164375313Y-104872419D02*
X164375313Y-103872419D01*
X164803884Y-104872419D02*
X164803884Y-104348609D01*
X164803884Y-104348609D02*
X164756265Y-104253371D01*
X164756265Y-104253371D02*
X164661027Y-104205752D01*
X164661027Y-104205752D02*
X164518170Y-104205752D01*
X164518170Y-104205752D02*
X164422932Y-104253371D01*
X164422932Y-104253371D02*
X164375313Y-104300990D01*
X165280075Y-104872419D02*
X165280075Y-104205752D01*
X165280075Y-103872419D02*
X165232456Y-103920038D01*
X165232456Y-103920038D02*
X165280075Y-103967657D01*
X165280075Y-103967657D02*
X165327694Y-103920038D01*
X165327694Y-103920038D02*
X165280075Y-103872419D01*
X165280075Y-103872419D02*
X165280075Y-103967657D01*
X166137217Y-104824800D02*
X166041979Y-104872419D01*
X166041979Y-104872419D02*
X165851503Y-104872419D01*
X165851503Y-104872419D02*
X165756265Y-104824800D01*
X165756265Y-104824800D02*
X165708646Y-104729561D01*
X165708646Y-104729561D02*
X165708646Y-104348609D01*
X165708646Y-104348609D02*
X165756265Y-104253371D01*
X165756265Y-104253371D02*
X165851503Y-104205752D01*
X165851503Y-104205752D02*
X166041979Y-104205752D01*
X166041979Y-104205752D02*
X166137217Y-104253371D01*
X166137217Y-104253371D02*
X166184836Y-104348609D01*
X166184836Y-104348609D02*
X166184836Y-104443847D01*
X166184836Y-104443847D02*
X165708646Y-104539085D01*
X166756265Y-104872419D02*
X166661027Y-104824800D01*
X166661027Y-104824800D02*
X166613408Y-104729561D01*
X166613408Y-104729561D02*
X166613408Y-103872419D01*
X167565789Y-104872419D02*
X167565789Y-103872419D01*
X167565789Y-104824800D02*
X167470551Y-104872419D01*
X167470551Y-104872419D02*
X167280075Y-104872419D01*
X167280075Y-104872419D02*
X167184837Y-104824800D01*
X167184837Y-104824800D02*
X167137218Y-104777180D01*
X167137218Y-104777180D02*
X167089599Y-104681942D01*
X167089599Y-104681942D02*
X167089599Y-104396228D01*
X167089599Y-104396228D02*
X167137218Y-104300990D01*
X167137218Y-104300990D02*
X167184837Y-104253371D01*
X167184837Y-104253371D02*
X167280075Y-104205752D01*
X167280075Y-104205752D02*
X167470551Y-104205752D01*
X167470551Y-104205752D02*
X167565789Y-104253371D01*
X168708647Y-103872419D02*
X169327694Y-103872419D01*
X169327694Y-103872419D02*
X168994361Y-104253371D01*
X168994361Y-104253371D02*
X169137218Y-104253371D01*
X169137218Y-104253371D02*
X169232456Y-104300990D01*
X169232456Y-104300990D02*
X169280075Y-104348609D01*
X169280075Y-104348609D02*
X169327694Y-104443847D01*
X169327694Y-104443847D02*
X169327694Y-104681942D01*
X169327694Y-104681942D02*
X169280075Y-104777180D01*
X169280075Y-104777180D02*
X169232456Y-104824800D01*
X169232456Y-104824800D02*
X169137218Y-104872419D01*
X169137218Y-104872419D02*
X168851504Y-104872419D01*
X168851504Y-104872419D02*
X168756266Y-104824800D01*
X168756266Y-104824800D02*
X168708647Y-104777180D01*
X121708646Y-103372419D02*
X121946741Y-104372419D01*
X121946741Y-104372419D02*
X122137217Y-103658133D01*
X122137217Y-103658133D02*
X122327693Y-104372419D01*
X122327693Y-104372419D02*
X122565789Y-103372419D01*
X123327693Y-104324800D02*
X123232455Y-104372419D01*
X123232455Y-104372419D02*
X123041979Y-104372419D01*
X123041979Y-104372419D02*
X122946741Y-104324800D01*
X122946741Y-104324800D02*
X122899122Y-104229561D01*
X122899122Y-104229561D02*
X122899122Y-103848609D01*
X122899122Y-103848609D02*
X122946741Y-103753371D01*
X122946741Y-103753371D02*
X123041979Y-103705752D01*
X123041979Y-103705752D02*
X123232455Y-103705752D01*
X123232455Y-103705752D02*
X123327693Y-103753371D01*
X123327693Y-103753371D02*
X123375312Y-103848609D01*
X123375312Y-103848609D02*
X123375312Y-103943847D01*
X123375312Y-103943847D02*
X122899122Y-104039085D01*
X123803884Y-104372419D02*
X123803884Y-103372419D01*
X123803884Y-103372419D02*
X124137217Y-104086704D01*
X124137217Y-104086704D02*
X124470550Y-103372419D01*
X124470550Y-103372419D02*
X124470550Y-104372419D01*
X125089598Y-104372419D02*
X124994360Y-104324800D01*
X124994360Y-104324800D02*
X124946741Y-104277180D01*
X124946741Y-104277180D02*
X124899122Y-104181942D01*
X124899122Y-104181942D02*
X124899122Y-103896228D01*
X124899122Y-103896228D02*
X124946741Y-103800990D01*
X124946741Y-103800990D02*
X124994360Y-103753371D01*
X124994360Y-103753371D02*
X125089598Y-103705752D01*
X125089598Y-103705752D02*
X125232455Y-103705752D01*
X125232455Y-103705752D02*
X125327693Y-103753371D01*
X125327693Y-103753371D02*
X125375312Y-103800990D01*
X125375312Y-103800990D02*
X125422931Y-103896228D01*
X125422931Y-103896228D02*
X125422931Y-104181942D01*
X125422931Y-104181942D02*
X125375312Y-104277180D01*
X125375312Y-104277180D02*
X125327693Y-104324800D01*
X125327693Y-104324800D02*
X125232455Y-104372419D01*
X125232455Y-104372419D02*
X125089598Y-104372419D01*
X125803884Y-104324800D02*
X125899122Y-104372419D01*
X125899122Y-104372419D02*
X126089598Y-104372419D01*
X126089598Y-104372419D02*
X126184836Y-104324800D01*
X126184836Y-104324800D02*
X126232455Y-104229561D01*
X126232455Y-104229561D02*
X126232455Y-104181942D01*
X126232455Y-104181942D02*
X126184836Y-104086704D01*
X126184836Y-104086704D02*
X126089598Y-104039085D01*
X126089598Y-104039085D02*
X125946741Y-104039085D01*
X125946741Y-104039085D02*
X125851503Y-103991466D01*
X125851503Y-103991466D02*
X125803884Y-103896228D01*
X125803884Y-103896228D02*
X125803884Y-103848609D01*
X125803884Y-103848609D02*
X125851503Y-103753371D01*
X125851503Y-103753371D02*
X125946741Y-103705752D01*
X125946741Y-103705752D02*
X126089598Y-103705752D01*
X126089598Y-103705752D02*
X126184836Y-103753371D01*
X127375313Y-104324800D02*
X127518170Y-104372419D01*
X127518170Y-104372419D02*
X127756265Y-104372419D01*
X127756265Y-104372419D02*
X127851503Y-104324800D01*
X127851503Y-104324800D02*
X127899122Y-104277180D01*
X127899122Y-104277180D02*
X127946741Y-104181942D01*
X127946741Y-104181942D02*
X127946741Y-104086704D01*
X127946741Y-104086704D02*
X127899122Y-103991466D01*
X127899122Y-103991466D02*
X127851503Y-103943847D01*
X127851503Y-103943847D02*
X127756265Y-103896228D01*
X127756265Y-103896228D02*
X127565789Y-103848609D01*
X127565789Y-103848609D02*
X127470551Y-103800990D01*
X127470551Y-103800990D02*
X127422932Y-103753371D01*
X127422932Y-103753371D02*
X127375313Y-103658133D01*
X127375313Y-103658133D02*
X127375313Y-103562895D01*
X127375313Y-103562895D02*
X127422932Y-103467657D01*
X127422932Y-103467657D02*
X127470551Y-103420038D01*
X127470551Y-103420038D02*
X127565789Y-103372419D01*
X127565789Y-103372419D02*
X127803884Y-103372419D01*
X127803884Y-103372419D02*
X127946741Y-103420038D01*
X128375313Y-104372419D02*
X128375313Y-103372419D01*
X128803884Y-104372419D02*
X128803884Y-103848609D01*
X128803884Y-103848609D02*
X128756265Y-103753371D01*
X128756265Y-103753371D02*
X128661027Y-103705752D01*
X128661027Y-103705752D02*
X128518170Y-103705752D01*
X128518170Y-103705752D02*
X128422932Y-103753371D01*
X128422932Y-103753371D02*
X128375313Y-103800990D01*
X129280075Y-104372419D02*
X129280075Y-103705752D01*
X129280075Y-103372419D02*
X129232456Y-103420038D01*
X129232456Y-103420038D02*
X129280075Y-103467657D01*
X129280075Y-103467657D02*
X129327694Y-103420038D01*
X129327694Y-103420038D02*
X129280075Y-103372419D01*
X129280075Y-103372419D02*
X129280075Y-103467657D01*
X130137217Y-104324800D02*
X130041979Y-104372419D01*
X130041979Y-104372419D02*
X129851503Y-104372419D01*
X129851503Y-104372419D02*
X129756265Y-104324800D01*
X129756265Y-104324800D02*
X129708646Y-104229561D01*
X129708646Y-104229561D02*
X129708646Y-103848609D01*
X129708646Y-103848609D02*
X129756265Y-103753371D01*
X129756265Y-103753371D02*
X129851503Y-103705752D01*
X129851503Y-103705752D02*
X130041979Y-103705752D01*
X130041979Y-103705752D02*
X130137217Y-103753371D01*
X130137217Y-103753371D02*
X130184836Y-103848609D01*
X130184836Y-103848609D02*
X130184836Y-103943847D01*
X130184836Y-103943847D02*
X129708646Y-104039085D01*
X130756265Y-104372419D02*
X130661027Y-104324800D01*
X130661027Y-104324800D02*
X130613408Y-104229561D01*
X130613408Y-104229561D02*
X130613408Y-103372419D01*
X131565789Y-104372419D02*
X131565789Y-103372419D01*
X131565789Y-104324800D02*
X131470551Y-104372419D01*
X131470551Y-104372419D02*
X131280075Y-104372419D01*
X131280075Y-104372419D02*
X131184837Y-104324800D01*
X131184837Y-104324800D02*
X131137218Y-104277180D01*
X131137218Y-104277180D02*
X131089599Y-104181942D01*
X131089599Y-104181942D02*
X131089599Y-103896228D01*
X131089599Y-103896228D02*
X131137218Y-103800990D01*
X131137218Y-103800990D02*
X131184837Y-103753371D01*
X131184837Y-103753371D02*
X131280075Y-103705752D01*
X131280075Y-103705752D02*
X131470551Y-103705752D01*
X131470551Y-103705752D02*
X131565789Y-103753371D01*
X132756266Y-103467657D02*
X132803885Y-103420038D01*
X132803885Y-103420038D02*
X132899123Y-103372419D01*
X132899123Y-103372419D02*
X133137218Y-103372419D01*
X133137218Y-103372419D02*
X133232456Y-103420038D01*
X133232456Y-103420038D02*
X133280075Y-103467657D01*
X133280075Y-103467657D02*
X133327694Y-103562895D01*
X133327694Y-103562895D02*
X133327694Y-103658133D01*
X133327694Y-103658133D02*
X133280075Y-103800990D01*
X133280075Y-103800990D02*
X132708647Y-104372419D01*
X132708647Y-104372419D02*
X133327694Y-104372419D01*
X159208646Y-148872419D02*
X159446741Y-149872419D01*
X159446741Y-149872419D02*
X159637217Y-149158133D01*
X159637217Y-149158133D02*
X159827693Y-149872419D01*
X159827693Y-149872419D02*
X160065789Y-148872419D01*
X160827693Y-149824800D02*
X160732455Y-149872419D01*
X160732455Y-149872419D02*
X160541979Y-149872419D01*
X160541979Y-149872419D02*
X160446741Y-149824800D01*
X160446741Y-149824800D02*
X160399122Y-149729561D01*
X160399122Y-149729561D02*
X160399122Y-149348609D01*
X160399122Y-149348609D02*
X160446741Y-149253371D01*
X160446741Y-149253371D02*
X160541979Y-149205752D01*
X160541979Y-149205752D02*
X160732455Y-149205752D01*
X160732455Y-149205752D02*
X160827693Y-149253371D01*
X160827693Y-149253371D02*
X160875312Y-149348609D01*
X160875312Y-149348609D02*
X160875312Y-149443847D01*
X160875312Y-149443847D02*
X160399122Y-149539085D01*
X161303884Y-149872419D02*
X161303884Y-148872419D01*
X161303884Y-148872419D02*
X161637217Y-149586704D01*
X161637217Y-149586704D02*
X161970550Y-148872419D01*
X161970550Y-148872419D02*
X161970550Y-149872419D01*
X162589598Y-149872419D02*
X162494360Y-149824800D01*
X162494360Y-149824800D02*
X162446741Y-149777180D01*
X162446741Y-149777180D02*
X162399122Y-149681942D01*
X162399122Y-149681942D02*
X162399122Y-149396228D01*
X162399122Y-149396228D02*
X162446741Y-149300990D01*
X162446741Y-149300990D02*
X162494360Y-149253371D01*
X162494360Y-149253371D02*
X162589598Y-149205752D01*
X162589598Y-149205752D02*
X162732455Y-149205752D01*
X162732455Y-149205752D02*
X162827693Y-149253371D01*
X162827693Y-149253371D02*
X162875312Y-149300990D01*
X162875312Y-149300990D02*
X162922931Y-149396228D01*
X162922931Y-149396228D02*
X162922931Y-149681942D01*
X162922931Y-149681942D02*
X162875312Y-149777180D01*
X162875312Y-149777180D02*
X162827693Y-149824800D01*
X162827693Y-149824800D02*
X162732455Y-149872419D01*
X162732455Y-149872419D02*
X162589598Y-149872419D01*
X163303884Y-149824800D02*
X163399122Y-149872419D01*
X163399122Y-149872419D02*
X163589598Y-149872419D01*
X163589598Y-149872419D02*
X163684836Y-149824800D01*
X163684836Y-149824800D02*
X163732455Y-149729561D01*
X163732455Y-149729561D02*
X163732455Y-149681942D01*
X163732455Y-149681942D02*
X163684836Y-149586704D01*
X163684836Y-149586704D02*
X163589598Y-149539085D01*
X163589598Y-149539085D02*
X163446741Y-149539085D01*
X163446741Y-149539085D02*
X163351503Y-149491466D01*
X163351503Y-149491466D02*
X163303884Y-149396228D01*
X163303884Y-149396228D02*
X163303884Y-149348609D01*
X163303884Y-149348609D02*
X163351503Y-149253371D01*
X163351503Y-149253371D02*
X163446741Y-149205752D01*
X163446741Y-149205752D02*
X163589598Y-149205752D01*
X163589598Y-149205752D02*
X163684836Y-149253371D01*
X164875313Y-149824800D02*
X165018170Y-149872419D01*
X165018170Y-149872419D02*
X165256265Y-149872419D01*
X165256265Y-149872419D02*
X165351503Y-149824800D01*
X165351503Y-149824800D02*
X165399122Y-149777180D01*
X165399122Y-149777180D02*
X165446741Y-149681942D01*
X165446741Y-149681942D02*
X165446741Y-149586704D01*
X165446741Y-149586704D02*
X165399122Y-149491466D01*
X165399122Y-149491466D02*
X165351503Y-149443847D01*
X165351503Y-149443847D02*
X165256265Y-149396228D01*
X165256265Y-149396228D02*
X165065789Y-149348609D01*
X165065789Y-149348609D02*
X164970551Y-149300990D01*
X164970551Y-149300990D02*
X164922932Y-149253371D01*
X164922932Y-149253371D02*
X164875313Y-149158133D01*
X164875313Y-149158133D02*
X164875313Y-149062895D01*
X164875313Y-149062895D02*
X164922932Y-148967657D01*
X164922932Y-148967657D02*
X164970551Y-148920038D01*
X164970551Y-148920038D02*
X165065789Y-148872419D01*
X165065789Y-148872419D02*
X165303884Y-148872419D01*
X165303884Y-148872419D02*
X165446741Y-148920038D01*
X165875313Y-149872419D02*
X165875313Y-148872419D01*
X166303884Y-149872419D02*
X166303884Y-149348609D01*
X166303884Y-149348609D02*
X166256265Y-149253371D01*
X166256265Y-149253371D02*
X166161027Y-149205752D01*
X166161027Y-149205752D02*
X166018170Y-149205752D01*
X166018170Y-149205752D02*
X165922932Y-149253371D01*
X165922932Y-149253371D02*
X165875313Y-149300990D01*
X166780075Y-149872419D02*
X166780075Y-149205752D01*
X166780075Y-148872419D02*
X166732456Y-148920038D01*
X166732456Y-148920038D02*
X166780075Y-148967657D01*
X166780075Y-148967657D02*
X166827694Y-148920038D01*
X166827694Y-148920038D02*
X166780075Y-148872419D01*
X166780075Y-148872419D02*
X166780075Y-148967657D01*
X167637217Y-149824800D02*
X167541979Y-149872419D01*
X167541979Y-149872419D02*
X167351503Y-149872419D01*
X167351503Y-149872419D02*
X167256265Y-149824800D01*
X167256265Y-149824800D02*
X167208646Y-149729561D01*
X167208646Y-149729561D02*
X167208646Y-149348609D01*
X167208646Y-149348609D02*
X167256265Y-149253371D01*
X167256265Y-149253371D02*
X167351503Y-149205752D01*
X167351503Y-149205752D02*
X167541979Y-149205752D01*
X167541979Y-149205752D02*
X167637217Y-149253371D01*
X167637217Y-149253371D02*
X167684836Y-149348609D01*
X167684836Y-149348609D02*
X167684836Y-149443847D01*
X167684836Y-149443847D02*
X167208646Y-149539085D01*
X168256265Y-149872419D02*
X168161027Y-149824800D01*
X168161027Y-149824800D02*
X168113408Y-149729561D01*
X168113408Y-149729561D02*
X168113408Y-148872419D01*
X169065789Y-149872419D02*
X169065789Y-148872419D01*
X169065789Y-149824800D02*
X168970551Y-149872419D01*
X168970551Y-149872419D02*
X168780075Y-149872419D01*
X168780075Y-149872419D02*
X168684837Y-149824800D01*
X168684837Y-149824800D02*
X168637218Y-149777180D01*
X168637218Y-149777180D02*
X168589599Y-149681942D01*
X168589599Y-149681942D02*
X168589599Y-149396228D01*
X168589599Y-149396228D02*
X168637218Y-149300990D01*
X168637218Y-149300990D02*
X168684837Y-149253371D01*
X168684837Y-149253371D02*
X168780075Y-149205752D01*
X168780075Y-149205752D02*
X168970551Y-149205752D01*
X168970551Y-149205752D02*
X169065789Y-149253371D01*
X170827694Y-149872419D02*
X170256266Y-149872419D01*
X170541980Y-149872419D02*
X170541980Y-148872419D01*
X170541980Y-148872419D02*
X170446742Y-149015276D01*
X170446742Y-149015276D02*
X170351504Y-149110514D01*
X170351504Y-149110514D02*
X170256266Y-149158133D01*
X121208646Y-148872419D02*
X121446741Y-149872419D01*
X121446741Y-149872419D02*
X121637217Y-149158133D01*
X121637217Y-149158133D02*
X121827693Y-149872419D01*
X121827693Y-149872419D02*
X122065789Y-148872419D01*
X122827693Y-149824800D02*
X122732455Y-149872419D01*
X122732455Y-149872419D02*
X122541979Y-149872419D01*
X122541979Y-149872419D02*
X122446741Y-149824800D01*
X122446741Y-149824800D02*
X122399122Y-149729561D01*
X122399122Y-149729561D02*
X122399122Y-149348609D01*
X122399122Y-149348609D02*
X122446741Y-149253371D01*
X122446741Y-149253371D02*
X122541979Y-149205752D01*
X122541979Y-149205752D02*
X122732455Y-149205752D01*
X122732455Y-149205752D02*
X122827693Y-149253371D01*
X122827693Y-149253371D02*
X122875312Y-149348609D01*
X122875312Y-149348609D02*
X122875312Y-149443847D01*
X122875312Y-149443847D02*
X122399122Y-149539085D01*
X123303884Y-149872419D02*
X123303884Y-148872419D01*
X123303884Y-148872419D02*
X123637217Y-149586704D01*
X123637217Y-149586704D02*
X123970550Y-148872419D01*
X123970550Y-148872419D02*
X123970550Y-149872419D01*
X124589598Y-149872419D02*
X124494360Y-149824800D01*
X124494360Y-149824800D02*
X124446741Y-149777180D01*
X124446741Y-149777180D02*
X124399122Y-149681942D01*
X124399122Y-149681942D02*
X124399122Y-149396228D01*
X124399122Y-149396228D02*
X124446741Y-149300990D01*
X124446741Y-149300990D02*
X124494360Y-149253371D01*
X124494360Y-149253371D02*
X124589598Y-149205752D01*
X124589598Y-149205752D02*
X124732455Y-149205752D01*
X124732455Y-149205752D02*
X124827693Y-149253371D01*
X124827693Y-149253371D02*
X124875312Y-149300990D01*
X124875312Y-149300990D02*
X124922931Y-149396228D01*
X124922931Y-149396228D02*
X124922931Y-149681942D01*
X124922931Y-149681942D02*
X124875312Y-149777180D01*
X124875312Y-149777180D02*
X124827693Y-149824800D01*
X124827693Y-149824800D02*
X124732455Y-149872419D01*
X124732455Y-149872419D02*
X124589598Y-149872419D01*
X125303884Y-149824800D02*
X125399122Y-149872419D01*
X125399122Y-149872419D02*
X125589598Y-149872419D01*
X125589598Y-149872419D02*
X125684836Y-149824800D01*
X125684836Y-149824800D02*
X125732455Y-149729561D01*
X125732455Y-149729561D02*
X125732455Y-149681942D01*
X125732455Y-149681942D02*
X125684836Y-149586704D01*
X125684836Y-149586704D02*
X125589598Y-149539085D01*
X125589598Y-149539085D02*
X125446741Y-149539085D01*
X125446741Y-149539085D02*
X125351503Y-149491466D01*
X125351503Y-149491466D02*
X125303884Y-149396228D01*
X125303884Y-149396228D02*
X125303884Y-149348609D01*
X125303884Y-149348609D02*
X125351503Y-149253371D01*
X125351503Y-149253371D02*
X125446741Y-149205752D01*
X125446741Y-149205752D02*
X125589598Y-149205752D01*
X125589598Y-149205752D02*
X125684836Y-149253371D01*
X126922932Y-149872419D02*
X126922932Y-148872419D01*
X126922932Y-148872419D02*
X127161027Y-148872419D01*
X127161027Y-148872419D02*
X127303884Y-148920038D01*
X127303884Y-148920038D02*
X127399122Y-149015276D01*
X127399122Y-149015276D02*
X127446741Y-149110514D01*
X127446741Y-149110514D02*
X127494360Y-149300990D01*
X127494360Y-149300990D02*
X127494360Y-149443847D01*
X127494360Y-149443847D02*
X127446741Y-149634323D01*
X127446741Y-149634323D02*
X127399122Y-149729561D01*
X127399122Y-149729561D02*
X127303884Y-149824800D01*
X127303884Y-149824800D02*
X127161027Y-149872419D01*
X127161027Y-149872419D02*
X126922932Y-149872419D01*
X128446741Y-149872419D02*
X127875313Y-149872419D01*
X128161027Y-149872419D02*
X128161027Y-148872419D01*
X128161027Y-148872419D02*
X128065789Y-149015276D01*
X128065789Y-149015276D02*
X127970551Y-149110514D01*
X127970551Y-149110514D02*
X127875313Y-149158133D01*
X129637218Y-149872419D02*
X129637218Y-148872419D01*
X129637218Y-148872419D02*
X129970551Y-149586704D01*
X129970551Y-149586704D02*
X130303884Y-148872419D01*
X130303884Y-148872419D02*
X130303884Y-149872419D01*
X130780075Y-149872419D02*
X130780075Y-149205752D01*
X130780075Y-148872419D02*
X130732456Y-148920038D01*
X130732456Y-148920038D02*
X130780075Y-148967657D01*
X130780075Y-148967657D02*
X130827694Y-148920038D01*
X130827694Y-148920038D02*
X130780075Y-148872419D01*
X130780075Y-148872419D02*
X130780075Y-148967657D01*
X131256265Y-149205752D02*
X131256265Y-149872419D01*
X131256265Y-149300990D02*
X131303884Y-149253371D01*
X131303884Y-149253371D02*
X131399122Y-149205752D01*
X131399122Y-149205752D02*
X131541979Y-149205752D01*
X131541979Y-149205752D02*
X131637217Y-149253371D01*
X131637217Y-149253371D02*
X131684836Y-149348609D01*
X131684836Y-149348609D02*
X131684836Y-149872419D01*
X132161027Y-149872419D02*
X132161027Y-149205752D01*
X132161027Y-148872419D02*
X132113408Y-148920038D01*
X132113408Y-148920038D02*
X132161027Y-148967657D01*
X132161027Y-148967657D02*
X132208646Y-148920038D01*
X132208646Y-148920038D02*
X132161027Y-148872419D01*
X132161027Y-148872419D02*
X132161027Y-148967657D01*
X133922931Y-149872419D02*
X133351503Y-149872419D01*
X133637217Y-149872419D02*
X133637217Y-148872419D01*
X133637217Y-148872419D02*
X133541979Y-149015276D01*
X133541979Y-149015276D02*
X133446741Y-149110514D01*
X133446741Y-149110514D02*
X133351503Y-149158133D01*
D12*
X181166666Y-107454819D02*
X181166666Y-108169104D01*
X181166666Y-108169104D02*
X181119047Y-108311961D01*
X181119047Y-108311961D02*
X181023809Y-108407200D01*
X181023809Y-108407200D02*
X180880952Y-108454819D01*
X180880952Y-108454819D02*
X180785714Y-108454819D01*
X181785714Y-107883390D02*
X181690476Y-107835771D01*
X181690476Y-107835771D02*
X181642857Y-107788152D01*
X181642857Y-107788152D02*
X181595238Y-107692914D01*
X181595238Y-107692914D02*
X181595238Y-107645295D01*
X181595238Y-107645295D02*
X181642857Y-107550057D01*
X181642857Y-107550057D02*
X181690476Y-107502438D01*
X181690476Y-107502438D02*
X181785714Y-107454819D01*
X181785714Y-107454819D02*
X181976190Y-107454819D01*
X181976190Y-107454819D02*
X182071428Y-107502438D01*
X182071428Y-107502438D02*
X182119047Y-107550057D01*
X182119047Y-107550057D02*
X182166666Y-107645295D01*
X182166666Y-107645295D02*
X182166666Y-107692914D01*
X182166666Y-107692914D02*
X182119047Y-107788152D01*
X182119047Y-107788152D02*
X182071428Y-107835771D01*
X182071428Y-107835771D02*
X181976190Y-107883390D01*
X181976190Y-107883390D02*
X181785714Y-107883390D01*
X181785714Y-107883390D02*
X181690476Y-107931009D01*
X181690476Y-107931009D02*
X181642857Y-107978628D01*
X181642857Y-107978628D02*
X181595238Y-108073866D01*
X181595238Y-108073866D02*
X181595238Y-108264342D01*
X181595238Y-108264342D02*
X181642857Y-108359580D01*
X181642857Y-108359580D02*
X181690476Y-108407200D01*
X181690476Y-108407200D02*
X181785714Y-108454819D01*
X181785714Y-108454819D02*
X181976190Y-108454819D01*
X181976190Y-108454819D02*
X182071428Y-108407200D01*
X182071428Y-108407200D02*
X182119047Y-108359580D01*
X182119047Y-108359580D02*
X182166666Y-108264342D01*
X182166666Y-108264342D02*
X182166666Y-108073866D01*
X182166666Y-108073866D02*
X182119047Y-107978628D01*
X182119047Y-107978628D02*
X182071428Y-107931009D01*
X182071428Y-107931009D02*
X181976190Y-107883390D01*
X174238095Y-102674819D02*
X174238095Y-103484342D01*
X174238095Y-103484342D02*
X174285714Y-103579580D01*
X174285714Y-103579580D02*
X174333333Y-103627200D01*
X174333333Y-103627200D02*
X174428571Y-103674819D01*
X174428571Y-103674819D02*
X174619047Y-103674819D01*
X174619047Y-103674819D02*
X174714285Y-103627200D01*
X174714285Y-103627200D02*
X174761904Y-103579580D01*
X174761904Y-103579580D02*
X174809523Y-103484342D01*
X174809523Y-103484342D02*
X174809523Y-102674819D01*
X175714285Y-103008152D02*
X175714285Y-103674819D01*
X175476190Y-102627200D02*
X175238095Y-103341485D01*
X175238095Y-103341485D02*
X175857142Y-103341485D01*
X138378095Y-147954819D02*
X138378095Y-148764342D01*
X138378095Y-148764342D02*
X138425714Y-148859580D01*
X138425714Y-148859580D02*
X138473333Y-148907200D01*
X138473333Y-148907200D02*
X138568571Y-148954819D01*
X138568571Y-148954819D02*
X138759047Y-148954819D01*
X138759047Y-148954819D02*
X138854285Y-148907200D01*
X138854285Y-148907200D02*
X138901904Y-148859580D01*
X138901904Y-148859580D02*
X138949523Y-148764342D01*
X138949523Y-148764342D02*
X138949523Y-147954819D01*
X139949523Y-148954819D02*
X139378095Y-148954819D01*
X139663809Y-148954819D02*
X139663809Y-147954819D01*
X139663809Y-147954819D02*
X139568571Y-148097676D01*
X139568571Y-148097676D02*
X139473333Y-148192914D01*
X139473333Y-148192914D02*
X139378095Y-148240533D01*
X177333333Y-62824819D02*
X177000000Y-62348628D01*
X176761905Y-62824819D02*
X176761905Y-61824819D01*
X176761905Y-61824819D02*
X177142857Y-61824819D01*
X177142857Y-61824819D02*
X177238095Y-61872438D01*
X177238095Y-61872438D02*
X177285714Y-61920057D01*
X177285714Y-61920057D02*
X177333333Y-62015295D01*
X177333333Y-62015295D02*
X177333333Y-62158152D01*
X177333333Y-62158152D02*
X177285714Y-62253390D01*
X177285714Y-62253390D02*
X177238095Y-62301009D01*
X177238095Y-62301009D02*
X177142857Y-62348628D01*
X177142857Y-62348628D02*
X176761905Y-62348628D01*
X178285714Y-62824819D02*
X177714286Y-62824819D01*
X178000000Y-62824819D02*
X178000000Y-61824819D01*
X178000000Y-61824819D02*
X177904762Y-61967676D01*
X177904762Y-61967676D02*
X177809524Y-62062914D01*
X177809524Y-62062914D02*
X177714286Y-62110533D01*
X192666666Y-105954819D02*
X192666666Y-106669104D01*
X192666666Y-106669104D02*
X192619047Y-106811961D01*
X192619047Y-106811961D02*
X192523809Y-106907200D01*
X192523809Y-106907200D02*
X192380952Y-106954819D01*
X192380952Y-106954819D02*
X192285714Y-106954819D01*
X193571428Y-106288152D02*
X193571428Y-106954819D01*
X193333333Y-105907200D02*
X193095238Y-106621485D01*
X193095238Y-106621485D02*
X193714285Y-106621485D01*
X192666666Y-56454819D02*
X192666666Y-57169104D01*
X192666666Y-57169104D02*
X192619047Y-57311961D01*
X192619047Y-57311961D02*
X192523809Y-57407200D01*
X192523809Y-57407200D02*
X192380952Y-57454819D01*
X192380952Y-57454819D02*
X192285714Y-57454819D01*
X193047619Y-56454819D02*
X193666666Y-56454819D01*
X193666666Y-56454819D02*
X193333333Y-56835771D01*
X193333333Y-56835771D02*
X193476190Y-56835771D01*
X193476190Y-56835771D02*
X193571428Y-56883390D01*
X193571428Y-56883390D02*
X193619047Y-56931009D01*
X193619047Y-56931009D02*
X193666666Y-57026247D01*
X193666666Y-57026247D02*
X193666666Y-57264342D01*
X193666666Y-57264342D02*
X193619047Y-57359580D01*
X193619047Y-57359580D02*
X193571428Y-57407200D01*
X193571428Y-57407200D02*
X193476190Y-57454819D01*
X193476190Y-57454819D02*
X193190476Y-57454819D01*
X193190476Y-57454819D02*
X193095238Y-57407200D01*
X193095238Y-57407200D02*
X193047619Y-57359580D01*
X174378095Y-147954819D02*
X174378095Y-148764342D01*
X174378095Y-148764342D02*
X174425714Y-148859580D01*
X174425714Y-148859580D02*
X174473333Y-148907200D01*
X174473333Y-148907200D02*
X174568571Y-148954819D01*
X174568571Y-148954819D02*
X174759047Y-148954819D01*
X174759047Y-148954819D02*
X174854285Y-148907200D01*
X174854285Y-148907200D02*
X174901904Y-148859580D01*
X174901904Y-148859580D02*
X174949523Y-148764342D01*
X174949523Y-148764342D02*
X174949523Y-147954819D01*
X175378095Y-148050057D02*
X175425714Y-148002438D01*
X175425714Y-148002438D02*
X175520952Y-147954819D01*
X175520952Y-147954819D02*
X175759047Y-147954819D01*
X175759047Y-147954819D02*
X175854285Y-148002438D01*
X175854285Y-148002438D02*
X175901904Y-148050057D01*
X175901904Y-148050057D02*
X175949523Y-148145295D01*
X175949523Y-148145295D02*
X175949523Y-148240533D01*
X175949523Y-148240533D02*
X175901904Y-148383390D01*
X175901904Y-148383390D02*
X175330476Y-148954819D01*
X175330476Y-148954819D02*
X175949523Y-148954819D01*
X147016666Y-117454819D02*
X147016666Y-118169104D01*
X147016666Y-118169104D02*
X146969047Y-118311961D01*
X146969047Y-118311961D02*
X146873809Y-118407200D01*
X146873809Y-118407200D02*
X146730952Y-118454819D01*
X146730952Y-118454819D02*
X146635714Y-118454819D01*
X147445238Y-117550057D02*
X147492857Y-117502438D01*
X147492857Y-117502438D02*
X147588095Y-117454819D01*
X147588095Y-117454819D02*
X147826190Y-117454819D01*
X147826190Y-117454819D02*
X147921428Y-117502438D01*
X147921428Y-117502438D02*
X147969047Y-117550057D01*
X147969047Y-117550057D02*
X148016666Y-117645295D01*
X148016666Y-117645295D02*
X148016666Y-117740533D01*
X148016666Y-117740533D02*
X147969047Y-117883390D01*
X147969047Y-117883390D02*
X147397619Y-118454819D01*
X147397619Y-118454819D02*
X148016666Y-118454819D01*
X138238095Y-102674819D02*
X138238095Y-103484342D01*
X138238095Y-103484342D02*
X138285714Y-103579580D01*
X138285714Y-103579580D02*
X138333333Y-103627200D01*
X138333333Y-103627200D02*
X138428571Y-103674819D01*
X138428571Y-103674819D02*
X138619047Y-103674819D01*
X138619047Y-103674819D02*
X138714285Y-103627200D01*
X138714285Y-103627200D02*
X138761904Y-103579580D01*
X138761904Y-103579580D02*
X138809523Y-103484342D01*
X138809523Y-103484342D02*
X138809523Y-102674819D01*
X139190476Y-102674819D02*
X139809523Y-102674819D01*
X139809523Y-102674819D02*
X139476190Y-103055771D01*
X139476190Y-103055771D02*
X139619047Y-103055771D01*
X139619047Y-103055771D02*
X139714285Y-103103390D01*
X139714285Y-103103390D02*
X139761904Y-103151009D01*
X139761904Y-103151009D02*
X139809523Y-103246247D01*
X139809523Y-103246247D02*
X139809523Y-103484342D01*
X139809523Y-103484342D02*
X139761904Y-103579580D01*
X139761904Y-103579580D02*
X139714285Y-103627200D01*
X139714285Y-103627200D02*
X139619047Y-103674819D01*
X139619047Y-103674819D02*
X139333333Y-103674819D01*
X139333333Y-103674819D02*
X139238095Y-103627200D01*
X139238095Y-103627200D02*
X139190476Y-103579580D01*
X107166666Y-117454819D02*
X107166666Y-118169104D01*
X107166666Y-118169104D02*
X107119047Y-118311961D01*
X107119047Y-118311961D02*
X107023809Y-118407200D01*
X107023809Y-118407200D02*
X106880952Y-118454819D01*
X106880952Y-118454819D02*
X106785714Y-118454819D01*
X108166666Y-118454819D02*
X107595238Y-118454819D01*
X107880952Y-118454819D02*
X107880952Y-117454819D01*
X107880952Y-117454819D02*
X107785714Y-117597676D01*
X107785714Y-117597676D02*
X107690476Y-117692914D01*
X107690476Y-117692914D02*
X107595238Y-117740533D01*
X104666667Y-72907200D02*
X104809524Y-72954819D01*
X104809524Y-72954819D02*
X105047619Y-72954819D01*
X105047619Y-72954819D02*
X105142857Y-72907200D01*
X105142857Y-72907200D02*
X105190476Y-72859580D01*
X105190476Y-72859580D02*
X105238095Y-72764342D01*
X105238095Y-72764342D02*
X105238095Y-72669104D01*
X105238095Y-72669104D02*
X105190476Y-72573866D01*
X105190476Y-72573866D02*
X105142857Y-72526247D01*
X105142857Y-72526247D02*
X105047619Y-72478628D01*
X105047619Y-72478628D02*
X104857143Y-72431009D01*
X104857143Y-72431009D02*
X104761905Y-72383390D01*
X104761905Y-72383390D02*
X104714286Y-72335771D01*
X104714286Y-72335771D02*
X104666667Y-72240533D01*
X104666667Y-72240533D02*
X104666667Y-72145295D01*
X104666667Y-72145295D02*
X104714286Y-72050057D01*
X104714286Y-72050057D02*
X104761905Y-72002438D01*
X104761905Y-72002438D02*
X104857143Y-71954819D01*
X104857143Y-71954819D02*
X105095238Y-71954819D01*
X105095238Y-71954819D02*
X105238095Y-72002438D01*
X105571429Y-71954819D02*
X105809524Y-72954819D01*
X105809524Y-72954819D02*
X106000000Y-72240533D01*
X106000000Y-72240533D02*
X106190476Y-72954819D01*
X106190476Y-72954819D02*
X106428572Y-71954819D01*
X107333333Y-72954819D02*
X106761905Y-72954819D01*
X107047619Y-72954819D02*
X107047619Y-71954819D01*
X107047619Y-71954819D02*
X106952381Y-72097676D01*
X106952381Y-72097676D02*
X106857143Y-72192914D01*
X106857143Y-72192914D02*
X106761905Y-72240533D01*
X183144819Y-60333333D02*
X183859104Y-60333333D01*
X183859104Y-60333333D02*
X184001961Y-60380952D01*
X184001961Y-60380952D02*
X184097200Y-60476190D01*
X184097200Y-60476190D02*
X184144819Y-60619047D01*
X184144819Y-60619047D02*
X184144819Y-60714285D01*
X183144819Y-59428571D02*
X183144819Y-59619047D01*
X183144819Y-59619047D02*
X183192438Y-59714285D01*
X183192438Y-59714285D02*
X183240057Y-59761904D01*
X183240057Y-59761904D02*
X183382914Y-59857142D01*
X183382914Y-59857142D02*
X183573390Y-59904761D01*
X183573390Y-59904761D02*
X183954342Y-59904761D01*
X183954342Y-59904761D02*
X184049580Y-59857142D01*
X184049580Y-59857142D02*
X184097200Y-59809523D01*
X184097200Y-59809523D02*
X184144819Y-59714285D01*
X184144819Y-59714285D02*
X184144819Y-59523809D01*
X184144819Y-59523809D02*
X184097200Y-59428571D01*
X184097200Y-59428571D02*
X184049580Y-59380952D01*
X184049580Y-59380952D02*
X183954342Y-59333333D01*
X183954342Y-59333333D02*
X183716247Y-59333333D01*
X183716247Y-59333333D02*
X183621009Y-59380952D01*
X183621009Y-59380952D02*
X183573390Y-59428571D01*
X183573390Y-59428571D02*
X183525771Y-59523809D01*
X183525771Y-59523809D02*
X183525771Y-59714285D01*
X183525771Y-59714285D02*
X183573390Y-59809523D01*
X183573390Y-59809523D02*
X183621009Y-59857142D01*
X183621009Y-59857142D02*
X183716247Y-59904761D01*
X181166666Y-89454819D02*
X181166666Y-90169104D01*
X181166666Y-90169104D02*
X181119047Y-90311961D01*
X181119047Y-90311961D02*
X181023809Y-90407200D01*
X181023809Y-90407200D02*
X180880952Y-90454819D01*
X180880952Y-90454819D02*
X180785714Y-90454819D01*
X182119047Y-89454819D02*
X181642857Y-89454819D01*
X181642857Y-89454819D02*
X181595238Y-89931009D01*
X181595238Y-89931009D02*
X181642857Y-89883390D01*
X181642857Y-89883390D02*
X181738095Y-89835771D01*
X181738095Y-89835771D02*
X181976190Y-89835771D01*
X181976190Y-89835771D02*
X182071428Y-89883390D01*
X182071428Y-89883390D02*
X182119047Y-89931009D01*
X182119047Y-89931009D02*
X182166666Y-90026247D01*
X182166666Y-90026247D02*
X182166666Y-90264342D01*
X182166666Y-90264342D02*
X182119047Y-90359580D01*
X182119047Y-90359580D02*
X182071428Y-90407200D01*
X182071428Y-90407200D02*
X181976190Y-90454819D01*
X181976190Y-90454819D02*
X181738095Y-90454819D01*
X181738095Y-90454819D02*
X181642857Y-90407200D01*
X181642857Y-90407200D02*
X181595238Y-90359580D01*
X165256905Y-57494819D02*
X165256905Y-56494819D01*
X165256905Y-56494819D02*
X165495000Y-56494819D01*
X165495000Y-56494819D02*
X165637857Y-56542438D01*
X165637857Y-56542438D02*
X165733095Y-56637676D01*
X165733095Y-56637676D02*
X165780714Y-56732914D01*
X165780714Y-56732914D02*
X165828333Y-56923390D01*
X165828333Y-56923390D02*
X165828333Y-57066247D01*
X165828333Y-57066247D02*
X165780714Y-57256723D01*
X165780714Y-57256723D02*
X165733095Y-57351961D01*
X165733095Y-57351961D02*
X165637857Y-57447200D01*
X165637857Y-57447200D02*
X165495000Y-57494819D01*
X165495000Y-57494819D02*
X165256905Y-57494819D01*
X166780714Y-57494819D02*
X166209286Y-57494819D01*
X166495000Y-57494819D02*
X166495000Y-56494819D01*
X166495000Y-56494819D02*
X166399762Y-56637676D01*
X166399762Y-56637676D02*
X166304524Y-56732914D01*
X166304524Y-56732914D02*
X166209286Y-56780533D01*
D13*
%TO.C,J8*%
X180170000Y-112270000D02*
X180170000Y-122490000D01*
X180170000Y-112270000D02*
X182830000Y-112270000D01*
X180170000Y-122490000D02*
X182830000Y-122490000D01*
X181500000Y-109670000D02*
X182830000Y-109670000D01*
X182830000Y-109670000D02*
X182830000Y-111000000D01*
X182830000Y-112270000D02*
X182830000Y-122490000D01*
%TO.C,U4*%
X151500000Y-95440000D02*
X151500000Y-70010000D01*
X151500000Y-95440000D02*
X154040000Y-95440000D01*
X154040000Y-95440000D02*
X154040000Y-102340000D01*
X154040000Y-102340000D02*
X177360000Y-102340000D01*
X175240000Y-67880000D02*
X153630000Y-67880000D01*
X177360000Y-102340000D02*
X177360000Y-70010000D01*
X151500000Y-70010000D02*
G75*
G02*
X153630000Y-67880000I2130002J-2D01*
G01*
X175230000Y-67880000D02*
G75*
G02*
X177360000Y-70010000I0J-2130000D01*
G01*
D12*
X151095000Y-76220000D02*
X150460000Y-76855000D01*
X150460000Y-75585000D01*
X151095000Y-76220000D01*
G36*
X151095000Y-76220000D02*
G01*
X150460000Y-76855000D01*
X150460000Y-75585000D01*
X151095000Y-76220000D01*
G37*
D13*
%TO.C,U1*%
X115640000Y-140720000D02*
X115640000Y-115290000D01*
X115640000Y-140720000D02*
X118180000Y-140720000D01*
X118180000Y-140720000D02*
X118180000Y-147620000D01*
X118180000Y-147620000D02*
X141500000Y-147620000D01*
X139380000Y-113160000D02*
X117770000Y-113160000D01*
X141500000Y-147620000D02*
X141500000Y-115290000D01*
X115640000Y-115290000D02*
G75*
G02*
X117770000Y-113160000I2130002J-2D01*
G01*
X139370000Y-113160000D02*
G75*
G02*
X141500000Y-115290000I0J-2130000D01*
G01*
D12*
X115235000Y-121500000D02*
X114600000Y-122135000D01*
X114600000Y-120865000D01*
X115235000Y-121500000D01*
G36*
X115235000Y-121500000D02*
G01*
X114600000Y-122135000D01*
X114600000Y-120865000D01*
X115235000Y-121500000D01*
G37*
D13*
%TO.C,R1*%
X180770000Y-61370000D02*
X174230000Y-61370000D01*
X180770000Y-61040000D02*
X180770000Y-61370000D01*
X180770000Y-58960000D02*
X180770000Y-58630000D01*
X180770000Y-58630000D02*
X174230000Y-58630000D01*
X174230000Y-61370000D02*
X174230000Y-61040000D01*
X174230000Y-58630000D02*
X174230000Y-58960000D01*
%TO.C,J4*%
X189200000Y-107700000D02*
X189200000Y-108300000D01*
X189439000Y-107940000D02*
X189439000Y-148060000D01*
X190040000Y-107700000D02*
X189200000Y-107700000D01*
X190100000Y-107940000D02*
X190100000Y-148060000D01*
X190700000Y-107940000D02*
X190700000Y-148060000D01*
X191784000Y-114490000D02*
X191726000Y-114431000D01*
X191784000Y-119490000D02*
X191726000Y-119431000D01*
X191784000Y-124490000D02*
X191726000Y-124431000D01*
X191784000Y-129490000D02*
X191726000Y-129431000D01*
X191784000Y-134490000D02*
X191726000Y-134431000D01*
X191784000Y-139490000D02*
X191726000Y-139431000D01*
X191784000Y-144490000D02*
X191726000Y-144431000D01*
X192024000Y-114320000D02*
X191931000Y-114226000D01*
X192024000Y-119320000D02*
X191931000Y-119226000D01*
X192024000Y-124320000D02*
X191931000Y-124226000D01*
X192024000Y-129320000D02*
X191931000Y-129226000D01*
X192024000Y-134320000D02*
X191931000Y-134226000D01*
X192024000Y-139320000D02*
X191931000Y-139226000D01*
X192024000Y-144320000D02*
X191931000Y-144226000D01*
X194069000Y-116775000D02*
X193976000Y-116681000D01*
X194069000Y-121775000D02*
X193976000Y-121681000D01*
X194069000Y-126775000D02*
X193976000Y-126681000D01*
X194069000Y-131775000D02*
X193976000Y-131681000D01*
X194069000Y-136775000D02*
X193976000Y-136681000D01*
X194069000Y-141775000D02*
X193976000Y-141681000D01*
X194069000Y-146775000D02*
X193976000Y-146681000D01*
X194275000Y-116570000D02*
X194216000Y-116511000D01*
X194275000Y-121570000D02*
X194216000Y-121511000D01*
X194275000Y-126570000D02*
X194216000Y-126511000D01*
X194275000Y-131570000D02*
X194216000Y-131511000D01*
X194275000Y-136570000D02*
X194216000Y-136511000D01*
X194275000Y-141570000D02*
X194216000Y-141511000D01*
X194275000Y-146570000D02*
X194216000Y-146511000D01*
X195400000Y-107940000D02*
X195400000Y-148060000D01*
X197160000Y-107940000D02*
X189439000Y-107940000D01*
X197160000Y-107940000D02*
X197160000Y-148060000D01*
X197160000Y-148060000D02*
X189439000Y-148060000D01*
X191319550Y-110529383D02*
G75*
G02*
X191516000Y-109711000I1680445J29385D01*
G01*
X191516648Y-111288712D02*
G75*
G02*
X191320000Y-110500000I1483352J788712D01*
G01*
X192210911Y-109016047D02*
G75*
G02*
X193789000Y-109016000I789089J-1483948D01*
G01*
X193789089Y-111983953D02*
G75*
G02*
X192211000Y-111984000I-789089J1483953D01*
G01*
X194483953Y-109710911D02*
G75*
G02*
X194484000Y-111289000I-1483948J-789089D01*
G01*
X194680000Y-115500000D02*
G75*
G02*
X191320000Y-115500000I-1680000J0D01*
G01*
X191320000Y-115500000D02*
G75*
G02*
X194680000Y-115500000I1680000J0D01*
G01*
X194680000Y-120500000D02*
G75*
G02*
X191320000Y-120500000I-1680000J0D01*
G01*
X191320000Y-120500000D02*
G75*
G02*
X194680000Y-120500000I1680000J0D01*
G01*
X194680000Y-125500000D02*
G75*
G02*
X191320000Y-125500000I-1680000J0D01*
G01*
X191320000Y-125500000D02*
G75*
G02*
X194680000Y-125500000I1680000J0D01*
G01*
X194680000Y-130500000D02*
G75*
G02*
X191320000Y-130500000I-1680000J0D01*
G01*
X191320000Y-130500000D02*
G75*
G02*
X194680000Y-130500000I1680000J0D01*
G01*
X194680000Y-135500000D02*
G75*
G02*
X191320000Y-135500000I-1680000J0D01*
G01*
X191320000Y-135500000D02*
G75*
G02*
X194680000Y-135500000I1680000J0D01*
G01*
X194680000Y-140500000D02*
G75*
G02*
X191320000Y-140500000I-1680000J0D01*
G01*
X191320000Y-140500000D02*
G75*
G02*
X194680000Y-140500000I1680000J0D01*
G01*
X194680000Y-145500000D02*
G75*
G02*
X191320000Y-145500000I-1680000J0D01*
G01*
X191320000Y-145500000D02*
G75*
G02*
X194680000Y-145500000I1680000J0D01*
G01*
X196550000Y-110500000D02*
G75*
G02*
X195450000Y-110500000I-550000J0D01*
G01*
X195450000Y-110500000D02*
G75*
G02*
X196550000Y-110500000I550000J0D01*
G01*
X196550000Y-115500000D02*
G75*
G02*
X195450000Y-115500000I-550000J0D01*
G01*
X195450000Y-115500000D02*
G75*
G02*
X196550000Y-115500000I550000J0D01*
G01*
X196550000Y-120500000D02*
G75*
G02*
X195450000Y-120500000I-550000J0D01*
G01*
X195450000Y-120500000D02*
G75*
G02*
X196550000Y-120500000I550000J0D01*
G01*
X196550000Y-125500000D02*
G75*
G02*
X195450000Y-125500000I-550000J0D01*
G01*
X195450000Y-125500000D02*
G75*
G02*
X196550000Y-125500000I550000J0D01*
G01*
X196550000Y-130500000D02*
G75*
G02*
X195450000Y-130500000I-550000J0D01*
G01*
X195450000Y-130500000D02*
G75*
G02*
X196550000Y-130500000I550000J0D01*
G01*
X196550000Y-135500000D02*
G75*
G02*
X195450000Y-135500000I-550000J0D01*
G01*
X195450000Y-135500000D02*
G75*
G02*
X196550000Y-135500000I550000J0D01*
G01*
X196550000Y-140500000D02*
G75*
G02*
X195450000Y-140500000I-550000J0D01*
G01*
X195450000Y-140500000D02*
G75*
G02*
X196550000Y-140500000I550000J0D01*
G01*
X196550000Y-145500000D02*
G75*
G02*
X195450000Y-145500000I-550000J0D01*
G01*
X195450000Y-145500000D02*
G75*
G02*
X196550000Y-145500000I550000J0D01*
G01*
%TO.C,J3*%
X189200000Y-58200000D02*
X189200000Y-58800000D01*
X189439000Y-58440000D02*
X189439000Y-98560000D01*
X190040000Y-58200000D02*
X189200000Y-58200000D01*
X190100000Y-58440000D02*
X190100000Y-98560000D01*
X190700000Y-58440000D02*
X190700000Y-98560000D01*
X191784000Y-64990000D02*
X191726000Y-64931000D01*
X191784000Y-69990000D02*
X191726000Y-69931000D01*
X191784000Y-74990000D02*
X191726000Y-74931000D01*
X191784000Y-79990000D02*
X191726000Y-79931000D01*
X191784000Y-84990000D02*
X191726000Y-84931000D01*
X191784000Y-89990000D02*
X191726000Y-89931000D01*
X191784000Y-94990000D02*
X191726000Y-94931000D01*
X192024000Y-64820000D02*
X191931000Y-64726000D01*
X192024000Y-69820000D02*
X191931000Y-69726000D01*
X192024000Y-74820000D02*
X191931000Y-74726000D01*
X192024000Y-79820000D02*
X191931000Y-79726000D01*
X192024000Y-84820000D02*
X191931000Y-84726000D01*
X192024000Y-89820000D02*
X191931000Y-89726000D01*
X192024000Y-94820000D02*
X191931000Y-94726000D01*
X194069000Y-67275000D02*
X193976000Y-67181000D01*
X194069000Y-72275000D02*
X193976000Y-72181000D01*
X194069000Y-77275000D02*
X193976000Y-77181000D01*
X194069000Y-82275000D02*
X193976000Y-82181000D01*
X194069000Y-87275000D02*
X193976000Y-87181000D01*
X194069000Y-92275000D02*
X193976000Y-92181000D01*
X194069000Y-97275000D02*
X193976000Y-97181000D01*
X194275000Y-67070000D02*
X194216000Y-67011000D01*
X194275000Y-72070000D02*
X194216000Y-72011000D01*
X194275000Y-77070000D02*
X194216000Y-77011000D01*
X194275000Y-82070000D02*
X194216000Y-82011000D01*
X194275000Y-87070000D02*
X194216000Y-87011000D01*
X194275000Y-92070000D02*
X194216000Y-92011000D01*
X194275000Y-97070000D02*
X194216000Y-97011000D01*
X195400000Y-58440000D02*
X195400000Y-98560000D01*
X197160000Y-58440000D02*
X189439000Y-58440000D01*
X197160000Y-58440000D02*
X197160000Y-98560000D01*
X197160000Y-98560000D02*
X189439000Y-98560000D01*
X191319550Y-61029383D02*
G75*
G02*
X191516000Y-60211000I1680445J29385D01*
G01*
X191516648Y-61788712D02*
G75*
G02*
X191320000Y-61000000I1483352J788712D01*
G01*
X192210911Y-59516047D02*
G75*
G02*
X193789000Y-59516000I789089J-1483948D01*
G01*
X193789089Y-62483953D02*
G75*
G02*
X192211000Y-62484000I-789089J1483953D01*
G01*
X194483953Y-60210911D02*
G75*
G02*
X194484000Y-61789000I-1483948J-789089D01*
G01*
X194680000Y-66000000D02*
G75*
G02*
X191320000Y-66000000I-1680000J0D01*
G01*
X191320000Y-66000000D02*
G75*
G02*
X194680000Y-66000000I1680000J0D01*
G01*
X194680000Y-71000000D02*
G75*
G02*
X191320000Y-71000000I-1680000J0D01*
G01*
X191320000Y-71000000D02*
G75*
G02*
X194680000Y-71000000I1680000J0D01*
G01*
X194680000Y-76000000D02*
G75*
G02*
X191320000Y-76000000I-1680000J0D01*
G01*
X191320000Y-76000000D02*
G75*
G02*
X194680000Y-76000000I1680000J0D01*
G01*
X194680000Y-81000000D02*
G75*
G02*
X191320000Y-81000000I-1680000J0D01*
G01*
X191320000Y-81000000D02*
G75*
G02*
X194680000Y-81000000I1680000J0D01*
G01*
X194680000Y-86000000D02*
G75*
G02*
X191320000Y-86000000I-1680000J0D01*
G01*
X191320000Y-86000000D02*
G75*
G02*
X194680000Y-86000000I1680000J0D01*
G01*
X194680000Y-91000000D02*
G75*
G02*
X191320000Y-91000000I-1680000J0D01*
G01*
X191320000Y-91000000D02*
G75*
G02*
X194680000Y-91000000I1680000J0D01*
G01*
X194680000Y-96000000D02*
G75*
G02*
X191320000Y-96000000I-1680000J0D01*
G01*
X191320000Y-96000000D02*
G75*
G02*
X194680000Y-96000000I1680000J0D01*
G01*
X196550000Y-61000000D02*
G75*
G02*
X195450000Y-61000000I-550000J0D01*
G01*
X195450000Y-61000000D02*
G75*
G02*
X196550000Y-61000000I550000J0D01*
G01*
X196550000Y-66000000D02*
G75*
G02*
X195450000Y-66000000I-550000J0D01*
G01*
X195450000Y-66000000D02*
G75*
G02*
X196550000Y-66000000I550000J0D01*
G01*
X196550000Y-71000000D02*
G75*
G02*
X195450000Y-71000000I-550000J0D01*
G01*
X195450000Y-71000000D02*
G75*
G02*
X196550000Y-71000000I550000J0D01*
G01*
X196550000Y-76000000D02*
G75*
G02*
X195450000Y-76000000I-550000J0D01*
G01*
X195450000Y-76000000D02*
G75*
G02*
X196550000Y-76000000I550000J0D01*
G01*
X196550000Y-81000000D02*
G75*
G02*
X195450000Y-81000000I-550000J0D01*
G01*
X195450000Y-81000000D02*
G75*
G02*
X196550000Y-81000000I550000J0D01*
G01*
X196550000Y-86000000D02*
G75*
G02*
X195450000Y-86000000I-550000J0D01*
G01*
X195450000Y-86000000D02*
G75*
G02*
X196550000Y-86000000I550000J0D01*
G01*
X196550000Y-91000000D02*
G75*
G02*
X195450000Y-91000000I-550000J0D01*
G01*
X195450000Y-91000000D02*
G75*
G02*
X196550000Y-91000000I550000J0D01*
G01*
X196550000Y-96000000D02*
G75*
G02*
X195450000Y-96000000I-550000J0D01*
G01*
X195450000Y-96000000D02*
G75*
G02*
X196550000Y-96000000I550000J0D01*
G01*
%TO.C,U2*%
X151640000Y-140720000D02*
X151640000Y-115290000D01*
X151640000Y-140720000D02*
X154180000Y-140720000D01*
X154180000Y-140720000D02*
X154180000Y-147620000D01*
X154180000Y-147620000D02*
X177500000Y-147620000D01*
X175380000Y-113160000D02*
X153770000Y-113160000D01*
X177500000Y-147620000D02*
X177500000Y-115290000D01*
X151640000Y-115290000D02*
G75*
G02*
X153770000Y-113160000I2130002J-2D01*
G01*
X175370000Y-113160000D02*
G75*
G02*
X177500000Y-115290000I0J-2130000D01*
G01*
D12*
X151235000Y-121500000D02*
X150600000Y-122135000D01*
X150600000Y-120865000D01*
X151235000Y-121500000D01*
G36*
X151235000Y-121500000D02*
G01*
X150600000Y-122135000D01*
X150600000Y-120865000D01*
X151235000Y-121500000D01*
G37*
D13*
%TO.C,J2*%
X145670000Y-120185000D02*
X147000000Y-120185000D01*
X145670000Y-121515000D02*
X145670000Y-120185000D01*
X145670000Y-122785000D02*
X145670000Y-140625000D01*
X145670000Y-122785000D02*
X148330000Y-122785000D01*
X145670000Y-140625000D02*
X148330000Y-140625000D01*
X148330000Y-122785000D02*
X148330000Y-140625000D01*
%TO.C,U3*%
X115500000Y-95440000D02*
X115500000Y-70010000D01*
X115500000Y-95440000D02*
X118040000Y-95440000D01*
X118040000Y-95440000D02*
X118040000Y-102340000D01*
X118040000Y-102340000D02*
X141360000Y-102340000D01*
X139240000Y-67880000D02*
X117630000Y-67880000D01*
X141360000Y-102340000D02*
X141360000Y-70010000D01*
X115500000Y-70010000D02*
G75*
G02*
X117630000Y-67880000I2130002J-2D01*
G01*
X139230000Y-67880000D02*
G75*
G02*
X141360000Y-70010000I0J-2130000D01*
G01*
D12*
X115095000Y-76220000D02*
X114460000Y-76855000D01*
X114460000Y-75585000D01*
X115095000Y-76220000D01*
G36*
X115095000Y-76220000D02*
G01*
X114460000Y-76855000D01*
X114460000Y-75585000D01*
X115095000Y-76220000D01*
G37*
D13*
%TO.C,J1*%
X106170000Y-120185000D02*
X107500000Y-120185000D01*
X106170000Y-121515000D02*
X106170000Y-120185000D01*
X106170000Y-122785000D02*
X106170000Y-140625000D01*
X106170000Y-122785000D02*
X108830000Y-122785000D01*
X106170000Y-140625000D02*
X108830000Y-140625000D01*
X108830000Y-122785000D02*
X108830000Y-140625000D01*
%TO.C,SW1*%
X102750000Y-75750000D02*
X102750000Y-80250000D01*
X105250000Y-81500000D02*
X106750000Y-81500000D01*
X106750000Y-74500000D02*
X105250000Y-74500000D01*
X109250000Y-80250000D02*
X109250000Y-75750000D01*
%TO.C,J6*%
X180170000Y-77270000D02*
X180170000Y-87490000D01*
X180170000Y-77270000D02*
X182830000Y-77270000D01*
X180170000Y-87490000D02*
X182830000Y-87490000D01*
X181500000Y-74670000D02*
X182830000Y-74670000D01*
X182830000Y-74670000D02*
X182830000Y-76000000D01*
X182830000Y-77270000D02*
X182830000Y-87490000D01*
%TO.C,J5*%
X180170000Y-93770000D02*
X180170000Y-103990000D01*
X180170000Y-93770000D02*
X182830000Y-93770000D01*
X180170000Y-103990000D02*
X182830000Y-103990000D01*
X181500000Y-91170000D02*
X182830000Y-91170000D01*
X182830000Y-91170000D02*
X182830000Y-92500000D01*
X182830000Y-93770000D02*
X182830000Y-103990000D01*
%TO.C,D1*%
X164435000Y-58764000D02*
X164435000Y-58920000D01*
X164435000Y-61080000D02*
X164435000Y-61236000D01*
X164435000Y-58764484D02*
G75*
G02*
X167667335Y-58921392I1560000J-1235516D01*
G01*
X164954039Y-58920000D02*
G75*
G02*
X167036130Y-58920163I1040961J-1080000D01*
G01*
X167036130Y-61079837D02*
G75*
G02*
X164954039Y-61080000I-1041130J1079837D01*
G01*
X167667335Y-61078608D02*
G75*
G02*
X164435000Y-61235516I-1672335J1078608D01*
G01*
%TD*%
M02*
